<svg width="33" height="47" viewBox="0 0 33 47" fill="none" xmlns="http://www.w3.org/2000/svg">
<path d="M5.2646 46.3141C7.32107 43.0371 6.97832 39.545 6.40708 36.0859C6.17858 34.6295 5.49309 33.2392 5.11771 31.7993C4.77496 30.4753 4.57911 29.1181 4.31797 27.7941C3.19181 28.092 2.40839 27.6617 1.83715 26.0728C1.23327 24.4012 0.759953 22.68 0.384566 20.9587C0.237675 20.3133 0.482495 19.5519 0.662028 18.8734C0.727313 18.6086 1.13534 18.2941 1.4128 18.2775C1.67394 18.261 2.00036 18.5589 2.22886 18.7906C2.44103 19.0058 2.53896 19.3368 2.68585 19.6016C2.75114 19.6016 2.83274 19.585 2.89803 19.585C2.91435 19.3202 2.94699 19.0554 2.94699 18.7906C2.94699 16.2584 2.88171 13.7261 3.43663 11.227C3.92626 8.9927 4.44854 6.74183 5.99905 5.00402C7.77806 3.01796 9.93245 1.69392 12.5928 1.14775C15.857 0.469178 19.0886 0.502279 22.206 1.61116C25.7966 2.88555 28.2938 5.35158 29.3057 9.20785C30.0238 11.9552 30.3666 14.7357 30.2197 17.5824C30.187 18.261 30.285 18.9396 30.4808 19.7174C30.5951 19.5188 30.693 19.2871 30.8562 19.1216C31.1826 18.8072 31.5254 18.3272 31.9008 18.2941C32.5373 18.2113 32.7331 18.9065 32.7495 19.3864C32.7821 20.4291 32.7658 21.4718 32.5862 22.4979C32.2925 24.2192 31.7375 25.8742 30.6604 27.2976C30.1054 28.0258 29.7627 28.1417 28.9956 27.7444C28.6202 29.3995 28.2775 31.0711 27.8368 32.7096C27.5593 33.7688 26.9881 34.7453 26.8249 35.8045C26.4005 38.5188 26.0578 41.2662 26.8902 43.964C27.135 44.7584 27.5267 45.5197 27.8694 46.3141C20.4107 46.3141 12.9029 46.3141 5.2646 46.3141Z" fill="#EAC0AC"/>
</svg>
