<svg width="143" height="352" viewBox="0 0 143 352" fill="none" xmlns="http://www.w3.org/2000/svg">
<path d="M6.76722 165.367C6.14169 166.134 5.54824 166.717 5.11518 167.434C4.07264 169.1 2.77346 170.317 0.784605 170.5C0.544017 170.517 0.09492 170.35 0.0628416 170.2C-0.0173542 169.817 -0.0494326 169.284 0.143038 168.984C0.784605 167.984 1.55448 167.067 2.26021 166.084C2.69327 165.467 3.1584 164.85 3.47919 164.15C4.84252 161.134 7.44086 159.617 10.1034 158.184C10.6166 157.9 11.194 157.75 11.6752 157.434C12.012 157.217 12.3649 156.884 12.5092 156.517C13.3272 154.384 14.1773 152.25 14.8189 150.05C15.7492 146.867 16.6153 143.65 17.337 140.417C17.8022 138.367 18.0267 136.233 18.2352 134.133C18.8928 127.65 19.6627 121.2 21.812 115.033C22.8064 112.183 24.0093 109.4 25.2764 106.683C26.8001 103.45 27.8427 100.05 28.6447 96.5665C29.5428 92.6165 30.4571 88.6831 31.1468 84.6831C31.8044 80.883 32.2374 77.0497 31.9006 73.133C31.4355 67.7496 32.5582 62.6829 35.2368 58.0329C36.7605 55.3995 38.7654 53.2828 41.7166 52.5328C43.1922 52.1662 44.764 51.9995 46.2717 52.0495C50.3938 52.1662 54.1149 50.8661 57.5312 48.6495C60.306 46.8494 61.7656 44.0661 61.7656 40.5994C61.7656 37.9327 61.5731 35.316 60.5787 32.766C59.921 31.0493 59.6805 29.166 59.2634 27.3826C58.5417 27.6993 58.0765 27.5826 57.5473 26.766C56.5047 25.1826 55.9113 23.3826 55.6386 21.4992C55.5103 20.6159 55.5103 19.6826 55.6386 18.7992C55.7027 18.3826 56.0877 17.8159 56.4566 17.6659C57.0019 17.4659 57.3227 18.0326 57.5312 18.5326C57.6114 18.7159 57.7237 18.8826 58.0284 19.0159C58.0284 18.6492 58.0284 18.2826 58.0284 17.9159C57.9803 14.9492 58.0284 11.9992 58.8304 9.11582C59.2795 7.5158 59.7125 5.91579 60.7711 4.63245C62.5194 2.46576 64.7328 1.04909 67.4595 0.465748C70.7315 -0.234258 74.0034 -0.200924 77.115 0.949085C80.8361 2.33243 83.226 5.09912 84.1242 9.19915C84.7016 11.8325 84.9742 14.4659 84.878 17.1659C84.862 17.7826 84.9261 18.3992 84.9582 19.2492C85.1828 18.8659 85.3111 18.6992 85.3752 18.5159C85.5837 17.9992 85.8885 17.5826 86.4819 17.6492C87.1075 17.7159 87.316 18.2992 87.2999 18.7992C87.2679 20.1326 87.2999 21.5159 86.9631 22.7826C86.5782 24.2159 85.9045 25.5659 85.2309 26.8826C84.8459 27.6326 84.3006 27.6826 83.5147 27.2493C83.242 29.7826 82.7127 32.216 81.6862 34.5494C81.3975 35.1994 81.4135 35.9994 81.3173 36.7327C81.0607 38.8494 80.8842 40.9827 81.4135 43.0827C82.1193 45.7828 83.7232 47.7828 86.0649 49.1328C88.6151 50.5995 91.3418 51.5995 94.2449 51.9828C95.0629 52.0828 95.8969 52.0662 96.731 52.0162C102.168 51.6828 105.905 54.3162 108.311 59.2329C110.332 63.3662 111.278 67.7329 111.086 72.383C110.974 74.9497 110.878 77.5497 111.134 80.0997C111.455 83.2831 112.016 86.4664 112.706 89.5831C113.652 93.8665 114.695 98.1332 115.93 102.35C116.555 104.517 117.662 106.533 118.592 108.6C120.726 113.367 122.394 118.283 123.244 123.45C123.789 126.75 124.206 130.083 124.559 133.417C125.249 140.034 126.676 146.45 128.954 152.667C129.419 153.917 129.804 155.2 130.365 156.4C130.59 156.884 131.119 157.317 131.6 157.55C134.198 158.734 136.572 160.25 138.497 162.45C138.802 162.8 138.93 163.317 139.203 163.734C140.213 165.234 141.272 166.717 142.282 168.234C142.571 168.667 142.86 169.15 142.972 169.667C143.116 170.317 142.683 170.567 142.106 170.517C140.374 170.367 139.139 169.35 138.128 167.967C137.519 167.117 136.877 166.3 136.251 165.467C136.139 165.517 136.027 165.567 135.915 165.6C136.043 166.65 136.155 167.684 136.316 168.717C136.717 171.367 138.048 173.634 139.058 176.05C139.7 177.6 140.277 179.2 140.839 180.801C140.951 181.117 140.983 181.534 140.903 181.867C140.823 182.184 140.566 182.517 140.293 182.667C140.149 182.751 139.78 182.517 139.572 182.351C138.24 181.217 137.615 179.567 136.781 178.084C135.963 176.65 135.177 175.2 134.359 173.75C134.279 173.617 134.198 173.45 134.086 173.367C133.942 173.25 133.749 173.167 133.573 173.084C133.525 173.334 133.38 173.617 133.429 173.834C133.669 174.784 133.99 175.717 134.231 176.65C134.968 179.45 135.69 182.251 136.396 185.051C136.62 185.951 136.364 187.051 135.899 187.151C135.097 187.317 134.696 186.617 134.359 186.067C133.91 185.351 133.573 184.517 133.284 183.701C132.386 181.101 131.536 178.5 130.654 175.9C130.493 175.45 130.253 175.017 129.996 174.617C129.9 174.484 129.595 174.367 129.467 174.417C129.339 174.467 129.242 174.784 129.258 174.95C129.708 178.217 130.205 181.467 130.638 184.734C130.734 185.501 130.686 186.284 130.622 187.067C130.606 187.284 130.285 187.617 130.092 187.634C129.804 187.667 129.307 187.584 129.194 187.367C128.713 186.467 128.2 185.551 127.975 184.567C127.302 181.667 126.788 178.734 126.179 175.817C126.067 175.267 125.826 174.767 125.65 174.234C125.537 174.234 125.409 174.25 125.297 174.25C125.104 175.517 124.88 176.784 124.719 178.067C124.527 179.567 124.431 181.084 124.222 182.584C124.142 183.217 124.046 184.067 123.196 184.001C122.394 183.934 122.346 183.084 122.346 182.451C122.329 180.35 122.297 178.234 122.474 176.15C122.618 174.284 122.153 172.55 121.816 170.767C121.223 167.6 120.549 164.417 120.902 161.167C121.143 158.917 120.549 156.867 119.843 154.817C116.828 146.05 113.813 137.3 110.717 128.567C110.011 126.567 109.081 124.65 108.183 122.733C107.092 120.35 106.387 117.833 105.97 115.233C105.424 111.733 104.542 108.35 103.387 105.017C101.767 100.35 100.179 95.6832 98.5755 91.0331C98.5113 90.8665 98.4311 90.6998 98.3028 90.4165C97.6933 93.7831 97.0518 96.9998 96.5225 100.25C95.9611 103.75 95.4799 107.267 95.0308 110.783C94.8063 112.533 94.6619 114.3 94.5657 116.067C94.3572 119.933 95.3035 123.483 97.0678 126.883C99.3293 131.217 100.741 135.9 101.575 140.767C102.2 144.4 102.826 148.034 103.307 151.684C103.708 154.667 103.981 157.667 104.141 160.667C104.43 166.15 104.735 171.634 104.735 177.117C104.735 180.334 104.221 183.551 103.852 186.751C103.58 189.101 103.195 191.434 102.874 193.767C102.505 196.401 102.104 199.051 101.767 201.701C101.463 204.184 101.222 206.684 100.933 209.167C100.677 211.434 100.388 213.717 100.163 215.984C99.9228 218.401 99.7142 220.834 99.4897 223.251C99.2331 226.084 98.9764 228.918 98.7359 231.751C98.5915 233.551 98.4472 235.334 98.383 237.134C98.2386 240.868 98.0783 244.618 98.0783 248.368C98.0783 251.668 98.3188 254.968 98.3349 258.251C98.3509 260.801 98.2547 263.351 98.0783 265.884C97.9018 268.268 97.581 270.651 97.2442 273.018C96.9074 275.418 96.5064 277.801 96.0894 280.168C95.3676 284.251 94.6459 288.318 93.876 292.385C93.2023 295.951 92.4485 299.518 91.7428 303.085C91.2776 305.452 90.7644 307.802 90.4436 310.202C90.2832 311.418 90.3474 312.718 90.588 313.918C90.9408 315.802 90.9569 317.668 90.6361 319.518C90.3313 321.268 90.4757 323.002 90.7804 324.702C91.3097 327.552 92.0154 330.352 92.5608 333.202C93.1542 336.318 93.6996 339.452 94.1647 342.602C94.3251 343.635 94.2609 344.702 94.1807 345.752C94.1166 346.502 93.7958 347.152 92.9938 347.435C92.7533 347.518 92.5929 347.919 92.4645 348.202C92.0636 349.102 91.6305 349.319 90.7804 349.002C90.1389 350.419 89.786 350.619 88.7755 350.285C88.3264 350.685 87.9736 351.052 87.5726 351.335C86.9471 351.769 86.5621 351.385 86.3857 350.769C86.1932 350.052 86.081 349.319 85.8885 348.619C85.8083 348.335 85.6319 348.069 85.5035 347.802C85.4073 347.835 85.3111 347.885 85.2148 347.919C85.3431 348.319 85.4554 348.719 85.5837 349.119C85.9045 350.135 85.7762 351.052 85.2629 351.402C84.6535 351.819 83.1137 351.769 82.5363 351.302C81.4777 350.469 80.7559 349.485 80.6757 348.002C80.6116 346.885 80.1785 345.802 80.1304 344.685C80.0663 342.868 80.0502 341.035 80.2748 339.235C80.5955 336.602 80.4352 334.002 80.371 331.368C80.3068 329.102 79.9379 326.902 79.2001 324.752C78.9595 324.052 79.0879 323.185 79.152 322.402C79.3124 320.568 79.5209 318.735 79.7615 316.902C80.0181 315.052 80.4512 313.218 80.5795 311.352C80.7399 309.152 80.772 306.918 80.6597 304.718C80.5154 301.685 80.2106 298.651 79.9219 295.618C79.6974 293.301 79.4247 291.001 79.152 288.701C78.8473 286.101 78.5586 283.501 78.1576 280.918C77.6123 277.401 77.3717 273.868 77.5641 270.335C77.7566 266.751 78.1416 263.168 78.4623 259.584C78.735 256.551 79.0718 253.534 79.2964 250.501C79.537 247.401 79.1841 244.368 78.4303 241.334C77.8849 239.168 77.7887 236.851 77.7406 234.584C77.6443 230.501 77.7085 226.418 77.7406 222.334C77.7727 218.334 77.8689 214.334 77.8689 210.334C77.8528 205.867 77.5802 201.417 76.9226 197.001C76.4093 193.484 75.8159 189.984 75.3347 186.467C74.9818 183.867 74.7894 181.251 74.5007 178.65C74.4686 178.4 74.3563 178.117 74.1959 177.917C73.2656 176.7 72.3193 175.5 71.3891 174.317C70.4748 175.5 69.4644 176.617 68.6784 177.884C68.3095 178.5 68.3577 179.417 68.2614 180.201C67.8123 183.551 67.3632 186.917 66.9141 190.267C66.5132 193.267 66.048 196.267 65.6791 199.267C64.6847 207.284 65.0536 215.334 65.0857 223.384C65.1017 228.051 65.1659 232.718 64.9734 237.368C64.8932 239.518 64.1875 241.634 63.8988 243.784C63.6582 245.534 63.3855 247.318 63.5138 249.051C63.7865 253.234 64.3639 257.401 64.6686 261.601C64.9734 265.851 65.2621 270.118 65.2621 274.368C65.2621 277.135 64.7328 279.901 64.412 282.668C64.1554 284.951 63.8506 287.218 63.578 289.485C63.3053 291.785 63.0487 294.085 62.8402 296.401C62.6317 298.568 62.4713 300.751 62.2948 302.935C62.1826 304.435 62.0703 305.918 61.9901 307.418C61.8457 310.435 62.5515 313.352 62.9845 316.302C63.1449 317.418 63.1289 318.552 63.2412 319.668C63.3214 320.452 63.3855 321.268 63.6261 322.018C64.011 323.202 63.8506 324.302 63.4497 325.402C62.6798 327.468 62.5194 329.635 62.4552 331.818C62.4232 333.018 62.2628 334.202 62.3109 335.385C62.4071 337.418 62.6958 339.452 62.7921 341.485C62.8402 342.718 62.7119 343.952 62.5996 345.185C62.5034 346.252 62.2307 347.302 62.1505 348.368C61.9901 350.419 59.8248 352.069 57.9963 351.485C57.2906 351.269 56.9538 350.735 57.0821 349.985C57.2104 349.285 57.4189 348.585 57.5954 347.885C57.5312 347.835 57.4831 347.802 57.4189 347.752C57.2746 347.969 57.05 348.152 57.0019 348.385C56.8415 349.052 56.8255 349.752 56.6009 350.385C56.4566 350.802 55.9914 351.419 55.7509 351.385C55.2857 351.319 54.8527 350.852 54.4196 350.535C54.3234 350.469 54.2913 350.302 54.2432 350.185C52.96 350.535 52.6553 350.352 52.0939 348.969C51.0514 349.235 50.6023 348.935 50.2494 347.802C50.1853 347.619 49.9928 347.402 49.8164 347.352C49.1106 347.135 48.7257 346.585 48.6776 345.919C48.5974 344.652 48.5332 343.368 48.7097 342.135C49.0465 339.885 49.5597 337.668 49.9928 335.435C50.6504 332.085 51.3882 328.735 51.9496 325.368C52.3185 323.185 52.4308 320.985 52.0939 318.718C51.8213 316.935 52.142 315.035 52.3666 313.202C52.6072 311.152 52.3185 309.185 51.9335 307.218C50.9552 302.218 49.9447 297.235 48.9663 292.235C48.3247 288.935 47.6671 285.618 47.0897 282.301C46.4963 278.885 45.9349 275.468 45.4537 272.035C45.0527 269.251 44.6999 266.451 44.5074 263.651C44.363 261.418 44.5234 259.151 44.5395 256.918C44.5876 252.251 44.6838 247.601 44.6517 242.934C44.6357 240.501 44.4593 238.068 44.2989 235.634C44.1225 233.018 43.8979 230.401 43.6894 227.784C43.5771 226.401 43.4649 225.034 43.3365 223.651C43.1441 221.567 42.9195 219.484 42.711 217.384C42.5346 215.651 42.3902 213.917 42.1978 212.184C41.9572 209.984 41.6845 207.801 41.4279 205.617C41.2033 203.734 40.9948 201.834 40.7542 199.951C40.4174 197.417 40.0485 194.884 39.6956 192.351C39.3588 189.901 39.0701 187.434 38.6691 185.001C37.8993 180.267 37.9634 175.5 38.0597 170.734C38.1398 167.25 38.3965 163.767 38.6691 160.284C38.9258 156.9 39.2305 153.517 39.6636 150.134C40.4495 143.984 41.3637 137.85 43.529 132.017C44.5555 129.25 45.9349 126.617 47.0095 123.85C47.5548 122.467 48.036 120.967 48.0841 119.5C48.1804 116.75 48.1323 113.95 47.8115 111.217C47.3143 106.8 46.5765 102.4 45.8868 97.9998C45.5018 95.5165 45.0046 93.0498 44.5074 90.2998C44.2347 90.9665 44.0262 91.3998 43.8658 91.8665C42.0534 97.2332 40.1608 102.583 38.4767 108C37.6908 110.517 37.2417 113.15 36.7444 115.75C36.1991 118.617 35.2688 121.35 34.0659 123.967C31.4996 129.55 29.6712 135.433 27.6021 141.217C25.9822 145.75 24.4584 150.317 22.9347 154.9C22.5177 156.167 22.245 157.484 21.9242 158.784C21.844 159.134 21.7959 159.5 21.844 159.85C22.4054 164.384 21.3789 168.717 20.5449 173.1C20.3043 174.367 20.4968 175.734 20.4807 177.067C20.4647 179.017 20.4647 180.984 20.3524 182.934C20.3364 183.284 19.8712 183.617 19.5986 183.951C19.2938 183.617 18.7806 183.334 18.7164 182.951C18.4598 181.467 18.3475 179.951 18.155 178.45C17.9786 177.017 17.7701 175.584 17.5776 174.15C17.4493 174.134 17.321 174.117 17.2087 174.1C16.9842 174.817 16.6955 175.5 16.5511 176.234C15.9897 178.95 15.5086 181.667 14.9151 184.384C14.7226 185.284 14.2736 186.117 13.9207 186.967C13.7282 187.434 13.3593 187.717 12.8461 187.584C12.3007 187.451 12.1564 187.051 12.2205 186.517C12.413 184.751 12.6055 182.967 12.7979 181.201C13.0385 179.1 13.2791 176.984 13.5197 174.884C13.5357 174.7 13.5197 174.5 13.5197 174.267C12.7659 174.267 12.5574 174.817 12.3649 175.35C11.7714 177.067 11.194 178.8 10.6006 180.517C10.0713 182.034 9.57407 183.567 8.98062 185.051C8.74004 185.634 8.32302 186.167 7.88996 186.634C7.66541 186.867 7.13612 187.117 6.95969 187.017C6.68702 186.834 6.47851 186.351 6.46247 185.984C6.4304 185.284 6.46247 184.534 6.6389 183.851C7.48898 180.617 8.40321 177.384 9.28537 174.15C9.39764 173.767 9.36556 173.334 9.26933 172.9C8.11451 173.834 7.5371 175.1 6.87949 176.3C5.9813 177.934 5.09914 179.584 4.15283 181.201C3.8962 181.634 3.51126 182.001 3.11029 182.317C2.51684 182.801 1.89131 182.534 1.95546 181.734C2.01962 180.767 2.18001 179.767 2.53287 178.867C3.59146 176.217 4.89063 173.667 5.83695 170.984C6.39832 169.417 6.49455 167.667 6.78326 166C6.92761 165.95 6.84741 165.75 6.76722 165.367Z" fill="#EAC0AC"/>
</svg>
