<svg width="33" height="47" viewBox="0 0 33 47" fill="none" xmlns="http://www.w3.org/2000/svg">
<mask id="path-1-inside-1_3027_43" fill="white">
<path d="M5.26436 46.3141C7.32083 43.0371 6.97808 39.545 6.40684 36.0859C6.17834 34.6295 5.49285 33.2392 5.11747 31.7993C4.77472 30.4753 4.57887 29.1181 4.31773 27.7941C3.19157 28.092 2.40815 27.6617 1.83691 26.0728C1.23303 24.4012 0.759709 22.68 0.384322 20.9587C0.237431 20.3133 0.482251 19.5519 0.661784 18.8734C0.727069 18.6086 1.1351 18.2941 1.41256 18.2775C1.6737 18.261 2.00012 18.5589 2.22862 18.7906C2.44079 19.0058 2.53872 19.3368 2.68561 19.6016C2.7509 19.6016 2.8325 19.585 2.89779 19.585C2.91411 19.3202 2.94675 19.0554 2.94675 18.7906C2.94675 16.2584 2.88147 13.7261 3.43639 11.227C3.92602 8.9927 4.4483 6.74183 5.99881 5.00402C7.77782 3.01796 9.93221 1.69392 12.5926 1.14775C15.8568 0.469178 19.0884 0.502279 22.2058 1.61116C25.7964 2.88555 28.2936 5.35158 29.3055 9.20785C30.0236 11.9552 30.3664 14.7357 30.2195 17.5824C30.1868 18.261 30.2848 18.9396 30.4806 19.7174C30.5949 19.5188 30.6928 19.2871 30.856 19.1216C31.1824 18.8072 31.5252 18.3272 31.9006 18.2941C32.5371 18.2113 32.7329 18.9065 32.7493 19.3864C32.7819 20.4291 32.7656 21.4718 32.586 22.4979C32.2923 24.2192 31.7373 25.8742 30.6602 27.2976C30.1052 28.0258 29.7625 28.1417 28.9954 27.7444C28.62 29.3995 28.2773 31.0711 27.8366 32.7096C27.5591 33.7688 26.9879 34.7453 26.8247 35.8045C26.4003 38.5188 26.0576 41.2662 26.89 43.964C27.1348 44.7584 27.5265 45.5197 27.8692 46.3141C20.4105 46.3141 12.9027 46.3141 5.26436 46.3141Z"/>
</mask>
<path d="M5.26436 46.3141L3.5703 45.251L1.64806 48.3141H5.26436V46.3141ZM6.40684 36.0859L4.43101 36.3959L4.43225 36.4038L4.43356 36.4118L6.40684 36.0859ZM5.11747 31.7993L3.18129 32.3005L3.18215 32.3038L5.11747 31.7993ZM4.31773 27.7941L6.27992 27.4071L5.86737 25.3154L3.80626 25.8606L4.31773 27.7941ZM1.83691 26.0728L3.71897 25.3962L3.71792 25.3933L1.83691 26.0728ZM0.384322 20.9587L2.33839 20.5325L2.33646 20.5237L2.33445 20.5149L0.384322 20.9587ZM0.661784 18.8734L2.59524 19.385L2.59958 19.3686L2.60364 19.3522L0.661784 18.8734ZM1.41256 18.2775L1.532 20.2739L1.53867 20.2735L1.41256 18.2775ZM2.22862 18.7906L3.65282 17.3864L3.65263 17.3863L2.22862 18.7906ZM2.68561 19.6016L0.936672 20.5718L1.50794 21.6016H2.68561V19.6016ZM2.89779 19.585V21.585H4.77832L4.894 19.708L2.89779 19.585ZM3.43639 11.227L5.38884 11.6605L5.39003 11.6551L3.43639 11.227ZM5.99881 5.00402L4.50907 3.66959L4.50646 3.67252L5.99881 5.00402ZM12.5926 1.14775L12.9948 3.1069L12.9996 3.10589L12.5926 1.14775ZM22.2058 1.61116L21.5355 3.4955L21.5368 3.49597L22.2058 1.61116ZM29.3055 9.20785L31.2405 8.70208L31.24 8.70023L29.3055 9.20785ZM30.2195 17.5824L28.2221 17.4793L28.2218 17.4861L30.2195 17.5824ZM30.4806 19.7174L28.5411 20.2056L29.7479 24.9998L32.214 20.715L30.4806 19.7174ZM30.856 19.1216L29.4685 17.6812L29.4499 17.699L29.4319 17.7173L30.856 19.1216ZM31.9006 18.2941L32.0762 20.2864L32.1175 20.2827L32.1586 20.2774L31.9006 18.2941ZM32.7493 19.3864L34.7483 19.3239L34.7481 19.3181L32.7493 19.3864ZM32.586 22.4979L30.6159 22.1531L30.6144 22.1615L32.586 22.4979ZM30.6602 27.2976L32.2508 28.5099L32.255 28.5044L30.6602 27.2976ZM28.9954 27.7444L29.9152 25.9685L27.6173 24.7783L27.0449 27.302L28.9954 27.7444ZM27.8366 32.7096L25.9052 32.1901L25.9019 32.2027L27.8366 32.7096ZM26.8247 35.8045L28.8007 36.1135L28.8013 36.1091L26.8247 35.8045ZM26.89 43.964L28.8013 43.375L28.8011 43.3743L26.89 43.964ZM27.8692 46.3141V48.3141H30.9101L29.7056 45.5219L27.8692 46.3141ZM6.95841 47.3772C9.44682 43.4119 8.95394 39.2348 8.38011 35.76L4.43356 36.4118C5.00222 39.8552 5.19483 42.6623 3.5703 45.251L6.95841 47.3772ZM8.38267 35.7759C8.23864 34.8579 7.9576 34.002 7.7062 33.2793C7.43728 32.5063 7.21413 31.9137 7.05278 31.2948L3.18215 32.3038C3.39618 33.1248 3.70347 33.9473 3.92827 34.5935C4.17057 35.2901 4.34654 35.8575 4.43101 36.3959L8.38267 35.7759ZM7.05364 31.2981C6.72905 30.0442 6.5688 28.8717 6.27992 27.4071L2.35553 28.1811C2.58893 29.3645 2.82038 30.9064 3.18129 32.3005L7.05364 31.2981ZM3.80626 25.8606C3.68947 25.8915 3.67388 25.8783 3.7278 25.8835C3.7983 25.8904 3.89105 25.9191 3.96991 25.9711C4.03771 26.0158 4.03176 26.036 3.97534 25.9507C3.91612 25.8612 3.82487 25.6907 3.71897 25.3962L-0.0451572 26.7494C0.298936 27.7065 0.830545 28.6926 1.76853 29.3109C2.80031 29.991 3.91475 29.9695 4.82919 29.7276L3.80626 25.8606ZM3.71792 25.3933C3.14919 23.819 2.69864 22.1844 2.33839 20.5325L-1.56975 21.3849C-1.17922 23.1756 -0.68314 24.9834 -0.0441133 26.7523L3.71792 25.3933ZM2.33445 20.5149C2.348 20.5744 2.32348 20.531 2.36781 20.2894C2.41465 20.0341 2.48542 19.8001 2.59524 19.385L-1.27168 18.3618C-1.34138 18.6252 -1.48279 19.1112 -1.56652 19.5675C-1.65277 20.0376 -1.72624 20.6976 -1.56581 21.4025L2.33445 20.5149ZM2.60364 19.3522C2.53173 19.6438 2.40325 19.8252 2.35007 19.894C2.28672 19.9759 2.23051 20.0257 2.19318 20.0551C2.15505 20.085 2.10083 20.1217 2.02209 20.1579C1.95662 20.1879 1.78613 20.2587 1.532 20.2739L1.29311 16.2811C0.579649 16.3238 0.0224051 16.6737 -0.277967 16.9097C-0.563008 17.1336 -1.09054 17.6259 -1.28007 18.3946L2.60364 19.3522ZM1.53867 20.2735C1.20636 20.2945 0.963403 20.2115 0.855798 20.1672C0.743059 20.1207 0.680787 20.0759 0.675135 20.0718C0.669937 20.0682 0.708906 20.0979 0.804603 20.1949L3.65263 17.3863C3.51983 17.2516 3.28133 17.0165 2.99052 16.8101C2.77871 16.6597 2.14338 16.2273 1.28644 16.2815L1.53867 20.2735ZM0.804411 20.1948C0.732595 20.1219 0.692307 20.0617 0.677749 20.0386C0.664127 20.017 0.664559 20.0142 0.682719 20.0516C0.691295 20.0693 0.701563 20.0911 0.71601 20.1225C0.724753 20.1414 0.752188 20.2014 0.767036 20.2335C0.804628 20.3147 0.863161 20.4393 0.936672 20.5718L4.43454 18.6314C4.43461 18.6315 4.42581 18.6154 4.3971 18.5534C4.3783 18.5128 4.32597 18.397 4.28046 18.3034C4.18721 18.1115 3.99502 17.7335 3.65282 17.3864L0.804411 20.1948ZM2.68561 21.6016C2.78189 21.6016 2.86229 21.5957 2.91083 21.5914C2.95861 21.5873 3.00277 21.5822 3.01631 21.5806C3.03949 21.578 3.03205 21.579 3.01998 21.58C3.00714 21.5812 2.96143 21.585 2.89779 21.585V17.585C2.8015 17.585 2.7211 17.5909 2.67256 17.5952C2.62479 17.5993 2.58063 17.6044 2.56709 17.606C2.5439 17.6086 2.55134 17.6076 2.56341 17.6066C2.57625 17.6054 2.62196 17.6016 2.68561 17.6016V21.6016ZM4.894 19.708C4.89961 19.6169 4.94675 19.1273 4.94675 18.7906H0.946746C0.946746 18.9835 0.9286 19.0235 0.901574 19.462L4.894 19.708ZM4.94675 18.7906C4.94675 16.1687 4.89261 13.8953 5.38883 11.6605L1.48394 10.7935C0.87032 13.5569 0.946746 16.3481 0.946746 18.7906H4.94675ZM5.39003 11.6551C5.89549 9.34859 6.34177 7.62375 7.49115 6.33552L4.50646 3.67252C2.55482 5.85991 1.95655 8.63681 1.48275 10.7989L5.39003 11.6551ZM7.48854 6.33845C9.00667 4.64362 10.7902 3.55949 12.9948 3.10689L12.1903 -0.811389C9.07423 -0.171651 6.54896 1.3923 4.50907 3.66959L7.48854 6.33845ZM12.9996 3.10589C15.9897 2.4843 18.8372 2.53568 21.5355 3.4955L22.876 -0.273179C19.3396 -1.53113 15.7238 -1.54594 12.1855 -0.810386L12.9996 3.10589ZM21.5368 3.49597C24.5573 4.568 26.541 6.5525 27.3709 9.71547L31.24 8.70023C30.0461 4.15066 27.0355 1.2031 22.8747 -0.273645L21.5368 3.49597ZM27.3705 9.71362C28.0438 12.2898 28.3571 14.864 28.2221 17.4793L32.2168 17.6855C32.3756 14.6074 32.0033 11.6206 31.2404 8.70208L27.3705 9.71362ZM28.2218 17.4861C28.1763 18.429 28.3171 19.3161 28.5411 20.2056L32.42 19.2292C32.2524 18.5631 32.1972 18.093 32.2171 17.6787L28.2218 17.4861ZM32.214 20.715C32.2618 20.6319 32.3048 20.5509 32.33 20.5035C32.3605 20.4461 32.3742 20.4207 32.386 20.4001C32.3963 20.3821 32.3932 20.389 32.3791 20.4091C32.3644 20.4298 32.3321 20.4731 32.28 20.5259L29.4319 17.7173C29.172 17.9809 29.0061 18.2529 28.9138 18.4141C28.8665 18.4969 28.8241 18.577 28.799 18.6241C28.7686 18.6812 28.7564 18.7036 28.7471 18.7198L32.214 20.715ZM32.2434 20.562C32.3116 20.4964 32.3735 20.4329 32.4253 20.3787C32.4759 20.3257 32.5267 20.2712 32.5649 20.2303C32.6528 20.1363 32.6973 20.0901 32.7316 20.0579C32.7456 20.0446 32.7477 20.0436 32.7393 20.0503C32.7313 20.0567 32.705 20.0772 32.6615 20.1035C32.5813 20.1521 32.3782 20.2597 32.0762 20.2864L31.7249 16.3018C31.2352 16.345 30.8485 16.525 30.5882 16.6828C30.3297 16.8395 30.126 17.017 29.9882 17.1469C29.849 17.278 29.7231 17.4129 29.6432 17.4983C29.5467 17.6016 29.5041 17.6469 29.4685 17.6812L32.2434 20.562ZM32.1586 20.2774C31.9253 20.3077 31.6157 20.2731 31.3163 20.104C31.0405 19.9484 30.8945 19.7476 30.8306 19.6383C30.7684 19.5318 30.7526 19.4606 30.7514 19.4555C30.7489 19.4448 30.7502 19.4477 30.7504 19.4547L34.7481 19.3181C34.734 18.9064 34.6474 18.2416 34.2842 17.6202C34.0898 17.2875 33.7745 16.8984 33.2825 16.6207C32.7668 16.3296 32.194 16.2391 31.6426 16.3108L32.1586 20.2774ZM30.7502 19.4489C30.7812 20.4398 30.7609 21.3249 30.6159 22.1531L34.556 22.8427C34.7702 21.6187 34.7825 20.4184 34.7483 19.3239L30.7502 19.4489ZM30.6144 22.1615C30.3539 23.6883 29.8861 25.0061 29.0653 26.0908L32.255 28.5044C33.5885 26.7423 34.2306 24.7501 34.5575 22.8343L30.6144 22.1615ZM29.0695 26.0853C28.9654 26.2218 28.9329 26.2463 28.9556 26.2264C28.9892 26.1969 29.1285 26.0843 29.3675 26.0173C29.619 25.9468 29.8302 25.9685 29.9423 25.9939C30.0277 26.0132 30.033 26.0295 29.9152 25.9685L28.0756 29.5203C28.5575 29.77 29.4279 30.1545 30.4471 29.8688C31.388 29.6051 31.9579 28.8943 32.2508 28.5099L29.0695 26.0853ZM27.0449 27.302C26.6571 29.0116 26.3321 30.6027 25.9052 32.1901L29.7679 33.2291C30.2224 31.5395 30.5828 29.7874 30.9458 28.1868L27.0449 27.302ZM25.9019 32.2027C25.8003 32.5904 25.6476 32.9565 25.4237 33.5322C25.2229 34.0487 24.9658 34.7353 24.848 35.4999L28.8013 36.1091C28.8467 35.8145 28.9568 35.4832 29.1518 34.9819C29.3237 34.5398 29.5953 33.888 29.7713 33.2165L25.9019 32.2027ZM24.8487 35.4955C24.4271 38.1916 23.9948 41.3643 24.9789 44.5537L28.8011 43.3743C28.1203 41.1681 28.3734 38.846 28.8006 36.1135L24.8487 35.4955ZM24.9786 44.553C25.2656 45.4842 25.7643 46.4839 26.0327 47.1063L29.7056 45.5219C29.2886 44.5554 29.0039 44.0326 28.8013 43.375L24.9786 44.553ZM27.8692 44.3141C27.8546 44.3141 27.84 44.3141 27.8255 44.3141C27.8109 44.3141 27.7963 44.3141 27.7817 44.3141C27.7672 44.3141 27.7526 44.3141 27.738 44.3141C27.7235 44.3141 27.7089 44.3141 27.6943 44.3141C27.6798 44.3141 27.6652 44.3141 27.6506 44.3141C27.6361 44.3141 27.6215 44.3141 27.6069 44.3141C27.5923 44.3141 27.5778 44.3141 27.5632 44.3141C27.5486 44.3141 27.5341 44.3141 27.5195 44.3141C27.5049 44.3141 27.4904 44.3141 27.4758 44.3141C27.4612 44.3141 27.4466 44.3141 27.4321 44.3141C27.4175 44.3141 27.4029 44.3141 27.3884 44.3141C27.3738 44.3141 27.3592 44.3141 27.3446 44.3141C27.3301 44.3141 27.3155 44.3141 27.3009 44.3141C27.2863 44.3141 27.2718 44.3141 27.2572 44.3141C27.2426 44.3141 27.2281 44.3141 27.2135 44.3141C27.1989 44.3141 27.1843 44.3141 27.1698 44.3141C27.1552 44.3141 27.1406 44.3141 27.126 44.3141C27.1115 44.3141 27.0969 44.3141 27.0823 44.3141C27.0677 44.3141 27.0532 44.3141 27.0386 44.3141C27.024 44.3141 27.0094 44.3141 26.9949 44.3141C26.9803 44.3141 26.9657 44.3141 26.9511 44.3141C26.9366 44.3141 26.922 44.3141 26.9074 44.3141C26.8928 44.3141 26.8783 44.3141 26.8637 44.3141C26.8491 44.3141 26.8345 44.3141 26.8199 44.3141C26.8054 44.3141 26.7908 44.3141 26.7762 44.3141C26.7616 44.3141 26.7471 44.3141 26.7325 44.3141C26.7179 44.3141 26.7033 44.3141 26.6887 44.3141C26.6742 44.3141 26.6596 44.3141 26.645 44.3141C26.6304 44.3141 26.6159 44.3141 26.6013 44.3141C26.5867 44.3141 26.5721 44.3141 26.5575 44.3141C26.543 44.3141 26.5284 44.3141 26.5138 44.3141C26.4992 44.3141 26.4846 44.3141 26.4701 44.3141C26.4555 44.3141 26.4409 44.3141 26.4263 44.3141C26.4117 44.3141 26.3972 44.3141 26.3826 44.3141C26.368 44.3141 26.3534 44.3141 26.3388 44.3141C26.3242 44.3141 26.3097 44.3141 26.2951 44.3141C26.2805 44.3141 26.2659 44.3141 26.2513 44.3141C26.2368 44.3141 26.2222 44.3141 26.2076 44.3141C26.193 44.3141 26.1784 44.3141 26.1638 44.3141C26.1493 44.3141 26.1347 44.3141 26.1201 44.3141C26.1055 44.3141 26.0909 44.3141 26.0763 44.3141C26.0617 44.3141 26.0472 44.3141 26.0326 44.3141C26.018 44.3141 26.0034 44.3141 25.9888 44.3141C25.9742 44.3141 25.9597 44.3141 25.9451 44.3141C25.9305 44.3141 25.9159 44.3141 25.9013 44.3141C25.8867 44.3141 25.8721 44.3141 25.8576 44.3141C25.843 44.3141 25.8284 44.3141 25.8138 44.3141C25.7992 44.3141 25.7846 44.3141 25.77 44.3141C25.7554 44.3141 25.7409 44.3141 25.7263 44.3141C25.7117 44.3141 25.6971 44.3141 25.6825 44.3141C25.6679 44.3141 25.6533 44.3141 25.6387 44.3141C25.6242 44.3141 25.6096 44.3141 25.595 44.3141C25.5804 44.3141 25.5658 44.3141 25.5512 44.3141C25.5366 44.3141 25.522 44.3141 25.5074 44.3141C25.4929 44.3141 25.4783 44.3141 25.4637 44.3141C25.4491 44.3141 25.4345 44.3141 25.4199 44.3141C25.4053 44.3141 25.3907 44.3141 25.3761 44.3141C25.3615 44.3141 25.3469 44.3141 25.3324 44.3141C25.3178 44.3141 25.3032 44.3141 25.2886 44.3141C25.274 44.3141 25.2594 44.3141 25.2448 44.3141C25.2302 44.3141 25.2156 44.3141 25.201 44.3141C25.1864 44.3141 25.1718 44.3141 25.1572 44.3141C25.1427 44.3141 25.1281 44.3141 25.1135 44.3141C25.0989 44.3141 25.0843 44.3141 25.0697 44.3141C25.0551 44.3141 25.0405 44.3141 25.0259 44.3141C25.0113 44.3141 24.9967 44.3141 24.9821 44.3141C24.9675 44.3141 24.9529 44.3141 24.9383 44.3141C24.9237 44.3141 24.9091 44.3141 24.8945 44.3141C24.8799 44.3141 24.8653 44.3141 24.8508 44.3141C24.8362 44.3141 24.8216 44.3141 24.807 44.3141C24.7924 44.3141 24.7778 44.3141 24.7632 44.3141C24.7486 44.3141 24.734 44.3141 24.7194 44.3141C24.7048 44.3141 24.6902 44.3141 24.6756 44.3141C24.661 44.3141 24.6464 44.3141 24.6318 44.3141C24.6172 44.3141 24.6026 44.3141 24.588 44.3141C24.5734 44.3141 24.5588 44.3141 24.5442 44.3141C24.5296 44.3141 24.515 44.3141 24.5004 44.3141C24.4858 44.3141 24.4712 44.3141 24.4566 44.3141C24.442 44.3141 24.4274 44.3141 24.4128 44.3141C24.3982 44.3141 24.3836 44.3141 24.369 44.3141C24.3544 44.3141 24.3398 44.3141 24.3252 44.3141C24.3106 44.3141 24.296 44.3141 24.2814 44.3141C24.2668 44.3141 24.2522 44.3141 24.2376 44.3141C24.223 44.3141 24.2084 44.3141 24.1938 44.3141C24.1791 44.3141 24.1645 44.3141 24.1499 44.3141C24.1353 44.3141 24.1207 44.3141 24.1061 44.3141C24.0915 44.3141 24.0769 44.3141 24.0623 44.3141C24.0477 44.3141 24.0331 44.3141 24.0185 44.3141C24.0039 44.3141 23.9893 44.3141 23.9747 44.3141C23.9601 44.3141 23.9455 44.3141 23.9309 44.3141C23.9163 44.3141 23.9017 44.3141 23.887 44.3141C23.8724 44.3141 23.8578 44.3141 23.8432 44.3141C23.8286 44.3141 23.814 44.3141 23.7994 44.3141C23.7848 44.3141 23.7702 44.3141 23.7556 44.3141C23.741 44.3141 23.7264 44.3141 23.7117 44.3141C23.6971 44.3141 23.6825 44.3141 23.6679 44.3141C23.6533 44.3141 23.6387 44.3141 23.6241 44.3141C23.6095 44.3141 23.5949 44.3141 23.5803 44.3141C23.5657 44.3141 23.551 44.3141 23.5364 44.3141C23.5218 44.3141 23.5072 44.3141 23.4926 44.3141C23.478 44.3141 23.4634 44.3141 23.4488 44.3141C23.4342 44.3141 23.4195 44.3141 23.4049 44.3141C23.3903 44.3141 23.3757 44.3141 23.3611 44.3141C23.3465 44.3141 23.3319 44.3141 23.3173 44.3141C23.3026 44.3141 23.288 44.3141 23.2734 44.3141C23.2588 44.3141 23.2442 44.3141 23.2296 44.3141C23.215 44.3141 23.2003 44.3141 23.1857 44.3141C23.1711 44.3141 23.1565 44.3141 23.1419 44.3141C23.1273 44.3141 23.1126 44.3141 23.098 44.3141C23.0834 44.3141 23.0688 44.3141 23.0542 44.3141C23.0396 44.3141 23.025 44.3141 23.0103 44.3141C22.9957 44.3141 22.9811 44.3141 22.9665 44.3141C22.9519 44.3141 22.9372 44.3141 22.9226 44.3141C22.908 44.3141 22.8934 44.3141 22.8788 44.3141C22.8642 44.3141 22.8495 44.3141 22.8349 44.3141C22.8203 44.3141 22.8057 44.3141 22.7911 44.3141C22.7764 44.3141 22.7618 44.3141 22.7472 44.3141C22.7326 44.3141 22.718 44.3141 22.7033 44.3141C22.6887 44.3141 22.6741 44.3141 22.6595 44.3141C22.6449 44.3141 22.6302 44.3141 22.6156 44.3141C22.601 44.3141 22.5864 44.3141 22.5718 44.3141C22.5571 44.3141 22.5425 44.3141 22.5279 44.3141C22.5133 44.3141 22.4986 44.3141 22.484 44.3141C22.4694 44.3141 22.4548 44.3141 22.4401 44.3141C22.4255 44.3141 22.4109 44.3141 22.3963 44.3141C22.3817 44.3141 22.367 44.3141 22.3524 44.3141C22.3378 44.3141 22.3232 44.3141 22.3085 44.3141C22.2939 44.3141 22.2793 44.3141 22.2647 44.3141C22.25 44.3141 22.2354 44.3141 22.2208 44.3141C22.2061 44.3141 22.1915 44.3141 22.1769 44.3141C22.1623 44.3141 22.1476 44.3141 22.133 44.3141C22.1184 44.3141 22.1038 44.3141 22.0891 44.3141C22.0745 44.3141 22.0599 44.3141 22.0452 44.3141C22.0306 44.3141 22.016 44.3141 22.0014 44.3141C21.9867 44.3141 21.9721 44.3141 21.9575 44.3141C21.9428 44.3141 21.9282 44.3141 21.9136 44.3141C21.899 44.3141 21.8843 44.3141 21.8697 44.3141C21.8551 44.3141 21.8404 44.3141 21.8258 44.3141C21.8112 44.3141 21.7965 44.3141 21.7819 44.3141C21.7673 44.3141 21.7526 44.3141 21.738 44.3141C21.7234 44.3141 21.7087 44.3141 21.6941 44.3141C21.6795 44.3141 21.6649 44.3141 21.6502 44.3141C21.6356 44.3141 21.621 44.3141 21.6063 44.3141C21.5917 44.3141 21.577 44.3141 21.5624 44.3141C21.5478 44.3141 21.5331 44.3141 21.5185 44.3141C21.5039 44.3141 21.4892 44.3141 21.4746 44.3141C21.46 44.3141 21.4453 44.3141 21.4307 44.3141C21.4161 44.3141 21.4014 44.3141 21.3868 44.3141C21.3722 44.3141 21.3575 44.3141 21.3429 44.3141C21.3282 44.3141 21.3136 44.3141 21.299 44.3141C21.2843 44.3141 21.2697 44.3141 21.2551 44.3141C21.2404 44.3141 21.2258 44.3141 21.2111 44.3141C21.1965 44.3141 21.1819 44.3141 21.1672 44.3141C21.1526 44.3141 21.1379 44.3141 21.1233 44.3141C21.1087 44.3141 21.094 44.3141 21.0794 44.3141C21.0647 44.3141 21.0501 44.3141 21.0355 44.3141C21.0208 44.3141 21.0062 44.3141 20.9915 44.3141C20.9769 44.3141 20.9623 44.3141 20.9476 44.3141C20.933 44.3141 20.9183 44.3141 20.9037 44.3141C20.889 44.3141 20.8744 44.3141 20.8598 44.3141C20.8451 44.3141 20.8305 44.3141 20.8158 44.3141C20.8012 44.3141 20.7865 44.3141 20.7719 44.3141C20.7572 44.3141 20.7426 44.3141 20.728 44.3141C20.7133 44.3141 20.6987 44.3141 20.684 44.3141C20.6694 44.3141 20.6547 44.3141 20.6401 44.3141C20.6254 44.3141 20.6108 44.3141 20.5961 44.3141C20.5815 44.3141 20.5669 44.3141 20.5522 44.3141C20.5376 44.3141 20.5229 44.3141 20.5083 44.3141C20.4936 44.3141 20.479 44.3141 20.4643 44.3141C20.4497 44.3141 20.435 44.3141 20.4204 44.3141C20.4057 44.3141 20.3911 44.3141 20.3764 44.3141C20.3618 44.3141 20.3471 44.3141 20.3325 44.3141C20.3178 44.3141 20.3032 44.3141 20.2885 44.3141C20.2739 44.3141 20.2592 44.3141 20.2446 44.3141C20.2299 44.3141 20.2153 44.3141 20.2006 44.3141C20.186 44.3141 20.1713 44.3141 20.1567 44.3141C20.142 44.3141 20.1274 44.3141 20.1127 44.3141C20.098 44.3141 20.0834 44.3141 20.0687 44.3141C20.0541 44.3141 20.0394 44.3141 20.0248 44.3141C20.0101 44.3141 19.9955 44.3141 19.9808 44.3141C19.9662 44.3141 19.9515 44.3141 19.9368 44.3141C19.9222 44.3141 19.9075 44.3141 19.8929 44.3141C19.8782 44.3141 19.8636 44.3141 19.8489 44.3141C19.8343 44.3141 19.8196 44.3141 19.8049 44.3141C19.7903 44.3141 19.7756 44.3141 19.761 44.3141C19.7463 44.3141 19.7317 44.3141 19.717 44.3141C19.7023 44.3141 19.6877 44.3141 19.673 44.3141C19.6584 44.3141 19.6437 44.3141 19.629 44.3141C19.6144 44.3141 19.5997 44.3141 19.5851 44.3141C19.5704 44.3141 19.5557 44.3141 19.5411 44.3141C19.5264 44.3141 19.5118 44.3141 19.4971 44.3141C19.4824 44.3141 19.4678 44.3141 19.4531 44.3141C19.4384 44.3141 19.4238 44.3141 19.4091 44.3141C19.3945 44.3141 19.3798 44.3141 19.3651 44.3141C19.3505 44.3141 19.3358 44.3141 19.3211 44.3141C19.3065 44.3141 19.2918 44.3141 19.2772 44.3141C19.2625 44.3141 19.2478 44.3141 19.2332 44.3141C19.2185 44.3141 19.2038 44.3141 19.1892 44.3141C19.1745 44.3141 19.1598 44.3141 19.1452 44.3141C19.1305 44.3141 19.1158 44.3141 19.1012 44.3141C19.0865 44.3141 19.0718 44.3141 19.0572 44.3141C19.0425 44.3141 19.0278 44.3141 19.0132 44.3141C18.9985 44.3141 18.9838 44.3141 18.9692 44.3141C18.9545 44.3141 18.9398 44.3141 18.9251 44.3141C18.9105 44.3141 18.8958 44.3141 18.8811 44.3141C18.8665 44.3141 18.8518 44.3141 18.8371 44.3141C18.8225 44.3141 18.8078 44.3141 18.7931 44.3141C18.7784 44.3141 18.7638 44.3141 18.7491 44.3141C18.7344 44.3141 18.7198 44.3141 18.7051 44.3141C18.6904 44.3141 18.6757 44.3141 18.6611 44.3141C18.6464 44.3141 18.6317 44.3141 18.617 44.3141C18.6024 44.3141 18.5877 44.3141 18.573 44.3141C18.5583 44.3141 18.5437 44.3141 18.529 44.3141C18.5143 44.3141 18.4996 44.3141 18.485 44.3141C18.4703 44.3141 18.4556 44.3141 18.4409 44.3141C18.4263 44.3141 18.4116 44.3141 18.3969 44.3141C18.3822 44.3141 18.3676 44.3141 18.3529 44.3141C18.3382 44.3141 18.3235 44.3141 18.3088 44.3141C18.2942 44.3141 18.2795 44.3141 18.2648 44.3141C18.2501 44.3141 18.2355 44.3141 18.2208 44.3141C18.2061 44.3141 18.1914 44.3141 18.1767 44.3141C18.1621 44.3141 18.1474 44.3141 18.1327 44.3141C18.118 44.3141 18.1033 44.3141 18.0886 44.3141C18.074 44.3141 18.0593 44.3141 18.0446 44.3141C18.0299 44.3141 18.0152 44.3141 18.0006 44.3141C17.9859 44.3141 17.9712 44.3141 17.9565 44.3141C17.9418 44.3141 17.9271 44.3141 17.9125 44.3141C17.8978 44.3141 17.8831 44.3141 17.8684 44.3141C17.8537 44.3141 17.839 44.3141 17.8243 44.3141C17.8097 44.3141 17.795 44.3141 17.7803 44.3141C17.7656 44.3141 17.7509 44.3141 17.7362 44.3141C17.7215 44.3141 17.7069 44.3141 17.6922 44.3141C17.6775 44.3141 17.6628 44.3141 17.6481 44.3141C17.6334 44.3141 17.6187 44.3141 17.604 44.3141C17.5894 44.3141 17.5747 44.3141 17.56 44.3141C17.5453 44.3141 17.5306 44.3141 17.5159 44.3141C17.5012 44.3141 17.4865 44.3141 17.4718 44.3141C17.4571 44.3141 17.4425 44.3141 17.4278 44.3141C17.4131 44.3141 17.3984 44.3141 17.3837 44.3141C17.369 44.3141 17.3543 44.3141 17.3396 44.3141C17.3249 44.3141 17.3102 44.3141 17.2955 44.3141C17.2808 44.3141 17.2661 44.3141 17.2514 44.3141C17.2368 44.3141 17.2221 44.3141 17.2074 44.3141C17.1927 44.3141 17.178 44.3141 17.1633 44.3141C17.1486 44.3141 17.1339 44.3141 17.1192 44.3141C17.1045 44.3141 17.0898 44.3141 17.0751 44.3141C17.0604 44.3141 17.0457 44.3141 17.031 44.3141C17.0163 44.3141 17.0016 44.3141 16.9869 44.3141C16.9722 44.3141 16.9575 44.3141 16.9428 44.3141C16.9281 44.3141 16.9134 44.3141 16.8987 44.3141C16.884 44.3141 16.8693 44.3141 16.8546 44.3141C16.8399 44.3141 16.8252 44.3141 16.8105 44.3141C16.7958 44.3141 16.7811 44.3141 16.7664 44.3141C16.7517 44.3141 16.737 44.3141 16.7223 44.3141C16.7076 44.3141 16.6929 44.3141 16.6782 44.3141C16.6635 44.3141 16.6488 44.3141 16.6341 44.3141C16.6194 44.3141 16.6047 44.3141 16.59 44.3141C16.5753 44.3141 16.5606 44.3141 16.5459 44.3141C16.5312 44.3141 16.5165 44.3141 16.5018 44.3141C16.4871 44.3141 16.4724 44.3141 16.4576 44.3141C16.4429 44.3141 16.4282 44.3141 16.4135 44.3141C16.3988 44.3141 16.3841 44.3141 16.3694 44.3141C16.3547 44.3141 16.34 44.3141 16.3253 44.3141C16.3106 44.3141 16.2959 44.3141 16.2812 44.3141C16.2664 44.3141 16.2517 44.3141 16.237 44.3141C16.2223 44.3141 16.2076 44.3141 16.1929 44.3141C16.1782 44.3141 16.1635 44.3141 16.1488 44.3141C16.1341 44.3141 16.1193 44.3141 16.1046 44.3141C16.0899 44.3141 16.0752 44.3141 16.0605 44.3141C16.0458 44.3141 16.0311 44.3141 16.0164 44.3141C16.0016 44.3141 15.9869 44.3141 15.9722 44.3141C15.9575 44.3141 15.9428 44.3141 15.9281 44.3141C15.9134 44.3141 15.8986 44.3141 15.8839 44.3141C15.8692 44.3141 15.8545 44.3141 15.8398 44.3141C15.8251 44.3141 15.8104 44.3141 15.7956 44.3141C15.7809 44.3141 15.7662 44.3141 15.7515 44.3141C15.7368 44.3141 15.722 44.3141 15.7073 44.3141C15.6926 44.3141 15.6779 44.3141 15.6632 44.3141C15.6485 44.3141 15.6337 44.3141 15.619 44.3141C15.6043 44.3141 15.5896 44.3141 15.5749 44.3141C15.5601 44.3141 15.5454 44.3141 15.5307 44.3141C15.516 44.3141 15.5013 44.3141 15.4865 44.3141C15.4718 44.3141 15.4571 44.3141 15.4424 44.3141C15.4276 44.3141 15.4129 44.3141 15.3982 44.3141C15.3835 44.3141 15.3688 44.3141 15.354 44.3141C15.3393 44.3141 15.3246 44.3141 15.3099 44.3141C15.2951 44.3141 15.2804 44.3141 15.2657 44.3141C15.251 44.3141 15.2362 44.3141 15.2215 44.3141C15.2068 44.3141 15.1921 44.3141 15.1773 44.3141C15.1626 44.3141 15.1479 44.3141 15.1331 44.3141C15.1184 44.3141 15.1037 44.3141 15.089 44.3141C15.0742 44.3141 15.0595 44.3141 15.0448 44.3141C15.03 44.3141 15.0153 44.3141 15.0006 44.3141C14.9859 44.3141 14.9711 44.3141 14.9564 44.3141C14.9417 44.3141 14.9269 44.3141 14.9122 44.3141C14.8975 44.3141 14.8827 44.3141 14.868 44.3141C14.8533 44.3141 14.8385 44.3141 14.8238 44.3141C14.8091 44.3141 14.7944 44.3141 14.7796 44.3141C14.7649 44.3141 14.7502 44.3141 14.7354 44.3141C14.7207 44.3141 14.7059 44.3141 14.6912 44.3141C14.6765 44.3141 14.6617 44.3141 14.647 44.3141C14.6323 44.3141 14.6175 44.3141 14.6028 44.3141C14.5881 44.3141 14.5733 44.3141 14.5586 44.3141C14.5439 44.3141 14.5291 44.3141 14.5144 44.3141C14.4996 44.3141 14.4849 44.3141 14.4702 44.3141C14.4554 44.3141 14.4407 44.3141 14.4259 44.3141C14.4112 44.3141 14.3965 44.3141 14.3817 44.3141C14.367 44.3141 14.3522 44.3141 14.3375 44.3141C14.3228 44.3141 14.308 44.3141 14.2933 44.3141C14.2785 44.3141 14.2638 44.3141 14.2491 44.3141C14.2343 44.3141 14.2196 44.3141 14.2048 44.3141C14.1901 44.3141 14.1753 44.3141 14.1606 44.3141C14.1459 44.3141 14.1311 44.3141 14.1164 44.3141C14.1016 44.3141 14.0869 44.3141 14.0721 44.3141C14.0574 44.3141 14.0426 44.3141 14.0279 44.3141C14.0132 44.3141 13.9984 44.3141 13.9837 44.3141C13.9689 44.3141 13.9542 44.3141 13.9394 44.3141C13.9247 44.3141 13.9099 44.3141 13.8952 44.3141C13.8804 44.3141 13.8657 44.3141 13.8509 44.3141C13.8362 44.3141 13.8214 44.3141 13.8067 44.3141C13.7919 44.3141 13.7772 44.3141 13.7624 44.3141C13.7477 44.3141 13.7329 44.3141 13.7182 44.3141C13.7034 44.3141 13.6887 44.3141 13.6739 44.3141C13.6592 44.3141 13.6444 44.3141 13.6297 44.3141C13.6149 44.3141 13.6002 44.3141 13.5854 44.3141C13.5707 44.3141 13.5559 44.3141 13.5411 44.3141C13.5264 44.3141 13.5116 44.3141 13.4969 44.3141C13.4821 44.3141 13.4674 44.3141 13.4526 44.3141C13.4379 44.3141 13.4231 44.3141 13.4083 44.3141C13.3936 44.3141 13.3788 44.3141 13.3641 44.3141C13.3493 44.3141 13.3346 44.3141 13.3198 44.3141C13.305 44.3141 13.2903 44.3141 13.2755 44.3141C13.2608 44.3141 13.246 44.3141 13.2312 44.3141C13.2165 44.3141 13.2017 44.3141 13.187 44.3141C13.1722 44.3141 13.1574 44.3141 13.1427 44.3141C13.1279 44.3141 13.1132 44.3141 13.0984 44.3141C13.0836 44.3141 13.0689 44.3141 13.0541 44.3141C13.0393 44.3141 13.0246 44.3141 13.0098 44.3141C12.9951 44.3141 12.9803 44.3141 12.9655 44.3141C12.9508 44.3141 12.936 44.3141 12.9212 44.3141C12.9065 44.3141 12.8917 44.3141 12.8769 44.3141C12.8622 44.3141 12.8474 44.3141 12.8326 44.3141C12.8179 44.3141 12.8031 44.3141 12.7883 44.3141C12.7736 44.3141 12.7588 44.3141 12.744 44.3141C12.7293 44.3141 12.7145 44.3141 12.6997 44.3141C12.685 44.3141 12.6702 44.3141 12.6554 44.3141C12.6406 44.3141 12.6259 44.3141 12.6111 44.3141C12.5963 44.3141 12.5816 44.3141 12.5668 44.3141C12.552 44.3141 12.5372 44.3141 12.5225 44.3141C12.5077 44.3141 12.4929 44.3141 12.4782 44.3141C12.4634 44.3141 12.4486 44.3141 12.4338 44.3141C12.4191 44.3141 12.4043 44.3141 12.3895 44.3141C12.3747 44.3141 12.36 44.3141 12.3452 44.3141C12.3304 44.3141 12.3156 44.3141 12.3009 44.3141C12.2861 44.3141 12.2713 44.3141 12.2565 44.3141C12.2418 44.3141 12.227 44.3141 12.2122 44.3141C12.1974 44.3141 12.1826 44.3141 12.1679 44.3141C12.1531 44.3141 12.1383 44.3141 12.1235 44.3141C12.1087 44.3141 12.094 44.3141 12.0792 44.3141C12.0644 44.3141 12.0496 44.3141 12.0348 44.3141C12.0201 44.3141 12.0053 44.3141 11.9905 44.3141C11.9757 44.3141 11.9609 44.3141 11.9461 44.3141C11.9314 44.3141 11.9166 44.3141 11.9018 44.3141C11.887 44.3141 11.8722 44.3141 11.8574 44.3141C11.8427 44.3141 11.8279 44.3141 11.8131 44.3141C11.7983 44.3141 11.7835 44.3141 11.7687 44.3141C11.7539 44.3141 11.7392 44.3141 11.7244 44.3141C11.7096 44.3141 11.6948 44.3141 11.68 44.3141C11.6652 44.3141 11.6504 44.3141 11.6356 44.3141C11.6209 44.3141 11.6061 44.3141 11.5913 44.3141C11.5765 44.3141 11.5617 44.3141 11.5469 44.3141C11.5321 44.3141 11.5173 44.3141 11.5025 44.3141C11.4878 44.3141 11.473 44.3141 11.4582 44.3141C11.4434 44.3141 11.4286 44.3141 11.4138 44.3141C11.399 44.3141 11.3842 44.3141 11.3694 44.3141C11.3546 44.3141 11.3398 44.3141 11.325 44.3141C11.3102 44.3141 11.2954 44.3141 11.2806 44.3141C11.2658 44.3141 11.2511 44.3141 11.2363 44.3141C11.2215 44.3141 11.2067 44.3141 11.1919 44.3141C11.1771 44.3141 11.1623 44.3141 11.1475 44.3141C11.1327 44.3141 11.1179 44.3141 11.1031 44.3141C11.0883 44.3141 11.0735 44.3141 11.0587 44.3141C11.0439 44.3141 11.0291 44.3141 11.0143 44.3141C10.9995 44.3141 10.9847 44.3141 10.9699 44.3141C10.9551 44.3141 10.9403 44.3141 10.9255 44.3141C10.9107 44.3141 10.8959 44.3141 10.8811 44.3141C10.8663 44.3141 10.8515 44.3141 10.8367 44.3141C10.8219 44.3141 10.8071 44.3141 10.7923 44.3141C10.7774 44.3141 10.7626 44.3141 10.7478 44.3141C10.733 44.3141 10.7182 44.3141 10.7034 44.3141C10.6886 44.3141 10.6738 44.3141 10.659 44.3141C10.6442 44.3141 10.6294 44.3141 10.6146 44.3141C10.5998 44.3141 10.585 44.3141 10.5702 44.3141C10.5553 44.3141 10.5405 44.3141 10.5257 44.3141C10.5109 44.3141 10.4961 44.3141 10.4813 44.3141C10.4665 44.3141 10.4517 44.3141 10.4369 44.3141C10.4221 44.3141 10.4072 44.3141 10.3924 44.3141C10.3776 44.3141 10.3628 44.3141 10.348 44.3141C10.3332 44.3141 10.3184 44.3141 10.3036 44.3141C10.2887 44.3141 10.2739 44.3141 10.2591 44.3141C10.2443 44.3141 10.2295 44.3141 10.2147 44.3141C10.1998 44.3141 10.185 44.3141 10.1702 44.3141C10.1554 44.3141 10.1406 44.3141 10.1258 44.3141C10.1109 44.3141 10.0961 44.3141 10.0813 44.3141C10.0665 44.3141 10.0517 44.3141 10.0369 44.3141C10.022 44.3141 10.0072 44.3141 9.9924 44.3141C9.97758 44.3141 9.96276 44.3141 9.94794 44.3141C9.93312 44.3141 9.9183 44.3141 9.90347 44.3141C9.88865 44.3141 9.87383 44.3141 9.85901 44.3141C9.84419 44.3141 9.82936 44.3141 9.81454 44.3141C9.79972 44.3141 9.78489 44.3141 9.77007 44.3141C9.75524 44.3141 9.74042 44.3141 9.72559 44.3141C9.71077 44.3141 9.69594 44.3141 9.68112 44.3141C9.66629 44.3141 9.65147 44.3141 9.63664 44.3141C9.62181 44.3141 9.60698 44.3141 9.59216 44.3141C9.57733 44.3141 9.5625 44.3141 9.54767 44.3141C9.53284 44.3141 9.51801 44.3141 9.50319 44.3141C9.48836 44.3141 9.47353 44.3141 9.4587 44.3141C9.44387 44.3141 9.42903 44.3141 9.4142 44.3141C9.39937 44.3141 9.38454 44.3141 9.36971 44.3141C9.35488 44.3141 9.34004 44.3141 9.32521 44.3141C9.31038 44.3141 9.29554 44.3141 9.28071 44.3141C9.26588 44.3141 9.25104 44.3141 9.23621 44.3141C9.22137 44.3141 9.20654 44.3141 9.1917 44.3141C9.17687 44.3141 9.16203 44.3141 9.14719 44.3141C9.13236 44.3141 9.11752 44.3141 9.10268 44.3141C9.08785 44.3141 9.07301 44.3141 9.05817 44.3141C9.04333 44.3141 9.02849 44.3141 9.01365 44.3141C8.99881 44.3141 8.98397 44.3141 8.96913 44.3141C8.95429 44.3141 8.93945 44.3141 8.92461 44.3141C8.90977 44.3141 8.89493 44.3141 8.88009 44.3141C8.86525 44.3141 8.8504 44.3141 8.83556 44.3141C8.82072 44.3141 8.80588 44.3141 8.79103 44.3141C8.77619 44.3141 8.76134 44.3141 8.7465 44.3141C8.73165 44.3141 8.71681 44.3141 8.70196 44.3141C8.68712 44.3141 8.67227 44.3141 8.65743 44.3141C8.64258 44.3141 8.62773 44.3141 8.61289 44.3141C8.59804 44.3141 8.58319 44.3141 8.56834 44.3141C8.55349 44.3141 8.53865 44.3141 8.5238 44.3141C8.50895 44.3141 8.4941 44.3141 8.47925 44.3141C8.4644 44.3141 8.44955 44.3141 8.4347 44.3141C8.41985 44.3141 8.40499 44.3141 8.39014 44.3141C8.37529 44.3141 8.36044 44.3141 8.34559 44.3141C8.33073 44.3141 8.31588 44.3141 8.30103 44.3141C8.28617 44.3141 8.27132 44.3141 8.25646 44.3141C8.24161 44.3141 8.22675 44.3141 8.2119 44.3141C8.19704 44.3141 8.18219 44.3141 8.16733 44.3141C8.15247 44.3141 8.13762 44.3141 8.12276 44.3141C8.1079 44.3141 8.09304 44.3141 8.07819 44.3141C8.06333 44.3141 8.04847 44.3141 8.03361 44.3141C8.01875 44.3141 8.00389 44.3141 7.98903 44.3141C7.97417 44.3141 7.95931 44.3141 7.94445 44.3141C7.92959 44.3141 7.91473 44.3141 7.89987 44.3141C7.885 44.3141 7.87014 44.3141 7.85528 44.3141C7.84042 44.3141 7.82555 44.3141 7.81069 44.3141C7.79582 44.3141 7.78096 44.3141 7.7661 44.3141C7.75123 44.3141 7.73637 44.3141 7.7215 44.3141C7.70663 44.3141 7.69177 44.3141 7.6769 44.3141C7.66204 44.3141 7.64717 44.3141 7.6323 44.3141C7.61743 44.3141 7.60257 44.3141 7.5877 44.3141C7.57283 44.3141 7.55796 44.3141 7.54309 44.3141C7.52822 44.3141 7.51335 44.3141 7.49848 44.3141C7.48361 44.3141 7.46874 44.3141 7.45387 44.3141C7.439 44.3141 7.42413 44.3141 7.40925 44.3141C7.39438 44.3141 7.37951 44.3141 7.36464 44.3141C7.34976 44.3141 7.33489 44.3141 7.32002 44.3141C7.30514 44.3141 7.29027 44.3141 7.27539 44.3141C7.26052 44.3141 7.24564 44.3141 7.23077 44.3141C7.21589 44.3141 7.20101 44.3141 7.18614 44.3141C7.17126 44.3141 7.15638 44.3141 7.1415 44.3141C7.12663 44.3141 7.11175 44.3141 7.09687 44.3141C7.08199 44.3141 7.06711 44.3141 7.05223 44.3141C7.03735 44.3141 7.02247 44.3141 7.00759 44.3141C6.99271 44.3141 6.97783 44.3141 6.96295 44.3141C6.94807 44.3141 6.93318 44.3141 6.9183 44.3141C6.90342 44.3141 6.88854 44.3141 6.87365 44.3141C6.85877 44.3141 6.84388 44.3141 6.829 44.3141C6.81412 44.3141 6.79923 44.3141 6.78435 44.3141C6.76946 44.3141 6.75457 44.3141 6.73969 44.3141C6.7248 44.3141 6.70991 44.3141 6.69503 44.3141C6.68014 44.3141 6.66525 44.3141 6.65036 44.3141C6.63548 44.3141 6.62059 44.3141 6.6057 44.3141C6.59081 44.3141 6.57592 44.3141 6.56103 44.3141C6.54614 44.3141 6.53125 44.3141 6.51636 44.3141C6.50147 44.3141 6.48657 44.3141 6.47168 44.3141C6.45679 44.3141 6.4419 44.3141 6.427 44.3141C6.41211 44.3141 6.39722 44.3141 6.38232 44.3141C6.36743 44.3141 6.35253 44.3141 6.33764 44.3141C6.32274 44.3141 6.30785 44.3141 6.29295 44.3141C6.27806 44.3141 6.26316 44.3141 6.24826 44.3141C6.23337 44.3141 6.21847 44.3141 6.20357 44.3141C6.18867 44.3141 6.17378 44.3141 6.15888 44.3141C6.14398 44.3141 6.12908 44.3141 6.11418 44.3141C6.09928 44.3141 6.08438 44.3141 6.06948 44.3141C6.05458 44.3141 6.03968 44.3141 6.02477 44.3141C6.00987 44.3141 5.99497 44.3141 5.98007 44.3141C5.96516 44.3141 5.95026 44.3141 5.93536 44.3141C5.92045 44.3141 5.90555 44.3141 5.89064 44.3141C5.87574 44.3141 5.86083 44.3141 5.84593 44.3141C5.83102 44.3141 5.81612 44.3141 5.80121 44.3141C5.7863 44.3141 5.7714 44.3141 5.75649 44.3141C5.74158 44.3141 5.72667 44.3141 5.71176 44.3141C5.69685 44.3141 5.68195 44.3141 5.66704 44.3141C5.65213 44.3141 5.63722 44.3141 5.62231 44.3141C5.6074 44.3141 5.59248 44.3141 5.57757 44.3141C5.56266 44.3141 5.54775 44.3141 5.53284 44.3141C5.51792 44.3141 5.50301 44.3141 5.4881 44.3141C5.47318 44.3141 5.45827 44.3141 5.44335 44.3141C5.42844 44.3141 5.41352 44.3141 5.39861 44.3141C5.38369 44.3141 5.36878 44.3141 5.35386 44.3141C5.33894 44.3141 5.32403 44.3141 5.30911 44.3141C5.29419 44.3141 5.27927 44.3141 5.26436 44.3141V48.3141C5.27927 48.3141 5.29419 48.3141 5.30911 48.3141C5.32403 48.3141 5.33894 48.3141 5.35386 48.3141C5.36878 48.3141 5.38369 48.3141 5.39861 48.3141C5.41352 48.3141 5.42844 48.3141 5.44335 48.3141C5.45827 48.3141 5.47318 48.3141 5.4881 48.3141C5.50301 48.3141 5.51792 48.3141 5.53284 48.3141C5.54775 48.3141 5.56266 48.3141 5.57757 48.3141C5.59248 48.3141 5.6074 48.3141 5.62231 48.3141C5.63722 48.3141 5.65213 48.3141 5.66704 48.3141C5.68195 48.3141 5.69685 48.3141 5.71176 48.3141C5.72667 48.3141 5.74158 48.3141 5.75649 48.3141C5.7714 48.3141 5.7863 48.3141 5.80121 48.3141C5.81612 48.3141 5.83102 48.3141 5.84593 48.3141C5.86083 48.3141 5.87574 48.3141 5.89064 48.3141C5.90555 48.3141 5.92045 48.3141 5.93536 48.3141C5.95026 48.3141 5.96516 48.3141 5.98007 48.3141C5.99497 48.3141 6.00987 48.3141 6.02477 48.3141C6.03968 48.3141 6.05458 48.3141 6.06948 48.3141C6.08438 48.3141 6.09928 48.3141 6.11418 48.3141C6.12908 48.3141 6.14398 48.3141 6.15888 48.3141C6.17378 48.3141 6.18867 48.3141 6.20357 48.3141C6.21847 48.3141 6.23337 48.3141 6.24826 48.3141C6.26316 48.3141 6.27806 48.3141 6.29295 48.3141C6.30785 48.3141 6.32274 48.3141 6.33764 48.3141C6.35253 48.3141 6.36743 48.3141 6.38232 48.3141C6.39722 48.3141 6.41211 48.3141 6.427 48.3141C6.4419 48.3141 6.45679 48.3141 6.47168 48.3141C6.48657 48.3141 6.50147 48.3141 6.51636 48.3141C6.53125 48.3141 6.54614 48.3141 6.56103 48.3141C6.57592 48.3141 6.59081 48.3141 6.6057 48.3141C6.62059 48.3141 6.63548 48.3141 6.65036 48.3141C6.66525 48.3141 6.68014 48.3141 6.69503 48.3141C6.70991 48.3141 6.7248 48.3141 6.73969 48.3141C6.75457 48.3141 6.76946 48.3141 6.78435 48.3141C6.79923 48.3141 6.81412 48.3141 6.829 48.3141C6.84388 48.3141 6.85877 48.3141 6.87365 48.3141C6.88854 48.3141 6.90342 48.3141 6.9183 48.3141C6.93318 48.3141 6.94807 48.3141 6.96295 48.3141C6.97783 48.3141 6.99271 48.3141 7.00759 48.3141C7.02247 48.3141 7.03735 48.3141 7.05223 48.3141C7.06711 48.3141 7.08199 48.3141 7.09687 48.3141C7.11175 48.3141 7.12663 48.3141 7.1415 48.3141C7.15638 48.3141 7.17126 48.3141 7.18614 48.3141C7.20101 48.3141 7.21589 48.3141 7.23077 48.3141C7.24564 48.3141 7.26052 48.3141 7.27539 48.3141C7.29027 48.3141 7.30514 48.3141 7.32002 48.3141C7.33489 48.3141 7.34976 48.3141 7.36464 48.3141C7.37951 48.3141 7.39438 48.3141 7.40925 48.3141C7.42413 48.3141 7.439 48.3141 7.45387 48.3141C7.46874 48.3141 7.48361 48.3141 7.49848 48.3141C7.51335 48.3141 7.52822 48.3141 7.54309 48.3141C7.55796 48.3141 7.57283 48.3141 7.5877 48.3141C7.60257 48.3141 7.61743 48.3141 7.6323 48.3141C7.64717 48.3141 7.66204 48.3141 7.6769 48.3141C7.69177 48.3141 7.70663 48.3141 7.7215 48.3141C7.73637 48.3141 7.75123 48.3141 7.7661 48.3141C7.78096 48.3141 7.79582 48.3141 7.81069 48.3141C7.82555 48.3141 7.84042 48.3141 7.85528 48.3141C7.87014 48.3141 7.885 48.3141 7.89987 48.3141C7.91473 48.3141 7.92959 48.3141 7.94445 48.3141C7.95931 48.3141 7.97417 48.3141 7.98903 48.3141C8.00389 48.3141 8.01875 48.3141 8.03361 48.3141C8.04847 48.3141 8.06333 48.3141 8.07819 48.3141C8.09304 48.3141 8.1079 48.3141 8.12276 48.3141C8.13762 48.3141 8.15247 48.3141 8.16733 48.3141C8.18219 48.3141 8.19704 48.3141 8.2119 48.3141C8.22675 48.3141 8.24161 48.3141 8.25646 48.3141C8.27132 48.3141 8.28617 48.3141 8.30103 48.3141C8.31588 48.3141 8.33073 48.3141 8.34559 48.3141C8.36044 48.3141 8.37529 48.3141 8.39014 48.3141C8.40499 48.3141 8.41985 48.3141 8.4347 48.3141C8.44955 48.3141 8.4644 48.3141 8.47925 48.3141C8.4941 48.3141 8.50895 48.3141 8.5238 48.3141C8.53865 48.3141 8.55349 48.3141 8.56834 48.3141C8.58319 48.3141 8.59804 48.3141 8.61289 48.3141C8.62773 48.3141 8.64258 48.3141 8.65743 48.3141C8.67227 48.3141 8.68712 48.3141 8.70196 48.3141C8.71681 48.3141 8.73165 48.3141 8.7465 48.3141C8.76134 48.3141 8.77619 48.3141 8.79103 48.3141C8.80588 48.3141 8.82072 48.3141 8.83556 48.3141C8.8504 48.3141 8.86525 48.3141 8.88009 48.3141C8.89493 48.3141 8.90977 48.3141 8.92461 48.3141C8.93945 48.3141 8.95429 48.3141 8.96913 48.3141C8.98397 48.3141 8.99881 48.3141 9.01365 48.3141C9.02849 48.3141 9.04333 48.3141 9.05817 48.3141C9.07301 48.3141 9.08785 48.3141 9.10268 48.3141C9.11752 48.3141 9.13236 48.3141 9.14719 48.3141C9.16203 48.3141 9.17687 48.3141 9.1917 48.3141C9.20654 48.3141 9.22137 48.3141 9.23621 48.3141C9.25104 48.3141 9.26588 48.3141 9.28071 48.3141C9.29554 48.3141 9.31038 48.3141 9.32521 48.3141C9.34004 48.3141 9.35488 48.3141 9.36971 48.3141C9.38454 48.3141 9.39937 48.3141 9.4142 48.3141C9.42903 48.3141 9.44387 48.3141 9.4587 48.3141C9.47353 48.3141 9.48836 48.3141 9.50319 48.3141C9.51801 48.3141 9.53284 48.3141 9.54767 48.3141C9.5625 48.3141 9.57733 48.3141 9.59216 48.3141C9.60698 48.3141 9.62181 48.3141 9.63664 48.3141C9.65147 48.3141 9.66629 48.3141 9.68112 48.3141C9.69594 48.3141 9.71077 48.3141 9.72559 48.3141C9.74042 48.3141 9.75524 48.3141 9.77007 48.3141C9.78489 48.3141 9.79972 48.3141 9.81454 48.3141C9.82936 48.3141 9.84419 48.3141 9.85901 48.3141C9.87383 48.3141 9.88865 48.3141 9.90347 48.3141C9.9183 48.3141 9.93312 48.3141 9.94794 48.3141C9.96276 48.3141 9.97758 48.3141 9.9924 48.3141C10.0072 48.3141 10.022 48.3141 10.0369 48.3141C10.0517 48.3141 10.0665 48.3141 10.0813 48.3141C10.0961 48.3141 10.1109 48.3141 10.1258 48.3141C10.1406 48.3141 10.1554 48.3141 10.1702 48.3141C10.185 48.3141 10.1998 48.3141 10.2147 48.3141C10.2295 48.3141 10.2443 48.3141 10.2591 48.3141C10.2739 48.3141 10.2887 48.3141 10.3036 48.3141C10.3184 48.3141 10.3332 48.3141 10.348 48.3141C10.3628 48.3141 10.3776 48.3141 10.3924 48.3141C10.4072 48.3141 10.4221 48.3141 10.4369 48.3141C10.4517 48.3141 10.4665 48.3141 10.4813 48.3141C10.4961 48.3141 10.5109 48.3141 10.5257 48.3141C10.5405 48.3141 10.5553 48.3141 10.5702 48.3141C10.585 48.3141 10.5998 48.3141 10.6146 48.3141C10.6294 48.3141 10.6442 48.3141 10.659 48.3141C10.6738 48.3141 10.6886 48.3141 10.7034 48.3141C10.7182 48.3141 10.733 48.3141 10.7478 48.3141C10.7626 48.3141 10.7774 48.3141 10.7923 48.3141C10.8071 48.3141 10.8219 48.3141 10.8367 48.3141C10.8515 48.3141 10.8663 48.3141 10.8811 48.3141C10.8959 48.3141 10.9107 48.3141 10.9255 48.3141C10.9403 48.3141 10.9551 48.3141 10.9699 48.3141C10.9847 48.3141 10.9995 48.3141 11.0143 48.3141C11.0291 48.3141 11.0439 48.3141 11.0587 48.3141C11.0735 48.3141 11.0883 48.3141 11.1031 48.3141C11.1179 48.3141 11.1327 48.3141 11.1475 48.3141C11.1623 48.3141 11.1771 48.3141 11.1919 48.3141C11.2067 48.3141 11.2215 48.3141 11.2363 48.3141C11.2511 48.3141 11.2658 48.3141 11.2806 48.3141C11.2954 48.3141 11.3102 48.3141 11.325 48.3141C11.3398 48.3141 11.3546 48.3141 11.3694 48.3141C11.3842 48.3141 11.399 48.3141 11.4138 48.3141C11.4286 48.3141 11.4434 48.3141 11.4582 48.3141C11.473 48.3141 11.4878 48.3141 11.5025 48.3141C11.5173 48.3141 11.5321 48.3141 11.5469 48.3141C11.5617 48.3141 11.5765 48.3141 11.5913 48.3141C11.6061 48.3141 11.6209 48.3141 11.6356 48.3141C11.6504 48.3141 11.6652 48.3141 11.68 48.3141C11.6948 48.3141 11.7096 48.3141 11.7244 48.3141C11.7392 48.3141 11.7539 48.3141 11.7687 48.3141C11.7835 48.3141 11.7983 48.3141 11.8131 48.3141C11.8279 48.3141 11.8427 48.3141 11.8574 48.3141C11.8722 48.3141 11.887 48.3141 11.9018 48.3141C11.9166 48.3141 11.9314 48.3141 11.9461 48.3141C11.9609 48.3141 11.9757 48.3141 11.9905 48.3141C12.0053 48.3141 12.0201 48.3141 12.0348 48.3141C12.0496 48.3141 12.0644 48.3141 12.0792 48.3141C12.094 48.3141 12.1087 48.3141 12.1235 48.3141C12.1383 48.3141 12.1531 48.3141 12.1679 48.3141C12.1826 48.3141 12.1974 48.3141 12.2122 48.3141C12.227 48.3141 12.2418 48.3141 12.2565 48.3141C12.2713 48.3141 12.2861 48.3141 12.3009 48.3141C12.3156 48.3141 12.3304 48.3141 12.3452 48.3141C12.36 48.3141 12.3747 48.3141 12.3895 48.3141C12.4043 48.3141 12.4191 48.3141 12.4338 48.3141C12.4486 48.3141 12.4634 48.3141 12.4782 48.3141C12.4929 48.3141 12.5077 48.3141 12.5225 48.3141C12.5372 48.3141 12.552 48.3141 12.5668 48.3141C12.5816 48.3141 12.5963 48.3141 12.6111 48.3141C12.6259 48.3141 12.6406 48.3141 12.6554 48.3141C12.6702 48.3141 12.685 48.3141 12.6997 48.3141C12.7145 48.3141 12.7293 48.3141 12.744 48.3141C12.7588 48.3141 12.7736 48.3141 12.7883 48.3141C12.8031 48.3141 12.8179 48.3141 12.8326 48.3141C12.8474 48.3141 12.8622 48.3141 12.8769 48.3141C12.8917 48.3141 12.9065 48.3141 12.9212 48.3141C12.936 48.3141 12.9508 48.3141 12.9655 48.3141C12.9803 48.3141 12.9951 48.3141 13.0098 48.3141C13.0246 48.3141 13.0393 48.3141 13.0541 48.3141C13.0689 48.3141 13.0836 48.3141 13.0984 48.3141C13.1132 48.3141 13.1279 48.3141 13.1427 48.3141C13.1574 48.3141 13.1722 48.3141 13.187 48.3141C13.2017 48.3141 13.2165 48.3141 13.2312 48.3141C13.246 48.3141 13.2608 48.3141 13.2755 48.3141C13.2903 48.3141 13.305 48.3141 13.3198 48.3141C13.3346 48.3141 13.3493 48.3141 13.3641 48.3141C13.3788 48.3141 13.3936 48.3141 13.4083 48.3141C13.4231 48.3141 13.4379 48.3141 13.4526 48.3141C13.4674 48.3141 13.4821 48.3141 13.4969 48.3141C13.5116 48.3141 13.5264 48.3141 13.5411 48.3141C13.5559 48.3141 13.5707 48.3141 13.5854 48.3141C13.6002 48.3141 13.6149 48.3141 13.6297 48.3141C13.6444 48.3141 13.6592 48.3141 13.6739 48.3141C13.6887 48.3141 13.7034 48.3141 13.7182 48.3141C13.7329 48.3141 13.7477 48.3141 13.7624 48.3141C13.7772 48.3141 13.7919 48.3141 13.8067 48.3141C13.8214 48.3141 13.8362 48.3141 13.8509 48.3141C13.8657 48.3141 13.8804 48.3141 13.8952 48.3141C13.9099 48.3141 13.9247 48.3141 13.9394 48.3141C13.9542 48.3141 13.9689 48.3141 13.9837 48.3141C13.9984 48.3141 14.0132 48.3141 14.0279 48.3141C14.0426 48.3141 14.0574 48.3141 14.0721 48.3141C14.0869 48.3141 14.1016 48.3141 14.1164 48.3141C14.1311 48.3141 14.1459 48.3141 14.1606 48.3141C14.1753 48.3141 14.1901 48.3141 14.2048 48.3141C14.2196 48.3141 14.2343 48.3141 14.2491 48.3141C14.2638 48.3141 14.2785 48.3141 14.2933 48.3141C14.308 48.3141 14.3228 48.3141 14.3375 48.3141C14.3522 48.3141 14.367 48.3141 14.3817 48.3141C14.3965 48.3141 14.4112 48.3141 14.4259 48.3141C14.4407 48.3141 14.4554 48.3141 14.4702 48.3141C14.4849 48.3141 14.4996 48.3141 14.5144 48.3141C14.5291 48.3141 14.5439 48.3141 14.5586 48.3141C14.5733 48.3141 14.5881 48.3141 14.6028 48.3141C14.6175 48.3141 14.6323 48.3141 14.647 48.3141C14.6617 48.3141 14.6765 48.3141 14.6912 48.3141C14.7059 48.3141 14.7207 48.3141 14.7354 48.3141C14.7502 48.3141 14.7649 48.3141 14.7796 48.3141C14.7944 48.3141 14.8091 48.3141 14.8238 48.3141C14.8385 48.3141 14.8533 48.3141 14.868 48.3141C14.8827 48.3141 14.8975 48.3141 14.9122 48.3141C14.9269 48.3141 14.9417 48.3141 14.9564 48.3141C14.9711 48.3141 14.9859 48.3141 15.0006 48.3141C15.0153 48.3141 15.03 48.3141 15.0448 48.3141C15.0595 48.3141 15.0742 48.3141 15.089 48.3141C15.1037 48.3141 15.1184 48.3141 15.1331 48.3141C15.1479 48.3141 15.1626 48.3141 15.1773 48.3141C15.1921 48.3141 15.2068 48.3141 15.2215 48.3141C15.2362 48.3141 15.251 48.3141 15.2657 48.3141C15.2804 48.3141 15.2951 48.3141 15.3099 48.3141C15.3246 48.3141 15.3393 48.3141 15.354 48.3141C15.3688 48.3141 15.3835 48.3141 15.3982 48.3141C15.4129 48.3141 15.4276 48.3141 15.4424 48.3141C15.4571 48.3141 15.4718 48.3141 15.4865 48.3141C15.5013 48.3141 15.516 48.3141 15.5307 48.3141C15.5454 48.3141 15.5601 48.3141 15.5749 48.3141C15.5896 48.3141 15.6043 48.3141 15.619 48.3141C15.6337 48.3141 15.6485 48.3141 15.6632 48.3141C15.6779 48.3141 15.6926 48.3141 15.7073 48.3141C15.722 48.3141 15.7368 48.3141 15.7515 48.3141C15.7662 48.3141 15.7809 48.3141 15.7956 48.3141C15.8104 48.3141 15.8251 48.3141 15.8398 48.3141C15.8545 48.3141 15.8692 48.3141 15.8839 48.3141C15.8986 48.3141 15.9134 48.3141 15.9281 48.3141C15.9428 48.3141 15.9575 48.3141 15.9722 48.3141C15.9869 48.3141 16.0016 48.3141 16.0164 48.3141C16.0311 48.3141 16.0458 48.3141 16.0605 48.3141C16.0752 48.3141 16.0899 48.3141 16.1046 48.3141C16.1193 48.3141 16.1341 48.3141 16.1488 48.3141C16.1635 48.3141 16.1782 48.3141 16.1929 48.3141C16.2076 48.3141 16.2223 48.3141 16.237 48.3141C16.2517 48.3141 16.2664 48.3141 16.2812 48.3141C16.2959 48.3141 16.3106 48.3141 16.3253 48.3141C16.34 48.3141 16.3547 48.3141 16.3694 48.3141C16.3841 48.3141 16.3988 48.3141 16.4135 48.3141C16.4282 48.3141 16.4429 48.3141 16.4576 48.3141C16.4724 48.3141 16.4871 48.3141 16.5018 48.3141C16.5165 48.3141 16.5312 48.3141 16.5459 48.3141C16.5606 48.3141 16.5753 48.3141 16.59 48.3141C16.6047 48.3141 16.6194 48.3141 16.6341 48.3141C16.6488 48.3141 16.6635 48.3141 16.6782 48.3141C16.6929 48.3141 16.7076 48.3141 16.7223 48.3141C16.737 48.3141 16.7517 48.3141 16.7664 48.3141C16.7811 48.3141 16.7958 48.3141 16.8105 48.3141C16.8252 48.3141 16.8399 48.3141 16.8546 48.3141C16.8693 48.3141 16.884 48.3141 16.8987 48.3141C16.9134 48.3141 16.9281 48.3141 16.9428 48.3141C16.9575 48.3141 16.9722 48.3141 16.9869 48.3141C17.0016 48.3141 17.0163 48.3141 17.031 48.3141C17.0457 48.3141 17.0604 48.3141 17.0751 48.3141C17.0898 48.3141 17.1045 48.3141 17.1192 48.3141C17.1339 48.3141 17.1486 48.3141 17.1633 48.3141C17.178 48.3141 17.1927 48.3141 17.2074 48.3141C17.2221 48.3141 17.2368 48.3141 17.2514 48.3141C17.2661 48.3141 17.2808 48.3141 17.2955 48.3141C17.3102 48.3141 17.3249 48.3141 17.3396 48.3141C17.3543 48.3141 17.369 48.3141 17.3837 48.3141C17.3984 48.3141 17.4131 48.3141 17.4278 48.3141C17.4425 48.3141 17.4571 48.3141 17.4718 48.3141C17.4865 48.3141 17.5012 48.3141 17.5159 48.3141C17.5306 48.3141 17.5453 48.3141 17.56 48.3141C17.5747 48.3141 17.5894 48.3141 17.604 48.3141C17.6187 48.3141 17.6334 48.3141 17.6481 48.3141C17.6628 48.3141 17.6775 48.3141 17.6922 48.3141C17.7069 48.3141 17.7215 48.3141 17.7362 48.3141C17.7509 48.3141 17.7656 48.3141 17.7803 48.3141C17.795 48.3141 17.8097 48.3141 17.8243 48.3141C17.839 48.3141 17.8537 48.3141 17.8684 48.3141C17.8831 48.3141 17.8978 48.3141 17.9125 48.3141C17.9271 48.3141 17.9418 48.3141 17.9565 48.3141C17.9712 48.3141 17.9859 48.3141 18.0006 48.3141C18.0152 48.3141 18.0299 48.3141 18.0446 48.3141C18.0593 48.3141 18.074 48.3141 18.0886 48.3141C18.1033 48.3141 18.118 48.3141 18.1327 48.3141C18.1474 48.3141 18.1621 48.3141 18.1767 48.3141C18.1914 48.3141 18.2061 48.3141 18.2208 48.3141C18.2355 48.3141 18.2501 48.3141 18.2648 48.3141C18.2795 48.3141 18.2942 48.3141 18.3088 48.3141C18.3235 48.3141 18.3382 48.3141 18.3529 48.3141C18.3676 48.3141 18.3822 48.3141 18.3969 48.3141C18.4116 48.3141 18.4263 48.3141 18.4409 48.3141C18.4556 48.3141 18.4703 48.3141 18.485 48.3141C18.4996 48.3141 18.5143 48.3141 18.529 48.3141C18.5437 48.3141 18.5583 48.3141 18.573 48.3141C18.5877 48.3141 18.6024 48.3141 18.617 48.3141C18.6317 48.3141 18.6464 48.3141 18.6611 48.3141C18.6757 48.3141 18.6904 48.3141 18.7051 48.3141C18.7198 48.3141 18.7344 48.3141 18.7491 48.3141C18.7638 48.3141 18.7784 48.3141 18.7931 48.3141C18.8078 48.3141 18.8225 48.3141 18.8371 48.3141C18.8518 48.3141 18.8665 48.3141 18.8811 48.3141C18.8958 48.3141 18.9105 48.3141 18.9251 48.3141C18.9398 48.3141 18.9545 48.3141 18.9692 48.3141C18.9838 48.3141 18.9985 48.3141 19.0132 48.3141C19.0278 48.3141 19.0425 48.3141 19.0572 48.3141C19.0718 48.3141 19.0865 48.3141 19.1012 48.3141C19.1158 48.3141 19.1305 48.3141 19.1452 48.3141C19.1598 48.3141 19.1745 48.3141 19.1892 48.3141C19.2038 48.3141 19.2185 48.3141 19.2332 48.3141C19.2478 48.3141 19.2625 48.3141 19.2772 48.3141C19.2918 48.3141 19.3065 48.3141 19.3211 48.3141C19.3358 48.3141 19.3505 48.3141 19.3651 48.3141C19.3798 48.3141 19.3945 48.3141 19.4091 48.3141C19.4238 48.3141 19.4384 48.3141 19.4531 48.3141C19.4678 48.3141 19.4824 48.3141 19.4971 48.3141C19.5118 48.3141 19.5264 48.3141 19.5411 48.3141C19.5557 48.3141 19.5704 48.3141 19.5851 48.3141C19.5997 48.3141 19.6144 48.3141 19.629 48.3141C19.6437 48.3141 19.6584 48.3141 19.673 48.3141C19.6877 48.3141 19.7023 48.3141 19.717 48.3141C19.7317 48.3141 19.7463 48.3141 19.761 48.3141C19.7756 48.3141 19.7903 48.3141 19.8049 48.3141C19.8196 48.3141 19.8343 48.3141 19.8489 48.3141C19.8636 48.3141 19.8782 48.3141 19.8929 48.3141C19.9075 48.3141 19.9222 48.3141 19.9368 48.3141C19.9515 48.3141 19.9662 48.3141 19.9808 48.3141C19.9955 48.3141 20.0101 48.3141 20.0248 48.3141C20.0394 48.3141 20.0541 48.3141 20.0687 48.3141C20.0834 48.3141 20.098 48.3141 20.1127 48.3141C20.1274 48.3141 20.142 48.3141 20.1567 48.3141C20.1713 48.3141 20.186 48.3141 20.2006 48.3141C20.2153 48.3141 20.2299 48.3141 20.2446 48.3141C20.2592 48.3141 20.2739 48.3141 20.2885 48.3141C20.3032 48.3141 20.3178 48.3141 20.3325 48.3141C20.3471 48.3141 20.3618 48.3141 20.3764 48.3141C20.3911 48.3141 20.4057 48.3141 20.4204 48.3141C20.435 48.3141 20.4497 48.3141 20.4643 48.3141C20.479 48.3141 20.4936 48.3141 20.5083 48.3141C20.5229 48.3141 20.5376 48.3141 20.5522 48.3141C20.5669 48.3141 20.5815 48.3141 20.5961 48.3141C20.6108 48.3141 20.6254 48.3141 20.6401 48.3141C20.6547 48.3141 20.6694 48.3141 20.684 48.3141C20.6987 48.3141 20.7133 48.3141 20.728 48.3141C20.7426 48.3141 20.7572 48.3141 20.7719 48.3141C20.7865 48.3141 20.8012 48.3141 20.8158 48.3141C20.8305 48.3141 20.8451 48.3141 20.8598 48.3141C20.8744 48.3141 20.889 48.3141 20.9037 48.3141C20.9183 48.3141 20.933 48.3141 20.9476 48.3141C20.9623 48.3141 20.9769 48.3141 20.9915 48.3141C21.0062 48.3141 21.0208 48.3141 21.0355 48.3141C21.0501 48.3141 21.0647 48.3141 21.0794 48.3141C21.094 48.3141 21.1087 48.3141 21.1233 48.3141C21.1379 48.3141 21.1526 48.3141 21.1672 48.3141C21.1819 48.3141 21.1965 48.3141 21.2111 48.3141C21.2258 48.3141 21.2404 48.3141 21.2551 48.3141C21.2697 48.3141 21.2843 48.3141 21.299 48.3141C21.3136 48.3141 21.3282 48.3141 21.3429 48.3141C21.3575 48.3141 21.3722 48.3141 21.3868 48.3141C21.4014 48.3141 21.4161 48.3141 21.4307 48.3141C21.4453 48.3141 21.46 48.3141 21.4746 48.3141C21.4892 48.3141 21.5039 48.3141 21.5185 48.3141C21.5331 48.3141 21.5478 48.3141 21.5624 48.3141C21.577 48.3141 21.5917 48.3141 21.6063 48.3141C21.621 48.3141 21.6356 48.3141 21.6502 48.3141C21.6649 48.3141 21.6795 48.3141 21.6941 48.3141C21.7087 48.3141 21.7234 48.3141 21.738 48.3141C21.7526 48.3141 21.7673 48.3141 21.7819 48.3141C21.7965 48.3141 21.8112 48.3141 21.8258 48.3141C21.8404 48.3141 21.8551 48.3141 21.8697 48.3141C21.8843 48.3141 21.899 48.3141 21.9136 48.3141C21.9282 48.3141 21.9428 48.3141 21.9575 48.3141C21.9721 48.3141 21.9867 48.3141 22.0014 48.3141C22.016 48.3141 22.0306 48.3141 22.0452 48.3141C22.0599 48.3141 22.0745 48.3141 22.0891 48.3141C22.1038 48.3141 22.1184 48.3141 22.133 48.3141C22.1476 48.3141 22.1623 48.3141 22.1769 48.3141C22.1915 48.3141 22.2061 48.3141 22.2208 48.3141C22.2354 48.3141 22.25 48.3141 22.2647 48.3141C22.2793 48.3141 22.2939 48.3141 22.3085 48.3141C22.3232 48.3141 22.3378 48.3141 22.3524 48.3141C22.367 48.3141 22.3817 48.3141 22.3963 48.3141C22.4109 48.3141 22.4255 48.3141 22.4401 48.3141C22.4548 48.3141 22.4694 48.3141 22.484 48.3141C22.4986 48.3141 22.5133 48.3141 22.5279 48.3141C22.5425 48.3141 22.5571 48.3141 22.5718 48.3141C22.5864 48.3141 22.601 48.3141 22.6156 48.3141C22.6302 48.3141 22.6449 48.3141 22.6595 48.3141C22.6741 48.3141 22.6887 48.3141 22.7033 48.3141C22.718 48.3141 22.7326 48.3141 22.7472 48.3141C22.7618 48.3141 22.7764 48.3141 22.7911 48.3141C22.8057 48.3141 22.8203 48.3141 22.8349 48.3141C22.8495 48.3141 22.8642 48.3141 22.8788 48.3141C22.8934 48.3141 22.908 48.3141 22.9226 48.3141C22.9372 48.3141 22.9519 48.3141 22.9665 48.3141C22.9811 48.3141 22.9957 48.3141 23.0103 48.3141C23.025 48.3141 23.0396 48.3141 23.0542 48.3141C23.0688 48.3141 23.0834 48.3141 23.098 48.3141C23.1126 48.3141 23.1273 48.3141 23.1419 48.3141C23.1565 48.3141 23.1711 48.3141 23.1857 48.3141C23.2003 48.3141 23.215 48.3141 23.2296 48.3141C23.2442 48.3141 23.2588 48.3141 23.2734 48.3141C23.288 48.3141 23.3026 48.3141 23.3173 48.3141C23.3319 48.3141 23.3465 48.3141 23.3611 48.3141C23.3757 48.3141 23.3903 48.3141 23.4049 48.3141C23.4195 48.3141 23.4342 48.3141 23.4488 48.3141C23.4634 48.3141 23.478 48.3141 23.4926 48.3141C23.5072 48.3141 23.5218 48.3141 23.5364 48.3141C23.551 48.3141 23.5657 48.3141 23.5803 48.3141C23.5949 48.3141 23.6095 48.3141 23.6241 48.3141C23.6387 48.3141 23.6533 48.3141 23.6679 48.3141C23.6825 48.3141 23.6971 48.3141 23.7117 48.3141C23.7264 48.3141 23.741 48.3141 23.7556 48.3141C23.7702 48.3141 23.7848 48.3141 23.7994 48.3141C23.814 48.3141 23.8286 48.3141 23.8432 48.3141C23.8578 48.3141 23.8724 48.3141 23.887 48.3141C23.9017 48.3141 23.9163 48.3141 23.9309 48.3141C23.9455 48.3141 23.9601 48.3141 23.9747 48.3141C23.9893 48.3141 24.0039 48.3141 24.0185 48.3141C24.0331 48.3141 24.0477 48.3141 24.0623 48.3141C24.0769 48.3141 24.0915 48.3141 24.1061 48.3141C24.1207 48.3141 24.1353 48.3141 24.1499 48.3141C24.1645 48.3141 24.1791 48.3141 24.1938 48.3141C24.2084 48.3141 24.223 48.3141 24.2376 48.3141C24.2522 48.3141 24.2668 48.3141 24.2814 48.3141C24.296 48.3141 24.3106 48.3141 24.3252 48.3141C24.3398 48.3141 24.3544 48.3141 24.369 48.3141C24.3836 48.3141 24.3982 48.3141 24.4128 48.3141C24.4274 48.3141 24.442 48.3141 24.4566 48.3141C24.4712 48.3141 24.4858 48.3141 24.5004 48.3141C24.515 48.3141 24.5296 48.3141 24.5442 48.3141C24.5588 48.3141 24.5734 48.3141 24.588 48.3141C24.6026 48.3141 24.6172 48.3141 24.6318 48.3141C24.6464 48.3141 24.661 48.3141 24.6756 48.3141C24.6902 48.3141 24.7048 48.3141 24.7194 48.3141C24.734 48.3141 24.7486 48.3141 24.7632 48.3141C24.7778 48.3141 24.7924 48.3141 24.807 48.3141C24.8216 48.3141 24.8362 48.3141 24.8508 48.3141C24.8653 48.3141 24.8799 48.3141 24.8945 48.3141C24.9091 48.3141 24.9237 48.3141 24.9383 48.3141C24.9529 48.3141 24.9675 48.3141 24.9821 48.3141C24.9967 48.3141 25.0113 48.3141 25.0259 48.3141C25.0405 48.3141 25.0551 48.3141 25.0697 48.3141C25.0843 48.3141 25.0989 48.3141 25.1135 48.3141C25.1281 48.3141 25.1427 48.3141 25.1572 48.3141C25.1718 48.3141 25.1864 48.3141 25.201 48.3141C25.2156 48.3141 25.2302 48.3141 25.2448 48.3141C25.2594 48.3141 25.274 48.3141 25.2886 48.3141C25.3032 48.3141 25.3178 48.3141 25.3324 48.3141C25.3469 48.3141 25.3615 48.3141 25.3761 48.3141C25.3907 48.3141 25.4053 48.3141 25.4199 48.3141C25.4345 48.3141 25.4491 48.3141 25.4637 48.3141C25.4783 48.3141 25.4929 48.3141 25.5074 48.3141C25.522 48.3141 25.5366 48.3141 25.5512 48.3141C25.5658 48.3141 25.5804 48.3141 25.595 48.3141C25.6096 48.3141 25.6242 48.3141 25.6387 48.3141C25.6533 48.3141 25.6679 48.3141 25.6825 48.3141C25.6971 48.3141 25.7117 48.3141 25.7263 48.3141C25.7409 48.3141 25.7554 48.3141 25.77 48.3141C25.7846 48.3141 25.7992 48.3141 25.8138 48.3141C25.8284 48.3141 25.843 48.3141 25.8576 48.3141C25.8721 48.3141 25.8867 48.3141 25.9013 48.3141C25.9159 48.3141 25.9305 48.3141 25.9451 48.3141C25.9597 48.3141 25.9742 48.3141 25.9888 48.3141C26.0034 48.3141 26.018 48.3141 26.0326 48.3141C26.0472 48.3141 26.0617 48.3141 26.0763 48.3141C26.0909 48.3141 26.1055 48.3141 26.1201 48.3141C26.1347 48.3141 26.1493 48.3141 26.1638 48.3141C26.1784 48.3141 26.193 48.3141 26.2076 48.3141C26.2222 48.3141 26.2368 48.3141 26.2513 48.3141C26.2659 48.3141 26.2805 48.3141 26.2951 48.3141C26.3097 48.3141 26.3242 48.3141 26.3388 48.3141C26.3534 48.3141 26.368 48.3141 26.3826 48.3141C26.3972 48.3141 26.4117 48.3141 26.4263 48.3141C26.4409 48.3141 26.4555 48.3141 26.4701 48.3141C26.4846 48.3141 26.4992 48.3141 26.5138 48.3141C26.5284 48.3141 26.543 48.3141 26.5575 48.3141C26.5721 48.3141 26.5867 48.3141 26.6013 48.3141C26.6159 48.3141 26.6304 48.3141 26.645 48.3141C26.6596 48.3141 26.6742 48.3141 26.6887 48.3141C26.7033 48.3141 26.7179 48.3141 26.7325 48.3141C26.7471 48.3141 26.7616 48.3141 26.7762 48.3141C26.7908 48.3141 26.8054 48.3141 26.8199 48.3141C26.8345 48.3141 26.8491 48.3141 26.8637 48.3141C26.8783 48.3141 26.8928 48.3141 26.9074 48.3141C26.922 48.3141 26.9366 48.3141 26.9511 48.3141C26.9657 48.3141 26.9803 48.3141 26.9949 48.3141C27.0094 48.3141 27.024 48.3141 27.0386 48.3141C27.0532 48.3141 27.0677 48.3141 27.0823 48.3141C27.0969 48.3141 27.1115 48.3141 27.126 48.3141C27.1406 48.3141 27.1552 48.3141 27.1698 48.3141C27.1843 48.3141 27.1989 48.3141 27.2135 48.3141C27.2281 48.3141 27.2426 48.3141 27.2572 48.3141C27.2718 48.3141 27.2863 48.3141 27.3009 48.3141C27.3155 48.3141 27.3301 48.3141 27.3446 48.3141C27.3592 48.3141 27.3738 48.3141 27.3884 48.3141C27.4029 48.3141 27.4175 48.3141 27.4321 48.3141C27.4466 48.3141 27.4612 48.3141 27.4758 48.3141C27.4904 48.3141 27.5049 48.3141 27.5195 48.3141C27.5341 48.3141 27.5486 48.3141 27.5632 48.3141C27.5778 48.3141 27.5923 48.3141 27.6069 48.3141C27.6215 48.3141 27.6361 48.3141 27.6506 48.3141C27.6652 48.3141 27.6798 48.3141 27.6943 48.3141C27.7089 48.3141 27.7235 48.3141 27.738 48.3141C27.7526 48.3141 27.7672 48.3141 27.7817 48.3141C27.7963 48.3141 27.8109 48.3141 27.8255 48.3141C27.84 48.3141 27.8546 48.3141 27.8692 48.3141V44.3141Z" fill="#7A76E4" mask="url(#path-1-inside-1_3027_43)"/>
</svg>
