<svg width="35" height="201" viewBox="0 0 35 201" fill="none" xmlns="http://www.w3.org/2000/svg">
<path d="M20.177 198.205C19.8342 199.463 19.2956 199.761 18.0389 199.397C17.941 199.612 17.8757 199.893 17.7125 200.026C17.3534 200.291 16.9617 200.605 16.5374 200.638C16.3252 200.655 15.9498 200.191 15.8355 199.877C15.607 199.182 15.4765 198.454 15.3459 197.725C15.248 197.163 15.2643 197.163 14.6604 197.179C14.8236 197.974 15.0032 198.751 15.1337 199.546C15.2317 200.191 14.8563 200.539 14.2687 200.721C12.4897 201.267 10.4006 199.827 10.1231 197.874C9.91096 196.418 9.58453 194.978 9.48661 193.505C9.37236 192.032 9.27443 190.509 9.53557 189.086C10.0742 186.09 9.74775 183.128 9.73142 180.149C9.7151 177.865 8.94801 175.763 8.47469 173.578C8.31148 172.817 8.57262 171.973 8.6379 171.178C8.78479 169.639 8.91536 168.083 9.12754 166.544C9.37236 164.707 9.82936 162.886 9.95992 161.033C10.1231 158.65 10.0905 156.25 10.0415 153.866C10.0089 152.162 9.79671 150.474 9.6335 148.785C9.38868 146.237 9.16018 143.704 8.88272 141.156C8.67055 139.252 8.40941 137.349 8.1646 135.446C7.9361 133.708 7.67496 131.987 7.4791 130.249C7.25061 128.213 6.90787 126.161 6.89155 124.109C6.87523 120.947 6.98947 117.77 7.21797 114.609C7.3975 111.96 7.87082 109.329 8.11563 106.681C8.4747 102.907 9.02962 99.1173 8.62159 95.3272C8.45837 93.788 7.91978 92.2984 7.64232 90.7758C7.41382 89.5676 7.23428 88.3429 7.20164 87.1181C7.10372 82.9805 7.02211 78.8429 7.03843 74.7218C7.03843 69.0946 7.26693 63.4674 7.12004 57.8568C7.00579 53.9178 6.53248 49.9787 6.04284 46.0563C5.50424 41.7531 4.73715 37.4666 4.11695 33.1634C3.92109 31.8063 3.95373 30.416 3.74155 29.0589C3.65995 28.5127 3.2356 27.9997 2.89286 27.5362C2.25633 26.6922 1.55452 25.8977 0.820068 25.004C11.5594 16.7122 22.2008 8.48659 32.9565 0.178223C33.1849 2.34634 33.4134 4.41515 33.6256 6.48397C33.8541 8.65209 34.0663 10.8202 34.2621 12.9883C34.3601 14.0807 34.409 15.173 34.4254 16.2653C34.4906 20.3202 34.6375 24.3585 34.5559 28.4134C34.507 30.7967 34.0826 33.18 33.7888 35.5467C33.4787 38.0458 33.1197 40.5284 32.7606 43.011C32.3526 45.9073 31.8956 48.8037 31.5202 51.7166C31.1938 54.1329 30.9326 56.5659 30.6552 58.9988C30.3287 61.7793 30.0186 64.5598 29.7249 67.3403C29.4637 69.889 29.2352 72.4378 29.0067 74.9866C28.7619 77.8002 28.5171 80.6303 28.3049 83.4605C28.1254 85.7941 27.9622 88.1277 27.8643 90.4613C27.75 93.1591 27.6194 95.8568 27.6521 98.5545C27.6847 101.798 27.9295 105.042 27.9785 108.286C28.0111 110.603 27.9622 112.92 27.7826 115.221C27.5868 117.737 27.2277 120.236 26.8523 122.735C26.4933 125.151 26.0526 127.551 25.6283 129.951C24.8612 134.171 24.0941 138.408 23.278 142.612C22.6415 145.922 21.907 149.232 21.2542 152.542C20.6993 155.389 19.8179 158.17 19.8506 161.116C19.8669 162.009 20.0954 162.903 20.128 163.813C20.177 165.452 20.3239 167.123 20.0954 168.729C19.8342 170.599 19.9322 172.42 20.2586 174.207C20.7645 176.987 21.499 179.735 22.0213 182.515C22.6578 185.958 23.1964 189.4 23.7513 192.859C23.8492 193.472 23.8166 194.134 23.735 194.763C23.6371 195.574 23.4412 196.401 22.4456 196.633C22.2824 196.666 22.1518 196.947 22.0702 197.146C21.6948 198.222 21.2379 198.503 20.177 198.205Z" fill="#EAC0AC"/>
</svg>
