<svg width="46" height="134" viewBox="0 0 46 134" fill="none" xmlns="http://www.w3.org/2000/svg">
<path d="M38.7903 112.057C39.0024 113.414 39.0514 114.838 39.4594 116.129C40.0633 118.048 40.9283 119.886 41.6791 121.756C42.3972 123.576 43.1317 125.397 43.8335 127.234C43.9477 127.532 43.9641 127.896 43.9151 128.21C43.7845 129.005 43.1806 129.204 42.5931 128.69C41.2711 127.515 40.6019 125.91 39.7695 124.42C38.9535 122.964 38.1374 121.524 37.305 120.068C37.2887 120.051 37.2887 120.018 37.2561 120.001C36.9786 119.819 36.7011 119.637 36.44 119.455C36.4074 119.786 36.2931 120.117 36.3584 120.432C36.5053 121.127 36.7501 121.789 36.9296 122.467C37.7131 125.447 38.5128 128.426 39.2799 131.405C39.4594 132.133 39.59 133.043 38.8066 133.358C38.4801 133.49 37.6967 132.845 37.3377 132.381C36.8807 131.802 36.6032 131.057 36.3421 130.345C35.3791 127.664 34.4651 124.95 33.5185 122.252C33.3879 121.872 33.2247 121.474 32.9799 121.16C32.8004 120.928 32.4739 120.812 32.2128 120.647C32.1475 120.697 32.0822 120.763 32.017 120.812C32.1149 121.789 32.2128 122.749 32.3434 123.725C32.6045 125.761 32.882 127.797 33.1431 129.832C33.2737 130.908 33.4043 132.001 33.4532 133.076C33.4695 133.341 33.2084 133.838 33.0126 133.871C32.6861 133.92 32.1149 133.805 31.9843 133.573C31.511 132.729 31.0377 131.835 30.8092 130.908C30.189 128.21 29.6993 125.463 29.1118 122.749C28.9486 122.004 28.9323 121.16 28.0509 120.465C27.8387 121.888 27.6102 123.129 27.447 124.404C27.2675 125.877 27.1533 127.35 26.9574 128.823C26.8758 129.468 26.7615 130.345 25.9944 130.329C25.1457 130.312 25.0805 129.386 25.0805 128.724C25.0641 126.489 25.211 124.238 25.1621 122.004C25.1294 120.68 24.8683 119.372 24.6561 118.065C24.3623 116.228 24.0033 114.391 23.7421 112.537C23.5626 111.329 23.4647 110.088 23.4157 108.863C23.3831 107.969 23.5626 107.059 23.5626 106.165C23.5789 104.014 22.7139 102.061 22.0447 100.075C20.38 95.1591 18.6336 90.2767 16.9035 85.3942C15.0756 80.2636 13.3619 75.0833 10.9626 70.1843C9.28157 66.7749 8.75928 63.0345 7.89426 59.3934C7.09452 56.0005 6.03365 52.6739 4.94013 49.3472C3.78133 45.8054 2.50827 42.2967 1.20258 38.8045C0.82719 37.828 0.94144 36.9343 1.07201 35.9909C2.08392 29.0232 3.09584 22.0388 4.10775 15.0711C4.77692 10.4369 5.42976 5.80276 6.13157 0.903809C7.04556 1.74789 7.95955 2.39336 8.61239 3.25399C11.3217 6.71305 12.9375 10.6852 13.3455 15.0545C13.6067 17.8019 13.3945 20.5989 13.3782 23.3794C13.3619 27.1364 13.9494 30.8272 14.7328 34.4683C15.7447 39.2017 16.8546 43.9352 18.2092 48.5859C18.9274 51.085 20.2168 53.4352 21.2939 55.8185C23.3178 60.254 24.9499 64.8054 25.7659 69.6216C26.4514 73.6434 26.9411 77.6983 27.447 81.7531C28.1325 87.43 29.3892 92.9578 31.3968 98.3037C32.0006 99.9091 32.5556 101.531 33.2247 103.103C33.4206 103.534 33.9102 103.947 34.3672 104.146C36.8317 105.222 39.1003 106.579 40.9773 108.548C41.3527 108.946 41.6301 109.459 41.9566 109.922C43.0338 111.494 44.1109 113.067 45.1881 114.639C45.433 115.003 45.7594 115.318 45.9226 115.715C46.0368 115.98 46.0205 116.41 45.8736 116.625C45.7431 116.824 45.335 116.906 45.0576 116.89C43.1317 116.791 41.9566 115.533 40.912 114.076C40.3734 113.332 39.7695 112.653 39.1983 111.941C39.0514 111.958 38.9208 112.008 38.7903 112.057Z" fill="#EAC0AC"/>
</svg>
