<svg width="33" height="48" viewBox="0 0 33 48" fill="none" xmlns="http://www.w3.org/2000/svg">
<path d="M5.2646 47.3141C7.32107 44.0371 6.97832 40.545 6.40708 37.0859C6.17858 35.6295 5.49309 34.2392 5.11771 32.7993C4.77496 31.4753 4.57911 30.1181 4.31797 28.7941C3.19181 29.092 2.40839 28.6617 1.83715 27.0728C1.23327 25.4012 0.759953 23.68 0.384566 21.9587C0.237675 21.3133 0.482495 20.5519 0.662028 19.8734C0.727313 19.6086 1.13534 19.2941 1.4128 19.2775C1.67394 19.261 2.00036 19.5589 2.22886 19.7906C2.44103 20.0058 2.53896 20.3368 2.68585 20.6016C2.75114 20.6016 2.83274 20.585 2.89803 20.585C2.91435 20.3202 2.94699 20.0554 2.94699 19.7906C2.94699 17.2584 2.88171 14.7261 3.43663 12.227C3.92626 9.9927 4.44854 7.74183 5.99905 6.00402C7.77806 4.01796 9.93245 2.69392 12.5928 2.14775C15.857 1.46918 19.0886 1.50228 22.206 2.61116C25.7966 3.88555 28.2938 6.35158 29.3057 10.2079C30.0238 12.9552 30.3666 15.7357 30.2197 18.5824C30.187 19.261 30.285 19.9396 30.4808 20.7174C30.5951 20.5188 30.693 20.2871 30.8562 20.1216C31.1826 19.8072 31.5254 19.3272 31.9008 19.2941C32.5373 19.2113 32.7331 19.9065 32.7495 20.3864C32.7821 21.4291 32.7658 22.4718 32.5862 23.4979C32.2925 25.2192 31.7375 26.8742 30.6604 28.2976C30.1054 29.0258 29.7627 29.1417 28.9956 28.7444C28.6202 30.3995 28.2775 32.0711 27.8368 33.7096C27.5593 34.7688 26.9881 35.7453 26.8249 36.8045C26.4005 39.5188 26.0578 42.2662 26.8902 44.964C27.135 45.7584 27.5267 46.5197 27.8694 47.3141C20.4107 47.3141 12.9029 47.3141 5.2646 47.3141Z" fill="#EAC0AC"/>
<path d="M10.4638 39.5C8.68632 38 6.96378 36 6.96378 36C6.26802 34.7002 4.39473 33.0431 4.01935 31.6032C3.6766 30.2792 2.99991 28.824 2.73877 27.5L2.33827 25.5L1.84863 23L1.5874 21.1864V20.5L1.79967 20C1.79962 20.5473 1.79967 19.3889 1.79967 19.3889C1.81599 19.1241 1.84863 18.8593 1.84863 18.5945C1.84863 16.0623 1.78335 13.53 2.33827 11.0309C2.8279 8.79659 4.35018 6.54572 5.90069 4.80792C7.6797 2.82185 9.83409 1.49781 12.4944 0.951643C15.7587 0.273072 18.9903 0.306173 22.1076 1.41506C25.6983 2.68945 29.1954 5.15548 30.2073 9.01175C30.9255 11.7591 31.2682 14.5396 31.1213 17.3863C31.0887 18.0649 31.3041 18.7221 31.5 19.5L31.1241 20.5V22.2477V23.4517L30.8465 24.9517L30.3465 26.9517L30.2073 27.598C29.8319 29.253 29.1791 30.875 28.7384 32.5135C28.461 33.5727 27.8897 34.5492 27.7265 35.6084L24.9638 38L22.4638 39.5C17.5 43 17.5 42 10.4638 39.5Z" fill="#69290B"/>
</svg>
