<svg width="35" height="180" viewBox="0 0 35 180" fill="none" xmlns="http://www.w3.org/2000/svg">
<mask id="path-1-inside-1_3025_2" fill="white">
<path d="M7.46988 174.144L12.1032 175.79L16.2217 177.644C16.6802 177.822 18.1129 178.511 18.2809 178.644C18.6506 178.909 19.3884 179.111 19.8253 179.144C20.0438 179.16 20.855 179.144 20.855 179.144C20.855 179.144 21.2305 179.144 21.8846 179.144C23.9438 179.144 27.135 178.471 27.4207 176.518L27.5109 175.79L27.5087 175.807L27.0587 173.222C27.2268 172.461 26.9579 171.616 26.8907 170.822C26.7395 169.283 26.605 167.727 26.3866 166.188C26.1345 164.351 25.664 162.53 25.5295 160.677C25.3615 158.293 25.3951 155.893 25.4455 153.51C25.4791 151.805 25.6976 150.117 25.8656 148.429C26.1177 145.88 26.353 143.348 26.6386 140.799C26.8571 138.896 27.126 136.993 27.378 135.089C27.6133 133.352 27.8822 131.63 28.0838 129.893C28.3191 127.857 28.672 125.805 28.6888 123.752C28.7056 120.591 28.588 117.413 28.3527 114.252C28.1678 111.604 27.6805 108.973 27.4284 106.325C27.0587 102.551 26.4874 98.7608 26.9075 94.9708C27.0755 93.4316 27.6301 91.942 27.9158 90.4194C28.151 89.2112 28.3359 87.9864 28.3695 86.7617C28.4703 82.6241 28.5544 78.4864 28.5376 74.3654C28.5376 68.7382 28.3023 63.111 28.4535 57.5004C28.5712 53.5613 29.0585 49.6223 29.5626 45.6998C30.1172 41.3967 30.907 37.1101 31.5456 32.807C31.7472 31.4499 31.7136 30.0596 31.9321 28.7025C32.0161 28.1563 32.453 27.6432 32.8059 27.1798C33.4613 26.3357 34.1839 25.5413 34.9401 24.6476C23.8827 16.3558 13.1801 8.82178 2.18009 0.821777C1.94483 2.9899 1.38127 4.05871 1.16281 6.12753C0.927542 8.29564 0.709089 10.4638 0.507434 12.6319C0.406606 13.7242 0.356193 14.8166 0.339389 15.9089C0.27217 19.9638 0.12092 24.0021 0.204943 28.057C0.255357 30.4403 0.692282 32.8235 0.994765 35.1903C1.31406 37.6894 1.68375 40.172 2.05345 42.6546C2.47357 45.5509 2.9441 48.4472 3.33061 51.3601C3.6667 53.7765 3.93558 56.2094 4.22125 58.6424C4.55735 61.4229 4.87664 64.2033 5.17912 66.9838C5.44799 69.5326 5.68325 72.0814 5.91852 74.6302C6.17059 77.4438 6.42266 80.2739 6.64112 83.104C6.82597 85.4377 6.99401 87.7713 7.09484 90.1049C7.21247 92.8026 7.34692 95.5004 7.31331 98.1981C7.2797 101.442 7.02763 104.686 6.97721 107.93C6.94361 110.247 6.99401 112.564 7.17886 114.865C7.38052 117.38 7.75022 119.879 8.13673 122.379C8.50643 124.795 8.96015 127.195 9.39707 129.595C10.1869 133.815 10.9767 138.052 11.817 142.256C12.4723 145.566 13.2285 148.876 13.9007 152.186C14.4721 155.033 15.3795 157.813 15.3459 160.759C15.3291 161.653 15.6316 162.831 15.3459 163.644C15.6316 165.331 15.4777 164.507 15.3459 166.007C13.9333 166.507 9.52912 165.644 9.52912 165.644L6.44026 164.644H5.09548L3.86621 165.144L2.18009 166.822L1.68009 168.322C1.16528 169.822 3.93606 172.277 4.02008 172.476L7.46988 174.144Z"/>
</mask>
<path d="M7.46988 174.144L6.59929 175.944L6.69753 175.992L6.80036 176.028L7.46988 174.144ZM12.1032 175.79L12.9242 173.966L12.8497 173.933L12.7727 173.905L12.1032 175.79ZM16.2217 177.644L15.4007 179.468L15.4488 179.489L15.4979 179.508L16.2217 177.644ZM18.2809 178.644L17.0395 180.212L17.0769 180.242L17.1157 180.269L18.2809 178.644ZM19.8253 179.144L19.6746 181.138L19.6792 181.138L19.8253 179.144ZM20.855 179.144V177.144H20.8352L20.8155 177.144L20.855 179.144ZM27.4207 176.518L29.3996 176.807L29.4028 176.786L29.4055 176.764L27.4207 176.518ZM27.5109 175.79L29.4957 176.036L25.5274 175.533L27.5109 175.79ZM27.5087 175.807L25.5383 176.15L29.4921 176.063L27.5087 175.807ZM27.0587 173.222L25.1058 172.79L25.0206 173.176L25.0883 173.565L27.0587 173.222ZM26.8907 170.822L28.8836 170.653L28.8824 170.64L28.8811 170.626L26.8907 170.822ZM26.3866 166.188L24.4051 166.46L24.4064 166.469L26.3866 166.188ZM25.5295 160.677L23.5344 160.817L23.5347 160.822L25.5295 160.677ZM25.4455 153.51L27.445 153.552L27.4451 153.549L25.4455 153.51ZM25.8656 148.429L27.8557 148.627L27.8559 148.626L25.8656 148.429ZM26.6386 140.799L24.6516 140.571L24.651 140.576L26.6386 140.799ZM27.378 135.089L25.3961 134.82L25.3953 134.826L27.378 135.089ZM28.0838 129.893L30.0704 130.123L30.0706 130.122L28.0838 129.893ZM28.6888 123.752L30.6887 123.768L30.6887 123.762L28.6888 123.752ZM28.3527 114.252L26.3575 114.391L26.3582 114.4L28.3527 114.252ZM27.4284 106.325L29.4194 106.135L29.4188 106.13L27.4284 106.325ZM26.9075 94.9708L28.8953 95.1911L28.8957 95.1878L26.9075 94.9708ZM27.9158 90.4194L25.9526 90.0372L25.9501 90.0505L27.9158 90.4194ZM28.3695 86.7617L30.3687 86.8165L30.3689 86.8104L28.3695 86.7617ZM28.5376 74.3654L26.5376 74.3654L26.5376 74.3735L28.5376 74.3654ZM28.4535 57.5004L26.4544 57.4406L26.4542 57.4465L28.4535 57.5004ZM29.5626 45.6998L27.579 45.4441L27.5789 45.4448L29.5626 45.6998ZM31.5456 32.807L29.5673 32.5131L29.5672 32.5134L31.5456 32.807ZM31.9321 28.7025L33.9067 29.0204L33.9088 29.0065L31.9321 28.7025ZM32.8059 27.1798L31.2262 25.9532L31.2204 25.9606L31.2147 25.968L32.8059 27.1798ZM34.9401 24.6476L36.4669 25.9395L37.837 24.3201L36.14 23.0475L34.9401 24.6476ZM2.18009 0.821777L3.35643 -0.795694L0.564206 -2.8264L0.191757 0.606026L2.18009 0.821777ZM1.16281 6.12753L3.15114 6.34328L3.15175 6.33755L1.16281 6.12753ZM0.507434 12.6319L-1.48397 12.4467L-1.4841 12.448L0.507434 12.6319ZM0.339389 15.9089L2.33912 15.942L2.33915 15.9396L0.339389 15.9089ZM0.204943 28.057L-1.79463 28.0984L-1.79461 28.0993L0.204943 28.057ZM0.994765 35.1903L2.97864 34.9368L2.97863 34.9367L0.994765 35.1903ZM2.05345 42.6546L4.03275 42.3675L4.03163 42.36L2.05345 42.6546ZM3.33061 51.3601L1.34794 51.6232L1.34967 51.6356L3.33061 51.3601ZM4.22125 58.6424L2.23488 58.8756L2.2357 58.8824L4.22125 58.6424ZM5.17912 66.9838L7.16809 66.774L7.16739 66.7675L5.17912 66.9838ZM5.91852 74.6302L7.91054 74.4517L7.91005 74.4463L5.91852 74.6302ZM6.64112 83.104L4.64704 83.2579L4.64736 83.2619L6.64112 83.104ZM7.09484 90.1049L5.0967 90.1912L5.09673 90.192L7.09484 90.1049ZM7.31331 98.1981L5.31346 98.1732L5.31341 98.1774L7.31331 98.1981ZM6.97721 107.93L4.97745 107.899L4.97742 107.901L6.97721 107.93ZM7.17886 114.865L9.17246 114.705L9.17243 114.705L7.17886 114.865ZM8.13673 122.379L10.1137 122.076L10.1132 122.073L8.13673 122.379ZM9.39707 129.595L7.42938 129.953L7.4312 129.963L9.39707 129.595ZM11.817 142.256L13.7789 141.867L13.7782 141.864L11.817 142.256ZM13.9007 152.186L15.8616 151.792L15.8607 151.788L13.9007 152.186ZM15.3459 160.759L17.3455 160.796L17.3457 160.789L17.3457 160.782L15.3459 160.759ZM15.3459 163.644L13.459 162.981L13.2877 163.468L13.374 163.978L15.3459 163.644ZM15.3459 166.007L16.0132 167.892L17.2256 167.463L17.3382 166.182L15.3459 166.007ZM9.52912 165.644L8.91311 167.547L9.02702 167.583L9.14453 167.606L9.52912 165.644ZM6.44026 164.644L7.05627 162.741L6.75593 162.644H6.44026V164.644ZM5.09548 164.644V162.644H4.70429L4.34193 162.791L5.09548 164.644ZM3.86621 165.144L3.11266 163.291L2.74033 163.443L2.45541 163.726L3.86621 165.144ZM2.18009 166.822L0.769292 165.404L0.432828 165.739L0.282719 166.189L2.18009 166.822ZM1.68009 168.322L3.57177 168.971L3.57465 168.963L3.57745 168.954L1.68009 168.322ZM4.02008 172.476L2.17756 173.254L2.47078 173.948L3.14949 174.276L4.02008 172.476ZM6.80036 176.028L11.4337 177.674L12.7727 173.905L8.13939 172.259L6.80036 176.028ZM11.2822 177.614L15.4007 179.468L17.0427 175.82L12.9242 173.966L11.2822 177.614ZM15.4979 179.508C15.6442 179.565 16.0521 179.75 16.4894 179.961C16.6969 180.061 16.8868 180.156 17.0281 180.23C17.0999 180.267 17.1479 180.293 17.1746 180.309C17.2411 180.346 17.1546 180.303 17.0395 180.212L19.5223 177.076C19.3652 176.951 19.1972 176.857 19.1513 176.831C19.0658 176.783 18.9707 176.732 18.8773 176.683C18.6885 176.585 18.4601 176.471 18.2311 176.36C17.7954 176.149 17.2577 175.901 16.9455 175.779L15.4979 179.508ZM17.1157 180.269C17.5582 180.586 18.0737 180.78 18.4399 180.892C18.8304 181.013 19.2736 181.108 19.6746 181.138L19.9759 177.149C19.9761 177.149 19.9729 177.149 19.9662 177.148C19.9596 177.148 19.9505 177.147 19.9389 177.145C19.9155 177.141 19.8855 177.136 19.85 177.129C19.7776 177.114 19.6962 177.094 19.6159 177.069C19.5344 177.044 19.4699 177.02 19.427 177.001C19.3768 176.978 19.3922 176.98 19.4461 177.018L17.1157 180.269ZM19.6792 181.138C19.8892 181.154 20.2427 181.151 20.4395 181.15C20.5606 181.149 20.6737 181.147 20.7563 181.146C20.7977 181.145 20.8317 181.145 20.8556 181.144C20.8676 181.144 20.877 181.144 20.8836 181.144C20.8869 181.144 20.8895 181.143 20.8913 181.143C20.8922 181.143 20.8929 181.143 20.8934 181.143C20.8937 181.143 20.8939 181.143 20.8941 181.143C20.8942 181.143 20.8942 181.143 20.8943 181.143C20.8943 181.143 20.8944 181.143 20.8944 181.143C20.8944 181.143 20.8944 181.143 20.855 179.144C20.8155 177.144 20.8155 177.144 20.8156 177.144C20.8156 177.144 20.8156 177.144 20.8156 177.144C20.8156 177.144 20.8156 177.144 20.8156 177.144C20.8155 177.144 20.8155 177.144 20.8153 177.144C20.8151 177.144 20.8146 177.144 20.814 177.144C20.8127 177.144 20.8107 177.144 20.808 177.144C20.8026 177.144 20.7944 177.145 20.7837 177.145C20.7624 177.145 20.7314 177.146 20.6933 177.146C20.6169 177.147 20.5137 177.149 20.4047 177.15C20.2946 177.151 20.1843 177.151 20.0924 177.151C19.9818 177.15 19.9517 177.148 19.9714 177.149L19.6792 181.138ZM20.855 179.144C20.855 181.144 20.855 181.144 20.855 181.144C20.855 181.144 20.855 181.144 20.855 181.144C20.855 181.144 20.855 181.144 20.855 181.144C20.855 181.144 20.855 181.144 20.855 181.144C20.8551 181.144 20.8551 181.144 20.8551 181.144C20.8551 181.144 20.8551 181.144 20.8551 181.144C20.8551 181.144 20.8552 181.144 20.8552 181.144C20.8552 181.144 20.8552 181.144 20.8553 181.144C20.8553 181.144 20.8553 181.144 20.8553 181.144C20.8553 181.144 20.8554 181.144 20.8554 181.144C20.8554 181.144 20.8555 181.144 20.8555 181.144C20.8555 181.144 20.8556 181.144 20.8556 181.144C20.8556 181.144 20.8557 181.144 20.8557 181.144C20.8557 181.144 20.8558 181.144 20.8558 181.144C20.8559 181.144 20.8559 181.144 20.8559 181.144C20.856 181.144 20.856 181.144 20.8561 181.144C20.8561 181.144 20.8562 181.144 20.8562 181.144C20.8563 181.144 20.8563 181.144 20.8564 181.144C20.8564 181.144 20.8565 181.144 20.8565 181.144C20.8566 181.144 20.8566 181.144 20.8567 181.144C20.8567 181.144 20.8568 181.144 20.8569 181.144C20.8569 181.144 20.857 181.144 20.857 181.144C20.8571 181.144 20.8572 181.144 20.8572 181.144C20.8573 181.144 20.8574 181.144 20.8574 181.144C20.8575 181.144 20.8576 181.144 20.8577 181.144C20.8577 181.144 20.8578 181.144 20.8579 181.144C20.8579 181.144 20.858 181.144 20.8581 181.144C20.8582 181.144 20.8583 181.144 20.8583 181.144C20.8584 181.144 20.8585 181.144 20.8586 181.144C20.8587 181.144 20.8587 181.144 20.8588 181.144C20.8589 181.144 20.859 181.144 20.8591 181.144C20.8592 181.144 20.8593 181.144 20.8594 181.144C20.8594 181.144 20.8595 181.144 20.8596 181.144C20.8597 181.144 20.8598 181.144 20.8599 181.144C20.86 181.144 20.8601 181.144 20.8602 181.144C20.8603 181.144 20.8604 181.144 20.8605 181.144C20.8606 181.144 20.8607 181.144 20.8608 181.144C20.8609 181.144 20.861 181.144 20.8611 181.144C20.8613 181.144 20.8614 181.144 20.8615 181.144C20.8616 181.144 20.8617 181.144 20.8618 181.144C20.8619 181.144 20.862 181.144 20.8622 181.144C20.8623 181.144 20.8624 181.144 20.8625 181.144C20.8626 181.144 20.8627 181.144 20.8629 181.144C20.863 181.144 20.8631 181.144 20.8632 181.144C20.8634 181.144 20.8635 181.144 20.8636 181.144C20.8637 181.144 20.8639 181.144 20.864 181.144C20.8641 181.144 20.8643 181.144 20.8644 181.144C20.8645 181.144 20.8647 181.144 20.8648 181.144C20.8649 181.144 20.8651 181.144 20.8652 181.144C20.8653 181.144 20.8655 181.144 20.8656 181.144C20.8658 181.144 20.8659 181.144 20.8661 181.144C20.8662 181.144 20.8663 181.144 20.8665 181.144C20.8666 181.144 20.8668 181.144 20.8669 181.144C20.8671 181.144 20.8672 181.144 20.8674 181.144C20.8675 181.144 20.8677 181.144 20.8679 181.144C20.868 181.144 20.8682 181.144 20.8683 181.144C20.8685 181.144 20.8686 181.144 20.8688 181.144C20.869 181.144 20.8691 181.144 20.8693 181.144C20.8695 181.144 20.8696 181.144 20.8698 181.144C20.87 181.144 20.8701 181.144 20.8703 181.144C20.8705 181.144 20.8706 181.144 20.8708 181.144C20.871 181.144 20.8711 181.144 20.8713 181.144C20.8715 181.144 20.8717 181.144 20.8719 181.144C20.872 181.144 20.8722 181.144 20.8724 181.144C20.8726 181.144 20.8728 181.144 20.8729 181.144C20.8731 181.144 20.8733 181.144 20.8735 181.144C20.8737 181.144 20.8739 181.144 20.874 181.144C20.8742 181.144 20.8744 181.144 20.8746 181.144C20.8748 181.144 20.875 181.144 20.8752 181.144C20.8754 181.144 20.8756 181.144 20.8758 181.144C20.876 181.144 20.8762 181.144 20.8764 181.144C20.8766 181.144 20.8768 181.144 20.877 181.144C20.8772 181.144 20.8774 181.144 20.8776 181.144C20.8778 181.144 20.878 181.144 20.8782 181.144C20.8784 181.144 20.8786 181.144 20.8788 181.144C20.8791 181.144 20.8793 181.144 20.8795 181.144C20.8797 181.144 20.8799 181.144 20.8801 181.144C20.8803 181.144 20.8806 181.144 20.8808 181.144C20.881 181.144 20.8812 181.144 20.8814 181.144C20.8817 181.144 20.8819 181.144 20.8821 181.144C20.8823 181.144 20.8826 181.144 20.8828 181.144C20.883 181.144 20.8832 181.144 20.8835 181.144C20.8837 181.144 20.8839 181.144 20.8842 181.144C20.8844 181.144 20.8846 181.144 20.8849 181.144C20.8851 181.144 20.8853 181.144 20.8856 181.144C20.8858 181.144 20.8861 181.144 20.8863 181.144C20.8865 181.144 20.8868 181.144 20.887 181.144C20.8873 181.144 20.8875 181.144 20.8878 181.144C20.888 181.144 20.8883 181.144 20.8885 181.144C20.8888 181.144 20.889 181.144 20.8893 181.144C20.8895 181.144 20.8898 181.144 20.89 181.144C20.8903 181.144 20.8905 181.144 20.8908 181.144C20.891 181.144 20.8913 181.144 20.8916 181.144C20.8918 181.144 20.8921 181.144 20.8923 181.144C20.8926 181.144 20.8929 181.144 20.8931 181.144C20.8934 181.144 20.8937 181.144 20.8939 181.144C20.8942 181.144 20.8945 181.144 20.8948 181.144C20.895 181.144 20.8953 181.144 20.8956 181.144C20.8958 181.144 20.8961 181.144 20.8964 181.144C20.8967 181.144 20.8969 181.144 20.8972 181.144C20.8975 181.144 20.8978 181.144 20.8981 181.144C20.8984 181.144 20.8986 181.144 20.8989 181.144C20.8992 181.144 20.8995 181.144 20.8998 181.144C20.9001 181.144 20.9004 181.144 20.9006 181.144C20.9009 181.144 20.9012 181.144 20.9015 181.144C20.9018 181.144 20.9021 181.144 20.9024 181.144C20.9027 181.144 20.903 181.144 20.9033 181.144C20.9036 181.144 20.9039 181.144 20.9042 181.144C20.9045 181.144 20.9048 181.144 20.9051 181.144C20.9054 181.144 20.9057 181.144 20.906 181.144C20.9063 181.144 20.9066 181.144 20.9069 181.144C20.9072 181.144 20.9076 181.144 20.9079 181.144C20.9082 181.144 20.9085 181.144 20.9088 181.144C20.9091 181.144 20.9094 181.144 20.9098 181.144C20.9101 181.144 20.9104 181.144 20.9107 181.144C20.911 181.144 20.9114 181.144 20.9117 181.144C20.912 181.144 20.9123 181.144 20.9126 181.144C20.913 181.144 20.9133 181.144 20.9136 181.144C20.914 181.144 20.9143 181.144 20.9146 181.144C20.9149 181.144 20.9153 181.144 20.9156 181.144C20.9159 181.144 20.9163 181.144 20.9166 181.144C20.9169 181.144 20.9173 181.144 20.9176 181.144C20.918 181.144 20.9183 181.144 20.9186 181.144C20.919 181.144 20.9193 181.144 20.9197 181.144C20.92 181.144 20.9204 181.144 20.9207 181.144C20.9211 181.144 20.9214 181.144 20.9218 181.144C20.9221 181.144 20.9225 181.144 20.9228 181.144C20.9232 181.144 20.9235 181.144 20.9239 181.144C20.9242 181.144 20.9246 181.144 20.9249 181.144C20.9253 181.144 20.9257 181.144 20.926 181.144C20.9264 181.144 20.9267 181.144 20.9271 181.144C20.9275 181.144 20.9278 181.144 20.9282 181.144C20.9286 181.144 20.9289 181.144 20.9293 181.144C20.9297 181.144 20.93 181.144 20.9304 181.144C20.9308 181.144 20.9311 181.144 20.9315 181.144C20.9319 181.144 20.9323 181.144 20.9326 181.144C20.933 181.144 20.9334 181.144 20.9338 181.144C20.9342 181.144 20.9345 181.144 20.9349 181.144C20.9353 181.144 20.9357 181.144 20.9361 181.144C20.9364 181.144 20.9368 181.144 20.9372 181.144C20.9376 181.144 20.938 181.144 20.9384 181.144C20.9388 181.144 20.9392 181.144 20.9396 181.144C20.94 181.144 20.9403 181.144 20.9407 181.144C20.9411 181.144 20.9415 181.144 20.9419 181.144C20.9423 181.144 20.9427 181.144 20.9431 181.144C20.9435 181.144 20.9439 181.144 20.9443 181.144C20.9447 181.144 20.9451 181.144 20.9455 181.144C20.9459 181.144 20.9464 181.144 20.9468 181.144C20.9472 181.144 20.9476 181.144 20.948 181.144C20.9484 181.144 20.9488 181.144 20.9492 181.144C20.9496 181.144 20.9501 181.144 20.9505 181.144C20.9509 181.144 20.9513 181.144 20.9517 181.144C20.9521 181.144 20.9526 181.144 20.953 181.144C20.9534 181.144 20.9538 181.144 20.9543 181.144C20.9547 181.144 20.9551 181.144 20.9555 181.144C20.956 181.144 20.9564 181.144 20.9568 181.144C20.9572 181.144 20.9577 181.144 20.9581 181.144C20.9585 181.144 20.959 181.144 20.9594 181.144C20.9598 181.144 20.9603 181.144 20.9607 181.144C20.9612 181.144 20.9616 181.144 20.962 181.144C20.9625 181.144 20.9629 181.144 20.9634 181.144C20.9638 181.144 20.9642 181.144 20.9647 181.144C20.9651 181.144 20.9656 181.144 20.966 181.144C20.9665 181.144 20.9669 181.144 20.9674 181.144C20.9678 181.144 20.9683 181.144 20.9687 181.144C20.9692 181.144 20.9696 181.144 20.9701 181.144C20.9705 181.144 20.971 181.144 20.9715 181.144C20.9719 181.144 20.9724 181.144 20.9728 181.144C20.9733 181.144 20.9738 181.144 20.9742 181.144C20.9747 181.144 20.9752 181.144 20.9756 181.144C20.9761 181.144 20.9766 181.144 20.977 181.144C20.9775 181.144 20.978 181.144 20.9784 181.144C20.9789 181.144 20.9794 181.144 20.9799 181.144C20.9803 181.144 20.9808 181.144 20.9813 181.144C20.9818 181.144 20.9822 181.144 20.9827 181.144C20.9832 181.144 20.9837 181.144 20.9842 181.144C20.9846 181.144 20.9851 181.144 20.9856 181.144C20.9861 181.144 20.9866 181.144 20.9871 181.144C20.9875 181.144 20.988 181.144 20.9885 181.144C20.989 181.144 20.9895 181.144 20.99 181.144C20.9905 181.144 20.991 181.144 20.9915 181.144C20.992 181.144 20.9925 181.144 20.993 181.144C20.9935 181.144 20.994 181.144 20.9945 181.144C20.995 181.144 20.9955 181.144 20.996 181.144C20.9965 181.144 20.997 181.144 20.9975 181.144C20.998 181.144 20.9985 181.144 20.999 181.144C20.9995 181.144 21 181.144 21.0005 181.144C21.001 181.144 21.0015 181.144 21.0021 181.144C21.0026 181.144 21.0031 181.144 21.0036 181.144C21.0041 181.144 21.0046 181.144 21.0052 181.144C21.0057 181.144 21.0062 181.144 21.0067 181.144C21.0072 181.144 21.0078 181.144 21.0083 181.144C21.0088 181.144 21.0093 181.144 21.0099 181.144C21.0104 181.144 21.0109 181.144 21.0114 181.144C21.012 181.144 21.0125 181.144 21.013 181.144C21.0136 181.144 21.0141 181.144 21.0146 181.144C21.0152 181.144 21.0157 181.144 21.0162 181.144C21.0168 181.144 21.0173 181.144 21.0178 181.144C21.0184 181.144 21.0189 181.144 21.0195 181.144C21.02 181.144 21.0205 181.144 21.0211 181.144C21.0216 181.144 21.0222 181.144 21.0227 181.144C21.0233 181.144 21.0238 181.144 21.0244 181.144C21.0249 181.144 21.0255 181.144 21.026 181.144C21.0266 181.144 21.0271 181.144 21.0277 181.144C21.0282 181.144 21.0288 181.144 21.0293 181.144C21.0299 181.144 21.0305 181.144 21.031 181.144C21.0316 181.144 21.0321 181.144 21.0327 181.144C21.0333 181.144 21.0338 181.144 21.0344 181.144C21.035 181.144 21.0355 181.144 21.0361 181.144C21.0367 181.144 21.0372 181.144 21.0378 181.144C21.0384 181.144 21.0389 181.144 21.0395 181.144C21.0401 181.144 21.0407 181.144 21.0412 181.144C21.0418 181.144 21.0424 181.144 21.043 181.144C21.0435 181.144 21.0441 181.144 21.0447 181.144C21.0453 181.144 21.0459 181.144 21.0464 181.144C21.047 181.144 21.0476 181.144 21.0482 181.144C21.0488 181.144 21.0494 181.144 21.05 181.144C21.0505 181.144 21.0511 181.144 21.0517 181.144C21.0523 181.144 21.0529 181.144 21.0535 181.144C21.0541 181.144 21.0547 181.144 21.0553 181.144C21.0559 181.144 21.0565 181.144 21.0571 181.144C21.0577 181.144 21.0583 181.144 21.0589 181.144C21.0595 181.144 21.0601 181.144 21.0607 181.144C21.0613 181.144 21.0619 181.144 21.0625 181.144C21.0631 181.144 21.0637 181.144 21.0643 181.144C21.0649 181.144 21.0655 181.144 21.0661 181.144C21.0667 181.144 21.0674 181.144 21.068 181.144C21.0686 181.144 21.0692 181.144 21.0698 181.144C21.0704 181.144 21.071 181.144 21.0717 181.144C21.0723 181.144 21.0729 181.144 21.0735 181.144C21.0741 181.144 21.0748 181.144 21.0754 181.144C21.076 181.144 21.0766 181.144 21.0773 181.144C21.0779 181.144 21.0785 181.144 21.0791 181.144C21.0798 181.144 21.0804 181.144 21.081 181.144C21.0817 181.144 21.0823 181.144 21.0829 181.144C21.0836 181.144 21.0842 181.144 21.0848 181.144C21.0855 181.144 21.0861 181.144 21.0867 181.144C21.0874 181.144 21.088 181.144 21.0887 181.144C21.0893 181.144 21.0899 181.144 21.0906 181.144C21.0912 181.144 21.0919 181.144 21.0925 181.144C21.0932 181.144 21.0938 181.144 21.0945 181.144C21.0951 181.144 21.0958 181.144 21.0964 181.144C21.0971 181.144 21.0977 181.144 21.0984 181.144C21.099 181.144 21.0997 181.144 21.1003 181.144C21.101 181.144 21.1016 181.144 21.1023 181.144C21.103 181.144 21.1036 181.144 21.1043 181.144C21.1049 181.144 21.1056 181.144 21.1063 181.144C21.1069 181.144 21.1076 181.144 21.1083 181.144C21.1089 181.144 21.1096 181.144 21.1103 181.144C21.1109 181.144 21.1116 181.144 21.1123 181.144C21.1129 181.144 21.1136 181.144 21.1143 181.144C21.115 181.144 21.1156 181.144 21.1163 181.144C21.117 181.144 21.1177 181.144 21.1183 181.144C21.119 181.144 21.1197 181.144 21.1204 181.144C21.1211 181.144 21.1218 181.144 21.1224 181.144C21.1231 181.144 21.1238 181.144 21.1245 181.144C21.1252 181.144 21.1259 181.144 21.1266 181.144C21.1272 181.144 21.1279 181.144 21.1286 181.144C21.1293 181.144 21.13 181.144 21.1307 181.144C21.1314 181.144 21.1321 181.144 21.1328 181.144C21.1335 181.144 21.1342 181.144 21.1349 181.144C21.1356 181.144 21.1363 181.144 21.137 181.144C21.1377 181.144 21.1384 181.144 21.1391 181.144C21.1398 181.144 21.1405 181.144 21.1412 181.144C21.1419 181.144 21.1426 181.144 21.1433 181.144C21.144 181.144 21.1447 181.144 21.1454 181.144C21.1462 181.144 21.1469 181.144 21.1476 181.144C21.1483 181.144 21.149 181.144 21.1497 181.144C21.1504 181.144 21.1512 181.144 21.1519 181.144C21.1526 181.144 21.1533 181.144 21.154 181.144C21.1548 181.144 21.1555 181.144 21.1562 181.144C21.1569 181.144 21.1576 181.144 21.1584 181.144C21.1591 181.144 21.1598 181.144 21.1606 181.144C21.1613 181.144 21.162 181.144 21.1627 181.144C21.1635 181.144 21.1642 181.144 21.1649 181.144C21.1657 181.144 21.1664 181.144 21.1671 181.144C21.1679 181.144 21.1686 181.144 21.1694 181.144C21.1701 181.144 21.1708 181.144 21.1716 181.144C21.1723 181.144 21.1731 181.144 21.1738 181.144C21.1745 181.144 21.1753 181.144 21.176 181.144C21.1768 181.144 21.1775 181.144 21.1783 181.144C21.179 181.144 21.1798 181.144 21.1805 181.144C21.1813 181.144 21.182 181.144 21.1828 181.144C21.1835 181.144 21.1843 181.144 21.185 181.144C21.1858 181.144 21.1865 181.144 21.1873 181.144C21.1881 181.144 21.1888 181.144 21.1896 181.144C21.1903 181.144 21.1911 181.144 21.1919 181.144C21.1926 181.144 21.1934 181.144 21.1942 181.144C21.1949 181.144 21.1957 181.144 21.1965 181.144C21.1972 181.144 21.198 181.144 21.1988 181.144C21.1995 181.144 21.2003 181.144 21.2011 181.144C21.2019 181.144 21.2026 181.144 21.2034 181.144C21.2042 181.144 21.205 181.144 21.2057 181.144C21.2065 181.144 21.2073 181.144 21.2081 181.144C21.2088 181.144 21.2096 181.144 21.2104 181.144C21.2112 181.144 21.212 181.144 21.2128 181.144C21.2135 181.144 21.2143 181.144 21.2151 181.144C21.2159 181.144 21.2167 181.144 21.2175 181.144C21.2183 181.144 21.2191 181.144 21.2199 181.144C21.2206 181.144 21.2214 181.144 21.2222 181.144C21.223 181.144 21.2238 181.144 21.2246 181.144C21.2254 181.144 21.2262 181.144 21.227 181.144C21.2278 181.144 21.2286 181.144 21.2294 181.144C21.2302 181.144 21.231 181.144 21.2318 181.144C21.2326 181.144 21.2334 181.144 21.2342 181.144C21.2351 181.144 21.2359 181.144 21.2367 181.144C21.2375 181.144 21.2383 181.144 21.2391 181.144C21.2399 181.144 21.2407 181.144 21.2415 181.144C21.2423 181.144 21.2432 181.144 21.244 181.144C21.2448 181.144 21.2456 181.144 21.2464 181.144C21.2473 181.144 21.2481 181.144 21.2489 181.144C21.2497 181.144 21.2505 181.144 21.2514 181.144C21.2522 181.144 21.253 181.144 21.2538 181.144C21.2547 181.144 21.2555 181.144 21.2563 181.144C21.2571 181.144 21.258 181.144 21.2588 181.144C21.2596 181.144 21.2605 181.144 21.2613 181.144C21.2621 181.144 21.263 181.144 21.2638 181.144C21.2646 181.144 21.2655 181.144 21.2663 181.144C21.2672 181.144 21.268 181.144 21.2688 181.144C21.2697 181.144 21.2705 181.144 21.2714 181.144C21.2722 181.144 21.273 181.144 21.2739 181.144C21.2747 181.144 21.2756 181.144 21.2764 181.144C21.2773 181.144 21.2781 181.144 21.279 181.144C21.2798 181.144 21.2807 181.144 21.2815 181.144C21.2824 181.144 21.2832 181.144 21.2841 181.144C21.2849 181.144 21.2858 181.144 21.2867 181.144C21.2875 181.144 21.2884 181.144 21.2892 181.144C21.2901 181.144 21.291 181.144 21.2918 181.144C21.2927 181.144 21.2935 181.144 21.2944 181.144C21.2953 181.144 21.2961 181.144 21.297 181.144C21.2979 181.144 21.2987 181.144 21.2996 181.144C21.3005 181.144 21.3013 181.144 21.3022 181.144C21.3031 181.144 21.304 181.144 21.3048 181.144C21.3057 181.144 21.3066 181.144 21.3075 181.144C21.3083 181.144 21.3092 181.144 21.3101 181.144C21.311 181.144 21.3119 181.144 21.3127 181.144C21.3136 181.144 21.3145 181.144 21.3154 181.144C21.3163 181.144 21.3171 181.144 21.318 181.144C21.3189 181.144 21.3198 181.144 21.3207 181.144C21.3216 181.144 21.3225 181.144 21.3234 181.144C21.3243 181.144 21.3251 181.144 21.326 181.144C21.3269 181.144 21.3278 181.144 21.3287 181.144C21.3296 181.144 21.3305 181.144 21.3314 181.144C21.3323 181.144 21.3332 181.144 21.3341 181.144C21.335 181.144 21.3359 181.144 21.3368 181.144C21.3377 181.144 21.3386 181.144 21.3395 181.144C21.3404 181.144 21.3413 181.144 21.3422 181.144C21.3431 181.144 21.3441 181.144 21.345 181.144C21.3459 181.144 21.3468 181.144 21.3477 181.144C21.3486 181.144 21.3495 181.144 21.3504 181.144C21.3513 181.144 21.3523 181.144 21.3532 181.144C21.3541 181.144 21.355 181.144 21.3559 181.144C21.3569 181.144 21.3578 181.144 21.3587 181.144C21.3596 181.144 21.3605 181.144 21.3615 181.144C21.3624 181.144 21.3633 181.144 21.3642 181.144C21.3652 181.144 21.3661 181.144 21.367 181.144C21.3679 181.144 21.3689 181.144 21.3698 181.144C21.3707 181.144 21.3717 181.144 21.3726 181.144C21.3735 181.144 21.3745 181.144 21.3754 181.144C21.3763 181.144 21.3773 181.144 21.3782 181.144C21.3792 181.144 21.3801 181.144 21.381 181.144C21.382 181.144 21.3829 181.144 21.3839 181.144C21.3848 181.144 21.3857 181.144 21.3867 181.144C21.3876 181.144 21.3886 181.144 21.3895 181.144C21.3905 181.144 21.3914 181.144 21.3924 181.144C21.3933 181.144 21.3943 181.144 21.3952 181.144C21.3962 181.144 21.3971 181.144 21.3981 181.144C21.399 181.144 21.4 181.144 21.4009 181.144C21.4019 181.144 21.4029 181.144 21.4038 181.144C21.4048 181.144 21.4057 181.144 21.4067 181.144C21.4077 181.144 21.4086 181.144 21.4096 181.144C21.4106 181.144 21.4115 181.144 21.4125 181.144C21.4134 181.144 21.4144 181.144 21.4154 181.144C21.4163 181.144 21.4173 181.144 21.4183 181.144C21.4193 181.144 21.4202 181.144 21.4212 181.144C21.4222 181.144 21.4232 181.144 21.4241 181.144C21.4251 181.144 21.4261 181.144 21.4271 181.144C21.428 181.144 21.429 181.144 21.43 181.144C21.431 181.144 21.432 181.144 21.4329 181.144C21.4339 181.144 21.4349 181.144 21.4359 181.144C21.4369 181.144 21.4379 181.144 21.4388 181.144C21.4398 181.144 21.4408 181.144 21.4418 181.144C21.4428 181.144 21.4438 181.144 21.4448 181.144C21.4458 181.144 21.4468 181.144 21.4478 181.144C21.4487 181.144 21.4497 181.144 21.4507 181.144C21.4517 181.144 21.4527 181.144 21.4537 181.144C21.4547 181.144 21.4557 181.144 21.4567 181.144C21.4577 181.144 21.4587 181.144 21.4597 181.144C21.4607 181.144 21.4617 181.144 21.4627 181.144C21.4637 181.144 21.4648 181.144 21.4658 181.144C21.4668 181.144 21.4678 181.144 21.4688 181.144C21.4698 181.144 21.4708 181.144 21.4718 181.144C21.4728 181.144 21.4738 181.144 21.4749 181.144C21.4759 181.144 21.4769 181.144 21.4779 181.144C21.4789 181.144 21.4799 181.144 21.481 181.144C21.482 181.144 21.483 181.144 21.484 181.144C21.485 181.144 21.4861 181.144 21.4871 181.144C21.4881 181.144 21.4891 181.144 21.4902 181.144C21.4912 181.144 21.4922 181.144 21.4932 181.144C21.4943 181.144 21.4953 181.144 21.4963 181.144C21.4974 181.144 21.4984 181.144 21.4994 181.144C21.5005 181.144 21.5015 181.144 21.5025 181.144C21.5036 181.144 21.5046 181.144 21.5056 181.144C21.5067 181.144 21.5077 181.144 21.5088 181.144C21.5098 181.144 21.5108 181.144 21.5119 181.144C21.5129 181.144 21.514 181.144 21.515 181.144C21.516 181.144 21.5171 181.144 21.5181 181.144C21.5192 181.144 21.5202 181.144 21.5213 181.144C21.5223 181.144 21.5234 181.144 21.5244 181.144C21.5255 181.144 21.5265 181.144 21.5276 181.144C21.5286 181.144 21.5297 181.144 21.5307 181.144C21.5318 181.144 21.5329 181.144 21.5339 181.144C21.535 181.144 21.536 181.144 21.5371 181.144C21.5382 181.144 21.5392 181.144 21.5403 181.144C21.5413 181.144 21.5424 181.144 21.5435 181.144C21.5445 181.144 21.5456 181.144 21.5467 181.144C21.5477 181.144 21.5488 181.144 21.5499 181.144C21.5509 181.144 21.552 181.144 21.5531 181.144C21.5542 181.144 21.5552 181.144 21.5563 181.144C21.5574 181.144 21.5584 181.144 21.5595 181.144C21.5606 181.144 21.5617 181.144 21.5628 181.144C21.5638 181.144 21.5649 181.144 21.566 181.144C21.5671 181.144 21.5682 181.144 21.5692 181.144C21.5703 181.144 21.5714 181.144 21.5725 181.144C21.5736 181.144 21.5747 181.144 21.5757 181.144C21.5768 181.144 21.5779 181.144 21.579 181.144C21.5801 181.144 21.5812 181.144 21.5823 181.144C21.5834 181.144 21.5845 181.144 21.5856 181.144C21.5867 181.144 21.5877 181.144 21.5888 181.144C21.5899 181.144 21.591 181.144 21.5921 181.144C21.5932 181.144 21.5943 181.144 21.5954 181.144C21.5965 181.144 21.5976 181.144 21.5987 181.144C21.5998 181.144 21.6009 181.144 21.6021 181.144C21.6032 181.144 21.6043 181.144 21.6054 181.144C21.6065 181.144 21.6076 181.144 21.6087 181.144C21.6098 181.144 21.6109 181.144 21.612 181.144C21.6131 181.144 21.6143 181.144 21.6154 181.144C21.6165 181.144 21.6176 181.144 21.6187 181.144C21.6198 181.144 21.6209 181.144 21.6221 181.144C21.6232 181.144 21.6243 181.144 21.6254 181.144C21.6265 181.144 21.6277 181.144 21.6288 181.144C21.6299 181.144 21.631 181.144 21.6322 181.144C21.6333 181.144 21.6344 181.144 21.6355 181.144C21.6367 181.144 21.6378 181.144 21.6389 181.144C21.6401 181.144 21.6412 181.144 21.6423 181.144C21.6435 181.144 21.6446 181.144 21.6457 181.144C21.6469 181.144 21.648 181.144 21.6491 181.144C21.6503 181.144 21.6514 181.144 21.6525 181.144C21.6537 181.144 21.6548 181.144 21.656 181.144C21.6571 181.144 21.6582 181.144 21.6594 181.144C21.6605 181.144 21.6617 181.144 21.6628 181.144C21.664 181.144 21.6651 181.144 21.6663 181.144C21.6674 181.144 21.6685 181.144 21.6697 181.144C21.6708 181.144 21.672 181.144 21.6731 181.144C21.6743 181.144 21.6755 181.144 21.6766 181.144C21.6778 181.144 21.6789 181.144 21.6801 181.144C21.6812 181.144 21.6824 181.144 21.6835 181.144C21.6847 181.144 21.6859 181.144 21.687 181.144C21.6882 181.144 21.6893 181.144 21.6905 181.144C21.6917 181.144 21.6928 181.144 21.694 181.144C21.6952 181.144 21.6963 181.144 21.6975 181.144C21.6987 181.144 21.6998 181.144 21.701 181.144C21.7022 181.144 21.7033 181.144 21.7045 181.144C21.7057 181.144 21.7069 181.144 21.708 181.144C21.7092 181.144 21.7104 181.144 21.7116 181.144C21.7127 181.144 21.7139 181.144 21.7151 181.144C21.7163 181.144 21.7174 181.144 21.7186 181.144C21.7198 181.144 21.721 181.144 21.7222 181.144C21.7234 181.144 21.7245 181.144 21.7257 181.144C21.7269 181.144 21.7281 181.144 21.7293 181.144C21.7305 181.144 21.7317 181.144 21.7328 181.144C21.734 181.144 21.7352 181.144 21.7364 181.144C21.7376 181.144 21.7388 181.144 21.74 181.144C21.7412 181.144 21.7424 181.144 21.7436 181.144C21.7448 181.144 21.746 181.144 21.7472 181.144C21.7484 181.144 21.7496 181.144 21.7508 181.144C21.752 181.144 21.7532 181.144 21.7544 181.144C21.7556 181.144 21.7568 181.144 21.758 181.144C21.7592 181.144 21.7604 181.144 21.7616 181.144C21.7628 181.144 21.764 181.144 21.7652 181.144C21.7664 181.144 21.7676 181.144 21.7688 181.144C21.7701 181.144 21.7713 181.144 21.7725 181.144C21.7737 181.144 21.7749 181.144 21.7761 181.144C21.7773 181.144 21.7786 181.144 21.7798 181.144C21.781 181.144 21.7822 181.144 21.7834 181.144C21.7847 181.144 21.7859 181.144 21.7871 181.144C21.7883 181.144 21.7895 181.144 21.7908 181.144C21.792 181.144 21.7932 181.144 21.7944 181.144C21.7957 181.144 21.7969 181.144 21.7981 181.144C21.7993 181.144 21.8006 181.144 21.8018 181.144C21.803 181.144 21.8043 181.144 21.8055 181.144C21.8067 181.144 21.808 181.144 21.8092 181.144C21.8104 181.144 21.8117 181.144 21.8129 181.144C21.8141 181.144 21.8154 181.144 21.8166 181.144C21.8179 181.144 21.8191 181.144 21.8203 181.144C21.8216 181.144 21.8228 181.144 21.8241 181.144C21.8253 181.144 21.8266 181.144 21.8278 181.144C21.8291 181.144 21.8303 181.144 21.8315 181.144C21.8328 181.144 21.834 181.144 21.8353 181.144C21.8365 181.144 21.8378 181.144 21.839 181.144C21.8403 181.144 21.8415 181.144 21.8428 181.144C21.8441 181.144 21.8453 181.144 21.8466 181.144C21.8478 181.144 21.8491 181.144 21.8503 181.144C21.8516 181.144 21.8529 181.144 21.8541 181.144C21.8554 181.144 21.8566 181.144 21.8579 181.144C21.8592 181.144 21.8604 181.144 21.8617 181.144C21.863 181.144 21.8642 181.144 21.8655 181.144C21.8668 181.144 21.868 181.144 21.8693 181.144C21.8706 181.144 21.8718 181.144 21.8731 181.144C21.8744 181.144 21.8756 181.144 21.8769 181.144C21.8782 181.144 21.8795 181.144 21.8807 181.144C21.882 181.144 21.8833 181.144 21.8846 181.144V177.144C21.8833 177.144 21.882 177.144 21.8807 177.144C21.8795 177.144 21.8782 177.144 21.8769 177.144C21.8756 177.144 21.8744 177.144 21.8731 177.144C21.8718 177.144 21.8706 177.144 21.8693 177.144C21.868 177.144 21.8668 177.144 21.8655 177.144C21.8642 177.144 21.863 177.144 21.8617 177.144C21.8604 177.144 21.8592 177.144 21.8579 177.144C21.8566 177.144 21.8554 177.144 21.8541 177.144C21.8529 177.144 21.8516 177.144 21.8503 177.144C21.8491 177.144 21.8478 177.144 21.8466 177.144C21.8453 177.144 21.8441 177.144 21.8428 177.144C21.8415 177.144 21.8403 177.144 21.839 177.144C21.8378 177.144 21.8365 177.144 21.8353 177.144C21.834 177.144 21.8328 177.144 21.8315 177.144C21.8303 177.144 21.8291 177.144 21.8278 177.144C21.8266 177.144 21.8253 177.144 21.8241 177.144C21.8228 177.144 21.8216 177.144 21.8203 177.144C21.8191 177.144 21.8179 177.144 21.8166 177.144C21.8154 177.144 21.8141 177.144 21.8129 177.144C21.8117 177.144 21.8104 177.144 21.8092 177.144C21.808 177.144 21.8067 177.144 21.8055 177.144C21.8043 177.144 21.803 177.144 21.8018 177.144C21.8006 177.144 21.7993 177.144 21.7981 177.144C21.7969 177.144 21.7957 177.144 21.7944 177.144C21.7932 177.144 21.792 177.144 21.7908 177.144C21.7895 177.144 21.7883 177.144 21.7871 177.144C21.7859 177.144 21.7847 177.144 21.7834 177.144C21.7822 177.144 21.781 177.144 21.7798 177.144C21.7786 177.144 21.7773 177.144 21.7761 177.144C21.7749 177.144 21.7737 177.144 21.7725 177.144C21.7713 177.144 21.7701 177.144 21.7688 177.144C21.7676 177.144 21.7664 177.144 21.7652 177.144C21.764 177.144 21.7628 177.144 21.7616 177.144C21.7604 177.144 21.7592 177.144 21.758 177.144C21.7568 177.144 21.7556 177.144 21.7544 177.144C21.7532 177.144 21.752 177.144 21.7508 177.144C21.7496 177.144 21.7484 177.144 21.7472 177.144C21.746 177.144 21.7448 177.144 21.7436 177.144C21.7424 177.144 21.7412 177.144 21.74 177.144C21.7388 177.144 21.7376 177.144 21.7364 177.144C21.7352 177.144 21.734 177.144 21.7328 177.144C21.7317 177.144 21.7305 177.144 21.7293 177.144C21.7281 177.144 21.7269 177.144 21.7257 177.144C21.7245 177.144 21.7234 177.144 21.7222 177.144C21.721 177.144 21.7198 177.144 21.7186 177.144C21.7174 177.144 21.7163 177.144 21.7151 177.144C21.7139 177.144 21.7127 177.144 21.7116 177.144C21.7104 177.144 21.7092 177.144 21.708 177.144C21.7069 177.144 21.7057 177.144 21.7045 177.144C21.7033 177.144 21.7022 177.144 21.701 177.144C21.6998 177.144 21.6987 177.144 21.6975 177.144C21.6963 177.144 21.6952 177.144 21.694 177.144C21.6928 177.144 21.6917 177.144 21.6905 177.144C21.6893 177.144 21.6882 177.144 21.687 177.144C21.6859 177.144 21.6847 177.144 21.6835 177.144C21.6824 177.144 21.6812 177.144 21.6801 177.144C21.6789 177.144 21.6778 177.144 21.6766 177.144C21.6755 177.144 21.6743 177.144 21.6731 177.144C21.672 177.144 21.6708 177.144 21.6697 177.144C21.6685 177.144 21.6674 177.144 21.6663 177.144C21.6651 177.144 21.664 177.144 21.6628 177.144C21.6617 177.144 21.6605 177.144 21.6594 177.144C21.6582 177.144 21.6571 177.144 21.656 177.144C21.6548 177.144 21.6537 177.144 21.6525 177.144C21.6514 177.144 21.6503 177.144 21.6491 177.144C21.648 177.144 21.6469 177.144 21.6457 177.144C21.6446 177.144 21.6435 177.144 21.6423 177.144C21.6412 177.144 21.6401 177.144 21.6389 177.144C21.6378 177.144 21.6367 177.144 21.6355 177.144C21.6344 177.144 21.6333 177.144 21.6322 177.144C21.631 177.144 21.6299 177.144 21.6288 177.144C21.6277 177.144 21.6265 177.144 21.6254 177.144C21.6243 177.144 21.6232 177.144 21.6221 177.144C21.6209 177.144 21.6198 177.144 21.6187 177.144C21.6176 177.144 21.6165 177.144 21.6154 177.144C21.6143 177.144 21.6131 177.144 21.612 177.144C21.6109 177.144 21.6098 177.144 21.6087 177.144C21.6076 177.144 21.6065 177.144 21.6054 177.144C21.6043 177.144 21.6032 177.144 21.6021 177.144C21.6009 177.144 21.5998 177.144 21.5987 177.144C21.5976 177.144 21.5965 177.144 21.5954 177.144C21.5943 177.144 21.5932 177.144 21.5921 177.144C21.591 177.144 21.5899 177.144 21.5888 177.144C21.5877 177.144 21.5867 177.144 21.5856 177.144C21.5845 177.144 21.5834 177.144 21.5823 177.144C21.5812 177.144 21.5801 177.144 21.579 177.144C21.5779 177.144 21.5768 177.144 21.5757 177.144C21.5747 177.144 21.5736 177.144 21.5725 177.144C21.5714 177.144 21.5703 177.144 21.5692 177.144C21.5682 177.144 21.5671 177.144 21.566 177.144C21.5649 177.144 21.5638 177.144 21.5628 177.144C21.5617 177.144 21.5606 177.144 21.5595 177.144C21.5584 177.144 21.5574 177.144 21.5563 177.144C21.5552 177.144 21.5542 177.144 21.5531 177.144C21.552 177.144 21.5509 177.144 21.5499 177.144C21.5488 177.144 21.5477 177.144 21.5467 177.144C21.5456 177.144 21.5445 177.144 21.5435 177.144C21.5424 177.144 21.5413 177.144 21.5403 177.144C21.5392 177.144 21.5382 177.144 21.5371 177.144C21.536 177.144 21.535 177.144 21.5339 177.144C21.5329 177.144 21.5318 177.144 21.5307 177.144C21.5297 177.144 21.5286 177.144 21.5276 177.144C21.5265 177.144 21.5255 177.144 21.5244 177.144C21.5234 177.144 21.5223 177.144 21.5213 177.144C21.5202 177.144 21.5192 177.144 21.5181 177.144C21.5171 177.144 21.516 177.144 21.515 177.144C21.514 177.144 21.5129 177.144 21.5119 177.144C21.5108 177.144 21.5098 177.144 21.5088 177.144C21.5077 177.144 21.5067 177.144 21.5056 177.144C21.5046 177.144 21.5036 177.144 21.5025 177.144C21.5015 177.144 21.5005 177.144 21.4994 177.144C21.4984 177.144 21.4974 177.144 21.4963 177.144C21.4953 177.144 21.4943 177.144 21.4932 177.144C21.4922 177.144 21.4912 177.144 21.4902 177.144C21.4891 177.144 21.4881 177.144 21.4871 177.144C21.4861 177.144 21.485 177.144 21.484 177.144C21.483 177.144 21.482 177.144 21.481 177.144C21.4799 177.144 21.4789 177.144 21.4779 177.144C21.4769 177.144 21.4759 177.144 21.4749 177.144C21.4738 177.144 21.4728 177.144 21.4718 177.144C21.4708 177.144 21.4698 177.144 21.4688 177.144C21.4678 177.144 21.4668 177.144 21.4658 177.144C21.4648 177.144 21.4637 177.144 21.4627 177.144C21.4617 177.144 21.4607 177.144 21.4597 177.144C21.4587 177.144 21.4577 177.144 21.4567 177.144C21.4557 177.144 21.4547 177.144 21.4537 177.144C21.4527 177.144 21.4517 177.144 21.4507 177.144C21.4497 177.144 21.4487 177.144 21.4478 177.144C21.4468 177.144 21.4458 177.144 21.4448 177.144C21.4438 177.144 21.4428 177.144 21.4418 177.144C21.4408 177.144 21.4398 177.144 21.4388 177.144C21.4379 177.144 21.4369 177.144 21.4359 177.144C21.4349 177.144 21.4339 177.144 21.4329 177.144C21.432 177.144 21.431 177.144 21.43 177.144C21.429 177.144 21.428 177.144 21.4271 177.144C21.4261 177.144 21.4251 177.144 21.4241 177.144C21.4232 177.144 21.4222 177.144 21.4212 177.144C21.4202 177.144 21.4193 177.144 21.4183 177.144C21.4173 177.144 21.4163 177.144 21.4154 177.144C21.4144 177.144 21.4134 177.144 21.4125 177.144C21.4115 177.144 21.4106 177.144 21.4096 177.144C21.4086 177.144 21.4077 177.144 21.4067 177.144C21.4057 177.144 21.4048 177.144 21.4038 177.144C21.4029 177.144 21.4019 177.144 21.4009 177.144C21.4 177.144 21.399 177.144 21.3981 177.144C21.3971 177.144 21.3962 177.144 21.3952 177.144C21.3943 177.144 21.3933 177.144 21.3924 177.144C21.3914 177.144 21.3905 177.144 21.3895 177.144C21.3886 177.144 21.3876 177.144 21.3867 177.144C21.3857 177.144 21.3848 177.144 21.3839 177.144C21.3829 177.144 21.382 177.144 21.381 177.144C21.3801 177.144 21.3792 177.144 21.3782 177.144C21.3773 177.144 21.3763 177.144 21.3754 177.144C21.3745 177.144 21.3735 177.144 21.3726 177.144C21.3717 177.144 21.3707 177.144 21.3698 177.144C21.3689 177.144 21.3679 177.144 21.367 177.144C21.3661 177.144 21.3652 177.144 21.3642 177.144C21.3633 177.144 21.3624 177.144 21.3615 177.144C21.3605 177.144 21.3596 177.144 21.3587 177.144C21.3578 177.144 21.3569 177.144 21.3559 177.144C21.355 177.144 21.3541 177.144 21.3532 177.144C21.3523 177.144 21.3513 177.144 21.3504 177.144C21.3495 177.144 21.3486 177.144 21.3477 177.144C21.3468 177.144 21.3459 177.144 21.345 177.144C21.3441 177.144 21.3431 177.144 21.3422 177.144C21.3413 177.144 21.3404 177.144 21.3395 177.144C21.3386 177.144 21.3377 177.144 21.3368 177.144C21.3359 177.144 21.335 177.144 21.3341 177.144C21.3332 177.144 21.3323 177.144 21.3314 177.144C21.3305 177.144 21.3296 177.144 21.3287 177.144C21.3278 177.144 21.3269 177.144 21.326 177.144C21.3251 177.144 21.3243 177.144 21.3234 177.144C21.3225 177.144 21.3216 177.144 21.3207 177.144C21.3198 177.144 21.3189 177.144 21.318 177.144C21.3171 177.144 21.3163 177.144 21.3154 177.144C21.3145 177.144 21.3136 177.144 21.3127 177.144C21.3119 177.144 21.311 177.144 21.3101 177.144C21.3092 177.144 21.3083 177.144 21.3075 177.144C21.3066 177.144 21.3057 177.144 21.3048 177.144C21.304 177.144 21.3031 177.144 21.3022 177.144C21.3013 177.144 21.3005 177.144 21.2996 177.144C21.2987 177.144 21.2979 177.144 21.297 177.144C21.2961 177.144 21.2953 177.144 21.2944 177.144C21.2935 177.144 21.2927 177.144 21.2918 177.144C21.291 177.144 21.2901 177.144 21.2892 177.144C21.2884 177.144 21.2875 177.144 21.2867 177.144C21.2858 177.144 21.2849 177.144 21.2841 177.144C21.2832 177.144 21.2824 177.144 21.2815 177.144C21.2807 177.144 21.2798 177.144 21.279 177.144C21.2781 177.144 21.2773 177.144 21.2764 177.144C21.2756 177.144 21.2747 177.144 21.2739 177.144C21.273 177.144 21.2722 177.144 21.2714 177.144C21.2705 177.144 21.2697 177.144 21.2688 177.144C21.268 177.144 21.2672 177.144 21.2663 177.144C21.2655 177.144 21.2646 177.144 21.2638 177.144C21.263 177.144 21.2621 177.144 21.2613 177.144C21.2605 177.144 21.2596 177.144 21.2588 177.144C21.258 177.144 21.2571 177.144 21.2563 177.144C21.2555 177.144 21.2547 177.144 21.2538 177.144C21.253 177.144 21.2522 177.144 21.2514 177.144C21.2505 177.144 21.2497 177.144 21.2489 177.144C21.2481 177.144 21.2473 177.144 21.2464 177.144C21.2456 177.144 21.2448 177.144 21.244 177.144C21.2432 177.144 21.2423 177.144 21.2415 177.144C21.2407 177.144 21.2399 177.144 21.2391 177.144C21.2383 177.144 21.2375 177.144 21.2367 177.144C21.2359 177.144 21.2351 177.144 21.2342 177.144C21.2334 177.144 21.2326 177.144 21.2318 177.144C21.231 177.144 21.2302 177.144 21.2294 177.144C21.2286 177.144 21.2278 177.144 21.227 177.144C21.2262 177.144 21.2254 177.144 21.2246 177.144C21.2238 177.144 21.223 177.144 21.2222 177.144C21.2214 177.144 21.2206 177.144 21.2199 177.144C21.2191 177.144 21.2183 177.144 21.2175 177.144C21.2167 177.144 21.2159 177.144 21.2151 177.144C21.2143 177.144 21.2135 177.144 21.2128 177.144C21.212 177.144 21.2112 177.144 21.2104 177.144C21.2096 177.144 21.2088 177.144 21.2081 177.144C21.2073 177.144 21.2065 177.144 21.2057 177.144C21.205 177.144 21.2042 177.144 21.2034 177.144C21.2026 177.144 21.2019 177.144 21.2011 177.144C21.2003 177.144 21.1995 177.144 21.1988 177.144C21.198 177.144 21.1972 177.144 21.1965 177.144C21.1957 177.144 21.1949 177.144 21.1942 177.144C21.1934 177.144 21.1926 177.144 21.1919 177.144C21.1911 177.144 21.1903 177.144 21.1896 177.144C21.1888 177.144 21.1881 177.144 21.1873 177.144C21.1865 177.144 21.1858 177.144 21.185 177.144C21.1843 177.144 21.1835 177.144 21.1828 177.144C21.182 177.144 21.1813 177.144 21.1805 177.144C21.1798 177.144 21.179 177.144 21.1783 177.144C21.1775 177.144 21.1768 177.144 21.176 177.144C21.1753 177.144 21.1745 177.144 21.1738 177.144C21.1731 177.144 21.1723 177.144 21.1716 177.144C21.1708 177.144 21.1701 177.144 21.1694 177.144C21.1686 177.144 21.1679 177.144 21.1671 177.144C21.1664 177.144 21.1657 177.144 21.1649 177.144C21.1642 177.144 21.1635 177.144 21.1627 177.144C21.162 177.144 21.1613 177.144 21.1606 177.144C21.1598 177.144 21.1591 177.144 21.1584 177.144C21.1576 177.144 21.1569 177.144 21.1562 177.144C21.1555 177.144 21.1548 177.144 21.154 177.144C21.1533 177.144 21.1526 177.144 21.1519 177.144C21.1512 177.144 21.1504 177.144 21.1497 177.144C21.149 177.144 21.1483 177.144 21.1476 177.144C21.1469 177.144 21.1462 177.144 21.1454 177.144C21.1447 177.144 21.144 177.144 21.1433 177.144C21.1426 177.144 21.1419 177.144 21.1412 177.144C21.1405 177.144 21.1398 177.144 21.1391 177.144C21.1384 177.144 21.1377 177.144 21.137 177.144C21.1363 177.144 21.1356 177.144 21.1349 177.144C21.1342 177.144 21.1335 177.144 21.1328 177.144C21.1321 177.144 21.1314 177.144 21.1307 177.144C21.13 177.144 21.1293 177.144 21.1286 177.144C21.1279 177.144 21.1272 177.144 21.1266 177.144C21.1259 177.144 21.1252 177.144 21.1245 177.144C21.1238 177.144 21.1231 177.144 21.1224 177.144C21.1218 177.144 21.1211 177.144 21.1204 177.144C21.1197 177.144 21.119 177.144 21.1183 177.144C21.1177 177.144 21.117 177.144 21.1163 177.144C21.1156 177.144 21.115 177.144 21.1143 177.144C21.1136 177.144 21.1129 177.144 21.1123 177.144C21.1116 177.144 21.1109 177.144 21.1103 177.144C21.1096 177.144 21.1089 177.144 21.1083 177.144C21.1076 177.144 21.1069 177.144 21.1063 177.144C21.1056 177.144 21.1049 177.144 21.1043 177.144C21.1036 177.144 21.103 177.144 21.1023 177.144C21.1016 177.144 21.101 177.144 21.1003 177.144C21.0997 177.144 21.099 177.144 21.0984 177.144C21.0977 177.144 21.0971 177.144 21.0964 177.144C21.0958 177.144 21.0951 177.144 21.0945 177.144C21.0938 177.144 21.0932 177.144 21.0925 177.144C21.0919 177.144 21.0912 177.144 21.0906 177.144C21.0899 177.144 21.0893 177.144 21.0887 177.144C21.088 177.144 21.0874 177.144 21.0867 177.144C21.0861 177.144 21.0855 177.144 21.0848 177.144C21.0842 177.144 21.0836 177.144 21.0829 177.144C21.0823 177.144 21.0817 177.144 21.081 177.144C21.0804 177.144 21.0798 177.144 21.0791 177.144C21.0785 177.144 21.0779 177.144 21.0773 177.144C21.0766 177.144 21.076 177.144 21.0754 177.144C21.0748 177.144 21.0741 177.144 21.0735 177.144C21.0729 177.144 21.0723 177.144 21.0717 177.144C21.071 177.144 21.0704 177.144 21.0698 177.144C21.0692 177.144 21.0686 177.144 21.068 177.144C21.0674 177.144 21.0667 177.144 21.0661 177.144C21.0655 177.144 21.0649 177.144 21.0643 177.144C21.0637 177.144 21.0631 177.144 21.0625 177.144C21.0619 177.144 21.0613 177.144 21.0607 177.144C21.0601 177.144 21.0595 177.144 21.0589 177.144C21.0583 177.144 21.0577 177.144 21.0571 177.144C21.0565 177.144 21.0559 177.144 21.0553 177.144C21.0547 177.144 21.0541 177.144 21.0535 177.144C21.0529 177.144 21.0523 177.144 21.0517 177.144C21.0511 177.144 21.0505 177.144 21.05 177.144C21.0494 177.144 21.0488 177.144 21.0482 177.144C21.0476 177.144 21.047 177.144 21.0464 177.144C21.0459 177.144 21.0453 177.144 21.0447 177.144C21.0441 177.144 21.0435 177.144 21.043 177.144C21.0424 177.144 21.0418 177.144 21.0412 177.144C21.0407 177.144 21.0401 177.144 21.0395 177.144C21.0389 177.144 21.0384 177.144 21.0378 177.144C21.0372 177.144 21.0367 177.144 21.0361 177.144C21.0355 177.144 21.035 177.144 21.0344 177.144C21.0338 177.144 21.0333 177.144 21.0327 177.144C21.0321 177.144 21.0316 177.144 21.031 177.144C21.0305 177.144 21.0299 177.144 21.0293 177.144C21.0288 177.144 21.0282 177.144 21.0277 177.144C21.0271 177.144 21.0266 177.144 21.026 177.144C21.0255 177.144 21.0249 177.144 21.0244 177.144C21.0238 177.144 21.0233 177.144 21.0227 177.144C21.0222 177.144 21.0216 177.144 21.0211 177.144C21.0205 177.144 21.02 177.144 21.0195 177.144C21.0189 177.144 21.0184 177.144 21.0178 177.144C21.0173 177.144 21.0168 177.144 21.0162 177.144C21.0157 177.144 21.0152 177.144 21.0146 177.144C21.0141 177.144 21.0136 177.144 21.013 177.144C21.0125 177.144 21.012 177.144 21.0114 177.144C21.0109 177.144 21.0104 177.144 21.0099 177.144C21.0093 177.144 21.0088 177.144 21.0083 177.144C21.0078 177.144 21.0072 177.144 21.0067 177.144C21.0062 177.144 21.0057 177.144 21.0052 177.144C21.0046 177.144 21.0041 177.144 21.0036 177.144C21.0031 177.144 21.0026 177.144 21.0021 177.144C21.0015 177.144 21.001 177.144 21.0005 177.144C21 177.144 20.9995 177.144 20.999 177.144C20.9985 177.144 20.998 177.144 20.9975 177.144C20.997 177.144 20.9965 177.144 20.996 177.144C20.9955 177.144 20.995 177.144 20.9945 177.144C20.994 177.144 20.9935 177.144 20.993 177.144C20.9925 177.144 20.992 177.144 20.9915 177.144C20.991 177.144 20.9905 177.144 20.99 177.144C20.9895 177.144 20.989 177.144 20.9885 177.144C20.988 177.144 20.9875 177.144 20.9871 177.144C20.9866 177.144 20.9861 177.144 20.9856 177.144C20.9851 177.144 20.9846 177.144 20.9842 177.144C20.9837 177.144 20.9832 177.144 20.9827 177.144C20.9822 177.144 20.9818 177.144 20.9813 177.144C20.9808 177.144 20.9803 177.144 20.9799 177.144C20.9794 177.144 20.9789 177.144 20.9784 177.144C20.978 177.144 20.9775 177.144 20.977 177.144C20.9766 177.144 20.9761 177.144 20.9756 177.144C20.9752 177.144 20.9747 177.144 20.9742 177.144C20.9738 177.144 20.9733 177.144 20.9728 177.144C20.9724 177.144 20.9719 177.144 20.9715 177.144C20.971 177.144 20.9705 177.144 20.9701 177.144C20.9696 177.144 20.9692 177.144 20.9687 177.144C20.9683 177.144 20.9678 177.144 20.9674 177.144C20.9669 177.144 20.9665 177.144 20.966 177.144C20.9656 177.144 20.9651 177.144 20.9647 177.144C20.9642 177.144 20.9638 177.144 20.9634 177.144C20.9629 177.144 20.9625 177.144 20.962 177.144C20.9616 177.144 20.9612 177.144 20.9607 177.144C20.9603 177.144 20.9598 177.144 20.9594 177.144C20.959 177.144 20.9585 177.144 20.9581 177.144C20.9577 177.144 20.9572 177.144 20.9568 177.144C20.9564 177.144 20.956 177.144 20.9555 177.144C20.9551 177.144 20.9547 177.144 20.9543 177.144C20.9538 177.144 20.9534 177.144 20.953 177.144C20.9526 177.144 20.9521 177.144 20.9517 177.144C20.9513 177.144 20.9509 177.144 20.9505 177.144C20.9501 177.144 20.9496 177.144 20.9492 177.144C20.9488 177.144 20.9484 177.144 20.948 177.144C20.9476 177.144 20.9472 177.144 20.9468 177.144C20.9464 177.144 20.9459 177.144 20.9455 177.144C20.9451 177.144 20.9447 177.144 20.9443 177.144C20.9439 177.144 20.9435 177.144 20.9431 177.144C20.9427 177.144 20.9423 177.144 20.9419 177.144C20.9415 177.144 20.9411 177.144 20.9407 177.144C20.9403 177.144 20.94 177.144 20.9396 177.144C20.9392 177.144 20.9388 177.144 20.9384 177.144C20.938 177.144 20.9376 177.144 20.9372 177.144C20.9368 177.144 20.9364 177.144 20.9361 177.144C20.9357 177.144 20.9353 177.144 20.9349 177.144C20.9345 177.144 20.9342 177.144 20.9338 177.144C20.9334 177.144 20.933 177.144 20.9326 177.144C20.9323 177.144 20.9319 177.144 20.9315 177.144C20.9311 177.144 20.9308 177.144 20.9304 177.144C20.93 177.144 20.9297 177.144 20.9293 177.144C20.9289 177.144 20.9286 177.144 20.9282 177.144C20.9278 177.144 20.9275 177.144 20.9271 177.144C20.9267 177.144 20.9264 177.144 20.926 177.144C20.9257 177.144 20.9253 177.144 20.9249 177.144C20.9246 177.144 20.9242 177.144 20.9239 177.144C20.9235 177.144 20.9232 177.144 20.9228 177.144C20.9225 177.144 20.9221 177.144 20.9218 177.144C20.9214 177.144 20.9211 177.144 20.9207 177.144C20.9204 177.144 20.92 177.144 20.9197 177.144C20.9193 177.144 20.919 177.144 20.9186 177.144C20.9183 177.144 20.918 177.144 20.9176 177.144C20.9173 177.144 20.9169 177.144 20.9166 177.144C20.9163 177.144 20.9159 177.144 20.9156 177.144C20.9153 177.144 20.9149 177.144 20.9146 177.144C20.9143 177.144 20.914 177.144 20.9136 177.144C20.9133 177.144 20.913 177.144 20.9126 177.144C20.9123 177.144 20.912 177.144 20.9117 177.144C20.9114 177.144 20.911 177.144 20.9107 177.144C20.9104 177.144 20.9101 177.144 20.9098 177.144C20.9094 177.144 20.9091 177.144 20.9088 177.144C20.9085 177.144 20.9082 177.144 20.9079 177.144C20.9076 177.144 20.9072 177.144 20.9069 177.144C20.9066 177.144 20.9063 177.144 20.906 177.144C20.9057 177.144 20.9054 177.144 20.9051 177.144C20.9048 177.144 20.9045 177.144 20.9042 177.144C20.9039 177.144 20.9036 177.144 20.9033 177.144C20.903 177.144 20.9027 177.144 20.9024 177.144C20.9021 177.144 20.9018 177.144 20.9015 177.144C20.9012 177.144 20.9009 177.144 20.9006 177.144C20.9004 177.144 20.9001 177.144 20.8998 177.144C20.8995 177.144 20.8992 177.144 20.8989 177.144C20.8986 177.144 20.8984 177.144 20.8981 177.144C20.8978 177.144 20.8975 177.144 20.8972 177.144C20.8969 177.144 20.8967 177.144 20.8964 177.144C20.8961 177.144 20.8958 177.144 20.8956 177.144C20.8953 177.144 20.895 177.144 20.8948 177.144C20.8945 177.144 20.8942 177.144 20.8939 177.144C20.8937 177.144 20.8934 177.144 20.8931 177.144C20.8929 177.144 20.8926 177.144 20.8923 177.144C20.8921 177.144 20.8918 177.144 20.8916 177.144C20.8913 177.144 20.891 177.144 20.8908 177.144C20.8905 177.144 20.8903 177.144 20.89 177.144C20.8898 177.144 20.8895 177.144 20.8893 177.144C20.889 177.144 20.8888 177.144 20.8885 177.144C20.8883 177.144 20.888 177.144 20.8878 177.144C20.8875 177.144 20.8873 177.144 20.887 177.144C20.8868 177.144 20.8865 177.144 20.8863 177.144C20.8861 177.144 20.8858 177.144 20.8856 177.144C20.8853 177.144 20.8851 177.144 20.8849 177.144C20.8846 177.144 20.8844 177.144 20.8842 177.144C20.8839 177.144 20.8837 177.144 20.8835 177.144C20.8832 177.144 20.883 177.144 20.8828 177.144C20.8826 177.144 20.8823 177.144 20.8821 177.144C20.8819 177.144 20.8817 177.144 20.8814 177.144C20.8812 177.144 20.881 177.144 20.8808 177.144C20.8806 177.144 20.8803 177.144 20.8801 177.144C20.8799 177.144 20.8797 177.144 20.8795 177.144C20.8793 177.144 20.8791 177.144 20.8788 177.144C20.8786 177.144 20.8784 177.144 20.8782 177.144C20.878 177.144 20.8778 177.144 20.8776 177.144C20.8774 177.144 20.8772 177.144 20.877 177.144C20.8768 177.144 20.8766 177.144 20.8764 177.144C20.8762 177.144 20.876 177.144 20.8758 177.144C20.8756 177.144 20.8754 177.144 20.8752 177.144C20.875 177.144 20.8748 177.144 20.8746 177.144C20.8744 177.144 20.8742 177.144 20.874 177.144C20.8739 177.144 20.8737 177.144 20.8735 177.144C20.8733 177.144 20.8731 177.144 20.8729 177.144C20.8728 177.144 20.8726 177.144 20.8724 177.144C20.8722 177.144 20.872 177.144 20.8719 177.144C20.8717 177.144 20.8715 177.144 20.8713 177.144C20.8711 177.144 20.871 177.144 20.8708 177.144C20.8706 177.144 20.8705 177.144 20.8703 177.144C20.8701 177.144 20.87 177.144 20.8698 177.144C20.8696 177.144 20.8695 177.144 20.8693 177.144C20.8691 177.144 20.869 177.144 20.8688 177.144C20.8686 177.144 20.8685 177.144 20.8683 177.144C20.8682 177.144 20.868 177.144 20.8679 177.144C20.8677 177.144 20.8675 177.144 20.8674 177.144C20.8672 177.144 20.8671 177.144 20.8669 177.144C20.8668 177.144 20.8666 177.144 20.8665 177.144C20.8663 177.144 20.8662 177.144 20.8661 177.144C20.8659 177.144 20.8658 177.144 20.8656 177.144C20.8655 177.144 20.8653 177.144 20.8652 177.144C20.8651 177.144 20.8649 177.144 20.8648 177.144C20.8647 177.144 20.8645 177.144 20.8644 177.144C20.8643 177.144 20.8641 177.144 20.864 177.144C20.8639 177.144 20.8637 177.144 20.8636 177.144C20.8635 177.144 20.8634 177.144 20.8632 177.144C20.8631 177.144 20.863 177.144 20.8629 177.144C20.8627 177.144 20.8626 177.144 20.8625 177.144C20.8624 177.144 20.8623 177.144 20.8622 177.144C20.862 177.144 20.8619 177.144 20.8618 177.144C20.8617 177.144 20.8616 177.144 20.8615 177.144C20.8614 177.144 20.8613 177.144 20.8611 177.144C20.861 177.144 20.8609 177.144 20.8608 177.144C20.8607 177.144 20.8606 177.144 20.8605 177.144C20.8604 177.144 20.8603 177.144 20.8602 177.144C20.8601 177.144 20.86 177.144 20.8599 177.144C20.8598 177.144 20.8597 177.144 20.8596 177.144C20.8595 177.144 20.8594 177.144 20.8594 177.144C20.8593 177.144 20.8592 177.144 20.8591 177.144C20.859 177.144 20.8589 177.144 20.8588 177.144C20.8587 177.144 20.8587 177.144 20.8586 177.144C20.8585 177.144 20.8584 177.144 20.8583 177.144C20.8583 177.144 20.8582 177.144 20.8581 177.144C20.858 177.144 20.8579 177.144 20.8579 177.144C20.8578 177.144 20.8577 177.144 20.8577 177.144C20.8576 177.144 20.8575 177.144 20.8574 177.144C20.8574 177.144 20.8573 177.144 20.8572 177.144C20.8572 177.144 20.8571 177.144 20.857 177.144C20.857 177.144 20.8569 177.144 20.8569 177.144C20.8568 177.144 20.8567 177.144 20.8567 177.144C20.8566 177.144 20.8566 177.144 20.8565 177.144C20.8565 177.144 20.8564 177.144 20.8564 177.144C20.8563 177.144 20.8563 177.144 20.8562 177.144C20.8562 177.144 20.8561 177.144 20.8561 177.144C20.856 177.144 20.856 177.144 20.8559 177.144C20.8559 177.144 20.8559 177.144 20.8558 177.144C20.8558 177.144 20.8557 177.144 20.8557 177.144C20.8557 177.144 20.8556 177.144 20.8556 177.144C20.8556 177.144 20.8555 177.144 20.8555 177.144C20.8555 177.144 20.8554 177.144 20.8554 177.144C20.8554 177.144 20.8553 177.144 20.8553 177.144C20.8553 177.144 20.8553 177.144 20.8553 177.144C20.8552 177.144 20.8552 177.144 20.8552 177.144C20.8552 177.144 20.8551 177.144 20.8551 177.144C20.8551 177.144 20.8551 177.144 20.8551 177.144C20.8551 177.144 20.8551 177.144 20.855 177.144C20.855 177.144 20.855 177.144 20.855 177.144C20.855 177.144 20.855 177.144 20.855 177.144C20.855 177.144 20.855 177.144 20.855 177.144C20.855 177.144 20.855 177.144 20.855 179.144ZM21.8846 181.144C23.0859 181.144 24.6507 180.953 26.0249 180.434C27.2872 179.957 29.0913 178.915 29.3996 176.807L25.4417 176.228C25.4643 176.074 25.53 176.345 24.6105 176.692C23.8029 176.998 22.7425 177.144 21.8846 177.144V181.144ZM29.4055 176.764L29.4957 176.036L25.5261 175.544L25.4359 176.272L29.4055 176.764ZM25.5274 175.533L25.5252 175.55L29.4921 176.063L29.4943 176.046L25.5274 175.533ZM29.479 175.464L29.029 172.879L25.0883 173.565L25.5383 176.15L29.479 175.464ZM29.0116 173.653C29.1734 172.921 29.108 172.235 29.045 171.767C28.9616 171.148 28.914 171.013 28.8836 170.653L24.8978 170.99C24.9346 171.425 25.055 172.109 25.0808 172.301C25.127 172.644 25.112 172.762 25.1058 172.79L29.0116 173.653ZM28.8811 170.626C28.7331 169.12 28.593 167.501 28.3667 165.907L24.4064 166.469C24.617 167.952 24.7458 169.446 24.9003 171.017L28.8811 170.626ZM28.368 165.916C28.2343 164.941 28.0402 163.956 27.8819 163.082C27.7182 162.177 27.5833 161.346 27.5242 160.532L23.5347 160.822C23.6101 161.86 23.7778 162.866 23.9459 163.795C24.1196 164.754 24.2868 165.597 24.4051 166.46L28.368 165.916ZM27.5245 160.536C27.3637 158.254 27.3946 155.937 27.445 153.552L23.4459 153.467C23.3956 155.849 23.3593 158.332 23.5344 160.817L27.5245 160.536ZM27.4451 153.549C27.4766 151.949 27.6799 150.394 27.8557 148.627L23.8754 148.231C23.7153 149.84 23.4815 151.66 23.4459 153.47L27.4451 153.549ZM27.8559 148.626C28.1095 146.061 28.3425 143.553 28.6261 141.021L24.651 140.576C24.3635 143.142 24.1258 145.699 23.8753 148.232L27.8559 148.626ZM28.6255 141.027C28.8414 139.147 29.1056 137.279 29.3607 135.351L25.3953 134.826C25.1463 136.707 24.8728 138.645 24.6516 140.571L28.6255 141.027ZM29.3599 135.357C29.5874 133.678 29.8664 131.882 30.0704 130.123L26.0971 129.662C25.898 131.378 25.6391 133.026 25.3961 134.82L29.3599 135.357ZM30.0706 130.122C30.2887 128.235 30.6707 125.964 30.6887 123.768L26.6888 123.735C26.6732 125.646 26.3495 127.478 26.097 129.663L30.0706 130.122ZM30.6887 123.762C30.7058 120.545 30.5861 117.314 30.3472 114.103L26.3582 114.4C26.5898 117.512 26.7053 120.637 26.6888 123.741L30.6887 123.762ZM30.3478 114.112C30.2505 112.719 30.0747 111.344 29.8981 110.023C29.719 108.684 29.5409 107.412 29.4194 106.135L25.4374 106.514C25.568 107.886 25.7595 109.253 25.9334 110.553C26.1096 111.872 26.2699 113.136 26.3575 114.391L30.3478 114.112ZM29.4188 106.13C29.0345 102.207 28.5049 98.7129 28.8953 95.1911L24.9197 94.7504C24.4698 98.8087 25.0828 102.895 25.4379 106.52L29.4188 106.13ZM28.8957 95.1878C28.9629 94.572 29.1112 93.9339 29.3037 93.1898C29.4858 92.4862 29.7224 91.6362 29.8815 90.7882L25.9501 90.0505C25.8235 90.7252 25.6399 91.3812 25.4312 92.1879C25.233 92.954 25.0201 93.8303 24.9193 94.7538L28.8957 95.1878ZM29.8789 90.8015C30.1235 89.545 30.3308 88.1986 30.3687 86.8165L26.3702 86.7068C26.3409 87.7742 26.1784 88.8774 25.9526 90.0372L29.8789 90.8015ZM30.3689 86.8104C30.4698 82.6699 30.5545 78.5084 30.5376 74.3572L26.5376 74.3735C26.5543 78.4644 26.4708 82.5782 26.3701 86.713L30.3689 86.8104ZM30.5376 74.3654C30.5376 68.6066 30.302 63.1489 30.4528 57.5543L26.4542 57.4465C26.3026 63.0731 26.5376 68.8698 26.5376 74.3654H30.5376ZM30.4526 57.5601C30.567 53.7322 31.0412 49.8847 31.5463 45.9547L27.5789 45.4448C27.0757 49.3599 26.5754 53.3904 26.4544 57.4406L30.4526 57.5601ZM31.5462 45.9554C32.1004 41.6554 32.8683 37.5181 33.5239 33.1006L29.5672 32.5134C28.9456 36.7021 28.134 41.1379 27.579 45.4441L31.5462 45.9554ZM33.5239 33.1009C33.6393 32.3241 33.6856 31.5494 33.7284 30.8829C33.7731 30.186 33.8148 29.5909 33.9066 29.0204L29.9575 28.3846C29.8309 29.1712 29.7801 29.9497 29.7366 30.6265C29.6912 31.3337 29.6535 31.9328 29.5673 32.5131L33.5239 33.1009ZM33.9088 29.0065C33.8889 29.1359 33.8498 29.148 33.9498 28.9927C33.9933 28.925 34.0504 28.8449 34.1288 28.741C34.1676 28.6896 34.2081 28.6369 34.2537 28.5779C34.2972 28.5215 34.3479 28.456 34.397 28.3915L31.2147 25.968C31.0879 26.1346 30.8069 26.4851 30.5865 26.8274C30.3588 27.1811 30.0592 27.7229 29.9553 28.3985L33.9088 29.0065ZM34.3856 28.4063C35.0087 27.6038 35.6471 26.9083 36.4669 25.9395L33.4133 23.3557C32.7207 24.1742 31.9139 25.0675 31.2262 25.9532L34.3856 28.4063ZM36.14 23.0475C25.069 14.7455 14.3223 7.17951 3.35643 -0.795694L1.00374 2.43925C12.0378 10.464 22.6963 17.966 33.7402 26.2477L36.14 23.0475ZM0.191757 0.606026C0.0898698 1.545 -0.0802982 2.24113 -0.276053 3.03049C-0.473867 3.82815 -0.700936 4.73186 -0.826136 5.9175L3.15175 6.33755C3.24501 5.45437 3.40895 4.78927 3.60634 3.99329C3.8058 3.18901 4.03504 2.26667 4.16841 1.03753L0.191757 0.606026ZM-0.825523 5.91177C-1.06189 8.09004 -1.28137 10.2684 -1.48397 12.4467L2.49884 12.8171C2.69955 10.6592 2.91697 8.50123 3.15113 6.34328L-0.825523 5.91177ZM-1.4841 12.448C-1.5905 13.6007 -1.64295 14.7452 -1.66037 15.8781L2.33915 15.9396C2.35533 14.8879 2.40371 13.8476 2.49897 12.8157L-1.4841 12.448ZM-1.66034 15.8757C-1.72663 19.8751 -1.87968 23.9939 -1.79463 28.0984L2.20451 28.0155C2.12152 24.0103 2.27097 20.0525 2.33911 15.942L-1.66034 15.8757ZM-1.79461 28.0993C-1.74121 30.6239 -1.27292 33.2231 -0.989099 35.4438L2.97863 34.9367C2.65748 32.4239 2.25192 30.2566 2.2045 28.0147L-1.79461 28.0993ZM-0.989109 35.4437C-0.666752 37.9668 -0.29394 40.4699 0.0752598 42.9492L4.03163 42.36C3.66143 39.874 3.29486 37.4119 2.97864 34.9368L-0.989109 35.4437ZM0.0741602 42.9417C0.50173 45.8893 0.962736 48.7198 1.34798 51.6231L5.31323 51.097C4.92545 48.1746 4.4454 45.2124 4.03273 42.3675L0.0741602 42.9417ZM1.34967 51.6356C1.68191 54.0243 1.94704 56.424 2.23489 58.8756L6.2076 58.4091C5.92411 55.9947 5.65148 53.5287 5.31154 51.0846L1.34967 51.6356ZM2.2357 58.8824C2.57085 61.655 2.88923 64.4275 3.19085 67.2001L7.16739 66.7675C6.86404 63.9791 6.54385 61.1907 6.20679 58.4024L2.2357 58.8824ZM3.19015 67.1936C3.45742 69.7272 3.69151 72.2631 3.92698 74.814L7.91005 74.4463C7.67498 71.8997 7.43855 69.3379 7.16808 66.774L3.19015 67.1936ZM3.92649 74.8086C4.17866 77.6233 4.42967 80.4418 4.64705 83.2579L8.63518 82.9501C8.41565 80.106 8.16252 77.2643 7.91054 74.4517L3.92649 74.8086ZM4.64736 83.2619C4.83163 85.5883 4.99743 87.8937 5.0967 90.1912L9.09297 90.0185C8.99058 87.6488 8.8203 85.2871 8.63487 82.9461L4.64736 83.2619ZM5.09673 90.192C5.21534 92.912 5.34621 95.5445 5.31346 98.1732L9.31315 98.223C9.34762 95.4562 9.20959 92.6931 9.09294 90.0177L5.09673 90.192ZM5.31341 98.1774C5.29702 99.7593 5.22728 101.348 5.15361 102.973C5.08043 104.588 5.00321 106.241 4.97745 107.899L8.97696 107.961C9.00162 106.374 9.07564 104.784 9.14951 103.154C9.22288 101.536 9.29598 99.8805 9.3132 98.2188L5.31341 98.1774ZM4.97742 107.901C4.94313 110.265 4.99425 112.647 5.18528 115.025L9.17243 114.705C8.99376 112.481 8.94408 110.228 8.977 107.959L4.97742 107.901ZM5.18525 115.025C5.39338 117.62 5.77365 120.184 6.16021 122.684L10.1132 122.073C9.72678 119.573 9.36765 117.139 9.17246 114.705L5.18525 115.025ZM6.15974 122.681C6.53494 125.133 6.99594 127.572 7.42941 129.953L11.3647 129.237C10.9243 126.818 10.4779 124.456 10.1137 122.076L6.15974 122.681ZM7.4312 129.963C8.22035 134.179 9.01257 138.429 9.85577 142.648L13.7782 141.864C12.9408 137.674 12.1534 133.45 11.3629 129.227L7.4312 129.963ZM9.85505 142.644C10.499 145.897 11.2943 149.401 11.9407 152.584L15.8607 151.788C15.1626 148.351 14.4455 145.235 13.7789 141.867L9.85505 142.644ZM11.9398 152.579C12.573 155.734 13.3764 158.07 13.346 160.736L17.3457 160.782C17.3825 157.556 16.3711 154.331 15.8616 151.792L11.9398 152.579ZM13.3462 160.721C13.34 161.053 13.3635 161.38 13.3864 161.645C13.4135 161.958 13.4337 162.131 13.4522 162.38C13.4892 162.876 13.4513 163.002 13.459 162.981L17.2328 164.307C17.5261 163.472 17.4799 162.603 17.4412 162.083C17.3891 161.383 17.3394 161.123 17.3455 160.796L13.3462 160.721ZM13.374 163.978C13.4478 164.414 13.4839 164.634 13.5014 164.77C13.5168 164.889 13.5001 164.819 13.5124 164.696C13.5167 164.653 13.5224 164.629 13.5146 164.67C13.5099 164.694 13.4896 164.796 13.4726 164.891C13.4329 165.114 13.3912 165.403 13.3536 165.832L17.3382 166.182C17.3664 165.861 17.3934 165.69 17.4107 165.593C17.4222 165.528 17.4275 165.504 17.4436 165.42C17.4567 165.352 17.4786 165.234 17.4925 165.094C17.524 164.779 17.5005 164.506 17.4685 164.258C17.4386 164.026 17.3868 163.717 17.3178 163.31L13.374 163.978ZM14.6785 164.121C14.6897 164.117 14.4627 164.171 13.8757 164.161C13.3593 164.152 12.751 164.1 12.146 164.027C11.5473 163.955 10.9852 163.868 10.5708 163.798C10.3645 163.764 10.1969 163.734 10.0823 163.713C10.0251 163.702 9.98122 163.694 9.95249 163.689C9.93813 163.686 9.92757 163.684 9.92102 163.683C9.91775 163.682 9.91549 163.681 9.91426 163.681C9.91364 163.681 9.91329 163.681 9.91319 163.681C9.91315 163.681 9.91316 163.681 9.91325 163.681C9.91329 163.681 9.9134 163.681 9.91342 163.681C9.91355 163.681 9.9137 163.681 9.52912 165.644C9.14453 167.606 9.14471 167.606 9.14491 167.607C9.145 167.607 9.14521 167.607 9.14539 167.607C9.14574 167.607 9.14616 167.607 9.14665 167.607C9.14762 167.607 9.14886 167.607 9.15037 167.608C9.15338 167.608 9.15746 167.609 9.16256 167.61C9.17277 167.612 9.18711 167.615 9.20535 167.618C9.24182 167.625 9.29394 167.635 9.35989 167.647C9.49169 167.671 9.67925 167.705 9.9079 167.743C10.3634 167.82 10.9906 167.917 11.6696 167.999C12.3422 168.079 13.0997 168.148 13.8064 168.161C14.4425 168.172 15.2957 168.146 16.0132 167.892L14.6785 164.121ZM10.1451 163.741L7.05627 162.741L5.82425 166.547L8.91311 167.547L10.1451 163.741ZM6.44026 162.644H5.09548V166.644H6.44026V162.644ZM4.34193 162.791L3.11266 163.291L4.61975 166.996L5.84902 166.496L4.34193 162.791ZM2.45541 163.726L0.769292 165.404L3.59088 168.239L5.277 166.561L2.45541 163.726ZM0.282719 166.189L-0.217281 167.689L3.57745 168.954L4.07745 167.454L0.282719 166.189ZM-0.211603 167.673C-0.574192 168.729 -0.293521 169.723 -0.0241147 170.358C0.260451 171.028 0.676942 171.636 1.04339 172.11C1.41999 172.597 1.808 173.023 2.08638 173.32C2.25455 173.5 2.31564 173.562 2.40919 173.663C2.44675 173.704 2.45438 173.713 2.44775 173.705C2.44485 173.702 2.42128 173.674 2.38958 173.63C2.3794 173.617 2.26928 173.471 2.17756 173.254L5.86259 171.698C5.76562 171.468 5.645 171.306 5.61944 171.271C5.57235 171.206 5.52852 171.153 5.50083 171.121C5.44464 171.054 5.38463 170.989 5.33939 170.94C5.26735 170.863 5.10221 170.689 5.00685 170.587C4.75816 170.321 4.4699 170.002 4.20765 169.663C3.93525 169.311 3.75032 169.012 3.65753 168.794C3.54958 168.54 3.67696 168.665 3.57177 168.971L-0.211603 167.673ZM3.14949 174.276L6.59929 175.944L8.34047 172.343L4.89067 170.675L3.14949 174.276Z" fill="#768BE4" mask="url(#path-1-inside-1_3025_2)"/>
</svg>
