<svg width="46" height="133" viewBox="0 0 46 133" fill="none" xmlns="http://www.w3.org/2000/svg">
<mask id="path-1-inside-1_3028_50" fill="white">
<path d="M7.14805 110.759C6.51153 111.537 5.92397 112.149 5.46697 112.828C4.42242 114.367 3.27993 115.708 1.27243 115.824C0.946006 115.84 0.407408 115.758 0.325803 115.575C0.195233 115.261 0.244196 114.748 0.44005 114.467C1.14186 113.44 1.95792 112.481 2.69237 111.454C3.1004 110.892 3.54107 110.296 3.81853 109.65C4.86309 107.201 6.9522 105.877 9.04131 104.553C9.98794 103.957 11.1304 103.659 12.0607 103.047C12.6156 102.683 13.1216 102.004 13.3664 101.359C15.1618 96.4099 17.0387 91.4779 17.9037 86.2645C18.4097 83.153 18.8177 80.0249 19.1604 76.8969C19.8949 70.2436 21.119 63.7227 23.763 57.5493C24.9545 54.7688 26.456 52.1207 27.419 49.274C28.692 45.5005 29.6386 41.6277 30.5689 37.7549C31.2871 34.7427 31.8583 31.6974 32.3316 28.6521C32.8213 25.5075 33.0008 22.3298 32.756 19.119C32.299 13.0946 33.7516 7.55018 37.3259 2.63467C37.7829 2.00575 38.3868 1.47614 39.0396 0.764465C39.3334 2.38642 39.5945 3.80976 39.8394 5.23311C41.1451 12.7139 42.4344 20.1948 43.7238 27.6756C44.2134 30.5554 44.7357 33.4187 45.209 36.2984C45.2743 36.7122 45.2254 37.1756 45.0785 37.5728C43.1852 43.0842 41.1614 48.5624 39.3661 54.1234C38.5663 56.6059 38.142 59.2209 37.6687 61.8028C37.1464 64.5998 36.1997 67.2479 34.992 69.7802C32.707 74.5633 31.0749 79.5781 29.2469 84.5432C27.6964 88.7305 26.2275 92.9674 24.7586 97.1878C24.0241 99.3228 23.306 101.458 22.7674 103.659C22.5063 104.685 22.6205 105.827 22.6858 106.92C22.849 109.799 22.5226 112.663 21.8208 115.41C21.0537 118.455 21.0047 121.467 21.2006 124.546C21.2822 125.82 21.1516 127.128 21.0211 128.402C20.9884 128.75 20.5641 129.064 20.3029 129.395C20.0255 129.097 19.5521 128.832 19.4869 128.501C19.2094 126.962 19.0299 125.406 18.8177 123.867C18.6218 122.477 18.4423 121.07 18.2465 119.68C18.1485 119.647 18.0669 119.63 17.969 119.597C17.8384 119.779 17.6426 119.928 17.5936 120.127C17.2019 121.815 16.8592 123.536 16.4511 125.224C15.9452 127.343 15.3902 129.461 14.819 131.563C14.7048 131.977 14.4763 132.391 14.1825 132.689C13.9866 132.887 13.546 132.987 13.2685 132.904C13.0563 132.838 12.7789 132.44 12.7952 132.209C12.9258 130.471 13.1216 128.733 13.3175 126.995C13.5623 124.811 13.8397 122.643 14.0846 120.458C14.1009 120.243 14.0029 120.011 13.954 119.796C13.7255 119.895 13.3664 119.928 13.2848 120.11C12.9421 120.772 12.632 121.484 12.3708 122.196C11.4242 124.844 10.5592 127.508 9.57991 130.123C9.30245 130.835 8.78017 131.481 8.29053 132.093C8.12732 132.308 7.62137 132.54 7.4908 132.457C7.21334 132.275 6.91956 131.861 6.93588 131.547C6.93588 130.769 7.01748 129.958 7.21334 129.213C8.07836 125.936 8.99234 122.692 9.87369 119.432C9.90633 119.299 9.98794 119.15 9.97162 119.035C9.93897 118.836 9.82473 118.654 9.75944 118.455C9.59623 118.538 9.38405 118.571 9.30245 118.703C8.69856 119.581 8.09468 120.441 7.55608 121.368C6.52785 123.139 5.5649 124.927 4.53666 126.697C4.32449 127.062 3.99807 127.376 3.65532 127.657C3.42683 127.839 2.95351 128.055 2.87191 127.972C2.61077 127.724 2.31699 127.293 2.36595 126.979C2.4802 126.102 2.67605 125.208 3.00248 124.38C4.06335 121.815 5.3364 119.316 6.28303 116.717C6.87059 115.129 7.01748 113.358 7.32759 111.67C7.37655 111.438 7.24598 111.223 7.14805 110.759Z"/>
</mask>
<path d="M7.14805 110.759L9.10494 110.346L8.24303 106.262L5.60011 109.493L7.14805 110.759ZM5.46697 112.828L7.12182 113.951L7.12617 113.945L5.46697 112.828ZM1.27243 115.824L1.37034 117.822L1.37908 117.821L1.3878 117.821L1.27243 115.824ZM0.325803 115.575L-1.5209 116.343L-1.51115 116.366L-1.50081 116.39L0.325803 115.575ZM0.44005 114.467L2.08083 115.611L2.08611 115.603L2.09132 115.595L0.44005 114.467ZM2.69237 111.454L1.07394 110.279L1.06973 110.285L1.06556 110.291L2.69237 111.454ZM3.81853 109.65L5.6562 110.439L5.65818 110.435L3.81853 109.65ZM9.04131 104.553L7.97571 102.861L7.97069 102.864L9.04131 104.553ZM12.0607 103.047L10.9637 101.375L10.9615 101.376L12.0607 103.047ZM13.3664 101.359L15.2363 102.069L15.2415 102.055L15.2465 102.041L13.3664 101.359ZM17.9037 86.2645L19.8767 86.5919L19.8778 86.5855L17.9037 86.2645ZM19.1604 76.8969L17.1725 76.6774L17.1723 76.6791L19.1604 76.8969ZM23.763 57.5493L21.9247 56.7615L21.9245 56.7619L23.763 57.5493ZM27.419 49.274L29.3135 49.9149L29.3141 49.9133L27.419 49.274ZM30.5689 37.7549L32.5136 38.222L32.5144 38.2188L30.5689 37.7549ZM32.3316 28.6521L30.3554 28.3444L30.3553 28.3449L32.3316 28.6521ZM32.756 19.119L30.7617 19.2703L30.7618 19.271L32.756 19.119ZM37.3259 2.63467L38.9435 3.81088L38.9439 3.81035L37.3259 2.63467ZM39.0396 0.764465L41.0076 0.407988L40.2894 -3.55677L37.5657 -0.587469L39.0396 0.764465ZM39.8394 5.23311L37.8684 5.57225L37.8692 5.57699L39.8394 5.23311ZM43.7238 27.6756L45.6955 27.3404L45.6947 27.3359L43.7238 27.6756ZM45.209 36.2984L47.1846 35.9866L47.1825 35.974L45.209 36.2984ZM45.0785 37.5728L43.2027 36.879L43.1946 36.9009L43.187 36.923L45.0785 37.5728ZM39.3661 54.1234L37.4628 53.509L37.4625 53.5101L39.3661 54.1234ZM37.6687 61.8028L39.6347 62.1699L39.6359 62.1634L37.6687 61.8028ZM34.992 69.7802L36.7966 70.6423L36.7972 70.6411L34.992 69.7802ZM29.2469 84.5432L31.1225 85.2377L31.1237 85.2342L29.2469 84.5432ZM24.7586 97.1878L22.8697 96.5304L22.8674 96.5372L24.7586 97.1878ZM22.7674 103.659L24.7056 104.152L24.7079 104.143L24.7101 104.134L22.7674 103.659ZM22.6858 106.92L24.6826 106.807L24.6822 106.801L22.6858 106.92ZM21.8208 115.41L19.883 114.915L19.8814 114.921L21.8208 115.41ZM21.2006 124.546L19.2046 124.673L19.2047 124.674L21.2006 124.546ZM21.0211 128.402L19.0315 128.198L19.0307 128.207L19.0299 128.215L21.0211 128.402ZM20.3029 129.395L18.839 130.758L20.4281 132.465L21.8729 130.634L20.3029 129.395ZM19.4869 128.501L17.5186 128.856L17.5215 128.872L17.5246 128.888L19.4869 128.501ZM18.8177 123.867L20.799 123.594L20.7981 123.588L18.8177 123.867ZM18.2465 119.68L20.2269 119.401L20.0547 118.179L18.8848 117.785L18.2465 119.68ZM17.969 119.597L18.6078 117.702L17.2063 117.229L16.3441 118.431L17.969 119.597ZM17.5936 120.127L15.6516 119.649L15.6484 119.662L15.6454 119.675L17.5936 120.127ZM16.4511 125.224L14.5071 124.754L14.5058 124.76L16.4511 125.224ZM14.819 131.563L16.747 132.095L16.749 132.087L14.819 131.563ZM14.1825 132.689L15.6042 134.096L15.6067 134.093L14.1825 132.689ZM13.2685 132.904L12.6745 134.814L12.6849 134.817L12.6954 134.82L13.2685 132.904ZM12.7952 132.209L10.8008 132.059L10.8002 132.068L12.7952 132.209ZM13.3175 126.995L15.3049 127.219L15.3051 127.218L13.3175 126.995ZM14.0846 120.458L16.0722 120.681L16.0762 120.645L16.0789 120.609L14.0846 120.458ZM13.954 119.796L15.9042 119.352L15.3698 117.003L13.1589 117.961L13.954 119.796ZM13.2848 120.11L15.0609 121.029L15.0868 120.98L15.1098 120.928L13.2848 120.11ZM12.3708 122.196L10.4932 121.507L10.4903 121.515L10.4875 121.523L12.3708 122.196ZM9.57991 130.123L11.4434 130.849L11.4482 130.837L11.4529 130.824L9.57991 130.123ZM8.29053 132.093L6.72884 130.844L6.71293 130.863L6.69753 130.884L8.29053 132.093ZM7.4908 132.457L6.39384 134.129L6.4058 134.137L6.41788 134.145L7.4908 132.457ZM6.93588 131.547L8.93318 131.651L8.93588 131.599V131.547H6.93588ZM7.21334 129.213L5.27958 128.703L5.27907 128.704L7.21334 129.213ZM9.87369 119.432L11.8044 119.954L11.8105 119.931L11.8161 119.909L9.87369 119.432ZM9.97162 119.035L11.9518 118.754L11.9487 118.733L11.9452 118.711L9.97162 119.035ZM9.75944 118.455L11.6598 117.832L10.9325 115.615L8.85284 116.672L9.75944 118.455ZM9.30245 118.703L10.9503 119.836L10.978 119.796L11.0036 119.755L9.30245 118.703ZM7.55608 121.368L5.82678 120.363L5.82646 120.364L7.55608 121.368ZM4.53666 126.697L6.26576 127.702L6.26603 127.702L4.53666 126.697ZM3.65532 127.657L4.9014 129.221L4.91243 129.213L4.92333 129.204L3.65532 127.657ZM2.87191 127.972L4.2981 126.57L4.27405 126.545L4.24917 126.522L2.87191 127.972ZM2.36595 126.979L4.34207 127.287L4.34594 127.262L4.34919 127.237L2.36595 126.979ZM3.00248 124.38L1.15432 123.616L1.14796 123.631L1.14185 123.646L3.00248 124.38ZM6.28303 116.717L4.40728 116.023L4.4038 116.033L6.28303 116.717ZM7.32759 111.67L5.37069 111.257L5.36526 111.283L5.36051 111.309L7.32759 111.67ZM5.60011 109.493C5.10333 110.1 4.3299 110.936 3.80777 111.711L7.12617 113.945C7.51804 113.362 7.91973 112.974 8.69599 112.025L5.60011 109.493ZM3.81213 111.705C2.79387 113.205 2.13509 113.771 1.15706 113.827L1.3878 117.821C4.42477 117.645 6.05097 115.529 7.12181 113.951L3.81213 111.705ZM1.17452 113.826C1.19551 113.825 1.19098 113.827 1.16757 113.825C1.14517 113.823 1.13479 113.82 1.14236 113.822C1.14727 113.823 1.16564 113.827 1.19506 113.837C1.2226 113.846 1.2773 113.865 1.3489 113.901C1.41612 113.934 1.53699 114 1.67281 114.116C1.80699 114.23 2.00834 114.437 2.15242 114.76L-1.50081 116.39C-1.19122 117.084 -0.619768 117.389 -0.424422 117.486C-0.161471 117.616 0.09263 117.686 0.272257 117.726C0.633797 117.807 1.02934 117.838 1.37034 117.822L1.17452 113.826ZM2.17251 114.807C2.2276 114.94 2.24349 115.04 2.24886 115.089C2.25472 115.142 2.25332 115.181 2.25046 115.209C2.24761 115.237 2.24098 115.278 2.22313 115.333C2.20667 115.384 2.16782 115.486 2.08083 115.611L-1.20073 113.323C-1.55171 113.827 -1.68679 114.385 -1.72942 114.808C-1.77224 115.234 -1.74912 115.794 -1.5209 116.343L2.17251 114.807ZM2.09132 115.595C2.40591 115.135 2.75319 114.68 3.13671 114.183C3.51 113.7 3.92519 113.168 4.31918 112.617L1.06556 110.291C0.725103 110.767 0.365038 111.228 -0.0287723 111.738C-0.412349 112.234 -0.824001 112.772 -1.21122 113.339L2.09132 115.595ZM4.3108 112.629C4.6823 112.117 5.27303 111.331 5.6562 110.439L1.98086 108.861C1.80911 109.261 1.5185 109.667 1.07394 110.279L4.3108 112.629ZM5.65818 110.435C6.4222 108.643 7.94219 107.617 10.1119 106.242L7.97069 102.864C5.96221 104.137 3.30398 105.759 1.97888 108.865L5.65818 110.435ZM10.1069 106.245C10.4259 106.045 10.7982 105.881 11.3525 105.641C11.8523 105.424 12.5279 105.134 13.1599 104.718L10.9615 101.376C10.6632 101.572 10.3024 101.737 9.76171 101.971C9.2756 102.182 8.60331 102.465 7.97572 102.861L10.1069 106.245ZM13.1577 104.719C14.1177 104.09 14.8657 103.045 15.2363 102.069L11.4965 100.649C11.3775 100.963 11.1135 101.276 10.9637 101.375L13.1577 104.719ZM15.2465 102.041C17.0203 97.1515 18.975 92.0266 19.8767 86.5919L15.9307 85.9371C15.1024 90.9292 13.3033 95.6683 11.4863 100.677L15.2465 102.041ZM19.8778 86.5855C20.3904 83.433 20.8029 80.2696 21.1485 77.1147L17.1723 76.6791C16.8325 79.7802 16.429 82.8731 15.9296 85.9435L19.8778 86.5855ZM21.1483 77.1164C21.8731 70.5514 23.0683 64.2513 25.6015 58.3367L21.9245 56.7619C19.1697 63.1941 17.9167 69.9358 17.1725 76.6774L21.1483 77.1164ZM25.6013 58.3371C26.178 56.9912 26.8184 55.7027 27.4852 54.2904C28.1373 52.9093 28.7939 51.4511 29.3135 49.9149L25.5245 48.6331C25.0811 49.9436 24.5054 51.2328 23.8681 52.5826C23.2456 53.9011 22.5395 55.3269 21.9247 56.7615L25.6013 58.3371ZM29.3141 49.9133C30.6196 46.0433 31.585 42.0878 32.5136 38.222L28.6242 37.2878C27.6922 41.1676 26.7644 44.9577 25.5239 48.6347L29.3141 49.9133ZM32.5144 38.2188C33.2474 35.1442 33.8283 32.0452 34.3079 28.9593L30.3553 28.3449C29.8883 31.3496 29.3268 34.3412 28.6234 37.291L32.5144 38.2188ZM34.3078 28.9598C34.8176 25.6859 35.0083 22.3526 34.7502 18.967L30.7618 19.271C30.9933 22.307 30.825 25.3291 30.3554 28.3444L34.3078 28.9598ZM34.7503 18.9677C34.3271 13.3889 35.6641 8.32076 38.9435 3.81088L35.7083 1.45846C31.8391 6.7796 30.2709 12.8003 30.7617 19.2703L34.7503 18.9677ZM38.9439 3.81035C39.0878 3.6122 39.2741 3.4035 39.548 3.11996C39.7947 2.86444 40.1655 2.49577 40.5135 2.1164L37.5657 -0.587469C37.2609 -0.255169 37.0033 -0.00319441 36.6707 0.341246C36.3651 0.657654 36.021 1.02822 35.7079 1.45899L38.9439 3.81035ZM37.0716 1.12094C37.3666 2.74928 37.6254 4.16014 37.8684 5.57224L41.8104 4.89398C41.5636 3.45938 41.3002 2.02356 41.0076 0.407988L37.0716 1.12094ZM37.8692 5.57699C39.1745 13.0553 40.4634 20.5341 41.7529 28.0153L45.6947 27.3359C44.4054 19.8555 43.1157 12.3725 41.8096 4.88923L37.8692 5.57699ZM41.7521 28.0108C42.2488 30.9324 42.7617 33.7401 43.2355 36.6228L47.1825 35.974C46.7097 33.0973 46.178 30.1784 45.6955 27.3404L41.7521 28.0108ZM43.2334 36.6102C43.2437 36.6749 43.2347 36.7925 43.2027 36.879L46.9543 38.2666C47.2161 37.5587 47.3049 36.7495 47.1846 35.9866L43.2334 36.6102ZM43.187 36.923C41.3158 42.3701 39.2637 47.9307 37.4628 53.509L41.2694 54.7379C43.0591 49.1941 45.0546 43.7983 46.97 38.2226L43.187 36.923ZM37.4625 53.5101C36.6123 56.1489 36.1627 58.926 35.7015 61.4422L39.6359 62.1634C40.1213 59.5158 40.5203 57.0629 41.2697 54.7367L37.4625 53.5101ZM35.7027 61.4357C35.2188 64.0271 34.3365 66.5085 33.1868 68.9193L36.7972 70.6411C38.0629 67.9873 39.074 65.1725 39.6347 62.1699L35.7027 61.4357ZM33.1874 68.9181C30.8491 73.8126 29.1629 78.9826 27.3701 83.8522L31.1237 85.2342C32.9869 80.1736 34.5649 75.314 36.7966 70.6423L33.1874 68.9181ZM27.3714 83.8487C25.8126 88.0583 24.3367 92.3155 22.8697 96.5304L26.6475 97.8452C28.1183 93.6193 29.5802 89.4027 31.1224 85.2377L27.3714 83.8487ZM22.8674 96.5372C22.1334 98.6707 21.3875 100.884 20.8247 103.184L24.7101 104.134C25.2245 102.032 25.9148 99.9749 26.6498 97.8384L22.8674 96.5372ZM20.8292 103.166C20.4716 104.571 20.6336 106.105 20.6894 107.039L24.6822 106.801C24.6074 105.549 24.541 104.799 24.7056 104.152L20.8292 103.166ZM20.689 107.033C20.8394 109.687 20.5395 112.346 19.883 114.915L23.7586 115.905C24.5057 112.98 24.8586 109.911 24.6826 106.807L20.689 107.033ZM19.8814 114.921C19.0424 118.252 19.0026 121.497 19.2046 124.673L23.1966 124.419C23.0068 121.437 23.065 118.658 23.7602 115.899L19.8814 114.921ZM19.2047 124.674C19.2739 125.755 19.1646 126.899 19.0315 128.198L23.0107 128.606C23.1386 127.357 23.2905 125.885 23.1965 124.418L19.2047 124.674ZM19.0299 128.215C19.0568 127.928 19.156 127.733 19.2018 127.654C19.2263 127.612 19.2454 127.586 19.251 127.578C19.2568 127.571 19.2554 127.573 19.2419 127.589C19.2282 127.604 19.2087 127.626 19.1782 127.658C19.1416 127.697 19.1187 127.721 19.0678 127.775C18.988 127.859 18.8584 127.997 18.7329 128.156L21.8729 130.634C21.8726 130.634 21.8792 130.626 21.8974 130.606C21.9158 130.585 21.9392 130.56 21.9737 130.524C22.0278 130.466 22.1482 130.342 22.2535 130.221C22.3625 130.096 22.5209 129.904 22.6619 129.661C22.8045 129.415 22.969 129.05 23.0123 128.589L19.0299 128.215ZM21.7668 128.032C21.6871 127.947 21.6101 127.873 21.5442 127.812C21.4784 127.752 21.4157 127.697 21.3647 127.654C21.3221 127.618 21.2579 127.564 21.2318 127.542C21.1944 127.51 21.1703 127.489 21.1523 127.473C21.1345 127.457 21.1312 127.453 21.1366 127.459C21.1417 127.464 21.164 127.487 21.1943 127.527C21.2483 127.598 21.3869 127.798 21.4492 128.114L17.5246 128.888C17.6195 129.369 17.8417 129.727 18.0115 129.95C18.1808 130.172 18.3615 130.343 18.4783 130.448C18.5843 130.543 18.7281 130.662 18.7704 130.698C18.8445 130.762 18.8525 130.772 18.839 130.758L21.7668 128.032ZM21.4552 128.146C21.1874 126.661 21.0192 125.192 20.799 123.594L16.8364 124.14C17.0405 125.62 17.2314 127.263 17.5186 128.856L21.4552 128.146ZM20.7981 123.588C20.7013 122.901 20.6083 122.208 20.5143 121.507C20.4206 120.809 20.3259 120.104 20.2269 119.401L16.2661 119.959C16.3629 120.646 16.4558 121.339 16.5498 122.04C16.6435 122.738 16.7382 123.443 16.8373 124.146L20.7981 123.588ZM18.8848 117.785C18.7783 117.749 18.6845 117.723 18.6442 117.712C18.5949 117.698 18.599 117.699 18.6078 117.702L17.3302 121.492C17.4369 121.528 17.5307 121.554 17.5712 121.565C17.6207 121.579 17.6167 121.578 17.6082 121.575L18.8848 117.785ZM16.3441 118.431C16.3699 118.395 16.3851 118.38 16.3596 118.409C16.3576 118.411 16.2728 118.506 16.2202 118.568C16.1087 118.701 15.7913 119.081 15.6516 119.649L19.5356 120.605C19.4874 120.801 19.413 120.944 19.3626 121.026C19.3373 121.068 19.3155 121.098 19.3021 121.116C19.2888 121.134 19.2804 121.144 19.2812 121.143C19.2824 121.142 19.2874 121.136 19.3026 121.119C19.3106 121.11 19.3174 121.102 19.3288 121.089C19.3389 121.078 19.3514 121.064 19.3647 121.049C19.391 121.019 19.4258 120.978 19.4637 120.932C19.5018 120.886 19.5467 120.829 19.5939 120.763L16.3441 118.431ZM15.6454 119.675C15.2226 121.497 14.9248 123.026 14.5071 124.754L18.3951 125.694C18.7936 124.046 19.1812 122.133 19.5418 120.579L15.6454 119.675ZM14.5058 124.76C14.0065 126.851 13.4573 128.947 12.889 131.039L16.749 132.087C17.3231 129.975 17.8839 127.835 18.3964 125.688L14.5058 124.76ZM12.891 131.031C12.8586 131.149 12.7899 131.253 12.7583 131.285L15.6067 134.093C16.1627 133.529 16.551 132.805 16.747 132.095L12.891 131.031ZM12.7608 131.282C12.9076 131.134 13.0435 131.057 13.1149 131.022C13.1926 130.984 13.2563 130.965 13.3031 130.954C13.3504 130.943 13.4088 130.934 13.4817 130.933C13.549 130.933 13.6763 130.938 13.8416 130.988L12.6954 134.82C13.2668 134.991 13.8183 134.941 14.2091 134.85C14.5885 134.762 15.1464 134.558 15.6042 134.096L12.7608 131.282ZM13.8625 130.994C14.1949 131.098 14.3883 131.266 14.4432 131.316C14.5203 131.385 14.5667 131.445 14.5948 131.486C14.6228 131.527 14.663 131.593 14.701 131.693C14.7295 131.767 14.8144 132.007 14.7902 132.35L10.8002 132.068C10.7678 132.526 10.8813 132.902 10.9639 133.119C11.0559 133.36 11.1756 133.573 11.2976 133.751C11.4195 133.928 11.574 134.114 11.7623 134.284C11.9284 134.434 12.236 134.677 12.6745 134.814L13.8625 130.994ZM14.7896 132.359C14.9169 130.664 15.1083 128.963 15.3049 127.219L11.3301 126.771C11.1349 128.503 10.9347 130.278 10.8008 132.059L14.7896 132.359ZM15.3051 127.218C15.4264 126.135 15.5561 125.055 15.6868 123.965C15.8172 122.878 15.9487 121.782 16.0722 120.681L12.097 120.235C11.9756 121.319 11.846 122.399 11.7153 123.489C11.5848 124.575 11.4534 125.671 11.3299 126.772L15.3051 127.218ZM16.0789 120.609C16.1122 120.17 16.0252 119.803 15.9814 119.632C15.9583 119.541 15.9313 119.449 15.9204 119.411C15.905 119.357 15.9032 119.348 15.9042 119.352L12.0038 120.24C12.0171 120.298 12.0307 120.351 12.0425 120.395C12.0542 120.439 12.0656 120.479 12.0743 120.509C12.0844 120.545 12.0894 120.562 12.0959 120.585C12.1014 120.605 12.1044 120.616 12.1061 120.622C12.1101 120.638 12.1032 120.615 12.0968 120.568C12.0903 120.521 12.0811 120.429 12.0903 120.307L16.0789 120.609ZM13.1589 117.961C13.2219 117.934 13.2576 117.925 13.1967 117.944C13.1765 117.95 13.0366 117.989 12.9248 118.027C12.8086 118.066 12.5794 118.148 12.3369 118.299C12.0914 118.451 11.7005 118.755 11.4598 119.292L15.1098 120.928C14.9099 121.374 14.5945 121.605 14.4464 121.697C14.3666 121.747 14.3017 121.777 14.2661 121.792C14.2296 121.808 14.206 121.816 14.2038 121.817C14.2015 121.818 14.2076 121.816 14.2316 121.808C14.2434 121.805 14.2559 121.801 14.2734 121.796C14.2895 121.792 14.3106 121.785 14.3323 121.779C14.4056 121.757 14.5718 121.708 14.7491 121.631L13.1589 117.961ZM11.5087 119.191C11.1246 119.932 10.7812 120.722 10.4932 121.507L14.2484 122.885C14.4828 122.246 14.7596 121.612 15.0609 121.029L11.5087 119.191ZM10.4875 121.523C9.50739 124.265 8.68667 126.805 7.70694 129.422L11.4529 130.824C12.4317 128.211 13.341 125.423 14.2541 122.869L10.4875 121.523ZM7.71641 129.397C7.57139 129.769 7.26839 130.169 6.72884 130.844L9.85222 133.342C10.292 132.793 11.0335 131.901 11.4434 130.849L7.71641 129.397ZM6.69753 130.884C6.83031 130.709 6.95094 130.626 6.9683 130.614C7.00323 130.589 7.02765 130.577 7.04793 130.567C7.05883 130.562 7.13151 130.529 7.26205 130.503C7.32669 130.49 7.46278 130.468 7.64441 130.476C7.80506 130.483 8.17253 130.52 8.56372 130.769L6.41788 134.145C6.84171 134.414 7.25355 134.463 7.46751 134.472C7.70243 134.482 7.90074 134.454 8.03373 134.428C8.30096 134.375 8.53481 134.286 8.70892 134.206C8.9918 134.077 9.509 133.796 9.88353 133.302L6.69753 130.884ZM8.58776 130.785C8.66674 130.836 8.7111 130.88 8.72997 130.9C8.75115 130.922 8.76917 130.944 8.78694 130.972C8.80334 130.998 8.83629 131.054 8.86749 131.144C8.89652 131.228 8.94591 131.406 8.93318 131.651L4.93858 131.443C4.89933 132.198 5.21036 132.805 5.4194 133.131C5.65135 133.493 5.98295 133.86 6.39384 134.129L8.58776 130.785ZM8.93588 131.547C8.93588 130.898 9.00497 130.264 9.14761 129.722L5.27907 128.704C5.02999 129.652 4.93588 130.64 4.93588 131.547H8.93588ZM9.1471 129.723C10.0117 126.448 10.914 123.247 11.8044 119.954L7.943 118.91C7.07067 122.137 6.14499 125.424 5.27958 128.703L9.1471 129.723ZM11.8161 119.909C11.8011 119.97 11.787 120.007 11.7941 119.987C11.7982 119.975 11.7993 119.972 11.8092 119.944C11.8166 119.923 11.8284 119.89 11.8409 119.852C11.864 119.781 11.9057 119.648 11.9354 119.485C11.9649 119.323 11.9958 119.064 11.9518 118.754L7.99146 119.316C7.95563 119.064 7.98242 118.866 8.00014 118.769C8.01815 118.67 8.04048 118.604 8.0411 118.602C8.0424 118.598 8.04217 118.599 8.03741 118.612C8.03515 118.619 8.02393 118.65 8.01601 118.673C7.9991 118.722 7.9626 118.828 7.93133 118.955L11.8161 119.909ZM11.9452 118.711C11.8873 118.358 11.767 118.076 11.7162 117.957C11.7021 117.925 11.6878 117.892 11.6787 117.871C11.6683 117.847 11.6621 117.833 11.6571 117.821C11.6468 117.797 11.6514 117.806 11.6598 117.832L7.85911 119.078C7.90015 119.204 7.94346 119.31 7.97399 119.382C7.98936 119.418 8.00413 119.452 8.01458 119.476C8.02644 119.503 8.03305 119.518 8.03934 119.533C8.05189 119.562 8.04789 119.555 8.03971 119.53C8.03076 119.504 8.01194 119.444 7.99801 119.359L11.9452 118.711ZM8.85284 116.672C8.91105 116.643 8.94926 116.63 8.91788 116.642C8.85735 116.665 8.93484 116.635 8.85353 116.666C8.82346 116.677 8.77761 116.695 8.72599 116.717C8.63091 116.757 8.4551 116.835 8.2644 116.964C8.06659 117.098 7.80904 117.315 7.60126 117.651L11.0036 119.755C10.8367 120.025 10.6362 120.189 10.5063 120.277C10.3834 120.36 10.2861 120.4 10.2747 120.405C10.2649 120.409 10.2621 120.41 10.2757 120.404C10.2824 120.402 10.2896 120.399 10.3016 120.395C10.3124 120.391 10.3275 120.385 10.3434 120.379C10.4003 120.357 10.5262 120.309 10.666 120.238L8.85284 116.672ZM7.6546 117.57C7.06877 118.421 6.41274 119.355 5.82678 120.363L9.28538 122.373C9.77662 121.527 10.3284 120.741 10.9503 119.836L7.6546 117.57ZM5.82646 120.364C5.30304 121.265 4.7975 122.169 4.30103 123.056C3.80201 123.948 3.31199 124.824 2.80729 125.692L6.26603 127.702C6.78957 126.8 7.29515 125.897 7.79172 125.009C8.29084 124.117 8.78089 123.242 9.2857 122.372L5.82646 120.364ZM2.80756 125.692C2.77745 125.744 2.67364 125.876 2.38731 126.11L4.92333 129.204C5.3225 128.876 5.87153 128.38 6.26576 127.702L2.80756 125.692ZM2.40924 126.093C2.45367 126.057 2.47185 126.049 2.45401 126.059C2.44082 126.067 2.42954 126.072 2.43011 126.072C2.43131 126.071 2.44413 126.066 2.46814 126.058C2.48895 126.051 2.54165 126.034 2.61906 126.019C2.68116 126.007 2.85058 125.978 3.07779 125.996C3.26719 126.011 3.82 126.084 4.2981 126.57L1.44572 129.374C1.94422 129.881 2.52967 129.965 2.76147 129.983C3.03107 130.005 3.25264 129.971 3.37416 129.947C3.62743 129.899 3.84595 129.816 3.98696 129.756C4.26968 129.637 4.6128 129.451 4.9014 129.221L2.40924 126.093ZM4.24917 126.522C4.25505 126.527 4.25109 126.524 4.24372 126.515C4.23617 126.505 4.23782 126.506 4.24645 126.521C4.25288 126.532 4.28498 126.59 4.3137 126.693C4.34088 126.79 4.38631 127.003 4.34207 127.287L0.389828 126.671C0.260933 127.498 0.586999 128.174 0.75883 128.48C0.967427 128.851 1.23575 129.176 1.49465 129.422L4.24917 126.522ZM4.34919 127.237C4.44917 126.47 4.61385 125.746 4.86311 125.114L1.14185 123.646C0.738251 124.67 0.511228 125.734 0.382708 126.721L4.34919 127.237ZM4.85064 125.144C5.36638 123.897 5.92977 122.676 6.51073 121.379C7.08317 120.102 7.66293 118.772 8.16226 117.401L4.4038 116.033C3.9565 117.261 3.42642 118.48 2.86046 119.743C2.30302 120.987 1.69945 122.298 1.15432 123.616L4.85064 125.144ZM8.15875 117.411C8.82601 115.608 9.03485 113.446 9.29467 112.031L5.36051 111.309C5.00011 113.27 4.91517 114.65 4.40731 116.023L8.15875 117.411ZM9.28449 112.083C9.41416 111.468 9.27313 110.959 9.22111 110.77C9.14944 110.51 9.1377 110.501 9.10494 110.346L5.19116 111.172C5.22798 111.346 5.2671 111.493 5.30017 111.61C5.31604 111.666 5.33143 111.718 5.34212 111.754C5.35413 111.795 5.36026 111.816 5.3647 111.833C5.36882 111.848 5.36729 111.843 5.36386 111.827C5.36028 111.811 5.35288 111.774 5.34699 111.723C5.34097 111.67 5.33636 111.601 5.33896 111.52C5.34161 111.437 5.35144 111.348 5.37069 111.257L9.28449 112.083Z" fill="#7A76E4" mask="url(#path-1-inside-1_3028_50)"/>
</svg>
