<svg width="34" height="180" viewBox="0 0 34 180" fill="none" xmlns="http://www.w3.org/2000/svg">
<mask id="path-1-inside-1_3025_14" fill="white">
<path d="M26.6799 174.322L22.1799 175.968L18.1799 177.822C18.5506 177.65 16.3431 178.69 16.1799 178.822C15.8208 179.087 15.1043 179.289 14.6799 179.322C14.4677 179.339 13.6799 179.322 13.6799 179.322C13.6799 179.322 13.3151 179.322 12.6799 179.322C10.6799 179.322 7.58053 178.649 7.30307 176.696L7.21552 175.968L7.21758 175.985L7.65462 173.4C7.49141 172.639 7.75255 171.795 7.81783 171C7.96472 169.461 8.09529 167.905 8.30747 166.366C8.55229 164.529 9.00929 162.708 9.13985 160.855C9.30303 158.471 9.27043 156.072 9.22143 153.688C9.18883 151.984 8.97664 150.296 8.81343 148.607C8.56861 146.059 8.34011 143.526 8.06265 140.978C7.85048 139.074 7.58934 137.171 7.34453 135.268C7.11603 133.53 6.85489 131.809 6.65903 130.071C6.43054 128.035 6.0878 125.983 6.07148 123.931C6.05516 120.769 6.1694 117.592 6.3979 114.431C6.57743 111.782 7.05075 109.151 7.29556 106.503C7.65463 102.729 8.20955 98.9391 7.80152 95.149C7.6383 93.6098 7.09971 92.1202 6.82225 90.5976C6.59375 89.3894 6.41421 88.1647 6.38157 86.9399C6.28365 82.8023 6.20204 78.6647 6.21836 74.5436C6.21836 68.9164 6.44686 63.2892 6.29997 57.6786C6.18572 53.7396 5.71241 49.8005 5.22277 45.8781C4.68417 41.5749 3.91708 37.2884 3.29688 32.9852C3.10102 31.6281 3.13366 30.2378 2.92148 28.8807C2.83988 28.3345 2.41553 27.8215 2.07279 27.358C1.43626 26.514 0.734452 25.7195 0 24.8258C10.7393 16.534 21.3807 8.30837 32.1364 0C32.3648 2.16812 32.5934 4.23693 32.8055 6.30575C33.034 8.47387 33.2462 10.642 33.442 12.8101C33.54 13.9025 33.5889 14.9948 33.6053 16.0871C33.6705 20.142 33.8174 24.1803 33.7358 28.2352C33.6869 30.6185 33.2625 33.0018 32.9687 35.3685C32.6586 37.8676 32.2996 40.3502 31.9405 42.8328C31.5325 45.7291 31.0755 48.6255 30.7001 51.5384C30.3737 53.9547 30.1125 56.3877 29.8351 58.8206C29.5086 61.6011 29.1985 64.3816 28.9048 67.162C28.6436 69.7108 28.4151 72.2596 28.1866 74.8084C27.9418 77.622 27.697 80.4521 27.4848 83.2822C27.3053 85.6159 27.1421 87.9495 27.0442 90.2831C26.9299 92.9809 26.7993 95.6786 26.832 98.3763C26.8646 101.62 27.1094 104.864 27.1584 108.108C27.191 110.425 27.1421 112.742 26.9625 115.043C26.7667 117.559 26.4076 120.058 26.0322 122.557C25.6732 124.973 25.2325 127.373 24.8082 129.773C24.0411 133.993 23.274 138.23 22.4579 142.434C21.8214 145.744 21.0869 149.054 20.4341 152.364C19.8792 155.211 18.9978 157.992 19.0305 160.938C19.0468 161.831 18.753 163.009 19.0305 163.822C18.753 165.509 18.9024 164.685 19.0305 166.185C20.4024 166.685 24.6799 165.822 24.6799 165.822L27.6799 164.822H28.986L30.1799 165.322L31.6799 167.822L32.1799 168.822C32.6799 170.322 30.1121 172.455 30.0305 172.654L26.6799 174.322Z"/>
</mask>
<path d="M26.6799 174.322L27.367 176.2L27.4715 176.162L27.5712 176.112L26.6799 174.322ZM22.1799 175.968L21.4929 174.089L21.4146 174.118L21.3389 174.153L22.1799 175.968ZM18.1799 177.822L17.3382 176.008L19.021 179.636L18.1799 177.822ZM16.1799 178.822L17.3675 180.431L17.4032 180.405L17.4377 180.377L16.1799 178.822ZM14.6799 179.322L14.5249 177.328L14.5202 177.328L14.6799 179.322ZM13.6799 179.322L13.7231 177.322L13.7015 177.322H13.6799V179.322ZM7.30307 176.696L5.31738 176.935L5.31994 176.956L5.32296 176.977L7.30307 176.696ZM7.21552 175.968L9.201 175.727L5.22983 176.207L7.21552 175.968ZM7.21758 175.985L5.23211 176.225L9.1896 176.318L7.21758 175.985ZM7.65462 173.4L9.62664 173.733L9.69054 173.355L9.61015 172.98L7.65462 173.4ZM7.81783 171L5.82688 170.81L5.82562 170.823L5.82454 170.836L7.81783 171ZM8.30747 166.366L10.2888 166.639L10.2899 166.63L8.30747 166.366ZM9.13985 160.855L11.1349 160.995L11.1352 160.991L9.13985 160.855ZM9.22143 153.688L7.2218 153.726L7.22185 153.729L9.22143 153.688ZM8.81343 148.607L6.8226 148.798L6.8227 148.799L8.81343 148.607ZM8.06265 140.978L10.0509 140.761L10.0503 140.756L8.06265 140.978ZM7.34453 135.268L9.32819 135.013L9.32747 135.007L7.34453 135.268ZM6.65903 130.071L4.67151 130.294L4.67161 130.295L6.65903 130.071ZM6.07148 123.931L4.0715 123.941L4.07155 123.947L6.07148 123.931ZM6.3979 114.431L8.39272 114.575L8.39332 114.566L6.3979 114.431ZM7.29556 106.503L5.30455 106.313L5.30406 106.319L7.29556 106.503ZM7.80152 95.149L5.81267 95.3599L5.81301 95.3631L7.80152 95.149ZM6.82225 90.5976L8.78989 90.239L8.78742 90.2259L6.82225 90.5976ZM6.38157 86.9399L4.38212 86.9872L4.38228 86.9932L6.38157 86.9399ZM6.21836 74.5436L8.21836 74.5515V74.5436H6.21836ZM6.29997 57.6786L8.29929 57.6262L8.29913 57.6206L6.29997 57.6786ZM5.22277 45.8781L7.20737 45.6303L7.20729 45.6297L5.22277 45.8781ZM3.29688 32.9852L5.27643 32.6999L5.27637 32.6995L3.29688 32.9852ZM2.92148 28.8807L0.943389 29.1762L0.945488 29.1896L2.92148 28.8807ZM2.07279 27.358L3.68089 26.1689L3.67527 26.1613L3.66958 26.1537L2.07279 27.358ZM0 24.8258L-1.22227 23.2427L-2.8542 24.5027L-1.54516 26.0956L0 24.8258ZM32.1364 0L34.1254 -0.20953L33.75 -3.77361L30.9138 -1.58277L32.1364 0ZM32.8055 6.30575L30.816 6.50972L30.8165 6.51537L32.8055 6.30575ZM33.442 12.8101L35.434 12.6314L35.4339 12.6302L33.442 12.8101ZM33.6053 16.0871L31.6056 16.1171L31.6056 16.1192L33.6053 16.0871ZM33.7358 28.2352L35.7354 28.2762L35.7354 28.2754L33.7358 28.2352ZM32.9687 35.3685L30.984 35.1221L30.984 35.1222L32.9687 35.3685ZM31.9405 42.8328L29.9611 42.5465L29.9601 42.5538L31.9405 42.8328ZM30.7001 51.5384L32.6822 51.8061L32.6837 51.794L30.7001 51.5384ZM29.8351 58.8206L31.8215 59.0538L31.8223 59.0471L29.8351 58.8206ZM28.9048 67.162L26.9159 66.9519L26.9153 66.9581L28.9048 67.162ZM28.1866 74.8084L26.1946 74.6298L26.1942 74.635L28.1866 74.8084ZM27.4848 83.2822L29.4789 83.4356L29.4792 83.4317L27.4848 83.2822ZM27.0442 90.2831L29.0424 90.3677L29.0425 90.3669L27.0442 90.2831ZM26.832 98.3763L28.8319 98.3562L28.8319 98.352L26.832 98.3763ZM27.1584 108.108L29.1582 108.08L29.1582 108.078L27.1584 108.108ZM26.9625 115.043L24.9686 114.887L24.9686 114.888L26.9625 115.043ZM26.0322 122.557L24.0544 122.26L24.054 122.263L26.0322 122.557ZM24.8082 129.773L26.776 130.13L26.7777 130.121L24.8082 129.773ZM22.4579 142.434L20.4946 142.053L20.4939 142.056L22.4579 142.434ZM20.4341 152.364L18.4719 151.977L18.4711 151.981L20.4341 152.364ZM19.0305 160.938L17.0307 160.96L17.0307 160.967L17.0309 160.974L19.0305 160.938ZM19.0305 163.822L21.004 164.146L21.0855 163.651L20.9233 163.176L19.0305 163.822ZM19.0305 166.185L17.0378 166.355L17.1464 167.627L18.3457 168.064L19.0305 166.185ZM24.6799 165.822L25.0755 167.782L25.1959 167.758L25.3124 167.719L24.6799 165.822ZM27.6799 164.822V162.822H27.3554L27.0475 162.924L27.6799 164.822ZM28.986 164.822L29.7586 162.977L29.3879 162.822H28.986V164.822ZM30.1799 165.322L31.8949 164.293L31.5575 163.73L30.9525 163.477L30.1799 165.322ZM31.6799 167.822L33.4688 166.927L33.4344 166.859L33.3949 166.793L31.6799 167.822ZM32.1799 168.822L34.0773 168.189L34.0324 168.054L33.9688 167.927L32.1799 168.822ZM30.0305 172.654L30.9218 174.444L31.5955 174.109L31.881 173.413L30.0305 172.654ZM25.9929 172.443L21.4929 174.089L22.867 177.846L27.367 176.2L25.9929 172.443ZM21.3389 174.153L17.3389 176.007L19.021 179.636L23.021 177.782L21.3389 174.153ZM19.0217 179.636C19.0588 179.619 19.041 179.627 19.0149 179.639C19.0125 179.64 18.9834 179.652 18.9459 179.667C18.9448 179.667 18.8645 179.7 18.7613 179.728C18.677 179.75 18.3363 179.799 18.0789 179.798C16.8757 179.282 16.2995 177.251 16.7249 176.476C16.8506 176.347 17.0432 176.187 17.1003 176.147C17.1309 176.126 17.1811 176.095 17.2005 176.083C17.2353 176.062 17.2631 176.047 17.2718 176.043C17.2935 176.031 17.3104 176.022 17.3142 176.02C17.3307 176.012 17.3425 176.006 17.3337 176.011C17.3147 176.02 17.2654 176.044 17.1828 176.083C17.0253 176.159 16.7752 176.278 16.5076 176.408C16.2418 176.537 15.95 176.68 15.7106 176.801C15.5922 176.861 15.4751 176.921 15.3759 176.975C15.3554 176.986 15.1171 177.109 14.9222 177.267L17.4377 180.377C17.2835 180.501 17.1499 180.563 17.28 180.493C17.3313 180.465 17.4105 180.424 17.5162 180.37C17.725 180.265 17.9926 180.134 18.2527 180.007C18.511 179.882 18.7535 179.766 18.9107 179.691C18.9855 179.655 19.0491 179.624 19.0805 179.609C19.0843 179.607 19.1048 179.597 19.1258 179.587C19.1307 179.584 19.1486 179.575 19.1709 179.563C19.1798 179.558 19.2078 179.543 19.2429 179.522C19.2623 179.511 19.3126 179.479 19.3432 179.459C19.4004 179.418 19.593 179.259 19.7187 179.129C20.1441 178.355 19.5679 176.323 18.3647 175.808C18.1073 175.806 17.7666 175.855 17.6822 175.877C17.579 175.906 17.4984 175.938 17.4971 175.939C17.4591 175.953 17.4293 175.966 17.4258 175.968C17.3914 175.983 17.3474 176.003 17.3382 176.008L19.0217 179.636ZM14.9924 177.213C15.049 177.171 15.0686 177.167 15.0235 177.188C14.9856 177.205 14.9266 177.228 14.8506 177.252C14.7757 177.276 14.7 177.295 14.6332 177.309C14.6005 177.316 14.5734 177.321 14.5528 177.324C14.5316 177.327 14.5225 177.328 14.5249 177.328L14.835 181.316C15.2351 181.285 15.6738 181.187 16.0583 181.065C16.4193 180.951 16.9294 180.754 17.3675 180.431L14.9924 177.213ZM14.5202 177.328C14.5243 177.328 14.3793 177.331 14.1194 177.328C14.0143 177.327 13.9146 177.326 13.8408 177.324C13.804 177.324 13.774 177.323 13.7535 177.323C13.7432 177.323 13.7354 177.322 13.7302 177.322C13.7276 177.322 13.7257 177.322 13.7245 177.322C13.7239 177.322 13.7235 177.322 13.7232 177.322C13.7231 177.322 13.723 177.322 13.723 177.322C13.723 177.322 13.723 177.322 13.723 177.322C13.723 177.322 13.723 177.322 13.723 177.322C13.7231 177.322 13.7231 177.322 13.6799 179.322C13.6368 181.321 13.6368 181.321 13.6368 181.321C13.6369 181.321 13.6369 181.321 13.6369 181.321C13.637 181.321 13.6371 181.321 13.6371 181.321C13.6373 181.321 13.6375 181.321 13.6378 181.321C13.6383 181.321 13.639 181.321 13.6399 181.321C13.6417 181.321 13.6443 181.321 13.6475 181.322C13.6539 181.322 13.6632 181.322 13.6749 181.322C13.6983 181.323 13.7315 181.323 13.7719 181.324C13.8525 181.325 13.963 181.327 14.0813 181.328C14.2684 181.33 14.6234 181.333 14.8396 181.315L14.5202 177.328ZM13.6799 179.322C13.6799 177.322 13.6799 177.322 13.6799 177.322C13.6799 177.322 13.6799 177.322 13.6799 177.322C13.6799 177.322 13.6799 177.322 13.6799 177.322C13.6799 177.322 13.6799 177.322 13.6799 177.322C13.6799 177.322 13.6798 177.322 13.6798 177.322C13.6798 177.322 13.6798 177.322 13.6798 177.322C13.6798 177.322 13.6797 177.322 13.6797 177.322C13.6797 177.322 13.6797 177.322 13.6797 177.322C13.6796 177.322 13.6796 177.322 13.6796 177.322C13.6796 177.322 13.6795 177.322 13.6795 177.322C13.6795 177.322 13.6795 177.322 13.6794 177.322C13.6794 177.322 13.6794 177.322 13.6793 177.322C13.6793 177.322 13.6793 177.322 13.6792 177.322C13.6792 177.322 13.6792 177.322 13.6791 177.322C13.6791 177.322 13.679 177.322 13.679 177.322C13.679 177.322 13.6789 177.322 13.6789 177.322C13.6788 177.322 13.6788 177.322 13.6787 177.322C13.6787 177.322 13.6786 177.322 13.6786 177.322C13.6785 177.322 13.6785 177.322 13.6784 177.322C13.6784 177.322 13.6783 177.322 13.6783 177.322C13.6782 177.322 13.6782 177.322 13.6781 177.322C13.678 177.322 13.678 177.322 13.6779 177.322C13.6779 177.322 13.6778 177.322 13.6777 177.322C13.6777 177.322 13.6776 177.322 13.6775 177.322C13.6775 177.322 13.6774 177.322 13.6773 177.322C13.6773 177.322 13.6772 177.322 13.6771 177.322C13.677 177.322 13.677 177.322 13.6769 177.322C13.6768 177.322 13.6768 177.322 13.6767 177.322C13.6766 177.322 13.6765 177.322 13.6764 177.322C13.6764 177.322 13.6763 177.322 13.6762 177.322C13.6761 177.322 13.676 177.322 13.6759 177.322C13.6759 177.322 13.6758 177.322 13.6757 177.322C13.6756 177.322 13.6755 177.322 13.6754 177.322C13.6753 177.322 13.6752 177.322 13.6751 177.322C13.675 177.322 13.6749 177.322 13.6748 177.322C13.6748 177.322 13.6747 177.322 13.6746 177.322C13.6745 177.322 13.6744 177.322 13.6743 177.322C13.6741 177.322 13.674 177.322 13.6739 177.322C13.6738 177.322 13.6737 177.322 13.6736 177.322C13.6735 177.322 13.6734 177.322 13.6733 177.322C13.6732 177.322 13.6731 177.322 13.673 177.322C13.6728 177.322 13.6727 177.322 13.6726 177.322C13.6725 177.322 13.6724 177.322 13.6723 177.322C13.6721 177.322 13.672 177.322 13.6719 177.322C13.6718 177.322 13.6717 177.322 13.6715 177.322C13.6714 177.322 13.6713 177.322 13.6712 177.322C13.671 177.322 13.6709 177.322 13.6708 177.322C13.6707 177.322 13.6705 177.322 13.6704 177.322C13.6703 177.322 13.6701 177.322 13.67 177.322C13.6699 177.322 13.6697 177.322 13.6696 177.322C13.6694 177.322 13.6693 177.322 13.6692 177.322C13.669 177.322 13.6689 177.322 13.6687 177.322C13.6686 177.322 13.6685 177.322 13.6683 177.322C13.6682 177.322 13.668 177.322 13.6679 177.322C13.6677 177.322 13.6676 177.322 13.6674 177.322C13.6673 177.322 13.6671 177.322 13.667 177.322C13.6668 177.322 13.6667 177.322 13.6665 177.322C13.6663 177.322 13.6662 177.322 13.666 177.322C13.6659 177.322 13.6657 177.322 13.6655 177.322C13.6654 177.322 13.6652 177.322 13.6651 177.322C13.6649 177.322 13.6647 177.322 13.6646 177.322C13.6644 177.322 13.6642 177.322 13.6641 177.322C13.6639 177.322 13.6637 177.322 13.6635 177.322C13.6634 177.322 13.6632 177.322 13.663 177.322C13.6628 177.322 13.6627 177.322 13.6625 177.322C13.6623 177.322 13.6621 177.322 13.6619 177.322C13.6618 177.322 13.6616 177.322 13.6614 177.322C13.6612 177.322 13.661 177.322 13.6608 177.322C13.6607 177.322 13.6605 177.322 13.6603 177.322C13.6601 177.322 13.6599 177.322 13.6597 177.322C13.6595 177.322 13.6593 177.322 13.6591 177.322C13.6589 177.322 13.6587 177.322 13.6586 177.322C13.6584 177.322 13.6582 177.322 13.658 177.322C13.6578 177.322 13.6576 177.322 13.6574 177.322C13.6572 177.322 13.6569 177.322 13.6567 177.322C13.6565 177.322 13.6563 177.322 13.6561 177.322C13.6559 177.322 13.6557 177.322 13.6555 177.322C13.6553 177.322 13.6551 177.322 13.6549 177.322C13.6547 177.322 13.6544 177.322 13.6542 177.322C13.654 177.322 13.6538 177.322 13.6536 177.322C13.6534 177.322 13.6531 177.322 13.6529 177.322C13.6527 177.322 13.6525 177.322 13.6522 177.322C13.652 177.322 13.6518 177.322 13.6516 177.322C13.6513 177.322 13.6511 177.322 13.6509 177.322C13.6507 177.322 13.6504 177.322 13.6502 177.322C13.65 177.322 13.6497 177.322 13.6495 177.322C13.6493 177.322 13.649 177.322 13.6488 177.322C13.6486 177.322 13.6483 177.322 13.6481 177.322C13.6478 177.322 13.6476 177.322 13.6474 177.322C13.6471 177.322 13.6469 177.322 13.6466 177.322C13.6464 177.322 13.6461 177.322 13.6459 177.322C13.6456 177.322 13.6454 177.322 13.6451 177.322C13.6449 177.322 13.6446 177.322 13.6444 177.322C13.6441 177.322 13.6439 177.322 13.6436 177.322C13.6434 177.322 13.6431 177.322 13.6429 177.322C13.6426 177.322 13.6423 177.322 13.6421 177.322C13.6418 177.322 13.6416 177.322 13.6413 177.322C13.641 177.322 13.6408 177.322 13.6405 177.322C13.6402 177.322 13.64 177.322 13.6397 177.322C13.6394 177.322 13.6392 177.322 13.6389 177.322C13.6386 177.322 13.6383 177.322 13.6381 177.322C13.6378 177.322 13.6375 177.322 13.6372 177.322C13.637 177.322 13.6367 177.322 13.6364 177.322C13.6361 177.322 13.6358 177.322 13.6356 177.322C13.6353 177.322 13.635 177.322 13.6347 177.322C13.6344 177.322 13.6341 177.322 13.6339 177.322C13.6336 177.322 13.6333 177.322 13.633 177.322C13.6327 177.322 13.6324 177.322 13.6321 177.322C13.6318 177.322 13.6315 177.322 13.6312 177.322C13.6309 177.322 13.6307 177.322 13.6304 177.322C13.6301 177.322 13.6298 177.322 13.6295 177.322C13.6292 177.322 13.6289 177.322 13.6286 177.322C13.6282 177.322 13.6279 177.322 13.6276 177.322C13.6273 177.322 13.627 177.322 13.6267 177.322C13.6264 177.322 13.6261 177.322 13.6258 177.322C13.6255 177.322 13.6252 177.322 13.6249 177.322C13.6245 177.322 13.6242 177.322 13.6239 177.322C13.6236 177.322 13.6233 177.322 13.623 177.322C13.6226 177.322 13.6223 177.322 13.622 177.322C13.6217 177.322 13.6214 177.322 13.621 177.322C13.6207 177.322 13.6204 177.322 13.6201 177.322C13.6197 177.322 13.6194 177.322 13.6191 177.322C13.6187 177.322 13.6184 177.322 13.6181 177.322C13.6177 177.322 13.6174 177.322 13.6171 177.322C13.6167 177.322 13.6164 177.322 13.6161 177.322C13.6157 177.322 13.6154 177.322 13.6151 177.322C13.6147 177.322 13.6144 177.322 13.614 177.322C13.6137 177.322 13.6134 177.322 13.613 177.322C13.6127 177.322 13.6123 177.322 13.612 177.322C13.6116 177.322 13.6113 177.322 13.6109 177.322C13.6106 177.322 13.6102 177.322 13.6099 177.322C13.6095 177.322 13.6092 177.322 13.6088 177.322C13.6085 177.322 13.6081 177.322 13.6077 177.322C13.6074 177.322 13.607 177.322 13.6067 177.322C13.6063 177.322 13.6059 177.322 13.6056 177.322C13.6052 177.322 13.6048 177.322 13.6045 177.322C13.6041 177.322 13.6038 177.322 13.6034 177.322C13.603 177.322 13.6026 177.322 13.6023 177.322C13.6019 177.322 13.6015 177.322 13.6012 177.322C13.6008 177.322 13.6004 177.322 13.6 177.322C13.5997 177.322 13.5993 177.322 13.5989 177.322C13.5985 177.322 13.5981 177.322 13.5978 177.322C13.5974 177.322 13.597 177.322 13.5966 177.322C13.5962 177.322 13.5958 177.322 13.5955 177.322C13.5951 177.322 13.5947 177.322 13.5943 177.322C13.5939 177.322 13.5935 177.322 13.5931 177.322C13.5927 177.322 13.5923 177.322 13.592 177.322C13.5916 177.322 13.5912 177.322 13.5908 177.322C13.5904 177.322 13.59 177.322 13.5896 177.322C13.5892 177.322 13.5888 177.322 13.5884 177.322C13.588 177.322 13.5876 177.322 13.5872 177.322C13.5868 177.322 13.5864 177.322 13.5859 177.322C13.5855 177.322 13.5851 177.322 13.5847 177.322C13.5843 177.322 13.5839 177.322 13.5835 177.322C13.5831 177.322 13.5827 177.322 13.5823 177.322C13.5818 177.322 13.5814 177.322 13.581 177.322C13.5806 177.322 13.5802 177.322 13.5797 177.322C13.5793 177.322 13.5789 177.322 13.5785 177.322C13.5781 177.322 13.5776 177.322 13.5772 177.322C13.5768 177.322 13.5764 177.322 13.5759 177.322C13.5755 177.322 13.5751 177.322 13.5747 177.322C13.5742 177.322 13.5738 177.322 13.5734 177.322C13.5729 177.322 13.5725 177.322 13.5721 177.322C13.5716 177.322 13.5712 177.322 13.5707 177.322C13.5703 177.322 13.5699 177.322 13.5694 177.322C13.569 177.322 13.5686 177.322 13.5681 177.322C13.5677 177.322 13.5672 177.322 13.5668 177.322C13.5663 177.322 13.5659 177.322 13.5654 177.322C13.565 177.322 13.5645 177.322 13.5641 177.322C13.5636 177.322 13.5632 177.322 13.5627 177.322C13.5623 177.322 13.5618 177.322 13.5614 177.322C13.5609 177.322 13.5605 177.322 13.56 177.322C13.5595 177.322 13.5591 177.322 13.5586 177.322C13.5582 177.322 13.5577 177.322 13.5572 177.322C13.5568 177.322 13.5563 177.322 13.5558 177.322C13.5554 177.322 13.5549 177.322 13.5544 177.322C13.554 177.322 13.5535 177.322 13.553 177.322C13.5526 177.322 13.5521 177.322 13.5516 177.322C13.5512 177.322 13.5507 177.322 13.5502 177.322C13.5497 177.322 13.5492 177.322 13.5488 177.322C13.5483 177.322 13.5478 177.322 13.5473 177.322C13.5469 177.322 13.5464 177.322 13.5459 177.322C13.5454 177.322 13.5449 177.322 13.5444 177.322C13.5439 177.322 13.5435 177.322 13.543 177.322C13.5425 177.322 13.542 177.322 13.5415 177.322C13.541 177.322 13.5405 177.322 13.54 177.322C13.5395 177.322 13.539 177.322 13.5385 177.322C13.538 177.322 13.5375 177.322 13.5371 177.322C13.5366 177.322 13.5361 177.322 13.5356 177.322C13.5351 177.322 13.5345 177.322 13.534 177.322C13.5335 177.322 13.533 177.322 13.5325 177.322C13.532 177.322 13.5315 177.322 13.531 177.322C13.5305 177.322 13.53 177.322 13.5295 177.322C13.529 177.322 13.5285 177.322 13.5279 177.322C13.5274 177.322 13.5269 177.322 13.5264 177.322C13.5259 177.322 13.5254 177.322 13.5248 177.322C13.5243 177.322 13.5238 177.322 13.5233 177.322C13.5228 177.322 13.5222 177.322 13.5217 177.322C13.5212 177.322 13.5207 177.322 13.5201 177.322C13.5196 177.322 13.5191 177.322 13.5186 177.322C13.518 177.322 13.5175 177.322 13.517 177.322C13.5164 177.322 13.5159 177.322 13.5154 177.322C13.5148 177.322 13.5143 177.322 13.5138 177.322C13.5132 177.322 13.5127 177.322 13.5122 177.322C13.5116 177.322 13.5111 177.322 13.5105 177.322C13.51 177.322 13.5095 177.322 13.5089 177.322C13.5084 177.322 13.5078 177.322 13.5073 177.322C13.5067 177.322 13.5062 177.322 13.5056 177.322C13.5051 177.322 13.5045 177.322 13.504 177.322C13.5034 177.322 13.5029 177.322 13.5023 177.322C13.5018 177.322 13.5012 177.322 13.5007 177.322C13.5001 177.322 13.4996 177.322 13.499 177.322C13.4984 177.322 13.4979 177.322 13.4973 177.322C13.4968 177.322 13.4962 177.322 13.4956 177.322C13.4951 177.322 13.4945 177.322 13.4939 177.322C13.4934 177.322 13.4928 177.322 13.4922 177.322C13.4917 177.322 13.4911 177.322 13.4905 177.322C13.49 177.322 13.4894 177.322 13.4888 177.322C13.4882 177.322 13.4877 177.322 13.4871 177.322C13.4865 177.322 13.4859 177.322 13.4854 177.322C13.4848 177.322 13.4842 177.322 13.4836 177.322C13.483 177.322 13.4825 177.322 13.4819 177.322C13.4813 177.322 13.4807 177.322 13.4801 177.322C13.4795 177.322 13.4789 177.322 13.4784 177.322C13.4778 177.322 13.4772 177.322 13.4766 177.322C13.476 177.322 13.4754 177.322 13.4748 177.322C13.4742 177.322 13.4736 177.322 13.473 177.322C13.4724 177.322 13.4718 177.322 13.4712 177.322C13.4706 177.322 13.47 177.322 13.4694 177.322C13.4688 177.322 13.4682 177.322 13.4676 177.322C13.467 177.322 13.4664 177.322 13.4658 177.322C13.4652 177.322 13.4646 177.322 13.464 177.322C13.4634 177.322 13.4628 177.322 13.4622 177.322C13.4616 177.322 13.461 177.322 13.4603 177.322C13.4597 177.322 13.4591 177.322 13.4585 177.322C13.4579 177.322 13.4573 177.322 13.4567 177.322C13.456 177.322 13.4554 177.322 13.4548 177.322C13.4542 177.322 13.4536 177.322 13.4529 177.322C13.4523 177.322 13.4517 177.322 13.4511 177.322C13.4504 177.322 13.4498 177.322 13.4492 177.322C13.4486 177.322 13.4479 177.322 13.4473 177.322C13.4467 177.322 13.446 177.322 13.4454 177.322C13.4448 177.322 13.4441 177.322 13.4435 177.322C13.4429 177.322 13.4422 177.322 13.4416 177.322C13.441 177.322 13.4403 177.322 13.4397 177.322C13.439 177.322 13.4384 177.322 13.4378 177.322C13.4371 177.322 13.4365 177.322 13.4358 177.322C13.4352 177.322 13.4345 177.322 13.4339 177.322C13.4332 177.322 13.4326 177.322 13.4319 177.322C13.4313 177.322 13.4306 177.322 13.43 177.322C13.4293 177.322 13.4287 177.322 13.428 177.322C13.4274 177.322 13.4267 177.322 13.4261 177.322C13.4254 177.322 13.4248 177.322 13.4241 177.322C13.4234 177.322 13.4228 177.322 13.4221 177.322C13.4215 177.322 13.4208 177.322 13.4201 177.322C13.4195 177.322 13.4188 177.322 13.4181 177.322C13.4175 177.322 13.4168 177.322 13.4161 177.322C13.4155 177.322 13.4148 177.322 13.4141 177.322C13.4134 177.322 13.4128 177.322 13.4121 177.322C13.4114 177.322 13.4108 177.322 13.4101 177.322C13.4094 177.322 13.4087 177.322 13.408 177.322C13.4074 177.322 13.4067 177.322 13.406 177.322C13.4053 177.322 13.4046 177.322 13.404 177.322C13.4033 177.322 13.4026 177.322 13.4019 177.322C13.4012 177.322 13.4005 177.322 13.3998 177.322C13.3992 177.322 13.3985 177.322 13.3978 177.322C13.3971 177.322 13.3964 177.322 13.3957 177.322C13.395 177.322 13.3943 177.322 13.3936 177.322C13.3929 177.322 13.3922 177.322 13.3915 177.322C13.3908 177.322 13.3901 177.322 13.3894 177.322C13.3887 177.322 13.388 177.322 13.3873 177.322C13.3866 177.322 13.3859 177.322 13.3852 177.322C13.3845 177.322 13.3838 177.322 13.3831 177.322C13.3824 177.322 13.3817 177.322 13.381 177.322C13.3803 177.322 13.3796 177.322 13.3788 177.322C13.3781 177.322 13.3774 177.322 13.3767 177.322C13.376 177.322 13.3753 177.322 13.3746 177.322C13.3738 177.322 13.3731 177.322 13.3724 177.322C13.3717 177.322 13.371 177.322 13.3702 177.322C13.3695 177.322 13.3688 177.322 13.3681 177.322C13.3673 177.322 13.3666 177.322 13.3659 177.322C13.3652 177.322 13.3644 177.322 13.3637 177.322C13.363 177.322 13.3622 177.322 13.3615 177.322C13.3608 177.322 13.3601 177.322 13.3593 177.322C13.3586 177.322 13.3579 177.322 13.3571 177.322C13.3564 177.322 13.3556 177.322 13.3549 177.322C13.3542 177.322 13.3534 177.322 13.3527 177.322C13.3519 177.322 13.3512 177.322 13.3505 177.322C13.3497 177.322 13.349 177.322 13.3482 177.322C13.3475 177.322 13.3467 177.322 13.346 177.322C13.3452 177.322 13.3445 177.322 13.3437 177.322C13.343 177.322 13.3422 177.322 13.3415 177.322C13.3407 177.322 13.34 177.322 13.3392 177.322C13.3385 177.322 13.3377 177.322 13.337 177.322C13.3362 177.322 13.3354 177.322 13.3347 177.322C13.3339 177.322 13.3332 177.322 13.3324 177.322C13.3316 177.322 13.3309 177.322 13.3301 177.322C13.3293 177.322 13.3286 177.322 13.3278 177.322C13.327 177.322 13.3263 177.322 13.3255 177.322C13.3247 177.322 13.324 177.322 13.3232 177.322C13.3224 177.322 13.3216 177.322 13.3209 177.322C13.3201 177.322 13.3193 177.322 13.3185 177.322C13.3178 177.322 13.317 177.322 13.3162 177.322C13.3154 177.322 13.3147 177.322 13.3139 177.322C13.3131 177.322 13.3123 177.322 13.3115 177.322C13.3107 177.322 13.31 177.322 13.3092 177.322C13.3084 177.322 13.3076 177.322 13.3068 177.322C13.306 177.322 13.3052 177.322 13.3044 177.322C13.3037 177.322 13.3029 177.322 13.3021 177.322C13.3013 177.322 13.3005 177.322 13.2997 177.322C13.2989 177.322 13.2981 177.322 13.2973 177.322C13.2965 177.322 13.2957 177.322 13.2949 177.322C13.2941 177.322 13.2933 177.322 13.2925 177.322C13.2917 177.322 13.2909 177.322 13.2901 177.322C13.2893 177.322 13.2885 177.322 13.2877 177.322C13.2869 177.322 13.2861 177.322 13.2852 177.322C13.2844 177.322 13.2836 177.322 13.2828 177.322C13.282 177.322 13.2812 177.322 13.2804 177.322C13.2796 177.322 13.2787 177.322 13.2779 177.322C13.2771 177.322 13.2763 177.322 13.2755 177.322C13.2747 177.322 13.2738 177.322 13.273 177.322C13.2722 177.322 13.2714 177.322 13.2706 177.322C13.2697 177.322 13.2689 177.322 13.2681 177.322C13.2673 177.322 13.2664 177.322 13.2656 177.322C13.2648 177.322 13.2639 177.322 13.2631 177.322C13.2623 177.322 13.2615 177.322 13.2606 177.322C13.2598 177.322 13.259 177.322 13.2581 177.322C13.2573 177.322 13.2564 177.322 13.2556 177.322C13.2548 177.322 13.2539 177.322 13.2531 177.322C13.2523 177.322 13.2514 177.322 13.2506 177.322C13.2497 177.322 13.2489 177.322 13.248 177.322C13.2472 177.322 13.2464 177.322 13.2455 177.322C13.2447 177.322 13.2438 177.322 13.243 177.322C13.2421 177.322 13.2413 177.322 13.2404 177.322C13.2396 177.322 13.2387 177.322 13.2379 177.322C13.237 177.322 13.2361 177.322 13.2353 177.322C13.2344 177.322 13.2336 177.322 13.2327 177.322C13.2319 177.322 13.231 177.322 13.2301 177.322C13.2293 177.322 13.2284 177.322 13.2276 177.322C13.2267 177.322 13.2258 177.322 13.225 177.322C13.2241 177.322 13.2232 177.322 13.2224 177.322C13.2215 177.322 13.2206 177.322 13.2198 177.322C13.2189 177.322 13.218 177.322 13.2172 177.322C13.2163 177.322 13.2154 177.322 13.2145 177.322C13.2137 177.322 13.2128 177.322 13.2119 177.322C13.211 177.322 13.2102 177.322 13.2093 177.322C13.2084 177.322 13.2075 177.322 13.2066 177.322C13.2058 177.322 13.2049 177.322 13.204 177.322C13.2031 177.322 13.2022 177.322 13.2013 177.322C13.2004 177.322 13.1996 177.322 13.1987 177.322C13.1978 177.322 13.1969 177.322 13.196 177.322C13.1951 177.322 13.1942 177.322 13.1933 177.322C13.1924 177.322 13.1915 177.322 13.1907 177.322C13.1898 177.322 13.1889 177.322 13.188 177.322C13.1871 177.322 13.1862 177.322 13.1853 177.322C13.1844 177.322 13.1835 177.322 13.1826 177.322C13.1817 177.322 13.1808 177.322 13.1799 177.322C13.179 177.322 13.178 177.322 13.1771 177.322C13.1762 177.322 13.1753 177.322 13.1744 177.322C13.1735 177.322 13.1726 177.322 13.1717 177.322C13.1708 177.322 13.1699 177.322 13.169 177.322C13.168 177.322 13.1671 177.322 13.1662 177.322C13.1653 177.322 13.1644 177.322 13.1635 177.322C13.1625 177.322 13.1616 177.322 13.1607 177.322C13.1598 177.322 13.1589 177.322 13.1579 177.322C13.157 177.322 13.1561 177.322 13.1552 177.322C13.1543 177.322 13.1533 177.322 13.1524 177.322C13.1515 177.322 13.1505 177.322 13.1496 177.322C13.1487 177.322 13.1478 177.322 13.1468 177.322C13.1459 177.322 13.145 177.322 13.144 177.322C13.1431 177.322 13.1422 177.322 13.1412 177.322C13.1403 177.322 13.1394 177.322 13.1384 177.322C13.1375 177.322 13.1365 177.322 13.1356 177.322C13.1347 177.322 13.1337 177.322 13.1328 177.322C13.1318 177.322 13.1309 177.322 13.1299 177.322C13.129 177.322 13.128 177.322 13.1271 177.322C13.1262 177.322 13.1252 177.322 13.1243 177.322C13.1233 177.322 13.1224 177.322 13.1214 177.322C13.1205 177.322 13.1195 177.322 13.1185 177.322C13.1176 177.322 13.1166 177.322 13.1157 177.322C13.1147 177.322 13.1138 177.322 13.1128 177.322C13.1119 177.322 13.1109 177.322 13.1099 177.322C13.109 177.322 13.108 177.322 13.107 177.322C13.1061 177.322 13.1051 177.322 13.1042 177.322C13.1032 177.322 13.1022 177.322 13.1013 177.322C13.1003 177.322 13.0993 177.322 13.0984 177.322C13.0974 177.322 13.0964 177.322 13.0954 177.322C13.0945 177.322 13.0935 177.322 13.0925 177.322C13.0915 177.322 13.0906 177.322 13.0896 177.322C13.0886 177.322 13.0876 177.322 13.0867 177.322C13.0857 177.322 13.0847 177.322 13.0837 177.322C13.0827 177.322 13.0818 177.322 13.0808 177.322C13.0798 177.322 13.0788 177.322 13.0778 177.322C13.0768 177.322 13.0759 177.322 13.0749 177.322C13.0739 177.322 13.0729 177.322 13.0719 177.322C13.0709 177.322 13.0699 177.322 13.0689 177.322C13.0679 177.322 13.0669 177.322 13.066 177.322C13.065 177.322 13.064 177.322 13.063 177.322C13.062 177.322 13.061 177.322 13.06 177.322C13.059 177.322 13.058 177.322 13.057 177.322C13.056 177.322 13.055 177.322 13.054 177.322C13.053 177.322 13.052 177.322 13.051 177.322C13.05 177.322 13.0489 177.322 13.0479 177.322C13.0469 177.322 13.0459 177.322 13.0449 177.322C13.0439 177.322 13.0429 177.322 13.0419 177.322C13.0409 177.322 13.0399 177.322 13.0388 177.322C13.0378 177.322 13.0368 177.322 13.0358 177.322C13.0348 177.322 13.0338 177.322 13.0327 177.322C13.0317 177.322 13.0307 177.322 13.0297 177.322C13.0287 177.322 13.0276 177.322 13.0266 177.322C13.0256 177.322 13.0246 177.322 13.0235 177.322C13.0225 177.322 13.0215 177.322 13.0205 177.322C13.0194 177.322 13.0184 177.322 13.0174 177.322C13.0164 177.322 13.0153 177.322 13.0143 177.322C13.0133 177.322 13.0122 177.322 13.0112 177.322C13.0102 177.322 13.0091 177.322 13.0081 177.322C13.0071 177.322 13.006 177.322 13.005 177.322C13.0039 177.322 13.0029 177.322 13.0019 177.322C13.0008 177.322 12.9998 177.322 12.9987 177.322C12.9977 177.322 12.9966 177.322 12.9956 177.322C12.9946 177.322 12.9935 177.322 12.9925 177.322C12.9914 177.322 12.9904 177.322 12.9893 177.322C12.9883 177.322 12.9872 177.322 12.9862 177.322C12.9851 177.322 12.9841 177.322 12.983 177.322C12.982 177.322 12.9809 177.322 12.9798 177.322C12.9788 177.322 12.9777 177.322 12.9767 177.322C12.9756 177.322 12.9746 177.322 12.9735 177.322C12.9724 177.322 12.9714 177.322 12.9703 177.322C12.9693 177.322 12.9682 177.322 12.9671 177.322C12.9661 177.322 12.965 177.322 12.9639 177.322C12.9629 177.322 12.9618 177.322 12.9607 177.322C12.9597 177.322 12.9586 177.322 12.9575 177.322C12.9564 177.322 12.9554 177.322 12.9543 177.322C12.9532 177.322 12.9522 177.322 12.9511 177.322C12.95 177.322 12.9489 177.322 12.9478 177.322C12.9468 177.322 12.9457 177.322 12.9446 177.322C12.9435 177.322 12.9425 177.322 12.9414 177.322C12.9403 177.322 12.9392 177.322 12.9381 177.322C12.937 177.322 12.936 177.322 12.9349 177.322C12.9338 177.322 12.9327 177.322 12.9316 177.322C12.9305 177.322 12.9294 177.322 12.9283 177.322C12.9272 177.322 12.9262 177.322 12.9251 177.322C12.924 177.322 12.9229 177.322 12.9218 177.322C12.9207 177.322 12.9196 177.322 12.9185 177.322C12.9174 177.322 12.9163 177.322 12.9152 177.322C12.9141 177.322 12.913 177.322 12.9119 177.322C12.9108 177.322 12.9097 177.322 12.9086 177.322C12.9075 177.322 12.9064 177.322 12.9053 177.322C12.9042 177.322 12.9031 177.322 12.902 177.322C12.9008 177.322 12.8997 177.322 12.8986 177.322C12.8975 177.322 12.8964 177.322 12.8953 177.322C12.8942 177.322 12.8931 177.322 12.892 177.322C12.8908 177.322 12.8897 177.322 12.8886 177.322C12.8875 177.322 12.8864 177.322 12.8853 177.322C12.8841 177.322 12.883 177.322 12.8819 177.322C12.8808 177.322 12.8797 177.322 12.8785 177.322C12.8774 177.322 12.8763 177.322 12.8752 177.322C12.874 177.322 12.8729 177.322 12.8718 177.322C12.8707 177.322 12.8695 177.322 12.8684 177.322C12.8673 177.322 12.8661 177.322 12.865 177.322C12.8639 177.322 12.8627 177.322 12.8616 177.322C12.8605 177.322 12.8593 177.322 12.8582 177.322C12.8571 177.322 12.8559 177.322 12.8548 177.322C12.8537 177.322 12.8525 177.322 12.8514 177.322C12.8502 177.322 12.8491 177.322 12.848 177.322C12.8468 177.322 12.8457 177.322 12.8445 177.322C12.8434 177.322 12.8422 177.322 12.8411 177.322C12.8399 177.322 12.8388 177.322 12.8376 177.322C12.8365 177.322 12.8353 177.322 12.8342 177.322C12.833 177.322 12.8319 177.322 12.8307 177.322C12.8296 177.322 12.8284 177.322 12.8273 177.322C12.8261 177.322 12.825 177.322 12.8238 177.322C12.8227 177.322 12.8215 177.322 12.8203 177.322C12.8192 177.322 12.818 177.322 12.8169 177.322C12.8157 177.322 12.8145 177.322 12.8134 177.322C12.8122 177.322 12.811 177.322 12.8099 177.322C12.8087 177.322 12.8075 177.322 12.8064 177.322C12.8052 177.322 12.804 177.322 12.8029 177.322C12.8017 177.322 12.8005 177.322 12.7994 177.322C12.7982 177.322 12.797 177.322 12.7958 177.322C12.7947 177.322 12.7935 177.322 12.7923 177.322C12.7911 177.322 12.79 177.322 12.7888 177.322C12.7876 177.322 12.7864 177.322 12.7852 177.322C12.7841 177.322 12.7829 177.322 12.7817 177.322C12.7805 177.322 12.7793 177.322 12.7782 177.322C12.777 177.322 12.7758 177.322 12.7746 177.322C12.7734 177.322 12.7722 177.322 12.771 177.322C12.7698 177.322 12.7687 177.322 12.7675 177.322C12.7663 177.322 12.7651 177.322 12.7639 177.322C12.7627 177.322 12.7615 177.322 12.7603 177.322C12.7591 177.322 12.7579 177.322 12.7567 177.322C12.7555 177.322 12.7543 177.322 12.7531 177.322C12.7519 177.322 12.7507 177.322 12.7495 177.322C12.7483 177.322 12.7471 177.322 12.7459 177.322C12.7447 177.322 12.7435 177.322 12.7423 177.322C12.7411 177.322 12.7399 177.322 12.7387 177.322C12.7375 177.322 12.7363 177.322 12.7351 177.322C12.7339 177.322 12.7326 177.322 12.7314 177.322C12.7302 177.322 12.729 177.322 12.7278 177.322C12.7266 177.322 12.7254 177.322 12.7241 177.322C12.7229 177.322 12.7217 177.322 12.7205 177.322C12.7193 177.322 12.7181 177.322 12.7168 177.322C12.7156 177.322 12.7144 177.322 12.7132 177.322C12.712 177.322 12.7107 177.322 12.7095 177.322C12.7083 177.322 12.7071 177.322 12.7058 177.322C12.7046 177.322 12.7034 177.322 12.7022 177.322C12.7009 177.322 12.6997 177.322 12.6985 177.322C12.6972 177.322 12.696 177.322 12.6948 177.322C12.6935 177.322 12.6923 177.322 12.6911 177.322C12.6898 177.322 12.6886 177.322 12.6874 177.322C12.6861 177.322 12.6849 177.322 12.6837 177.322C12.6824 177.322 12.6812 177.322 12.6799 177.322V181.322C12.6812 181.322 12.6824 181.322 12.6837 181.322C12.6849 181.322 12.6861 181.322 12.6874 181.322C12.6886 181.322 12.6898 181.322 12.6911 181.322C12.6923 181.322 12.6935 181.322 12.6948 181.322C12.696 181.322 12.6972 181.322 12.6985 181.322C12.6997 181.322 12.7009 181.322 12.7022 181.322C12.7034 181.322 12.7046 181.322 12.7058 181.322C12.7071 181.322 12.7083 181.322 12.7095 181.322C12.7107 181.322 12.712 181.322 12.7132 181.322C12.7144 181.322 12.7156 181.322 12.7168 181.322C12.7181 181.322 12.7193 181.322 12.7205 181.322C12.7217 181.322 12.7229 181.322 12.7241 181.322C12.7254 181.322 12.7266 181.322 12.7278 181.322C12.729 181.322 12.7302 181.322 12.7314 181.322C12.7326 181.322 12.7339 181.322 12.7351 181.322C12.7363 181.322 12.7375 181.322 12.7387 181.322C12.7399 181.322 12.7411 181.322 12.7423 181.322C12.7435 181.322 12.7447 181.322 12.7459 181.322C12.7471 181.322 12.7483 181.322 12.7495 181.322C12.7507 181.322 12.7519 181.322 12.7531 181.322C12.7543 181.322 12.7555 181.322 12.7567 181.322C12.7579 181.322 12.7591 181.322 12.7603 181.322C12.7615 181.322 12.7627 181.322 12.7639 181.322C12.7651 181.322 12.7663 181.322 12.7675 181.322C12.7687 181.322 12.7698 181.322 12.771 181.322C12.7722 181.322 12.7734 181.322 12.7746 181.322C12.7758 181.322 12.777 181.322 12.7782 181.322C12.7793 181.322 12.7805 181.322 12.7817 181.322C12.7829 181.322 12.7841 181.322 12.7852 181.322C12.7864 181.322 12.7876 181.322 12.7888 181.322C12.79 181.322 12.7911 181.322 12.7923 181.322C12.7935 181.322 12.7947 181.322 12.7958 181.322C12.797 181.322 12.7982 181.322 12.7994 181.322C12.8005 181.322 12.8017 181.322 12.8029 181.322C12.804 181.322 12.8052 181.322 12.8064 181.322C12.8075 181.322 12.8087 181.322 12.8099 181.322C12.811 181.322 12.8122 181.322 12.8134 181.322C12.8145 181.322 12.8157 181.322 12.8169 181.322C12.818 181.322 12.8192 181.322 12.8203 181.322C12.8215 181.322 12.8227 181.322 12.8238 181.322C12.825 181.322 12.8261 181.322 12.8273 181.322C12.8284 181.322 12.8296 181.322 12.8307 181.322C12.8319 181.322 12.833 181.322 12.8342 181.322C12.8353 181.322 12.8365 181.322 12.8376 181.322C12.8388 181.322 12.8399 181.322 12.8411 181.322C12.8422 181.322 12.8434 181.322 12.8445 181.322C12.8457 181.322 12.8468 181.322 12.848 181.322C12.8491 181.322 12.8502 181.322 12.8514 181.322C12.8525 181.322 12.8537 181.322 12.8548 181.322C12.8559 181.322 12.8571 181.322 12.8582 181.322C12.8593 181.322 12.8605 181.322 12.8616 181.322C12.8627 181.322 12.8639 181.322 12.865 181.322C12.8661 181.322 12.8673 181.322 12.8684 181.322C12.8695 181.322 12.8707 181.322 12.8718 181.322C12.8729 181.322 12.874 181.322 12.8752 181.322C12.8763 181.322 12.8774 181.322 12.8785 181.322C12.8797 181.322 12.8808 181.322 12.8819 181.322C12.883 181.322 12.8841 181.322 12.8853 181.322C12.8864 181.322 12.8875 181.322 12.8886 181.322C12.8897 181.322 12.8908 181.322 12.892 181.322C12.8931 181.322 12.8942 181.322 12.8953 181.322C12.8964 181.322 12.8975 181.322 12.8986 181.322C12.8997 181.322 12.9008 181.322 12.902 181.322C12.9031 181.322 12.9042 181.322 12.9053 181.322C12.9064 181.322 12.9075 181.322 12.9086 181.322C12.9097 181.322 12.9108 181.322 12.9119 181.322C12.913 181.322 12.9141 181.322 12.9152 181.322C12.9163 181.322 12.9174 181.322 12.9185 181.322C12.9196 181.322 12.9207 181.322 12.9218 181.322C12.9229 181.322 12.924 181.322 12.9251 181.322C12.9262 181.322 12.9272 181.322 12.9283 181.322C12.9294 181.322 12.9305 181.322 12.9316 181.322C12.9327 181.322 12.9338 181.322 12.9349 181.322C12.936 181.322 12.937 181.322 12.9381 181.322C12.9392 181.322 12.9403 181.322 12.9414 181.322C12.9425 181.322 12.9435 181.322 12.9446 181.322C12.9457 181.322 12.9468 181.322 12.9478 181.322C12.9489 181.322 12.95 181.322 12.9511 181.322C12.9522 181.322 12.9532 181.322 12.9543 181.322C12.9554 181.322 12.9564 181.322 12.9575 181.322C12.9586 181.322 12.9597 181.322 12.9607 181.322C12.9618 181.322 12.9629 181.322 12.9639 181.322C12.965 181.322 12.9661 181.322 12.9671 181.322C12.9682 181.322 12.9693 181.322 12.9703 181.322C12.9714 181.322 12.9724 181.322 12.9735 181.322C12.9746 181.322 12.9756 181.322 12.9767 181.322C12.9777 181.322 12.9788 181.322 12.9798 181.322C12.9809 181.322 12.982 181.322 12.983 181.322C12.9841 181.322 12.9851 181.322 12.9862 181.322C12.9872 181.322 12.9883 181.322 12.9893 181.322C12.9904 181.322 12.9914 181.322 12.9925 181.322C12.9935 181.322 12.9946 181.322 12.9956 181.322C12.9966 181.322 12.9977 181.322 12.9987 181.322C12.9998 181.322 13.0008 181.322 13.0019 181.322C13.0029 181.322 13.0039 181.322 13.005 181.322C13.006 181.322 13.0071 181.322 13.0081 181.322C13.0091 181.322 13.0102 181.322 13.0112 181.322C13.0122 181.322 13.0133 181.322 13.0143 181.322C13.0153 181.322 13.0164 181.322 13.0174 181.322C13.0184 181.322 13.0194 181.322 13.0205 181.322C13.0215 181.322 13.0225 181.322 13.0235 181.322C13.0246 181.322 13.0256 181.322 13.0266 181.322C13.0276 181.322 13.0287 181.322 13.0297 181.322C13.0307 181.322 13.0317 181.322 13.0327 181.322C13.0338 181.322 13.0348 181.322 13.0358 181.322C13.0368 181.322 13.0378 181.322 13.0388 181.322C13.0399 181.322 13.0409 181.322 13.0419 181.322C13.0429 181.322 13.0439 181.322 13.0449 181.322C13.0459 181.322 13.0469 181.322 13.0479 181.322C13.0489 181.322 13.05 181.322 13.051 181.322C13.052 181.322 13.053 181.322 13.054 181.322C13.055 181.322 13.056 181.322 13.057 181.322C13.058 181.322 13.059 181.322 13.06 181.322C13.061 181.322 13.062 181.322 13.063 181.322C13.064 181.322 13.065 181.322 13.066 181.322C13.0669 181.322 13.0679 181.322 13.0689 181.322C13.0699 181.322 13.0709 181.322 13.0719 181.322C13.0729 181.322 13.0739 181.322 13.0749 181.322C13.0759 181.322 13.0768 181.322 13.0778 181.322C13.0788 181.322 13.0798 181.322 13.0808 181.322C13.0818 181.322 13.0827 181.322 13.0837 181.322C13.0847 181.322 13.0857 181.322 13.0867 181.322C13.0876 181.322 13.0886 181.322 13.0896 181.322C13.0906 181.322 13.0915 181.322 13.0925 181.322C13.0935 181.322 13.0945 181.322 13.0954 181.322C13.0964 181.322 13.0974 181.322 13.0984 181.322C13.0993 181.322 13.1003 181.322 13.1013 181.322C13.1022 181.322 13.1032 181.322 13.1042 181.322C13.1051 181.322 13.1061 181.322 13.107 181.322C13.108 181.322 13.109 181.322 13.1099 181.322C13.1109 181.322 13.1119 181.322 13.1128 181.322C13.1138 181.322 13.1147 181.322 13.1157 181.322C13.1166 181.322 13.1176 181.322 13.1185 181.322C13.1195 181.322 13.1205 181.322 13.1214 181.322C13.1224 181.322 13.1233 181.322 13.1243 181.322C13.1252 181.322 13.1262 181.322 13.1271 181.322C13.128 181.322 13.129 181.322 13.1299 181.322C13.1309 181.322 13.1318 181.322 13.1328 181.322C13.1337 181.322 13.1347 181.322 13.1356 181.322C13.1365 181.322 13.1375 181.322 13.1384 181.322C13.1394 181.322 13.1403 181.322 13.1412 181.322C13.1422 181.322 13.1431 181.322 13.144 181.322C13.145 181.322 13.1459 181.322 13.1468 181.322C13.1478 181.322 13.1487 181.322 13.1496 181.322C13.1505 181.322 13.1515 181.322 13.1524 181.322C13.1533 181.322 13.1543 181.322 13.1552 181.322C13.1561 181.322 13.157 181.322 13.1579 181.322C13.1589 181.322 13.1598 181.322 13.1607 181.322C13.1616 181.322 13.1625 181.322 13.1635 181.322C13.1644 181.322 13.1653 181.322 13.1662 181.322C13.1671 181.322 13.168 181.322 13.169 181.322C13.1699 181.322 13.1708 181.322 13.1717 181.322C13.1726 181.322 13.1735 181.322 13.1744 181.322C13.1753 181.322 13.1762 181.322 13.1771 181.322C13.178 181.322 13.179 181.322 13.1799 181.322C13.1808 181.322 13.1817 181.322 13.1826 181.322C13.1835 181.322 13.1844 181.322 13.1853 181.322C13.1862 181.322 13.1871 181.322 13.188 181.322C13.1889 181.322 13.1898 181.322 13.1907 181.322C13.1915 181.322 13.1924 181.322 13.1933 181.322C13.1942 181.322 13.1951 181.322 13.196 181.322C13.1969 181.322 13.1978 181.322 13.1987 181.322C13.1996 181.322 13.2004 181.322 13.2013 181.322C13.2022 181.322 13.2031 181.322 13.204 181.322C13.2049 181.322 13.2058 181.322 13.2066 181.322C13.2075 181.322 13.2084 181.322 13.2093 181.322C13.2102 181.322 13.211 181.322 13.2119 181.322C13.2128 181.322 13.2137 181.322 13.2145 181.322C13.2154 181.322 13.2163 181.322 13.2172 181.322C13.218 181.322 13.2189 181.322 13.2198 181.322C13.2206 181.322 13.2215 181.322 13.2224 181.322C13.2232 181.322 13.2241 181.322 13.225 181.322C13.2258 181.322 13.2267 181.322 13.2276 181.322C13.2284 181.322 13.2293 181.322 13.2301 181.322C13.231 181.322 13.2319 181.322 13.2327 181.322C13.2336 181.322 13.2344 181.322 13.2353 181.322C13.2361 181.322 13.237 181.322 13.2379 181.322C13.2387 181.322 13.2396 181.322 13.2404 181.322C13.2413 181.322 13.2421 181.322 13.243 181.322C13.2438 181.322 13.2447 181.322 13.2455 181.322C13.2464 181.322 13.2472 181.322 13.248 181.322C13.2489 181.322 13.2497 181.322 13.2506 181.322C13.2514 181.322 13.2523 181.322 13.2531 181.322C13.2539 181.322 13.2548 181.322 13.2556 181.322C13.2564 181.322 13.2573 181.322 13.2581 181.322C13.259 181.322 13.2598 181.322 13.2606 181.322C13.2615 181.322 13.2623 181.322 13.2631 181.322C13.2639 181.322 13.2648 181.322 13.2656 181.322C13.2664 181.322 13.2673 181.322 13.2681 181.322C13.2689 181.322 13.2697 181.322 13.2706 181.322C13.2714 181.322 13.2722 181.322 13.273 181.322C13.2738 181.322 13.2747 181.322 13.2755 181.322C13.2763 181.322 13.2771 181.322 13.2779 181.322C13.2787 181.322 13.2796 181.322 13.2804 181.322C13.2812 181.322 13.282 181.322 13.2828 181.322C13.2836 181.322 13.2844 181.322 13.2852 181.322C13.2861 181.322 13.2869 181.322 13.2877 181.322C13.2885 181.322 13.2893 181.322 13.2901 181.322C13.2909 181.322 13.2917 181.322 13.2925 181.322C13.2933 181.322 13.2941 181.322 13.2949 181.322C13.2957 181.322 13.2965 181.322 13.2973 181.322C13.2981 181.322 13.2989 181.322 13.2997 181.322C13.3005 181.322 13.3013 181.322 13.3021 181.322C13.3029 181.322 13.3037 181.322 13.3044 181.322C13.3052 181.322 13.306 181.322 13.3068 181.322C13.3076 181.322 13.3084 181.322 13.3092 181.322C13.31 181.322 13.3107 181.322 13.3115 181.322C13.3123 181.322 13.3131 181.322 13.3139 181.322C13.3147 181.322 13.3154 181.322 13.3162 181.322C13.317 181.322 13.3178 181.322 13.3185 181.322C13.3193 181.322 13.3201 181.322 13.3209 181.322C13.3216 181.322 13.3224 181.322 13.3232 181.322C13.324 181.322 13.3247 181.322 13.3255 181.322C13.3263 181.322 13.327 181.322 13.3278 181.322C13.3286 181.322 13.3293 181.322 13.3301 181.322C13.3309 181.322 13.3316 181.322 13.3324 181.322C13.3332 181.322 13.3339 181.322 13.3347 181.322C13.3354 181.322 13.3362 181.322 13.337 181.322C13.3377 181.322 13.3385 181.322 13.3392 181.322C13.34 181.322 13.3407 181.322 13.3415 181.322C13.3422 181.322 13.343 181.322 13.3437 181.322C13.3445 181.322 13.3452 181.322 13.346 181.322C13.3467 181.322 13.3475 181.322 13.3482 181.322C13.349 181.322 13.3497 181.322 13.3505 181.322C13.3512 181.322 13.3519 181.322 13.3527 181.322C13.3534 181.322 13.3542 181.322 13.3549 181.322C13.3556 181.322 13.3564 181.322 13.3571 181.322C13.3579 181.322 13.3586 181.322 13.3593 181.322C13.3601 181.322 13.3608 181.322 13.3615 181.322C13.3622 181.322 13.363 181.322 13.3637 181.322C13.3644 181.322 13.3652 181.322 13.3659 181.322C13.3666 181.322 13.3673 181.322 13.3681 181.322C13.3688 181.322 13.3695 181.322 13.3702 181.322C13.371 181.322 13.3717 181.322 13.3724 181.322C13.3731 181.322 13.3738 181.322 13.3746 181.322C13.3753 181.322 13.376 181.322 13.3767 181.322C13.3774 181.322 13.3781 181.322 13.3788 181.322C13.3796 181.322 13.3803 181.322 13.381 181.322C13.3817 181.322 13.3824 181.322 13.3831 181.322C13.3838 181.322 13.3845 181.322 13.3852 181.322C13.3859 181.322 13.3866 181.322 13.3873 181.322C13.388 181.322 13.3887 181.322 13.3894 181.322C13.3901 181.322 13.3908 181.322 13.3915 181.322C13.3922 181.322 13.3929 181.322 13.3936 181.322C13.3943 181.322 13.395 181.322 13.3957 181.322C13.3964 181.322 13.3971 181.322 13.3978 181.322C13.3985 181.322 13.3992 181.322 13.3998 181.322C13.4005 181.322 13.4012 181.322 13.4019 181.322C13.4026 181.322 13.4033 181.322 13.404 181.322C13.4046 181.322 13.4053 181.322 13.406 181.322C13.4067 181.322 13.4074 181.322 13.408 181.322C13.4087 181.322 13.4094 181.322 13.4101 181.322C13.4108 181.322 13.4114 181.322 13.4121 181.322C13.4128 181.322 13.4134 181.322 13.4141 181.322C13.4148 181.322 13.4155 181.322 13.4161 181.322C13.4168 181.322 13.4175 181.322 13.4181 181.322C13.4188 181.322 13.4195 181.322 13.4201 181.322C13.4208 181.322 13.4215 181.322 13.4221 181.322C13.4228 181.322 13.4234 181.322 13.4241 181.322C13.4248 181.322 13.4254 181.322 13.4261 181.322C13.4267 181.322 13.4274 181.322 13.428 181.322C13.4287 181.322 13.4293 181.322 13.43 181.322C13.4306 181.322 13.4313 181.322 13.4319 181.322C13.4326 181.322 13.4332 181.322 13.4339 181.322C13.4345 181.322 13.4352 181.322 13.4358 181.322C13.4365 181.322 13.4371 181.322 13.4378 181.322C13.4384 181.322 13.439 181.322 13.4397 181.322C13.4403 181.322 13.441 181.322 13.4416 181.322C13.4422 181.322 13.4429 181.322 13.4435 181.322C13.4441 181.322 13.4448 181.322 13.4454 181.322C13.446 181.322 13.4467 181.322 13.4473 181.322C13.4479 181.322 13.4486 181.322 13.4492 181.322C13.4498 181.322 13.4504 181.322 13.4511 181.322C13.4517 181.322 13.4523 181.322 13.4529 181.322C13.4536 181.322 13.4542 181.322 13.4548 181.322C13.4554 181.322 13.456 181.322 13.4567 181.322C13.4573 181.322 13.4579 181.322 13.4585 181.322C13.4591 181.322 13.4597 181.322 13.4603 181.322C13.461 181.322 13.4616 181.322 13.4622 181.322C13.4628 181.322 13.4634 181.322 13.464 181.322C13.4646 181.322 13.4652 181.322 13.4658 181.322C13.4664 181.322 13.467 181.322 13.4676 181.322C13.4682 181.322 13.4688 181.322 13.4694 181.322C13.47 181.322 13.4706 181.322 13.4712 181.322C13.4718 181.322 13.4724 181.322 13.473 181.322C13.4736 181.322 13.4742 181.322 13.4748 181.322C13.4754 181.322 13.476 181.322 13.4766 181.322C13.4772 181.322 13.4778 181.322 13.4784 181.322C13.4789 181.322 13.4795 181.322 13.4801 181.322C13.4807 181.322 13.4813 181.322 13.4819 181.322C13.4825 181.322 13.483 181.322 13.4836 181.322C13.4842 181.322 13.4848 181.322 13.4854 181.322C13.4859 181.322 13.4865 181.322 13.4871 181.322C13.4877 181.322 13.4882 181.322 13.4888 181.322C13.4894 181.322 13.49 181.322 13.4905 181.322C13.4911 181.322 13.4917 181.322 13.4922 181.322C13.4928 181.322 13.4934 181.322 13.4939 181.322C13.4945 181.322 13.4951 181.322 13.4956 181.322C13.4962 181.322 13.4968 181.322 13.4973 181.322C13.4979 181.322 13.4984 181.322 13.499 181.322C13.4996 181.322 13.5001 181.322 13.5007 181.322C13.5012 181.322 13.5018 181.322 13.5023 181.322C13.5029 181.322 13.5034 181.322 13.504 181.322C13.5045 181.322 13.5051 181.322 13.5056 181.322C13.5062 181.322 13.5067 181.322 13.5073 181.322C13.5078 181.322 13.5084 181.322 13.5089 181.322C13.5095 181.322 13.51 181.322 13.5105 181.322C13.5111 181.322 13.5116 181.322 13.5122 181.322C13.5127 181.322 13.5132 181.322 13.5138 181.322C13.5143 181.322 13.5148 181.322 13.5154 181.322C13.5159 181.322 13.5164 181.322 13.517 181.322C13.5175 181.322 13.518 181.322 13.5186 181.322C13.5191 181.322 13.5196 181.322 13.5201 181.322C13.5207 181.322 13.5212 181.322 13.5217 181.322C13.5222 181.322 13.5228 181.322 13.5233 181.322C13.5238 181.322 13.5243 181.322 13.5248 181.322C13.5254 181.322 13.5259 181.322 13.5264 181.322C13.5269 181.322 13.5274 181.322 13.5279 181.322C13.5285 181.322 13.529 181.322 13.5295 181.322C13.53 181.322 13.5305 181.322 13.531 181.322C13.5315 181.322 13.532 181.322 13.5325 181.322C13.533 181.322 13.5335 181.322 13.534 181.322C13.5345 181.322 13.5351 181.322 13.5356 181.322C13.5361 181.322 13.5366 181.322 13.5371 181.322C13.5375 181.322 13.538 181.322 13.5385 181.322C13.539 181.322 13.5395 181.322 13.54 181.322C13.5405 181.322 13.541 181.322 13.5415 181.322C13.542 181.322 13.5425 181.322 13.543 181.322C13.5435 181.322 13.5439 181.322 13.5444 181.322C13.5449 181.322 13.5454 181.322 13.5459 181.322C13.5464 181.322 13.5469 181.322 13.5473 181.322C13.5478 181.322 13.5483 181.322 13.5488 181.322C13.5492 181.322 13.5497 181.322 13.5502 181.322C13.5507 181.322 13.5512 181.322 13.5516 181.322C13.5521 181.322 13.5526 181.322 13.553 181.322C13.5535 181.322 13.554 181.322 13.5544 181.322C13.5549 181.322 13.5554 181.322 13.5558 181.322C13.5563 181.322 13.5568 181.322 13.5572 181.322C13.5577 181.322 13.5582 181.322 13.5586 181.322C13.5591 181.322 13.5595 181.322 13.56 181.322C13.5605 181.322 13.5609 181.322 13.5614 181.322C13.5618 181.322 13.5623 181.322 13.5627 181.322C13.5632 181.322 13.5636 181.322 13.5641 181.322C13.5645 181.322 13.565 181.322 13.5654 181.322C13.5659 181.322 13.5663 181.322 13.5668 181.322C13.5672 181.322 13.5677 181.322 13.5681 181.322C13.5686 181.322 13.569 181.322 13.5694 181.322C13.5699 181.322 13.5703 181.322 13.5707 181.322C13.5712 181.322 13.5716 181.322 13.5721 181.322C13.5725 181.322 13.5729 181.322 13.5734 181.322C13.5738 181.322 13.5742 181.322 13.5747 181.322C13.5751 181.322 13.5755 181.322 13.5759 181.322C13.5764 181.322 13.5768 181.322 13.5772 181.322C13.5776 181.322 13.5781 181.322 13.5785 181.322C13.5789 181.322 13.5793 181.322 13.5797 181.322C13.5802 181.322 13.5806 181.322 13.581 181.322C13.5814 181.322 13.5818 181.322 13.5823 181.322C13.5827 181.322 13.5831 181.322 13.5835 181.322C13.5839 181.322 13.5843 181.322 13.5847 181.322C13.5851 181.322 13.5855 181.322 13.5859 181.322C13.5864 181.322 13.5868 181.322 13.5872 181.322C13.5876 181.322 13.588 181.322 13.5884 181.322C13.5888 181.322 13.5892 181.322 13.5896 181.322C13.59 181.322 13.5904 181.322 13.5908 181.322C13.5912 181.322 13.5916 181.322 13.592 181.322C13.5923 181.322 13.5927 181.322 13.5931 181.322C13.5935 181.322 13.5939 181.322 13.5943 181.322C13.5947 181.322 13.5951 181.322 13.5955 181.322C13.5958 181.322 13.5962 181.322 13.5966 181.322C13.597 181.322 13.5974 181.322 13.5978 181.322C13.5981 181.322 13.5985 181.322 13.5989 181.322C13.5993 181.322 13.5997 181.322 13.6 181.322C13.6004 181.322 13.6008 181.322 13.6012 181.322C13.6015 181.322 13.6019 181.322 13.6023 181.322C13.6026 181.322 13.603 181.322 13.6034 181.322C13.6038 181.322 13.6041 181.322 13.6045 181.322C13.6048 181.322 13.6052 181.322 13.6056 181.322C13.6059 181.322 13.6063 181.322 13.6067 181.322C13.607 181.322 13.6074 181.322 13.6077 181.322C13.6081 181.322 13.6085 181.322 13.6088 181.322C13.6092 181.322 13.6095 181.322 13.6099 181.322C13.6102 181.322 13.6106 181.322 13.6109 181.322C13.6113 181.322 13.6116 181.322 13.612 181.322C13.6123 181.322 13.6127 181.322 13.613 181.322C13.6134 181.322 13.6137 181.322 13.614 181.322C13.6144 181.322 13.6147 181.322 13.6151 181.322C13.6154 181.322 13.6157 181.322 13.6161 181.322C13.6164 181.322 13.6167 181.322 13.6171 181.322C13.6174 181.322 13.6177 181.322 13.6181 181.322C13.6184 181.322 13.6187 181.322 13.6191 181.322C13.6194 181.322 13.6197 181.322 13.6201 181.322C13.6204 181.322 13.6207 181.322 13.621 181.322C13.6214 181.322 13.6217 181.322 13.622 181.322C13.6223 181.322 13.6226 181.322 13.623 181.322C13.6233 181.322 13.6236 181.322 13.6239 181.322C13.6242 181.322 13.6245 181.322 13.6249 181.322C13.6252 181.322 13.6255 181.322 13.6258 181.322C13.6261 181.322 13.6264 181.322 13.6267 181.322C13.627 181.322 13.6273 181.322 13.6276 181.322C13.6279 181.322 13.6282 181.322 13.6286 181.322C13.6289 181.322 13.6292 181.322 13.6295 181.322C13.6298 181.322 13.6301 181.322 13.6304 181.322C13.6307 181.322 13.6309 181.322 13.6312 181.322C13.6315 181.322 13.6318 181.322 13.6321 181.322C13.6324 181.322 13.6327 181.322 13.633 181.322C13.6333 181.322 13.6336 181.322 13.6339 181.322C13.6341 181.322 13.6344 181.322 13.6347 181.322C13.635 181.322 13.6353 181.322 13.6356 181.322C13.6358 181.322 13.6361 181.322 13.6364 181.322C13.6367 181.322 13.637 181.322 13.6372 181.322C13.6375 181.322 13.6378 181.322 13.6381 181.322C13.6383 181.322 13.6386 181.322 13.6389 181.322C13.6392 181.322 13.6394 181.322 13.6397 181.322C13.64 181.322 13.6402 181.322 13.6405 181.322C13.6408 181.322 13.641 181.322 13.6413 181.322C13.6416 181.322 13.6418 181.322 13.6421 181.322C13.6423 181.322 13.6426 181.322 13.6429 181.322C13.6431 181.322 13.6434 181.322 13.6436 181.322C13.6439 181.322 13.6441 181.322 13.6444 181.322C13.6446 181.322 13.6449 181.322 13.6451 181.322C13.6454 181.322 13.6456 181.322 13.6459 181.322C13.6461 181.322 13.6464 181.322 13.6466 181.322C13.6469 181.322 13.6471 181.322 13.6474 181.322C13.6476 181.322 13.6478 181.322 13.6481 181.322C13.6483 181.322 13.6486 181.322 13.6488 181.322C13.649 181.322 13.6493 181.322 13.6495 181.322C13.6497 181.322 13.65 181.322 13.6502 181.322C13.6504 181.322 13.6507 181.322 13.6509 181.322C13.6511 181.322 13.6513 181.322 13.6516 181.322C13.6518 181.322 13.652 181.322 13.6522 181.322C13.6525 181.322 13.6527 181.322 13.6529 181.322C13.6531 181.322 13.6534 181.322 13.6536 181.322C13.6538 181.322 13.654 181.322 13.6542 181.322C13.6544 181.322 13.6547 181.322 13.6549 181.322C13.6551 181.322 13.6553 181.322 13.6555 181.322C13.6557 181.322 13.6559 181.322 13.6561 181.322C13.6563 181.322 13.6565 181.322 13.6567 181.322C13.6569 181.322 13.6572 181.322 13.6574 181.322C13.6576 181.322 13.6578 181.322 13.658 181.322C13.6582 181.322 13.6584 181.322 13.6586 181.322C13.6587 181.322 13.6589 181.322 13.6591 181.322C13.6593 181.322 13.6595 181.322 13.6597 181.322C13.6599 181.322 13.6601 181.322 13.6603 181.322C13.6605 181.322 13.6607 181.322 13.6608 181.322C13.661 181.322 13.6612 181.322 13.6614 181.322C13.6616 181.322 13.6618 181.322 13.6619 181.322C13.6621 181.322 13.6623 181.322 13.6625 181.322C13.6627 181.322 13.6628 181.322 13.663 181.322C13.6632 181.322 13.6634 181.322 13.6635 181.322C13.6637 181.322 13.6639 181.322 13.6641 181.322C13.6642 181.322 13.6644 181.322 13.6646 181.322C13.6647 181.322 13.6649 181.322 13.6651 181.322C13.6652 181.322 13.6654 181.322 13.6655 181.322C13.6657 181.322 13.6659 181.322 13.666 181.322C13.6662 181.322 13.6663 181.322 13.6665 181.322C13.6667 181.322 13.6668 181.322 13.667 181.322C13.6671 181.322 13.6673 181.322 13.6674 181.322C13.6676 181.322 13.6677 181.322 13.6679 181.322C13.668 181.322 13.6682 181.322 13.6683 181.322C13.6685 181.322 13.6686 181.322 13.6687 181.322C13.6689 181.322 13.669 181.322 13.6692 181.322C13.6693 181.322 13.6694 181.322 13.6696 181.322C13.6697 181.322 13.6699 181.322 13.67 181.322C13.6701 181.322 13.6703 181.322 13.6704 181.322C13.6705 181.322 13.6707 181.322 13.6708 181.322C13.6709 181.322 13.671 181.322 13.6712 181.322C13.6713 181.322 13.6714 181.322 13.6715 181.322C13.6717 181.322 13.6718 181.322 13.6719 181.322C13.672 181.322 13.6721 181.322 13.6723 181.322C13.6724 181.322 13.6725 181.322 13.6726 181.322C13.6727 181.322 13.6728 181.322 13.673 181.322C13.6731 181.322 13.6732 181.322 13.6733 181.322C13.6734 181.322 13.6735 181.322 13.6736 181.322C13.6737 181.322 13.6738 181.322 13.6739 181.322C13.674 181.322 13.6741 181.322 13.6743 181.322C13.6744 181.322 13.6745 181.322 13.6746 181.322C13.6747 181.322 13.6748 181.322 13.6748 181.322C13.6749 181.322 13.675 181.322 13.6751 181.322C13.6752 181.322 13.6753 181.322 13.6754 181.322C13.6755 181.322 13.6756 181.322 13.6757 181.322C13.6758 181.322 13.6759 181.322 13.6759 181.322C13.676 181.322 13.6761 181.322 13.6762 181.322C13.6763 181.322 13.6764 181.322 13.6764 181.322C13.6765 181.322 13.6766 181.322 13.6767 181.322C13.6768 181.322 13.6768 181.322 13.6769 181.322C13.677 181.322 13.677 181.322 13.6771 181.322C13.6772 181.322 13.6773 181.322 13.6773 181.322C13.6774 181.322 13.6775 181.322 13.6775 181.322C13.6776 181.322 13.6777 181.322 13.6777 181.322C13.6778 181.322 13.6779 181.322 13.6779 181.322C13.678 181.322 13.678 181.322 13.6781 181.322C13.6782 181.322 13.6782 181.322 13.6783 181.322C13.6783 181.322 13.6784 181.322 13.6784 181.322C13.6785 181.322 13.6785 181.322 13.6786 181.322C13.6786 181.322 13.6787 181.322 13.6787 181.322C13.6788 181.322 13.6788 181.322 13.6789 181.322C13.6789 181.322 13.679 181.322 13.679 181.322C13.679 181.322 13.6791 181.322 13.6791 181.322C13.6792 181.322 13.6792 181.322 13.6792 181.322C13.6793 181.322 13.6793 181.322 13.6793 181.322C13.6794 181.322 13.6794 181.322 13.6794 181.322C13.6795 181.322 13.6795 181.322 13.6795 181.322C13.6795 181.322 13.6796 181.322 13.6796 181.322C13.6796 181.322 13.6796 181.322 13.6797 181.322C13.6797 181.322 13.6797 181.322 13.6797 181.322C13.6797 181.322 13.6798 181.322 13.6798 181.322C13.6798 181.322 13.6798 181.322 13.6798 181.322C13.6798 181.322 13.6799 181.322 13.6799 181.322C13.6799 181.322 13.6799 181.322 13.6799 181.322C13.6799 181.322 13.6799 181.322 13.6799 181.322C13.6799 181.322 13.6799 181.322 13.6799 181.322C13.6799 181.322 13.6799 181.322 13.6799 179.322ZM12.6799 177.322C11.8572 177.322 10.8413 177.177 10.071 176.877C9.20621 176.541 9.2643 176.281 9.28319 176.414L5.32296 176.977C5.61931 179.063 7.36582 180.117 8.62014 180.605C9.96887 181.13 11.5026 181.322 12.6799 181.322V177.322ZM9.28876 176.457L9.20121 175.729L5.22983 176.207L5.31738 176.935L9.28876 176.457ZM5.23005 176.208L5.23211 176.225L9.20306 175.744L9.201 175.727L5.23005 176.208ZM9.1896 176.318L9.62664 173.733L5.68261 173.066L5.24557 175.651L9.1896 176.318ZM9.61015 172.98C9.60199 172.942 9.58854 172.817 9.63365 172.472C9.65953 172.274 9.77545 171.598 9.81112 171.163L5.82454 170.836C5.79493 171.197 5.74765 171.34 5.66744 171.953C5.60646 172.419 5.54404 173.096 5.69909 173.819L9.61015 172.98ZM9.80878 171.19C9.95873 169.619 10.084 168.124 10.2887 166.639L6.32621 166.093C6.1066 167.686 5.97072 169.303 5.82688 170.81L9.80878 171.19ZM10.2899 166.63C10.4051 165.766 10.5678 164.921 10.7363 163.963C10.8995 163.034 11.0619 162.031 11.1349 160.995L7.1448 160.714C7.0872 161.532 6.95584 162.365 6.79674 163.27C6.64283 164.145 6.45468 165.129 6.325 166.102L10.2899 166.63ZM11.1352 160.991C11.3051 158.509 11.27 156.029 11.221 153.647L7.22185 153.729C7.27088 156.114 7.30095 158.433 7.14452 160.718L11.1352 160.991ZM11.2211 153.65C11.1865 151.843 10.9599 150.026 10.8042 148.414L6.8227 148.799C6.99336 150.565 7.19115 152.124 7.2218 153.726L11.2211 153.65ZM10.8043 148.415C10.5609 145.883 10.3302 143.326 10.0509 140.761L6.0744 141.194C6.35004 143.726 6.57631 146.235 6.8226 148.798L10.8043 148.415ZM10.0503 140.756C9.83567 138.83 9.57012 136.893 9.32819 135.013L5.36088 135.523C5.60857 137.448 5.86529 139.318 6.07495 141.199L10.0503 140.756ZM9.32747 135.007C9.09157 133.213 8.84 131.564 8.64645 129.847L4.67161 130.295C4.86979 132.053 5.1405 133.847 5.3616 135.528L9.32747 135.007ZM8.64656 129.848C8.40183 127.667 8.08664 125.828 8.07142 123.915L4.07155 123.947C4.08897 126.137 4.45926 128.403 4.67151 130.294L8.64656 129.848ZM8.07146 123.92C8.05542 120.813 8.16767 117.688 8.3927 114.575L4.40311 114.287C4.17113 117.496 4.05491 120.724 4.07151 123.941L8.07146 123.92ZM8.39332 114.566C8.47854 113.309 8.63442 112.042 8.8056 110.724C8.97452 109.423 9.16038 108.057 9.28707 106.687L5.30406 106.319C5.18593 107.596 5.01273 108.87 4.8389 110.209C4.66734 111.53 4.49679 112.904 4.40248 114.296L8.39332 114.566ZM9.28657 106.692C9.63185 103.063 10.2261 98.9856 9.79003 94.9349L5.81301 95.3631C6.19298 98.8925 5.67741 102.394 5.30455 106.313L9.28657 106.692ZM9.79037 94.9381C9.6929 94.0189 9.4869 93.1457 9.29444 92.3797C9.09207 91.5743 8.91319 90.9159 8.78985 90.239L4.85465 90.9561C5.00877 91.8019 5.23791 92.6496 5.41502 93.3544C5.60202 94.0987 5.74693 94.7399 5.81267 95.3599L9.79037 94.9381ZM8.78742 90.2259C8.56787 89.065 8.40943 87.9586 8.38086 86.8866L4.38228 86.9932C4.41899 88.3708 4.61964 89.7137 4.85709 90.9692L8.78742 90.2259ZM8.38101 86.8926C8.28316 82.7578 8.20214 78.6433 8.21835 74.5515L4.21838 74.5357C4.20194 78.686 4.28415 82.8468 4.38213 86.9872L8.38101 86.8926ZM8.21836 74.5436C8.21836 69.0442 8.44658 63.2524 8.29929 57.6262L4.30066 57.7309C4.44714 63.326 4.21836 68.7886 4.21836 74.5436H8.21836ZM8.29913 57.6206C8.18175 53.5736 7.69611 49.5455 7.20737 45.6303L3.23818 46.1258C3.72871 50.0554 4.1897 53.9056 4.30081 57.7366L8.29913 57.6206ZM7.20729 45.6297C6.66832 41.3235 5.88057 36.8917 5.27643 32.6999L1.31734 33.2705C1.95359 37.6851 2.70003 41.8262 3.23826 46.1265L7.20729 45.6297ZM5.27637 32.6995C5.19224 32.1165 5.1555 31.515 5.11142 30.8084C5.06919 30.1314 5.02 29.3554 4.89748 28.5717L0.945488 29.1896C1.03515 29.7631 1.07572 30.3608 1.11918 31.0574C1.16079 31.7245 1.20567 32.4967 1.31739 33.2709L5.27637 32.6995ZM4.89953 28.5852C4.80009 27.9195 4.51258 27.3825 4.29079 27.0279C4.07693 26.6859 3.8039 26.3352 3.68089 26.1689L0.464694 28.5471C0.512449 28.6117 0.561671 28.6772 0.603987 28.7336C0.648247 28.7927 0.687595 28.8453 0.725265 28.8968C0.801365 29.0006 0.856878 29.0808 0.89934 29.1487C0.995806 29.303 0.961277 29.2956 0.943434 29.1762L4.89953 28.5852ZM3.66958 26.1537C3.00157 25.268 2.21758 24.3742 1.54516 23.5559L-1.54516 26.0956C-0.748676 27.0648 -0.129048 27.76 0.476003 28.5622L3.66958 26.1537ZM1.22227 26.4088C11.9617 18.1169 22.6041 9.89053 33.3591 1.58277L30.9138 -1.58277C20.1573 6.7262 9.51692 14.951 -1.22227 23.2427L1.22227 26.4088ZM30.1474 0.20953C30.3776 2.39422 30.6039 4.44143 30.816 6.50972L34.7951 6.10177C34.5829 4.03242 34.3521 1.94202 34.1254 -0.20953L30.1474 0.20953ZM30.8165 6.51537C31.044 8.67363 31.2552 10.8318 31.4501 12.99L35.4339 12.6302C35.2372 10.4521 35.0241 8.2741 34.7945 6.09613L30.8165 6.51537ZM31.45 12.9888C31.5428 14.0224 31.5897 15.064 31.6056 16.1171L35.6051 16.0571C35.5881 14.9255 35.5373 13.7826 35.434 12.6314L31.45 12.9888ZM31.6056 16.1192C31.6717 20.2281 31.8169 24.1882 31.7362 28.1949L35.7354 28.2754C35.818 24.1723 35.6694 20.0558 35.6051 16.0549L31.6056 16.1192ZM31.7363 28.1942C31.6902 30.4401 31.2954 32.6134 30.984 35.1221L34.9535 35.6149C35.2297 33.3901 35.6837 30.7969 35.7354 28.2762L31.7363 28.1942ZM30.984 35.1222C30.6767 37.598 30.3207 40.0607 29.9611 42.5465L33.9199 43.1191C34.2786 40.6397 34.6405 38.1372 34.9535 35.6148L30.984 35.1222ZM29.9601 42.5538C29.5591 45.4001 29.0931 48.3606 28.7165 51.2827L32.6837 51.794C33.0579 48.8903 33.5059 46.0581 33.921 43.1118L29.9601 42.5538ZM28.7181 51.2706C28.3881 53.7139 28.1234 56.1791 27.848 58.594L31.8223 59.0471C32.1017 56.5963 32.3594 54.1955 32.6821 51.8061L28.7181 51.2706ZM27.8488 58.5873C27.5214 61.3755 27.2104 64.1638 26.9159 66.9519L30.8938 67.3721C31.1866 64.5994 31.4959 61.8266 31.8215 59.0538L27.8488 58.5873ZM26.9153 66.9581C26.6525 69.5216 26.4229 72.0831 26.1946 74.6298L30.1786 74.987C30.4073 72.4361 30.6347 69.8999 30.8944 67.3659L26.9153 66.9581ZM26.1942 74.635C25.9494 77.4476 25.7036 80.289 25.4904 83.1326L29.4792 83.4317C29.6904 80.6152 29.9342 77.7963 30.1791 74.9817L26.1942 74.635ZM25.4907 83.1288C25.3107 85.4696 25.1454 87.8306 25.046 90.1993L29.0425 90.3669C29.1389 88.0684 29.3 85.7622 29.4789 83.4356L25.4907 83.1288ZM25.046 90.1984C24.9326 92.8746 24.7987 95.6357 24.8322 98.4005L28.8319 98.352C28.8 95.7215 28.9272 93.0872 29.0424 90.3677L25.046 90.1984ZM24.8321 98.3964C24.8488 100.057 24.9198 101.711 24.991 103.33C25.0627 104.959 25.1347 106.55 25.1587 108.138L29.1582 108.078C29.1332 106.421 29.0582 104.768 28.9871 103.154C28.9156 101.529 28.8478 99.9392 28.8319 98.3562L24.8321 98.3964ZM25.1586 108.136C25.1906 110.407 25.1424 112.661 24.9686 114.887L28.9565 115.198C29.1419 112.823 29.1915 110.443 29.1582 108.08L25.1586 108.136ZM24.9686 114.888C24.7789 117.325 24.4298 119.761 24.0544 122.26L28.01 122.854C28.3855 120.354 28.7546 117.792 28.9565 115.198L24.9686 114.888ZM24.054 122.263C23.7002 124.644 23.2664 127.006 22.8388 129.425L26.7777 130.121C27.1987 127.74 27.6463 125.302 28.0105 122.851L24.054 122.263ZM22.8405 129.415C22.0728 133.639 21.3079 137.863 20.4946 142.053L24.4213 142.815C25.2401 138.597 26.0095 134.347 26.776 130.13L22.8405 129.415ZM20.4939 142.056C19.8465 145.423 19.1493 148.542 18.4719 151.977L22.3963 152.751C23.0245 149.566 23.7963 146.065 24.4219 142.811L20.4939 142.056ZM18.4711 151.981C17.9746 154.528 16.9949 157.742 17.0307 160.96L21.0304 160.916C21.0007 158.241 21.7839 155.893 22.3972 152.746L18.4711 151.981ZM17.0309 160.974C17.0369 161.304 16.988 161.571 16.9378 162.265C16.9003 162.784 16.8563 163.643 17.1378 164.468L20.9233 163.176C20.9273 163.187 20.8914 163.051 20.9274 162.554C20.9454 162.305 20.9652 162.129 20.9913 161.818C21.0136 161.554 21.0362 161.23 21.0302 160.901L17.0309 160.974ZM17.0571 163.497C16.99 163.905 16.9399 164.213 16.911 164.443C16.8801 164.689 16.8578 164.958 16.8878 165.267C16.9011 165.404 16.922 165.519 16.9346 165.588C16.9502 165.671 16.9554 165.696 16.9667 165.761C16.9838 165.86 17.0102 166.032 17.0378 166.355L21.0233 166.015C20.9868 165.587 20.9465 165.3 20.9082 165.079C20.8918 164.984 20.8722 164.883 20.8675 164.858C20.8599 164.817 20.8651 164.839 20.8691 164.88C20.8804 164.997 20.8647 165.061 20.8799 164.941C20.8971 164.804 20.9323 164.582 21.004 164.146L17.0571 163.497ZM18.3457 168.064C19.0615 168.325 19.9079 168.35 20.5277 168.339C21.2196 168.326 21.9597 168.257 22.6148 168.176C23.2766 168.094 23.8876 167.996 24.3311 167.92C24.5538 167.881 24.7365 167.847 24.865 167.823C24.9293 167.811 24.9802 167.801 25.0158 167.794C25.0336 167.791 25.0476 167.788 25.0577 167.786C25.0627 167.785 25.0667 167.784 25.0697 167.783C25.0711 167.783 25.0724 167.783 25.0733 167.783C25.0738 167.783 25.0743 167.783 25.0746 167.782C25.0748 167.782 25.075 167.782 25.0751 167.782C25.0753 167.782 25.0755 167.782 24.6799 165.822C24.2844 163.861 24.2845 163.861 24.2847 163.861C24.2847 163.861 24.2848 163.861 24.2849 163.861C24.285 163.861 24.285 163.861 24.285 163.861C24.2849 163.861 24.2846 163.861 24.284 163.861C24.2828 163.862 24.2807 163.862 24.2776 163.863C24.2713 163.864 24.2612 163.866 24.2473 163.869C24.2196 163.874 24.1772 163.882 24.1219 163.893C24.0111 163.914 23.8489 163.944 23.6492 163.978C23.2478 164.048 22.7037 164.134 22.1245 164.206C21.5389 164.278 20.9523 164.33 20.4564 164.339C19.8883 164.349 19.6855 164.295 19.7154 164.306L18.3457 168.064ZM25.3124 167.719L28.3124 166.719L27.0475 162.924L24.0475 163.924L25.3124 167.719ZM27.6799 166.822H28.986V162.822H27.6799V166.822ZM28.2135 166.667L29.4074 167.167L30.9525 163.477L29.7586 162.977L28.2135 166.667ZM28.4649 166.351L29.9649 168.851L33.3949 166.793L31.8949 164.293L28.4649 166.351ZM29.8911 168.716L30.3911 169.716L33.9688 167.927L33.4688 166.927L29.8911 168.716ZM30.2826 169.454C30.1944 169.19 30.2964 169.073 30.2191 169.259C30.1475 169.432 29.9956 169.68 29.7546 169.985C29.5232 170.278 29.266 170.552 29.0371 170.788C28.9456 170.882 28.8002 171.029 28.7237 171.109C28.6798 171.155 28.6176 171.22 28.5577 171.29C28.528 171.324 28.4806 171.381 28.4296 171.451C28.3975 171.495 28.2765 171.66 28.1801 171.895L31.881 173.413C31.7897 173.635 31.6787 173.784 31.6609 173.808C31.6244 173.858 31.5961 173.891 31.5895 173.899C31.576 173.915 31.5768 173.913 31.61 173.878C31.6875 173.797 31.7523 173.733 31.9051 173.576C32.165 173.309 32.5338 172.919 32.8921 172.466C33.2407 172.025 33.6421 171.447 33.9139 170.791C34.18 170.15 34.4155 169.204 34.0773 168.189L30.2826 169.454ZM29.1392 170.863L25.7886 172.531L27.5712 176.112L30.9218 174.444L29.1392 170.863Z" fill="#768BE4" mask="url(#path-1-inside-1_3025_14)"/>
</svg>
