<svg width="35" height="179" viewBox="0 0 35 179" fill="none" xmlns="http://www.w3.org/2000/svg">
<path d="M7.28979 173.322L11.9231 174.968L16.0416 176.822C15.6598 176.65 17.9328 177.689 18.1008 177.822C18.4705 178.087 19.2083 178.289 19.6452 178.322C19.8637 178.338 20.6749 178.322 20.6749 178.322C20.6749 178.322 21.0504 178.322 21.7045 178.322C23.7637 178.322 26.9549 177.649 27.2406 175.696L27.3308 174.968L27.3286 174.985L26.8786 172.4C27.0467 171.639 26.7778 170.794 26.7106 170C26.5594 168.461 26.4249 166.905 26.2065 165.366C25.9544 163.529 25.4839 161.708 25.3494 159.855C25.1814 157.471 25.215 155.071 25.2654 152.688C25.299 150.983 25.5175 149.295 25.6855 147.607C25.9376 145.058 26.1729 142.526 26.4585 139.977C26.677 138.074 26.9459 136.171 27.1979 134.267C27.4332 132.53 27.7021 130.808 27.9037 129.071C28.139 127.035 28.4919 124.983 28.5087 122.93C28.5255 119.769 28.4079 116.591 28.1726 113.43C27.9877 110.782 27.5004 108.151 27.2483 105.503C26.8786 101.729 26.3073 97.939 26.7274 94.149C26.8954 92.6098 27.45 91.1202 27.7357 89.5976C27.9709 88.3894 28.1558 87.1646 28.1894 85.9399C28.2902 81.8023 28.3743 77.6646 28.3575 73.5436C28.3575 67.9164 28.1222 62.2892 28.2734 56.6786C28.3911 52.7395 28.8784 48.8005 29.3825 44.878C29.9371 40.5749 30.7269 36.2883 31.3655 31.9852C31.5671 30.6281 31.5335 29.2378 31.752 27.8807C31.836 27.3345 32.2729 26.8214 32.6258 26.358C33.2812 25.5139 34.0038 24.7195 34.76 23.8258C23.7026 15.534 13 8 2 0C1.76474 2.16812 1.20118 3.23693 0.982719 5.30575C0.747455 7.47386 0.529002 9.64199 0.327347 11.8101C0.226519 12.9024 0.176106 13.9948 0.159302 15.0871C0.0920833 19.142 -0.0591665 23.1803 0.0248566 27.2352C0.0752704 29.6185 0.512195 32.0017 0.814678 34.3685C1.13397 36.8676 1.50366 39.3502 1.87336 41.8328C2.29348 44.7291 2.76401 47.6254 3.15052 50.5383C3.48661 52.9547 3.75549 55.3876 4.04116 57.8206C4.37726 60.6011 4.69655 63.3815 4.99903 66.162C5.2679 68.7108 5.50316 71.2596 5.73843 73.8084C5.9905 76.622 6.24257 79.4521 6.46103 82.2822C6.64588 84.6159 6.81392 86.9495 6.91475 89.2831C7.03238 91.9808 7.16683 94.6786 7.13322 97.3763C7.09961 100.62 6.84754 103.864 6.79712 107.108C6.76352 109.425 6.81392 111.742 6.99877 114.043C7.20043 116.558 7.57013 119.057 7.95664 121.557C8.32634 123.973 8.78006 126.373 9.21698 128.773C10.0068 132.993 10.7966 137.23 11.6369 141.434C12.2922 144.744 13.0484 148.054 13.7206 151.364C14.292 154.211 15.1994 156.991 15.1658 159.937C15.149 160.831 15.4515 162.009 15.1658 162.822C15.4515 164.509 15.2976 163.685 15.1658 165.185C13.7532 165.685 9.34903 164.822 9.34903 164.822L6.26017 163.822H4.91539L3.68612 164.322L2 166L1.5 167.5C0.985189 169 3.75597 171.455 3.83999 171.654L7.28979 173.322Z" fill="#EAC0AC"/>
</svg>
