<svg width="68" height="79" viewBox="0 0 68 79" fill="none" xmlns="http://www.w3.org/2000/svg">
<path d="M60.0364 78.9387C43.144 78.9387 26.2842 78.9387 9.32653 78.9387C9.47342 78.5249 9.55502 78.1773 9.70191 77.8463C11.0076 75.0824 11.2198 72.153 10.9913 69.1573C10.7465 66.2279 10.5506 63.2984 10.1589 60.4021C9.70192 57.0423 9.04907 53.7157 8.46151 50.3725C8.13509 48.5188 8.03716 46.5493 7.35167 44.828C6.07862 41.6338 5.99701 38.2575 5.2952 34.9805C4.57707 31.6207 4.08743 28.2113 3.49987 24.8185C2.58588 19.5554 1.70454 14.3089 0.774238 9.04581C0.692632 8.58239 0.806878 8.36723 1.14962 8.10243C2.89599 6.79494 4.87085 6.16602 7.02524 6.03361C9.08171 5.90121 11.1708 5.98396 13.1783 5.6364C16.0345 5.13988 18.6949 3.9648 21.0941 2.26009C21.7633 1.78013 22.2529 1.03536 22.8568 0.439537C23.069 0.24093 23.3954 0.0423201 23.6565 0.0423201C30.9521 0.0257696 38.2313 0.0257696 45.5269 0.0423201C45.788 0.0423201 46.1471 0.207828 46.3103 0.422985C47.7139 2.40905 49.803 3.38553 51.8921 4.34546C55.1237 5.81845 58.5349 6.13291 62.0276 6.03361C63.7576 5.98396 65.3898 6.53013 66.9239 7.35765C67.3646 7.58936 67.4462 7.90382 67.3646 8.36724C66.2221 16.2122 65.096 24.0571 63.9698 31.9021C63.4149 35.7087 62.9089 39.5319 62.305 43.3385C62.0929 44.6294 61.5706 45.8542 61.3421 47.1286C60.5424 51.5806 59.7263 56.0162 59.0898 60.4848C58.6165 63.7949 58.3064 67.1547 58.1431 70.4979C58.0126 73.1956 58.388 75.8603 59.7426 78.2932C59.8732 78.4918 59.9548 78.7235 60.0364 78.9387Z" fill="#EAC0AC"/>
</svg>
