<svg width="65" height="50" viewBox="0 0 65 50" fill="none" xmlns="http://www.w3.org/2000/svg">
<path d="M32.8039 49.3255C30.5352 47.687 28.2339 46.0485 25.949 44.3769C17.5925 38.3359 9.23608 32.2784 0.846995 26.254C0.373681 25.923 0.292076 25.5755 0.373682 25.0789C1.12446 20.9413 1.79362 16.7706 2.65865 12.6495C3.52367 8.56151 5.07418 4.70524 7.04904 1.04757C7.17961 0.799316 7.6366 0.617254 7.94671 0.617254C15.7482 0.600704 23.5661 0.617254 31.3676 0.617254C37.3575 0.617254 43.331 0.600708 49.3209 0.600708C52.0628 0.600708 54.8211 0.617263 57.5631 0.666914C57.8242 0.666914 58.1996 0.915172 58.3302 1.16343C60.9089 5.94653 62.5084 11.0606 63.4877 16.4065C63.9447 18.9387 64.3527 21.4709 64.8423 23.9866C64.9403 24.4997 64.7444 24.6817 64.4343 24.9134C60.6315 27.8429 56.8286 30.7889 53.0258 33.7349C46.4157 38.849 39.7893 43.9466 33.1792 49.0607C33.0813 49.1269 32.9834 49.1931 32.8039 49.3255Z" fill="#EAC0AC"/>
</svg>
