<svg width="68" height="79" viewBox="0 0 68 79" fill="none" xmlns="http://www.w3.org/2000/svg">
<mask id="path-1-inside-1_3025_26" fill="white">
<path d="M60.0364 78.9387C43.144 78.9387 26.2842 78.9387 9.32653 78.9387C9.47342 78.5249 9.55502 78.1773 9.70191 77.8463C11.0076 75.0824 11.2198 72.153 10.9913 69.1573C10.7465 66.2279 10.5506 63.2984 10.1589 60.4021C9.70192 57.0423 9.04907 53.7157 8.46151 50.3725C8.13509 48.5188 8.03716 46.5493 7.35167 44.828C6.07862 41.6338 5.99701 38.2575 5.2952 34.9805C4.57707 31.6207 4.08743 28.2113 3.49987 24.8185C2.58588 19.5554 1.70454 14.3089 0.774238 9.04581C0.692632 8.58239 0.806878 8.36723 1.14962 8.10243C2.89599 6.79494 4.87085 6.16602 7.02524 6.03361C9.08171 5.90121 11.1708 5.98396 13.1783 5.6364C16.0345 5.13988 18.6949 3.9648 21.0941 2.26009C21.7633 1.78013 22.2529 1.03536 22.8568 0.439537C23.069 0.24093 23.3954 0.0423201 23.6565 0.0423201C30.9521 0.0257696 38.2313 0.0257696 45.5269 0.0423201C45.788 0.0423201 46.1471 0.207828 46.3103 0.422985C47.7139 2.40905 49.803 3.38553 51.8921 4.34546C55.1237 5.81845 58.5349 6.13291 62.0276 6.03361C63.7576 5.98396 65.3898 6.53013 66.9239 7.35765C67.3646 7.58936 67.4462 7.90382 67.3646 8.36724C66.2221 16.2122 65.096 24.0571 63.9698 31.9021C63.4149 35.7087 62.9089 39.5319 62.305 43.3385C62.0929 44.6294 61.5706 45.8542 61.3421 47.1286C60.5424 51.5806 59.7263 56.0162 59.0898 60.4848C58.6165 63.7949 58.3064 67.1547 58.1431 70.4979C58.0126 73.1956 58.388 75.8603 59.7426 78.2932C59.8732 78.4918 59.9548 78.7235 60.0364 78.9387Z"/>
</mask>
<path d="M60.0364 78.9387V80.9387H62.9337L61.9065 78.2296L60.0364 78.9387ZM9.32653 78.9387L7.44176 78.2696L6.4943 80.9387H9.32653V78.9387ZM9.70191 77.8463L7.89354 76.992L7.88343 77.0134L7.87383 77.035L9.70191 77.8463ZM10.9913 69.1573L12.9855 69.0052L12.985 68.998L12.9844 68.9908L10.9913 69.1573ZM10.1589 60.4021L12.1409 60.1341L12.1407 60.1326L10.1589 60.4021ZM8.46151 50.3725L10.4313 50.0263L10.4312 50.0257L8.46151 50.3725ZM7.35167 44.828L9.20975 44.088L9.20955 44.0875L7.35167 44.828ZM5.2952 34.9805L3.33938 35.3985L3.33955 35.3993L5.2952 34.9805ZM3.49987 24.8185L5.47054 24.4772L5.47038 24.4763L3.49987 24.8185ZM0.774238 9.04581L-1.19546 9.39266L-1.19523 9.39393L0.774238 9.04581ZM1.14962 8.10243L-0.0490375 6.50142L-0.0611591 6.5105L-0.0731418 6.51976L1.14962 8.10243ZM7.02524 6.03361L7.14793 8.02985L7.15374 8.02948L7.02524 6.03361ZM13.1783 5.6364L13.5195 7.60708L13.5208 7.60685L13.1783 5.6364ZM21.0941 2.26009L22.2525 3.89046L22.2597 3.8853L21.0941 2.26009ZM22.8568 0.439537L21.4901 -1.02067L21.4709 -1.00267L21.4521 -0.984165L22.8568 0.439537ZM23.6565 0.0423201L23.6565 2.04233L23.661 2.04231L23.6565 0.0423201ZM45.5269 0.0423201L45.5224 2.04232H45.5269V0.0423201ZM46.3103 0.422985L47.9436 -0.731299L47.9241 -0.758826L47.9038 -0.785682L46.3103 0.422985ZM51.8921 4.34546L51.057 6.1628L51.0626 6.16533L51.8921 4.34546ZM62.0276 6.03361L62.0844 8.0328L62.085 8.03279L62.0276 6.03361ZM66.9239 7.35765L65.9744 9.11789L65.9837 9.12293L65.9932 9.12788L66.9239 7.35765ZM67.3646 8.36724L65.3949 8.02041L65.3898 8.04964L65.3855 8.07901L67.3646 8.36724ZM63.9698 31.9021L65.9489 32.1906L65.9495 32.1863L63.9698 31.9021ZM62.305 43.3385L64.2786 43.6628L64.2803 43.6519L62.305 43.3385ZM61.3421 47.1286L63.3106 47.4822L63.3107 47.4816L61.3421 47.1286ZM59.0898 60.4848L61.0697 60.7679L61.0698 60.7668L59.0898 60.4848ZM58.1431 70.4979L56.1455 70.4003L56.1454 70.4013L58.1431 70.4979ZM59.7426 78.2932L57.9952 79.2661L58.031 79.3305L58.0715 79.3921L59.7426 78.2932ZM60.0364 76.9387C60.0034 76.9387 59.9704 76.9387 59.9374 76.9387C59.9044 76.9387 59.8714 76.9387 59.8384 76.9387C59.8055 76.9387 59.7725 76.9387 59.7395 76.9387C59.7065 76.9387 59.6735 76.9387 59.6405 76.9387C59.6075 76.9387 59.5745 76.9387 59.5415 76.9387C59.5085 76.9387 59.4755 76.9387 59.4425 76.9387C59.4095 76.9387 59.3766 76.9387 59.3436 76.9387C59.3106 76.9387 59.2776 76.9387 59.2446 76.9387C59.2116 76.9387 59.1786 76.9387 59.1456 76.9387C59.1126 76.9387 59.0796 76.9387 59.0466 76.9387C59.0137 76.9387 58.9807 76.9387 58.9477 76.9387C58.9147 76.9387 58.8817 76.9387 58.8487 76.9387C58.8157 76.9387 58.7827 76.9387 58.7497 76.9387C58.7167 76.9387 58.6838 76.9387 58.6508 76.9387C58.6178 76.9387 58.5848 76.9387 58.5518 76.9387C58.5188 76.9387 58.4858 76.9387 58.4528 76.9387C58.4198 76.9387 58.3869 76.9387 58.3539 76.9387C58.3209 76.9387 58.2879 76.9387 58.2549 76.9387C58.2219 76.9387 58.1889 76.9387 58.1559 76.9387C58.1229 76.9387 58.09 76.9387 58.057 76.9387C58.024 76.9387 57.991 76.9387 57.958 76.9387C57.925 76.9387 57.892 76.9387 57.859 76.9387C57.826 76.9387 57.7931 76.9387 57.7601 76.9387C57.7271 76.9387 57.6941 76.9387 57.6611 76.9387C57.6281 76.9387 57.5951 76.9387 57.5621 76.9387C57.5292 76.9387 57.4962 76.9387 57.4632 76.9387C57.4302 76.9387 57.3972 76.9387 57.3642 76.9387C57.3312 76.9387 57.2982 76.9387 57.2653 76.9387C57.2323 76.9387 57.1993 76.9387 57.1663 76.9387C57.1333 76.9387 57.1003 76.9387 57.0673 76.9387C57.0344 76.9387 57.0014 76.9387 56.9684 76.9387C56.9354 76.9387 56.9024 76.9387 56.8694 76.9387C56.8364 76.9387 56.8035 76.9387 56.7705 76.9387C56.7375 76.9387 56.7045 76.9387 56.6715 76.9387C56.6385 76.9387 56.6055 76.9387 56.5726 76.9387C56.5396 76.9387 56.5066 76.9387 56.4736 76.9387C56.4406 76.9387 56.4076 76.9387 56.3746 76.9387C56.3417 76.9387 56.3087 76.9387 56.2757 76.9387C56.2427 76.9387 56.2097 76.9387 56.1767 76.9387C56.1437 76.9387 56.1108 76.9387 56.0778 76.9387C56.0448 76.9387 56.0118 76.9387 55.9788 76.9387C55.9458 76.9387 55.9129 76.9387 55.8799 76.9387C55.8469 76.9387 55.8139 76.9387 55.7809 76.9387C55.7479 76.9387 55.715 76.9387 55.682 76.9387C55.649 76.9387 55.616 76.9387 55.583 76.9387C55.55 76.9387 55.517 76.9387 55.4841 76.9387C55.4511 76.9387 55.4181 76.9387 55.3851 76.9387C55.3521 76.9387 55.3191 76.9387 55.2862 76.9387C55.2532 76.9387 55.2202 76.9387 55.1872 76.9387C55.1542 76.9387 55.1212 76.9387 55.0883 76.9387C55.0553 76.9387 55.0223 76.9387 54.9893 76.9387C54.9563 76.9387 54.9234 76.9387 54.8904 76.9387C54.8574 76.9387 54.8244 76.9387 54.7914 76.9387C54.7584 76.9387 54.7255 76.9387 54.6925 76.9387C54.6595 76.9387 54.6265 76.9387 54.5935 76.9387C54.5605 76.9387 54.5276 76.9387 54.4946 76.9387C54.4616 76.9387 54.4286 76.9387 54.3956 76.9387C54.3627 76.9387 54.3297 76.9387 54.2967 76.9387C54.2637 76.9387 54.2307 76.9387 54.1977 76.9387C54.1648 76.9387 54.1318 76.9387 54.0988 76.9387C54.0658 76.9387 54.0328 76.9387 53.9999 76.9387C53.9669 76.9387 53.9339 76.9387 53.9009 76.9387C53.8679 76.9387 53.8349 76.9387 53.802 76.9387C53.769 76.9387 53.736 76.9387 53.703 76.9387C53.67 76.9387 53.6371 76.9387 53.6041 76.9387C53.5711 76.9387 53.5381 76.9387 53.5051 76.9387C53.4722 76.9387 53.4392 76.9387 53.4062 76.9387C53.3732 76.9387 53.3402 76.9387 53.3073 76.9387C53.2743 76.9387 53.2413 76.9387 53.2083 76.9387C53.1753 76.9387 53.1424 76.9387 53.1094 76.9387C53.0764 76.9387 53.0434 76.9387 53.0104 76.9387C52.9774 76.9387 52.9445 76.9387 52.9115 76.9387C52.8785 76.9387 52.8455 76.9387 52.8125 76.9387C52.7796 76.9387 52.7466 76.9387 52.7136 76.9387C52.6806 76.9387 52.6476 76.9387 52.6147 76.9387C52.5817 76.9387 52.5487 76.9387 52.5157 76.9387C52.4828 76.9387 52.4498 76.9387 52.4168 76.9387C52.3838 76.9387 52.3508 76.9387 52.3179 76.9387C52.2849 76.9387 52.2519 76.9387 52.2189 76.9387C52.1859 76.9387 52.153 76.9387 52.12 76.9387C52.087 76.9387 52.054 76.9387 52.021 76.9387C51.9881 76.9387 51.9551 76.9387 51.9221 76.9387C51.8891 76.9387 51.8561 76.9387 51.8232 76.9387C51.7902 76.9387 51.7572 76.9387 51.7242 76.9387C51.6912 76.9387 51.6583 76.9387 51.6253 76.9387C51.5923 76.9387 51.5593 76.9387 51.5264 76.9387C51.4934 76.9387 51.4604 76.9387 51.4274 76.9387C51.3944 76.9387 51.3615 76.9387 51.3285 76.9387C51.2955 76.9387 51.2625 76.9387 51.2295 76.9387C51.1966 76.9387 51.1636 76.9387 51.1306 76.9387C51.0976 76.9387 51.0647 76.9387 51.0317 76.9387C50.9987 76.9387 50.9657 76.9387 50.9327 76.9387C50.8998 76.9387 50.8668 76.9387 50.8338 76.9387C50.8008 76.9387 50.7678 76.9387 50.7349 76.9387C50.7019 76.9387 50.6689 76.9387 50.6359 76.9387C50.603 76.9387 50.57 76.9387 50.537 76.9387C50.504 76.9387 50.471 76.9387 50.4381 76.9387C50.4051 76.9387 50.3721 76.9387 50.3391 76.9387C50.3062 76.9387 50.2732 76.9387 50.2402 76.9387C50.2072 76.9387 50.1742 76.9387 50.1413 76.9387C50.1083 76.9387 50.0753 76.9387 50.0423 76.9387C50.0094 76.9387 49.9764 76.9387 49.9434 76.9387C49.9104 76.9387 49.8774 76.9387 49.8445 76.9387C49.8115 76.9387 49.7785 76.9387 49.7455 76.9387C49.7126 76.9387 49.6796 76.9387 49.6466 76.9387C49.6136 76.9387 49.5806 76.9387 49.5477 76.9387C49.5147 76.9387 49.4817 76.9387 49.4487 76.9387C49.4158 76.9387 49.3828 76.9387 49.3498 76.9387C49.3168 76.9387 49.2838 76.9387 49.2509 76.9387C49.2179 76.9387 49.1849 76.9387 49.1519 76.9387C49.119 76.9387 49.086 76.9387 49.053 76.9387C49.02 76.9387 48.9871 76.9387 48.9541 76.9387C48.9211 76.9387 48.8881 76.9387 48.8551 76.9387C48.8222 76.9387 48.7892 76.9387 48.7562 76.9387C48.7232 76.9387 48.6903 76.9387 48.6573 76.9387C48.6243 76.9387 48.5913 76.9387 48.5583 76.9387C48.5254 76.9387 48.4924 76.9387 48.4594 76.9387C48.4264 76.9387 48.3935 76.9387 48.3605 76.9387C48.3275 76.9387 48.2945 76.9387 48.2616 76.9387C48.2286 76.9387 48.1956 76.9387 48.1626 76.9387C48.1296 76.9387 48.0967 76.9387 48.0637 76.9387C48.0307 76.9387 47.9977 76.9387 47.9648 76.9387C47.9318 76.9387 47.8988 76.9387 47.8658 76.9387C47.8329 76.9387 47.7999 76.9387 47.7669 76.9387C47.7339 76.9387 47.7009 76.9387 47.668 76.9387C47.635 76.9387 47.602 76.9387 47.569 76.9387C47.5361 76.9387 47.5031 76.9387 47.4701 76.9387C47.4371 76.9387 47.4042 76.9387 47.3712 76.9387C47.3382 76.9387 47.3052 76.9387 47.2722 76.9387C47.2393 76.9387 47.2063 76.9387 47.1733 76.9387C47.1403 76.9387 47.1074 76.9387 47.0744 76.9387C47.0414 76.9387 47.0084 76.9387 46.9754 76.9387C46.9425 76.9387 46.9095 76.9387 46.8765 76.9387C46.8435 76.9387 46.8106 76.9387 46.7776 76.9387C46.7446 76.9387 46.7116 76.9387 46.6787 76.9387C46.6457 76.9387 46.6127 76.9387 46.5797 76.9387C46.5467 76.9387 46.5138 76.9387 46.4808 76.9387C46.4478 76.9387 46.4148 76.9387 46.3819 76.9387C46.3489 76.9387 46.3159 76.9387 46.2829 76.9387C46.25 76.9387 46.217 76.9387 46.184 76.9387C46.151 76.9387 46.118 76.9387 46.0851 76.9387C46.0521 76.9387 46.0191 76.9387 45.9861 76.9387C45.9532 76.9387 45.9202 76.9387 45.8872 76.9387C45.8542 76.9387 45.8212 76.9387 45.7883 76.9387C45.7553 76.9387 45.7223 76.9387 45.6893 76.9387C45.6564 76.9387 45.6234 76.9387 45.5904 76.9387C45.5574 76.9387 45.5245 76.9387 45.4915 76.9387C45.4585 76.9387 45.4255 76.9387 45.3925 76.9387C45.3596 76.9387 45.3266 76.9387 45.2936 76.9387C45.2606 76.9387 45.2277 76.9387 45.1947 76.9387C45.1617 76.9387 45.1287 76.9387 45.0957 76.9387C45.0628 76.9387 45.0298 76.9387 44.9968 76.9387C44.9638 76.9387 44.9309 76.9387 44.8979 76.9387C44.8649 76.9387 44.8319 76.9387 44.7989 76.9387C44.766 76.9387 44.733 76.9387 44.7 76.9387C44.667 76.9387 44.6341 76.9387 44.6011 76.9387C44.5681 76.9387 44.5351 76.9387 44.5021 76.9387C44.4692 76.9387 44.4362 76.9387 44.4032 76.9387C44.3702 76.9387 44.3373 76.9387 44.3043 76.9387C44.2713 76.9387 44.2383 76.9387 44.2053 76.9387C44.1724 76.9387 44.1394 76.9387 44.1064 76.9387C44.0734 76.9387 44.0405 76.9387 44.0075 76.9387C43.9745 76.9387 43.9415 76.9387 43.9085 76.9387C43.8756 76.9387 43.8426 76.9387 43.8096 76.9387C43.7766 76.9387 43.7436 76.9387 43.7107 76.9387C43.6777 76.9387 43.6447 76.9387 43.6117 76.9387C43.5788 76.9387 43.5458 76.9387 43.5128 76.9387C43.4798 76.9387 43.4468 76.9387 43.4139 76.9387C43.3809 76.9387 43.3479 76.9387 43.3149 76.9387C43.2819 76.9387 43.249 76.9387 43.216 76.9387C43.183 76.9387 43.15 76.9387 43.1171 76.9387C43.0841 76.9387 43.0511 76.9387 43.0181 76.9387C42.9851 76.9387 42.9522 76.9387 42.9192 76.9387C42.8862 76.9387 42.8532 76.9387 42.8202 76.9387C42.7873 76.9387 42.7543 76.9387 42.7213 76.9387C42.6883 76.9387 42.6553 76.9387 42.6224 76.9387C42.5894 76.9387 42.5564 76.9387 42.5234 76.9387C42.4905 76.9387 42.4575 76.9387 42.4245 76.9387C42.3915 76.9387 42.3585 76.9387 42.3256 76.9387C42.2926 76.9387 42.2596 76.9387 42.2266 76.9387C42.1936 76.9387 42.1607 76.9387 42.1277 76.9387C42.0947 76.9387 42.0617 76.9387 42.0287 76.9387C41.9958 76.9387 41.9628 76.9387 41.9298 76.9387C41.8968 76.9387 41.8638 76.9387 41.8309 76.9387C41.7979 76.9387 41.7649 76.9387 41.7319 76.9387C41.6989 76.9387 41.666 76.9387 41.633 76.9387C41.6 76.9387 41.567 76.9387 41.534 76.9387C41.5011 76.9387 41.4681 76.9387 41.4351 76.9387C41.4021 76.9387 41.3691 76.9387 41.3362 76.9387C41.3032 76.9387 41.2702 76.9387 41.2372 76.9387C41.2042 76.9387 41.1712 76.9387 41.1383 76.9387C41.1053 76.9387 41.0723 76.9387 41.0393 76.9387C41.0063 76.9387 40.9734 76.9387 40.9404 76.9387C40.9074 76.9387 40.8744 76.9387 40.8414 76.9387C40.8085 76.9387 40.7755 76.9387 40.7425 76.9387C40.7095 76.9387 40.6765 76.9387 40.6435 76.9387C40.6106 76.9387 40.5776 76.9387 40.5446 76.9387C40.5116 76.9387 40.4786 76.9387 40.4457 76.9387C40.4127 76.9387 40.3797 76.9387 40.3467 76.9387C40.3137 76.9387 40.2807 76.9387 40.2478 76.9387C40.2148 76.9387 40.1818 76.9387 40.1488 76.9387C40.1158 76.9387 40.0829 76.9387 40.0499 76.9387C40.0169 76.9387 39.9839 76.9387 39.9509 76.9387C39.9179 76.9387 39.885 76.9387 39.852 76.9387C39.819 76.9387 39.786 76.9387 39.753 76.9387C39.72 76.9387 39.6871 76.9387 39.6541 76.9387C39.6211 76.9387 39.5881 76.9387 39.5551 76.9387C39.5221 76.9387 39.4892 76.9387 39.4562 76.9387C39.4232 76.9387 39.3902 76.9387 39.3572 76.9387C39.3242 76.9387 39.2913 76.9387 39.2583 76.9387C39.2253 76.9387 39.1923 76.9387 39.1593 76.9387C39.1263 76.9387 39.0934 76.9387 39.0604 76.9387C39.0274 76.9387 38.9944 76.9387 38.9614 76.9387C38.9284 76.9387 38.8955 76.9387 38.8625 76.9387C38.8295 76.9387 38.7965 76.9387 38.7635 76.9387C38.7305 76.9387 38.6976 76.9387 38.6646 76.9387C38.6316 76.9387 38.5986 76.9387 38.5656 76.9387C38.5326 76.9387 38.4996 76.9387 38.4667 76.9387C38.4337 76.9387 38.4007 76.9387 38.3677 76.9387C38.3347 76.9387 38.3017 76.9387 38.2687 76.9387C38.2358 76.9387 38.2028 76.9387 38.1698 76.9387C38.1368 76.9387 38.1038 76.9387 38.0708 76.9387C38.0378 76.9387 38.0049 76.9387 37.9719 76.9387C37.9389 76.9387 37.9059 76.9387 37.8729 76.9387C37.8399 76.9387 37.8069 76.9387 37.774 76.9387C37.741 76.9387 37.708 76.9387 37.675 76.9387C37.642 76.9387 37.609 76.9387 37.576 76.9387C37.5431 76.9387 37.5101 76.9387 37.4771 76.9387C37.4441 76.9387 37.4111 76.9387 37.3781 76.9387C37.3451 76.9387 37.3121 76.9387 37.2792 76.9387C37.2462 76.9387 37.2132 76.9387 37.1802 76.9387C37.1472 76.9387 37.1142 76.9387 37.0812 76.9387C37.0482 76.9387 37.0153 76.9387 36.9823 76.9387C36.9493 76.9387 36.9163 76.9387 36.8833 76.9387C36.8503 76.9387 36.8173 76.9387 36.7843 76.9387C36.7514 76.9387 36.7184 76.9387 36.6854 76.9387C36.6524 76.9387 36.6194 76.9387 36.5864 76.9387C36.5534 76.9387 36.5204 76.9387 36.4874 76.9387C36.4545 76.9387 36.4215 76.9387 36.3885 76.9387C36.3555 76.9387 36.3225 76.9387 36.2895 76.9387C36.2565 76.9387 36.2235 76.9387 36.1905 76.9387C36.1576 76.9387 36.1246 76.9387 36.0916 76.9387C36.0586 76.9387 36.0256 76.9387 35.9926 76.9387C35.9596 76.9387 35.9266 76.9387 35.8936 76.9387C35.8606 76.9387 35.8277 76.9387 35.7947 76.9387C35.7617 76.9387 35.7287 76.9387 35.6957 76.9387C35.6627 76.9387 35.6297 76.9387 35.5967 76.9387C35.5637 76.9387 35.5307 76.9387 35.4977 76.9387C35.4648 76.9387 35.4318 76.9387 35.3988 76.9387C35.3658 76.9387 35.3328 76.9387 35.2998 76.9387C35.2668 76.9387 35.2338 76.9387 35.2008 76.9387C35.1678 76.9387 35.1348 76.9387 35.1019 76.9387C35.0689 76.9387 35.0359 76.9387 35.0029 76.9387C34.9699 76.9387 34.9369 76.9387 34.9039 76.9387C34.8709 76.9387 34.8379 76.9387 34.8049 76.9387C34.7719 76.9387 34.7389 76.9387 34.7059 76.9387C34.6729 76.9387 34.64 76.9387 34.607 76.9387C34.574 76.9387 34.541 76.9387 34.508 76.9387C34.475 76.9387 34.442 76.9387 34.409 76.9387C34.376 76.9387 34.343 76.9387 34.31 76.9387C34.277 76.9387 34.244 76.9387 34.211 76.9387C34.178 76.9387 34.145 76.9387 34.1121 76.9387C34.0791 76.9387 34.0461 76.9387 34.0131 76.9387C33.9801 76.9387 33.9471 76.9387 33.9141 76.9387C33.8811 76.9387 33.8481 76.9387 33.8151 76.9387C33.7821 76.9387 33.7491 76.9387 33.7161 76.9387C33.6831 76.9387 33.6501 76.9387 33.6171 76.9387C33.5841 76.9387 33.5511 76.9387 33.5181 76.9387C33.4851 76.9387 33.4521 76.9387 33.4191 76.9387C33.3862 76.9387 33.3532 76.9387 33.3202 76.9387C33.2872 76.9387 33.2542 76.9387 33.2212 76.9387C33.1882 76.9387 33.1552 76.9387 33.1222 76.9387C33.0892 76.9387 33.0562 76.9387 33.0232 76.9387C32.9902 76.9387 32.9572 76.9387 32.9242 76.9387C32.8912 76.9387 32.8582 76.9387 32.8252 76.9387C32.7922 76.9387 32.7592 76.9387 32.7262 76.9387C32.6932 76.9387 32.6602 76.9387 32.6272 76.9387C32.5942 76.9387 32.5612 76.9387 32.5282 76.9387C32.4952 76.9387 32.4622 76.9387 32.4292 76.9387C32.3962 76.9387 32.3632 76.9387 32.3302 76.9387C32.2972 76.9387 32.2642 76.9387 32.2312 76.9387C32.1982 76.9387 32.1652 76.9387 32.1322 76.9387C32.0992 76.9387 32.0662 76.9387 32.0332 76.9387C32.0002 76.9387 31.9672 76.9387 31.9342 76.9387C31.9012 76.9387 31.8682 76.9387 31.8352 76.9387C31.8022 76.9387 31.7692 76.9387 31.7362 76.9387C31.7032 76.9387 31.6702 76.9387 31.6372 76.9387C31.6042 76.9387 31.5712 76.9387 31.5382 76.9387C31.5052 76.9387 31.4722 76.9387 31.4392 76.9387C31.4062 76.9387 31.3732 76.9387 31.3402 76.9387C31.3072 76.9387 31.2742 76.9387 31.2412 76.9387C31.2082 76.9387 31.1752 76.9387 31.1422 76.9387C31.1092 76.9387 31.0762 76.9387 31.0432 76.9387C31.0102 76.9387 30.9772 76.9387 30.9441 76.9387C30.9111 76.9387 30.8781 76.9387 30.8451 76.9387C30.8121 76.9387 30.7791 76.9387 30.7461 76.9387C30.7131 76.9387 30.6801 76.9387 30.6471 76.9387C30.6141 76.9387 30.5811 76.9387 30.5481 76.9387C30.5151 76.9387 30.4821 76.9387 30.4491 76.9387C30.4161 76.9387 30.3831 76.9387 30.3501 76.9387C30.3171 76.9387 30.284 76.9387 30.251 76.9387C30.218 76.9387 30.185 76.9387 30.152 76.9387C30.119 76.9387 30.086 76.9387 30.053 76.9387C30.02 76.9387 29.987 76.9387 29.954 76.9387C29.921 76.9387 29.888 76.9387 29.855 76.9387C29.822 76.9387 29.7889 76.9387 29.7559 76.9387C29.7229 76.9387 29.6899 76.9387 29.6569 76.9387C29.6239 76.9387 29.5909 76.9387 29.5579 76.9387C29.5249 76.9387 29.4919 76.9387 29.4589 76.9387C29.4259 76.9387 29.3928 76.9387 29.3598 76.9387C29.3268 76.9387 29.2938 76.9387 29.2608 76.9387C29.2278 76.9387 29.1948 76.9387 29.1618 76.9387C29.1288 76.9387 29.0958 76.9387 29.0627 76.9387C29.0297 76.9387 28.9967 76.9387 28.9637 76.9387C28.9307 76.9387 28.8977 76.9387 28.8647 76.9387C28.8317 76.9387 28.7987 76.9387 28.7656 76.9387C28.7326 76.9387 28.6996 76.9387 28.6666 76.9387C28.6336 76.9387 28.6006 76.9387 28.5676 76.9387C28.5346 76.9387 28.5016 76.9387 28.4685 76.9387C28.4355 76.9387 28.4025 76.9387 28.3695 76.9387C28.3365 76.9387 28.3035 76.9387 28.2705 76.9387C28.2374 76.9387 28.2044 76.9387 28.1714 76.9387C28.1384 76.9387 28.1054 76.9387 28.0724 76.9387C28.0394 76.9387 28.0064 76.9387 27.9733 76.9387C27.9403 76.9387 27.9073 76.9387 27.8743 76.9387C27.8413 76.9387 27.8083 76.9387 27.7752 76.9387C27.7422 76.9387 27.7092 76.9387 27.6762 76.9387C27.6432 76.9387 27.6102 76.9387 27.5772 76.9387C27.5441 76.9387 27.5111 76.9387 27.4781 76.9387C27.4451 76.9387 27.4121 76.9387 27.3791 76.9387C27.346 76.9387 27.313 76.9387 27.28 76.9387C27.247 76.9387 27.214 76.9387 27.181 76.9387C27.1479 76.9387 27.1149 76.9387 27.0819 76.9387C27.0489 76.9387 27.0159 76.9387 26.9828 76.9387C26.9498 76.9387 26.9168 76.9387 26.8838 76.9387C26.8508 76.9387 26.8178 76.9387 26.7847 76.9387C26.7517 76.9387 26.7187 76.9387 26.6857 76.9387C26.6527 76.9387 26.6196 76.9387 26.5866 76.9387C26.5536 76.9387 26.5206 76.9387 26.4876 76.9387C26.4545 76.9387 26.4215 76.9387 26.3885 76.9387C26.3555 76.9387 26.3225 76.9387 26.2894 76.9387C26.2564 76.9387 26.2234 76.9387 26.1904 76.9387C26.1573 76.9387 26.1243 76.9387 26.0913 76.9387C26.0583 76.9387 26.0253 76.9387 25.9922 76.9387C25.9592 76.9387 25.9262 76.9387 25.8932 76.9387C25.8601 76.9387 25.8271 76.9387 25.7941 76.9387C25.7611 76.9387 25.7281 76.9387 25.695 76.9387C25.662 76.9387 25.629 76.9387 25.596 76.9387C25.5629 76.9387 25.5299 76.9387 25.4969 76.9387C25.4639 76.9387 25.4308 76.9387 25.3978 76.9387C25.3648 76.9387 25.3318 76.9387 25.2987 76.9387C25.2657 76.9387 25.2327 76.9387 25.1997 76.9387C25.1666 76.9387 25.1336 76.9387 25.1006 76.9387C25.0676 76.9387 25.0345 76.9387 25.0015 76.9387C24.9685 76.9387 24.9354 76.9387 24.9024 76.9387C24.8694 76.9387 24.8364 76.9387 24.8033 76.9387C24.7703 76.9387 24.7373 76.9387 24.7043 76.9387C24.6712 76.9387 24.6382 76.9387 24.6052 76.9387C24.5721 76.9387 24.5391 76.9387 24.5061 76.9387C24.4731 76.9387 24.44 76.9387 24.407 76.9387C24.374 76.9387 24.3409 76.9387 24.3079 76.9387C24.2749 76.9387 24.2418 76.9387 24.2088 76.9387C24.1758 76.9387 24.1428 76.9387 24.1097 76.9387C24.0767 76.9387 24.0437 76.9387 24.0106 76.9387C23.9776 76.9387 23.9446 76.9387 23.9115 76.9387C23.8785 76.9387 23.8455 76.9387 23.8124 76.9387C23.7794 76.9387 23.7464 76.9387 23.7133 76.9387C23.6803 76.9387 23.6473 76.9387 23.6142 76.9387C23.5812 76.9387 23.5482 76.9387 23.5151 76.9387C23.4821 76.9387 23.4491 76.9387 23.416 76.9387C23.383 76.9387 23.35 76.9387 23.3169 76.9387C23.2839 76.9387 23.2509 76.9387 23.2178 76.9387C23.1848 76.9387 23.1518 76.9387 23.1187 76.9387C23.0857 76.9387 23.0527 76.9387 23.0196 76.9387C22.9866 76.9387 22.9535 76.9387 22.9205 76.9387C22.8875 76.9387 22.8544 76.9387 22.8214 76.9387C22.7884 76.9387 22.7553 76.9387 22.7223 76.9387C22.6893 76.9387 22.6562 76.9387 22.6232 76.9387C22.5901 76.9387 22.5571 76.9387 22.5241 76.9387C22.491 76.9387 22.458 76.9387 22.4249 76.9387C22.3919 76.9387 22.3589 76.9387 22.3258 76.9387C22.2928 76.9387 22.2598 76.9387 22.2267 76.9387C22.1937 76.9387 22.1606 76.9387 22.1276 76.9387C22.0946 76.9387 22.0615 76.9387 22.0285 76.9387C21.9954 76.9387 21.9624 76.9387 21.9293 76.9387C21.8963 76.9387 21.8633 76.9387 21.8302 76.9387C21.7972 76.9387 21.7641 76.9387 21.7311 76.9387C21.6981 76.9387 21.665 76.9387 21.632 76.9387C21.5989 76.9387 21.5659 76.9387 21.5328 76.9387C21.4998 76.9387 21.4668 76.9387 21.4337 76.9387C21.4007 76.9387 21.3676 76.9387 21.3346 76.9387C21.3015 76.9387 21.2685 76.9387 21.2354 76.9387C21.2024 76.9387 21.1694 76.9387 21.1363 76.9387C21.1033 76.9387 21.0702 76.9387 21.0372 76.9387C21.0041 76.9387 20.9711 76.9387 20.938 76.9387C20.905 76.9387 20.8719 76.9387 20.8389 76.9387C20.8058 76.9387 20.7728 76.9387 20.7398 76.9387C20.7067 76.9387 20.6737 76.9387 20.6406 76.9387C20.6076 76.9387 20.5745 76.9387 20.5415 76.9387C20.5084 76.9387 20.4754 76.9387 20.4423 76.9387C20.4093 76.9387 20.3762 76.9387 20.3432 76.9387C20.3101 76.9387 20.2771 76.9387 20.244 76.9387C20.211 76.9387 20.1779 76.9387 20.1449 76.9387C20.1118 76.9387 20.0788 76.9387 20.0457 76.9387C20.0127 76.9387 19.9796 76.9387 19.9466 76.9387C19.9135 76.9387 19.8805 76.9387 19.8474 76.9387C19.8144 76.9387 19.7813 76.9387 19.7482 76.9387C19.7152 76.9387 19.6821 76.9387 19.6491 76.9387C19.616 76.9387 19.583 76.9387 19.5499 76.9387C19.5169 76.9387 19.4838 76.9387 19.4508 76.9387C19.4177 76.9387 19.3847 76.9387 19.3516 76.9387C19.3185 76.9387 19.2855 76.9387 19.2524 76.9387C19.2194 76.9387 19.1863 76.9387 19.1533 76.9387C19.1202 76.9387 19.0872 76.9387 19.0541 76.9387C19.021 76.9387 18.988 76.9387 18.9549 76.9387C18.9219 76.9387 18.8888 76.9387 18.8558 76.9387C18.8227 76.9387 18.7896 76.9387 18.7566 76.9387C18.7235 76.9387 18.6905 76.9387 18.6574 76.9387C18.6243 76.9387 18.5913 76.9387 18.5582 76.9387C18.5252 76.9387 18.4921 76.9387 18.4591 76.9387C18.426 76.9387 18.3929 76.9387 18.3599 76.9387C18.3268 76.9387 18.2937 76.9387 18.2607 76.9387C18.2276 76.9387 18.1946 76.9387 18.1615 76.9387C18.1284 76.9387 18.0954 76.9387 18.0623 76.9387C18.0293 76.9387 17.9962 76.9387 17.9631 76.9387C17.9301 76.9387 17.897 76.9387 17.8639 76.9387C17.8309 76.9387 17.7978 76.9387 17.7647 76.9387C17.7317 76.9387 17.6986 76.9387 17.6656 76.9387C17.6325 76.9387 17.5994 76.9387 17.5664 76.9387C17.5333 76.9387 17.5002 76.9387 17.4672 76.9387C17.4341 76.9387 17.401 76.9387 17.368 76.9387C17.3349 76.9387 17.3018 76.9387 17.2688 76.9387C17.2357 76.9387 17.2026 76.9387 17.1696 76.9387C17.1365 76.9387 17.1034 76.9387 17.0704 76.9387C17.0373 76.9387 17.0042 76.9387 16.9712 76.9387C16.9381 76.9387 16.905 76.9387 16.872 76.9387C16.8389 76.9387 16.8058 76.9387 16.7727 76.9387C16.7397 76.9387 16.7066 76.9387 16.6735 76.9387C16.6405 76.9387 16.6074 76.9387 16.5743 76.9387C16.5412 76.9387 16.5082 76.9387 16.4751 76.9387C16.442 76.9387 16.409 76.9387 16.3759 76.9387C16.3428 76.9387 16.3097 76.9387 16.2767 76.9387C16.2436 76.9387 16.2105 76.9387 16.1775 76.9387C16.1444 76.9387 16.1113 76.9387 16.0782 76.9387C16.0452 76.9387 16.0121 76.9387 15.979 76.9387C15.9459 76.9387 15.9129 76.9387 15.8798 76.9387C15.8467 76.9387 15.8136 76.9387 15.7806 76.9387C15.7475 76.9387 15.7144 76.9387 15.6813 76.9387C15.6482 76.9387 15.6152 76.9387 15.5821 76.9387C15.549 76.9387 15.5159 76.9387 15.4829 76.9387C15.4498 76.9387 15.4167 76.9387 15.3836 76.9387C15.3505 76.9387 15.3175 76.9387 15.2844 76.9387C15.2513 76.9387 15.2182 76.9387 15.1852 76.9387C15.1521 76.9387 15.119 76.9387 15.0859 76.9387C15.0528 76.9387 15.0197 76.9387 14.9867 76.9387C14.9536 76.9387 14.9205 76.9387 14.8874 76.9387C14.8543 76.9387 14.8213 76.9387 14.7882 76.9387C14.7551 76.9387 14.722 76.9387 14.6889 76.9387C14.6558 76.9387 14.6228 76.9387 14.5897 76.9387C14.5566 76.9387 14.5235 76.9387 14.4904 76.9387C14.4573 76.9387 14.4243 76.9387 14.3912 76.9387C14.3581 76.9387 14.325 76.9387 14.2919 76.9387C14.2588 76.9387 14.2257 76.9387 14.1927 76.9387C14.1596 76.9387 14.1265 76.9387 14.0934 76.9387C14.0603 76.9387 14.0272 76.9387 13.9941 76.9387C13.9611 76.9387 13.928 76.9387 13.8949 76.9387C13.8618 76.9387 13.8287 76.9387 13.7956 76.9387C13.7625 76.9387 13.7294 76.9387 13.6963 76.9387C13.6633 76.9387 13.6302 76.9387 13.5971 76.9387C13.564 76.9387 13.5309 76.9387 13.4978 76.9387C13.4647 76.9387 13.4316 76.9387 13.3985 76.9387C13.3654 76.9387 13.3323 76.9387 13.2993 76.9387C13.2662 76.9387 13.2331 76.9387 13.2 76.9387C13.1669 76.9387 13.1338 76.9387 13.1007 76.9387C13.0676 76.9387 13.0345 76.9387 13.0014 76.9387C12.9683 76.9387 12.9352 76.9387 12.9021 76.9387C12.869 76.9387 12.8359 76.9387 12.8028 76.9387C12.7698 76.9387 12.7367 76.9387 12.7036 76.9387C12.6705 76.9387 12.6374 76.9387 12.6043 76.9387C12.5712 76.9387 12.5381 76.9387 12.505 76.9387C12.4719 76.9387 12.4388 76.9387 12.4057 76.9387C12.3726 76.9387 12.3395 76.9387 12.3064 76.9387C12.2733 76.9387 12.2402 76.9387 12.2071 76.9387C12.174 76.9387 12.1409 76.9387 12.1078 76.9387C12.0747 76.9387 12.0416 76.9387 12.0085 76.9387C11.9754 76.9387 11.9423 76.9387 11.9092 76.9387C11.8761 76.9387 11.843 76.9387 11.8099 76.9387C11.7768 76.9387 11.7437 76.9387 11.7106 76.9387C11.6775 76.9387 11.6444 76.9387 11.6113 76.9387C11.5782 76.9387 11.5451 76.9387 11.5119 76.9387C11.4788 76.9387 11.4457 76.9387 11.4126 76.9387C11.3795 76.9387 11.3464 76.9387 11.3133 76.9387C11.2802 76.9387 11.2471 76.9387 11.214 76.9387C11.1809 76.9387 11.1478 76.9387 11.1147 76.9387C11.0816 76.9387 11.0485 76.9387 11.0154 76.9387C10.9822 76.9387 10.9491 76.9387 10.916 76.9387C10.8829 76.9387 10.8498 76.9387 10.8167 76.9387C10.7836 76.9387 10.7505 76.9387 10.7174 76.9387C10.6843 76.9387 10.6512 76.9387 10.618 76.9387C10.5849 76.9387 10.5518 76.9387 10.5187 76.9387C10.4856 76.9387 10.4525 76.9387 10.4194 76.9387C10.3863 76.9387 10.3531 76.9387 10.32 76.9387C10.2869 76.9387 10.2538 76.9387 10.2207 76.9387C10.1876 76.9387 10.1545 76.9387 10.1214 76.9387C10.0882 76.9387 10.0551 76.9387 10.022 76.9387C9.98889 76.9387 9.95577 76.9387 9.92266 76.9387C9.88954 76.9387 9.85643 76.9387 9.82331 76.9387C9.79019 76.9387 9.75708 76.9387 9.72396 76.9387C9.69084 76.9387 9.65772 76.9387 9.6246 76.9387C9.59149 76.9387 9.55837 76.9387 9.52525 76.9387C9.49213 76.9387 9.45901 76.9387 9.42589 76.9387C9.39277 76.9387 9.35965 76.9387 9.32653 76.9387V80.9387C9.35965 80.9387 9.39277 80.9387 9.42589 80.9387C9.45901 80.9387 9.49213 80.9387 9.52525 80.9387C9.55837 80.9387 9.59149 80.9387 9.6246 80.9387C9.65772 80.9387 9.69084 80.9387 9.72396 80.9387C9.75708 80.9387 9.79019 80.9387 9.82331 80.9387C9.85643 80.9387 9.88954 80.9387 9.92266 80.9387C9.95577 80.9387 9.98889 80.9387 10.022 80.9387C10.0551 80.9387 10.0882 80.9387 10.1214 80.9387C10.1545 80.9387 10.1876 80.9387 10.2207 80.9387C10.2538 80.9387 10.2869 80.9387 10.32 80.9387C10.3531 80.9387 10.3863 80.9387 10.4194 80.9387C10.4525 80.9387 10.4856 80.9387 10.5187 80.9387C10.5518 80.9387 10.5849 80.9387 10.618 80.9387C10.6512 80.9387 10.6843 80.9387 10.7174 80.9387C10.7505 80.9387 10.7836 80.9387 10.8167 80.9387C10.8498 80.9387 10.8829 80.9387 10.916 80.9387C10.9491 80.9387 10.9822 80.9387 11.0154 80.9387C11.0485 80.9387 11.0816 80.9387 11.1147 80.9387C11.1478 80.9387 11.1809 80.9387 11.214 80.9387C11.2471 80.9387 11.2802 80.9387 11.3133 80.9387C11.3464 80.9387 11.3795 80.9387 11.4126 80.9387C11.4457 80.9387 11.4788 80.9387 11.5119 80.9387C11.5451 80.9387 11.5782 80.9387 11.6113 80.9387C11.6444 80.9387 11.6775 80.9387 11.7106 80.9387C11.7437 80.9387 11.7768 80.9387 11.8099 80.9387C11.843 80.9387 11.8761 80.9387 11.9092 80.9387C11.9423 80.9387 11.9754 80.9387 12.0085 80.9387C12.0416 80.9387 12.0747 80.9387 12.1078 80.9387C12.1409 80.9387 12.174 80.9387 12.2071 80.9387C12.2402 80.9387 12.2733 80.9387 12.3064 80.9387C12.3395 80.9387 12.3726 80.9387 12.4057 80.9387C12.4388 80.9387 12.4719 80.9387 12.505 80.9387C12.5381 80.9387 12.5712 80.9387 12.6043 80.9387C12.6374 80.9387 12.6705 80.9387 12.7036 80.9387C12.7367 80.9387 12.7698 80.9387 12.8028 80.9387C12.8359 80.9387 12.869 80.9387 12.9021 80.9387C12.9352 80.9387 12.9683 80.9387 13.0014 80.9387C13.0345 80.9387 13.0676 80.9387 13.1007 80.9387C13.1338 80.9387 13.1669 80.9387 13.2 80.9387C13.2331 80.9387 13.2662 80.9387 13.2993 80.9387C13.3323 80.9387 13.3654 80.9387 13.3985 80.9387C13.4316 80.9387 13.4647 80.9387 13.4978 80.9387C13.5309 80.9387 13.564 80.9387 13.5971 80.9387C13.6302 80.9387 13.6633 80.9387 13.6963 80.9387C13.7294 80.9387 13.7625 80.9387 13.7956 80.9387C13.8287 80.9387 13.8618 80.9387 13.8949 80.9387C13.928 80.9387 13.9611 80.9387 13.9941 80.9387C14.0272 80.9387 14.0603 80.9387 14.0934 80.9387C14.1265 80.9387 14.1596 80.9387 14.1927 80.9387C14.2257 80.9387 14.2588 80.9387 14.2919 80.9387C14.325 80.9387 14.3581 80.9387 14.3912 80.9387C14.4243 80.9387 14.4573 80.9387 14.4904 80.9387C14.5235 80.9387 14.5566 80.9387 14.5897 80.9387C14.6228 80.9387 14.6558 80.9387 14.6889 80.9387C14.722 80.9387 14.7551 80.9387 14.7882 80.9387C14.8213 80.9387 14.8543 80.9387 14.8874 80.9387C14.9205 80.9387 14.9536 80.9387 14.9867 80.9387C15.0197 80.9387 15.0528 80.9387 15.0859 80.9387C15.119 80.9387 15.1521 80.9387 15.1852 80.9387C15.2182 80.9387 15.2513 80.9387 15.2844 80.9387C15.3175 80.9387 15.3505 80.9387 15.3836 80.9387C15.4167 80.9387 15.4498 80.9387 15.4829 80.9387C15.5159 80.9387 15.549 80.9387 15.5821 80.9387C15.6152 80.9387 15.6482 80.9387 15.6813 80.9387C15.7144 80.9387 15.7475 80.9387 15.7806 80.9387C15.8136 80.9387 15.8467 80.9387 15.8798 80.9387C15.9129 80.9387 15.9459 80.9387 15.979 80.9387C16.0121 80.9387 16.0452 80.9387 16.0782 80.9387C16.1113 80.9387 16.1444 80.9387 16.1775 80.9387C16.2105 80.9387 16.2436 80.9387 16.2767 80.9387C16.3097 80.9387 16.3428 80.9387 16.3759 80.9387C16.409 80.9387 16.442 80.9387 16.4751 80.9387C16.5082 80.9387 16.5412 80.9387 16.5743 80.9387C16.6074 80.9387 16.6405 80.9387 16.6735 80.9387C16.7066 80.9387 16.7397 80.9387 16.7727 80.9387C16.8058 80.9387 16.8389 80.9387 16.872 80.9387C16.905 80.9387 16.9381 80.9387 16.9712 80.9387C17.0042 80.9387 17.0373 80.9387 17.0704 80.9387C17.1034 80.9387 17.1365 80.9387 17.1696 80.9387C17.2026 80.9387 17.2357 80.9387 17.2688 80.9387C17.3018 80.9387 17.3349 80.9387 17.368 80.9387C17.401 80.9387 17.4341 80.9387 17.4672 80.9387C17.5002 80.9387 17.5333 80.9387 17.5664 80.9387C17.5994 80.9387 17.6325 80.9387 17.6656 80.9387C17.6986 80.9387 17.7317 80.9387 17.7647 80.9387C17.7978 80.9387 17.8309 80.9387 17.8639 80.9387C17.897 80.9387 17.9301 80.9387 17.9631 80.9387C17.9962 80.9387 18.0293 80.9387 18.0623 80.9387C18.0954 80.9387 18.1284 80.9387 18.1615 80.9387C18.1946 80.9387 18.2276 80.9387 18.2607 80.9387C18.2937 80.9387 18.3268 80.9387 18.3599 80.9387C18.3929 80.9387 18.426 80.9387 18.4591 80.9387C18.4921 80.9387 18.5252 80.9387 18.5582 80.9387C18.5913 80.9387 18.6243 80.9387 18.6574 80.9387C18.6905 80.9387 18.7235 80.9387 18.7566 80.9387C18.7896 80.9387 18.8227 80.9387 18.8558 80.9387C18.8888 80.9387 18.9219 80.9387 18.9549 80.9387C18.988 80.9387 19.021 80.9387 19.0541 80.9387C19.0872 80.9387 19.1202 80.9387 19.1533 80.9387C19.1863 80.9387 19.2194 80.9387 19.2524 80.9387C19.2855 80.9387 19.3185 80.9387 19.3516 80.9387C19.3847 80.9387 19.4177 80.9387 19.4508 80.9387C19.4838 80.9387 19.5169 80.9387 19.5499 80.9387C19.583 80.9387 19.616 80.9387 19.6491 80.9387C19.6821 80.9387 19.7152 80.9387 19.7482 80.9387C19.7813 80.9387 19.8144 80.9387 19.8474 80.9387C19.8805 80.9387 19.9135 80.9387 19.9466 80.9387C19.9796 80.9387 20.0127 80.9387 20.0457 80.9387C20.0788 80.9387 20.1118 80.9387 20.1449 80.9387C20.1779 80.9387 20.211 80.9387 20.244 80.9387C20.2771 80.9387 20.3101 80.9387 20.3432 80.9387C20.3762 80.9387 20.4093 80.9387 20.4423 80.9387C20.4754 80.9387 20.5084 80.9387 20.5415 80.9387C20.5745 80.9387 20.6076 80.9387 20.6406 80.9387C20.6737 80.9387 20.7067 80.9387 20.7398 80.9387C20.7728 80.9387 20.8058 80.9387 20.8389 80.9387C20.8719 80.9387 20.905 80.9387 20.938 80.9387C20.9711 80.9387 21.0041 80.9387 21.0372 80.9387C21.0702 80.9387 21.1033 80.9387 21.1363 80.9387C21.1694 80.9387 21.2024 80.9387 21.2354 80.9387C21.2685 80.9387 21.3015 80.9387 21.3346 80.9387C21.3676 80.9387 21.4007 80.9387 21.4337 80.9387C21.4668 80.9387 21.4998 80.9387 21.5328 80.9387C21.5659 80.9387 21.5989 80.9387 21.632 80.9387C21.665 80.9387 21.6981 80.9387 21.7311 80.9387C21.7641 80.9387 21.7972 80.9387 21.8302 80.9387C21.8633 80.9387 21.8963 80.9387 21.9293 80.9387C21.9624 80.9387 21.9954 80.9387 22.0285 80.9387C22.0615 80.9387 22.0946 80.9387 22.1276 80.9387C22.1606 80.9387 22.1937 80.9387 22.2267 80.9387C22.2598 80.9387 22.2928 80.9387 22.3258 80.9387C22.3589 80.9387 22.3919 80.9387 22.4249 80.9387C22.458 80.9387 22.491 80.9387 22.5241 80.9387C22.5571 80.9387 22.5901 80.9387 22.6232 80.9387C22.6562 80.9387 22.6893 80.9387 22.7223 80.9387C22.7553 80.9387 22.7884 80.9387 22.8214 80.9387C22.8544 80.9387 22.8875 80.9387 22.9205 80.9387C22.9535 80.9387 22.9866 80.9387 23.0196 80.9387C23.0527 80.9387 23.0857 80.9387 23.1187 80.9387C23.1518 80.9387 23.1848 80.9387 23.2178 80.9387C23.2509 80.9387 23.2839 80.9387 23.3169 80.9387C23.35 80.9387 23.383 80.9387 23.416 80.9387C23.4491 80.9387 23.4821 80.9387 23.5151 80.9387C23.5482 80.9387 23.5812 80.9387 23.6142 80.9387C23.6473 80.9387 23.6803 80.9387 23.7133 80.9387C23.7464 80.9387 23.7794 80.9387 23.8124 80.9387C23.8455 80.9387 23.8785 80.9387 23.9115 80.9387C23.9446 80.9387 23.9776 80.9387 24.0106 80.9387C24.0437 80.9387 24.0767 80.9387 24.1097 80.9387C24.1428 80.9387 24.1758 80.9387 24.2088 80.9387C24.2418 80.9387 24.2749 80.9387 24.3079 80.9387C24.3409 80.9387 24.374 80.9387 24.407 80.9387C24.44 80.9387 24.4731 80.9387 24.5061 80.9387C24.5391 80.9387 24.5721 80.9387 24.6052 80.9387C24.6382 80.9387 24.6712 80.9387 24.7043 80.9387C24.7373 80.9387 24.7703 80.9387 24.8033 80.9387C24.8364 80.9387 24.8694 80.9387 24.9024 80.9387C24.9354 80.9387 24.9685 80.9387 25.0015 80.9387C25.0345 80.9387 25.0676 80.9387 25.1006 80.9387C25.1336 80.9387 25.1666 80.9387 25.1997 80.9387C25.2327 80.9387 25.2657 80.9387 25.2987 80.9387C25.3318 80.9387 25.3648 80.9387 25.3978 80.9387C25.4308 80.9387 25.4639 80.9387 25.4969 80.9387C25.5299 80.9387 25.5629 80.9387 25.596 80.9387C25.629 80.9387 25.662 80.9387 25.695 80.9387C25.7281 80.9387 25.7611 80.9387 25.7941 80.9387C25.8271 80.9387 25.8601 80.9387 25.8932 80.9387C25.9262 80.9387 25.9592 80.9387 25.9922 80.9387C26.0253 80.9387 26.0583 80.9387 26.0913 80.9387C26.1243 80.9387 26.1573 80.9387 26.1904 80.9387C26.2234 80.9387 26.2564 80.9387 26.2894 80.9387C26.3225 80.9387 26.3555 80.9387 26.3885 80.9387C26.4215 80.9387 26.4545 80.9387 26.4876 80.9387C26.5206 80.9387 26.5536 80.9387 26.5866 80.9387C26.6196 80.9387 26.6527 80.9387 26.6857 80.9387C26.7187 80.9387 26.7517 80.9387 26.7847 80.9387C26.8178 80.9387 26.8508 80.9387 26.8838 80.9387C26.9168 80.9387 26.9498 80.9387 26.9828 80.9387C27.0159 80.9387 27.0489 80.9387 27.0819 80.9387C27.1149 80.9387 27.1479 80.9387 27.181 80.9387C27.214 80.9387 27.247 80.9387 27.28 80.9387C27.313 80.9387 27.346 80.9387 27.3791 80.9387C27.4121 80.9387 27.4451 80.9387 27.4781 80.9387C27.5111 80.9387 27.5441 80.9387 27.5772 80.9387C27.6102 80.9387 27.6432 80.9387 27.6762 80.9387C27.7092 80.9387 27.7422 80.9387 27.7752 80.9387C27.8083 80.9387 27.8413 80.9387 27.8743 80.9387C27.9073 80.9387 27.9403 80.9387 27.9733 80.9387C28.0064 80.9387 28.0394 80.9387 28.0724 80.9387C28.1054 80.9387 28.1384 80.9387 28.1714 80.9387C28.2044 80.9387 28.2374 80.9387 28.2705 80.9387C28.3035 80.9387 28.3365 80.9387 28.3695 80.9387C28.4025 80.9387 28.4355 80.9387 28.4685 80.9387C28.5016 80.9387 28.5346 80.9387 28.5676 80.9387C28.6006 80.9387 28.6336 80.9387 28.6666 80.9387C28.6996 80.9387 28.7326 80.9387 28.7656 80.9387C28.7987 80.9387 28.8317 80.9387 28.8647 80.9387C28.8977 80.9387 28.9307 80.9387 28.9637 80.9387C28.9967 80.9387 29.0297 80.9387 29.0627 80.9387C29.0958 80.9387 29.1288 80.9387 29.1618 80.9387C29.1948 80.9387 29.2278 80.9387 29.2608 80.9387C29.2938 80.9387 29.3268 80.9387 29.3598 80.9387C29.3928 80.9387 29.4259 80.9387 29.4589 80.9387C29.4919 80.9387 29.5249 80.9387 29.5579 80.9387C29.5909 80.9387 29.6239 80.9387 29.6569 80.9387C29.6899 80.9387 29.7229 80.9387 29.7559 80.9387C29.7889 80.9387 29.822 80.9387 29.855 80.9387C29.888 80.9387 29.921 80.9387 29.954 80.9387C29.987 80.9387 30.02 80.9387 30.053 80.9387C30.086 80.9387 30.119 80.9387 30.152 80.9387C30.185 80.9387 30.218 80.9387 30.251 80.9387C30.284 80.9387 30.3171 80.9387 30.3501 80.9387C30.3831 80.9387 30.4161 80.9387 30.4491 80.9387C30.4821 80.9387 30.5151 80.9387 30.5481 80.9387C30.5811 80.9387 30.6141 80.9387 30.6471 80.9387C30.6801 80.9387 30.7131 80.9387 30.7461 80.9387C30.7791 80.9387 30.8121 80.9387 30.8451 80.9387C30.8781 80.9387 30.9111 80.9387 30.9441 80.9387C30.9772 80.9387 31.0102 80.9387 31.0432 80.9387C31.0762 80.9387 31.1092 80.9387 31.1422 80.9387C31.1752 80.9387 31.2082 80.9387 31.2412 80.9387C31.2742 80.9387 31.3072 80.9387 31.3402 80.9387C31.3732 80.9387 31.4062 80.9387 31.4392 80.9387C31.4722 80.9387 31.5052 80.9387 31.5382 80.9387C31.5712 80.9387 31.6042 80.9387 31.6372 80.9387C31.6702 80.9387 31.7032 80.9387 31.7362 80.9387C31.7692 80.9387 31.8022 80.9387 31.8352 80.9387C31.8682 80.9387 31.9012 80.9387 31.9342 80.9387C31.9672 80.9387 32.0002 80.9387 32.0332 80.9387C32.0662 80.9387 32.0992 80.9387 32.1322 80.9387C32.1652 80.9387 32.1982 80.9387 32.2312 80.9387C32.2642 80.9387 32.2972 80.9387 32.3302 80.9387C32.3632 80.9387 32.3962 80.9387 32.4292 80.9387C32.4622 80.9387 32.4952 80.9387 32.5282 80.9387C32.5612 80.9387 32.5942 80.9387 32.6272 80.9387C32.6602 80.9387 32.6932 80.9387 32.7262 80.9387C32.7592 80.9387 32.7922 80.9387 32.8252 80.9387C32.8582 80.9387 32.8912 80.9387 32.9242 80.9387C32.9572 80.9387 32.9902 80.9387 33.0232 80.9387C33.0562 80.9387 33.0892 80.9387 33.1222 80.9387C33.1552 80.9387 33.1882 80.9387 33.2212 80.9387C33.2542 80.9387 33.2872 80.9387 33.3202 80.9387C33.3532 80.9387 33.3862 80.9387 33.4191 80.9387C33.4521 80.9387 33.4851 80.9387 33.5181 80.9387C33.5511 80.9387 33.5841 80.9387 33.6171 80.9387C33.6501 80.9387 33.6831 80.9387 33.7161 80.9387C33.7491 80.9387 33.7821 80.9387 33.8151 80.9387C33.8481 80.9387 33.8811 80.9387 33.9141 80.9387C33.9471 80.9387 33.9801 80.9387 34.0131 80.9387C34.0461 80.9387 34.0791 80.9387 34.1121 80.9387C34.145 80.9387 34.178 80.9387 34.211 80.9387C34.244 80.9387 34.277 80.9387 34.31 80.9387C34.343 80.9387 34.376 80.9387 34.409 80.9387C34.442 80.9387 34.475 80.9387 34.508 80.9387C34.541 80.9387 34.574 80.9387 34.607 80.9387C34.64 80.9387 34.6729 80.9387 34.7059 80.9387C34.7389 80.9387 34.7719 80.9387 34.8049 80.9387C34.8379 80.9387 34.8709 80.9387 34.9039 80.9387C34.9369 80.9387 34.9699 80.9387 35.0029 80.9387C35.0359 80.9387 35.0689 80.9387 35.1019 80.9387C35.1348 80.9387 35.1678 80.9387 35.2008 80.9387C35.2338 80.9387 35.2668 80.9387 35.2998 80.9387C35.3328 80.9387 35.3658 80.9387 35.3988 80.9387C35.4318 80.9387 35.4648 80.9387 35.4977 80.9387C35.5307 80.9387 35.5637 80.9387 35.5967 80.9387C35.6297 80.9387 35.6627 80.9387 35.6957 80.9387C35.7287 80.9387 35.7617 80.9387 35.7947 80.9387C35.8277 80.9387 35.8606 80.9387 35.8936 80.9387C35.9266 80.9387 35.9596 80.9387 35.9926 80.9387C36.0256 80.9387 36.0586 80.9387 36.0916 80.9387C36.1246 80.9387 36.1576 80.9387 36.1905 80.9387C36.2235 80.9387 36.2565 80.9387 36.2895 80.9387C36.3225 80.9387 36.3555 80.9387 36.3885 80.9387C36.4215 80.9387 36.4545 80.9387 36.4874 80.9387C36.5204 80.9387 36.5534 80.9387 36.5864 80.9387C36.6194 80.9387 36.6524 80.9387 36.6854 80.9387C36.7184 80.9387 36.7514 80.9387 36.7843 80.9387C36.8173 80.9387 36.8503 80.9387 36.8833 80.9387C36.9163 80.9387 36.9493 80.9387 36.9823 80.9387C37.0153 80.9387 37.0482 80.9387 37.0812 80.9387C37.1142 80.9387 37.1472 80.9387 37.1802 80.9387C37.2132 80.9387 37.2462 80.9387 37.2792 80.9387C37.3121 80.9387 37.3451 80.9387 37.3781 80.9387C37.4111 80.9387 37.4441 80.9387 37.4771 80.9387C37.5101 80.9387 37.5431 80.9387 37.576 80.9387C37.609 80.9387 37.642 80.9387 37.675 80.9387C37.708 80.9387 37.741 80.9387 37.774 80.9387C37.8069 80.9387 37.8399 80.9387 37.8729 80.9387C37.9059 80.9387 37.9389 80.9387 37.9719 80.9387C38.0049 80.9387 38.0378 80.9387 38.0708 80.9387C38.1038 80.9387 38.1368 80.9387 38.1698 80.9387C38.2028 80.9387 38.2358 80.9387 38.2687 80.9387C38.3017 80.9387 38.3347 80.9387 38.3677 80.9387C38.4007 80.9387 38.4337 80.9387 38.4667 80.9387C38.4996 80.9387 38.5326 80.9387 38.5656 80.9387C38.5986 80.9387 38.6316 80.9387 38.6646 80.9387C38.6976 80.9387 38.7305 80.9387 38.7635 80.9387C38.7965 80.9387 38.8295 80.9387 38.8625 80.9387C38.8955 80.9387 38.9284 80.9387 38.9614 80.9387C38.9944 80.9387 39.0274 80.9387 39.0604 80.9387C39.0934 80.9387 39.1263 80.9387 39.1593 80.9387C39.1923 80.9387 39.2253 80.9387 39.2583 80.9387C39.2913 80.9387 39.3242 80.9387 39.3572 80.9387C39.3902 80.9387 39.4232 80.9387 39.4562 80.9387C39.4892 80.9387 39.5221 80.9387 39.5551 80.9387C39.5881 80.9387 39.6211 80.9387 39.6541 80.9387C39.6871 80.9387 39.72 80.9387 39.753 80.9387C39.786 80.9387 39.819 80.9387 39.852 80.9387C39.885 80.9387 39.9179 80.9387 39.9509 80.9387C39.9839 80.9387 40.0169 80.9387 40.0499 80.9387C40.0829 80.9387 40.1158 80.9387 40.1488 80.9387C40.1818 80.9387 40.2148 80.9387 40.2478 80.9387C40.2807 80.9387 40.3137 80.9387 40.3467 80.9387C40.3797 80.9387 40.4127 80.9387 40.4457 80.9387C40.4786 80.9387 40.5116 80.9387 40.5446 80.9387C40.5776 80.9387 40.6106 80.9387 40.6435 80.9387C40.6765 80.9387 40.7095 80.9387 40.7425 80.9387C40.7755 80.9387 40.8085 80.9387 40.8414 80.9387C40.8744 80.9387 40.9074 80.9387 40.9404 80.9387C40.9734 80.9387 41.0063 80.9387 41.0393 80.9387C41.0723 80.9387 41.1053 80.9387 41.1383 80.9387C41.1712 80.9387 41.2042 80.9387 41.2372 80.9387C41.2702 80.9387 41.3032 80.9387 41.3362 80.9387C41.3691 80.9387 41.4021 80.9387 41.4351 80.9387C41.4681 80.9387 41.5011 80.9387 41.534 80.9387C41.567 80.9387 41.6 80.9387 41.633 80.9387C41.666 80.9387 41.6989 80.9387 41.7319 80.9387C41.7649 80.9387 41.7979 80.9387 41.8309 80.9387C41.8638 80.9387 41.8968 80.9387 41.9298 80.9387C41.9628 80.9387 41.9958 80.9387 42.0287 80.9387C42.0617 80.9387 42.0947 80.9387 42.1277 80.9387C42.1607 80.9387 42.1936 80.9387 42.2266 80.9387C42.2596 80.9387 42.2926 80.9387 42.3256 80.9387C42.3585 80.9387 42.3915 80.9387 42.4245 80.9387C42.4575 80.9387 42.4905 80.9387 42.5234 80.9387C42.5564 80.9387 42.5894 80.9387 42.6224 80.9387C42.6553 80.9387 42.6883 80.9387 42.7213 80.9387C42.7543 80.9387 42.7873 80.9387 42.8202 80.9387C42.8532 80.9387 42.8862 80.9387 42.9192 80.9387C42.9522 80.9387 42.9851 80.9387 43.0181 80.9387C43.0511 80.9387 43.0841 80.9387 43.1171 80.9387C43.15 80.9387 43.183 80.9387 43.216 80.9387C43.249 80.9387 43.2819 80.9387 43.3149 80.9387C43.3479 80.9387 43.3809 80.9387 43.4139 80.9387C43.4468 80.9387 43.4798 80.9387 43.5128 80.9387C43.5458 80.9387 43.5788 80.9387 43.6117 80.9387C43.6447 80.9387 43.6777 80.9387 43.7107 80.9387C43.7436 80.9387 43.7766 80.9387 43.8096 80.9387C43.8426 80.9387 43.8756 80.9387 43.9085 80.9387C43.9415 80.9387 43.9745 80.9387 44.0075 80.9387C44.0405 80.9387 44.0734 80.9387 44.1064 80.9387C44.1394 80.9387 44.1724 80.9387 44.2053 80.9387C44.2383 80.9387 44.2713 80.9387 44.3043 80.9387C44.3373 80.9387 44.3702 80.9387 44.4032 80.9387C44.4362 80.9387 44.4692 80.9387 44.5021 80.9387C44.5351 80.9387 44.5681 80.9387 44.6011 80.9387C44.6341 80.9387 44.667 80.9387 44.7 80.9387C44.733 80.9387 44.766 80.9387 44.7989 80.9387C44.8319 80.9387 44.8649 80.9387 44.8979 80.9387C44.9309 80.9387 44.9638 80.9387 44.9968 80.9387C45.0298 80.9387 45.0628 80.9387 45.0957 80.9387C45.1287 80.9387 45.1617 80.9387 45.1947 80.9387C45.2277 80.9387 45.2606 80.9387 45.2936 80.9387C45.3266 80.9387 45.3596 80.9387 45.3925 80.9387C45.4255 80.9387 45.4585 80.9387 45.4915 80.9387C45.5245 80.9387 45.5574 80.9387 45.5904 80.9387C45.6234 80.9387 45.6564 80.9387 45.6893 80.9387C45.7223 80.9387 45.7553 80.9387 45.7883 80.9387C45.8212 80.9387 45.8542 80.9387 45.8872 80.9387C45.9202 80.9387 45.9532 80.9387 45.9861 80.9387C46.0191 80.9387 46.0521 80.9387 46.0851 80.9387C46.118 80.9387 46.151 80.9387 46.184 80.9387C46.217 80.9387 46.25 80.9387 46.2829 80.9387C46.3159 80.9387 46.3489 80.9387 46.3819 80.9387C46.4148 80.9387 46.4478 80.9387 46.4808 80.9387C46.5138 80.9387 46.5467 80.9387 46.5797 80.9387C46.6127 80.9387 46.6457 80.9387 46.6787 80.9387C46.7116 80.9387 46.7446 80.9387 46.7776 80.9387C46.8106 80.9387 46.8435 80.9387 46.8765 80.9387C46.9095 80.9387 46.9425 80.9387 46.9754 80.9387C47.0084 80.9387 47.0414 80.9387 47.0744 80.9387C47.1074 80.9387 47.1403 80.9387 47.1733 80.9387C47.2063 80.9387 47.2393 80.9387 47.2722 80.9387C47.3052 80.9387 47.3382 80.9387 47.3712 80.9387C47.4042 80.9387 47.4371 80.9387 47.4701 80.9387C47.5031 80.9387 47.5361 80.9387 47.569 80.9387C47.602 80.9387 47.635 80.9387 47.668 80.9387C47.7009 80.9387 47.7339 80.9387 47.7669 80.9387C47.7999 80.9387 47.8329 80.9387 47.8658 80.9387C47.8988 80.9387 47.9318 80.9387 47.9648 80.9387C47.9977 80.9387 48.0307 80.9387 48.0637 80.9387C48.0967 80.9387 48.1296 80.9387 48.1626 80.9387C48.1956 80.9387 48.2286 80.9387 48.2616 80.9387C48.2945 80.9387 48.3275 80.9387 48.3605 80.9387C48.3935 80.9387 48.4264 80.9387 48.4594 80.9387C48.4924 80.9387 48.5254 80.9387 48.5583 80.9387C48.5913 80.9387 48.6243 80.9387 48.6573 80.9387C48.6903 80.9387 48.7232 80.9387 48.7562 80.9387C48.7892 80.9387 48.8222 80.9387 48.8551 80.9387C48.8881 80.9387 48.9211 80.9387 48.9541 80.9387C48.9871 80.9387 49.02 80.9387 49.053 80.9387C49.086 80.9387 49.119 80.9387 49.1519 80.9387C49.1849 80.9387 49.2179 80.9387 49.2509 80.9387C49.2838 80.9387 49.3168 80.9387 49.3498 80.9387C49.3828 80.9387 49.4158 80.9387 49.4487 80.9387C49.4817 80.9387 49.5147 80.9387 49.5477 80.9387C49.5806 80.9387 49.6136 80.9387 49.6466 80.9387C49.6796 80.9387 49.7126 80.9387 49.7455 80.9387C49.7785 80.9387 49.8115 80.9387 49.8445 80.9387C49.8774 80.9387 49.9104 80.9387 49.9434 80.9387C49.9764 80.9387 50.0094 80.9387 50.0423 80.9387C50.0753 80.9387 50.1083 80.9387 50.1413 80.9387C50.1742 80.9387 50.2072 80.9387 50.2402 80.9387C50.2732 80.9387 50.3062 80.9387 50.3391 80.9387C50.3721 80.9387 50.4051 80.9387 50.4381 80.9387C50.471 80.9387 50.504 80.9387 50.537 80.9387C50.57 80.9387 50.603 80.9387 50.6359 80.9387C50.6689 80.9387 50.7019 80.9387 50.7349 80.9387C50.7678 80.9387 50.8008 80.9387 50.8338 80.9387C50.8668 80.9387 50.8998 80.9387 50.9327 80.9387C50.9657 80.9387 50.9987 80.9387 51.0317 80.9387C51.0647 80.9387 51.0976 80.9387 51.1306 80.9387C51.1636 80.9387 51.1966 80.9387 51.2295 80.9387C51.2625 80.9387 51.2955 80.9387 51.3285 80.9387C51.3615 80.9387 51.3944 80.9387 51.4274 80.9387C51.4604 80.9387 51.4934 80.9387 51.5264 80.9387C51.5593 80.9387 51.5923 80.9387 51.6253 80.9387C51.6583 80.9387 51.6912 80.9387 51.7242 80.9387C51.7572 80.9387 51.7902 80.9387 51.8232 80.9387C51.8561 80.9387 51.8891 80.9387 51.9221 80.9387C51.9551 80.9387 51.9881 80.9387 52.021 80.9387C52.054 80.9387 52.087 80.9387 52.12 80.9387C52.153 80.9387 52.1859 80.9387 52.2189 80.9387C52.2519 80.9387 52.2849 80.9387 52.3179 80.9387C52.3508 80.9387 52.3838 80.9387 52.4168 80.9387C52.4498 80.9387 52.4828 80.9387 52.5157 80.9387C52.5487 80.9387 52.5817 80.9387 52.6147 80.9387C52.6476 80.9387 52.6806 80.9387 52.7136 80.9387C52.7466 80.9387 52.7796 80.9387 52.8125 80.9387C52.8455 80.9387 52.8785 80.9387 52.9115 80.9387C52.9445 80.9387 52.9774 80.9387 53.0104 80.9387C53.0434 80.9387 53.0764 80.9387 53.1094 80.9387C53.1424 80.9387 53.1753 80.9387 53.2083 80.9387C53.2413 80.9387 53.2743 80.9387 53.3073 80.9387C53.3402 80.9387 53.3732 80.9387 53.4062 80.9387C53.4392 80.9387 53.4722 80.9387 53.5051 80.9387C53.5381 80.9387 53.5711 80.9387 53.6041 80.9387C53.6371 80.9387 53.67 80.9387 53.703 80.9387C53.736 80.9387 53.769 80.9387 53.802 80.9387C53.8349 80.9387 53.8679 80.9387 53.9009 80.9387C53.9339 80.9387 53.9669 80.9387 53.9999 80.9387C54.0328 80.9387 54.0658 80.9387 54.0988 80.9387C54.1318 80.9387 54.1648 80.9387 54.1977 80.9387C54.2307 80.9387 54.2637 80.9387 54.2967 80.9387C54.3297 80.9387 54.3627 80.9387 54.3956 80.9387C54.4286 80.9387 54.4616 80.9387 54.4946 80.9387C54.5276 80.9387 54.5605 80.9387 54.5935 80.9387C54.6265 80.9387 54.6595 80.9387 54.6925 80.9387C54.7255 80.9387 54.7584 80.9387 54.7914 80.9387C54.8244 80.9387 54.8574 80.9387 54.8904 80.9387C54.9234 80.9387 54.9563 80.9387 54.9893 80.9387C55.0223 80.9387 55.0553 80.9387 55.0883 80.9387C55.1212 80.9387 55.1542 80.9387 55.1872 80.9387C55.2202 80.9387 55.2532 80.9387 55.2862 80.9387C55.3191 80.9387 55.3521 80.9387 55.3851 80.9387C55.4181 80.9387 55.4511 80.9387 55.4841 80.9387C55.517 80.9387 55.55 80.9387 55.583 80.9387C55.616 80.9387 55.649 80.9387 55.682 80.9387C55.715 80.9387 55.7479 80.9387 55.7809 80.9387C55.8139 80.9387 55.8469 80.9387 55.8799 80.9387C55.9129 80.9387 55.9458 80.9387 55.9788 80.9387C56.0118 80.9387 56.0448 80.9387 56.0778 80.9387C56.1108 80.9387 56.1437 80.9387 56.1767 80.9387C56.2097 80.9387 56.2427 80.9387 56.2757 80.9387C56.3087 80.9387 56.3417 80.9387 56.3746 80.9387C56.4076 80.9387 56.4406 80.9387 56.4736 80.9387C56.5066 80.9387 56.5396 80.9387 56.5726 80.9387C56.6055 80.9387 56.6385 80.9387 56.6715 80.9387C56.7045 80.9387 56.7375 80.9387 56.7705 80.9387C56.8035 80.9387 56.8364 80.9387 56.8694 80.9387C56.9024 80.9387 56.9354 80.9387 56.9684 80.9387C57.0014 80.9387 57.0344 80.9387 57.0673 80.9387C57.1003 80.9387 57.1333 80.9387 57.1663 80.9387C57.1993 80.9387 57.2323 80.9387 57.2653 80.9387C57.2982 80.9387 57.3312 80.9387 57.3642 80.9387C57.3972 80.9387 57.4302 80.9387 57.4632 80.9387C57.4962 80.9387 57.5292 80.9387 57.5621 80.9387C57.5951 80.9387 57.6281 80.9387 57.6611 80.9387C57.6941 80.9387 57.7271 80.9387 57.7601 80.9387C57.7931 80.9387 57.826 80.9387 57.859 80.9387C57.892 80.9387 57.925 80.9387 57.958 80.9387C57.991 80.9387 58.024 80.9387 58.057 80.9387C58.09 80.9387 58.1229 80.9387 58.1559 80.9387C58.1889 80.9387 58.2219 80.9387 58.2549 80.9387C58.2879 80.9387 58.3209 80.9387 58.3539 80.9387C58.3869 80.9387 58.4198 80.9387 58.4528 80.9387C58.4858 80.9387 58.5188 80.9387 58.5518 80.9387C58.5848 80.9387 58.6178 80.9387 58.6508 80.9387C58.6838 80.9387 58.7167 80.9387 58.7497 80.9387C58.7827 80.9387 58.8157 80.9387 58.8487 80.9387C58.8817 80.9387 58.9147 80.9387 58.9477 80.9387C58.9807 80.9387 59.0137 80.9387 59.0466 80.9387C59.0796 80.9387 59.1126 80.9387 59.1456 80.9387C59.1786 80.9387 59.2116 80.9387 59.2446 80.9387C59.2776 80.9387 59.3106 80.9387 59.3436 80.9387C59.3766 80.9387 59.4095 80.9387 59.4425 80.9387C59.4755 80.9387 59.5085 80.9387 59.5415 80.9387C59.5745 80.9387 59.6075 80.9387 59.6405 80.9387C59.6735 80.9387 59.7065 80.9387 59.7395 80.9387C59.7725 80.9387 59.8055 80.9387 59.8384 80.9387C59.8714 80.9387 59.9044 80.9387 59.9374 80.9387C59.9704 80.9387 60.0034 80.9387 60.0364 80.9387V76.9387ZM11.2113 79.6078C11.2998 79.3585 11.3748 79.1106 11.4205 78.9664C11.4735 78.7994 11.5035 78.7171 11.53 78.6576L7.87383 77.035C7.75339 77.3064 7.66915 77.5635 7.60791 77.7565C7.53942 77.9723 7.50018 78.1051 7.44176 78.2696L11.2113 79.6078ZM11.5103 78.7006C13.0213 75.502 13.2279 72.183 12.9855 69.0052L8.99709 69.3094C9.21171 72.123 8.99388 74.6628 7.89354 76.992L11.5103 78.7006ZM12.9844 68.9908C12.7434 66.1068 12.5415 63.0968 12.1409 60.1341L8.17694 60.6701C8.55965 63.5 8.74965 66.349 8.99825 69.3239L12.9844 68.9908ZM12.1407 60.1326C11.6767 56.7215 11.0097 53.3175 10.4313 50.0263L6.4917 50.7187C7.08841 54.1139 7.72714 57.3631 8.17715 60.6716L12.1407 60.1326ZM10.4312 50.0257C10.2579 49.0414 10.2002 48.3796 10.0159 47.2332C9.85666 46.2426 9.63309 45.1511 9.20975 44.088L5.49359 45.568C5.75574 46.2262 5.92388 46.9801 6.06659 47.868C6.18427 48.6001 6.33872 49.85 6.49181 50.7193L10.4312 50.0257ZM9.20955 44.0875C8.65456 42.695 8.34344 41.2233 8.08358 39.6161C7.83532 38.0806 7.61504 36.2622 7.25085 34.5617L3.33955 35.3993C3.67717 36.9758 3.8486 38.484 4.13486 40.2545C4.40952 41.9533 4.77573 43.7668 5.49379 45.5685L9.20955 44.0875ZM7.25102 34.5625C6.54348 31.2522 6.0715 27.9474 5.47054 24.4772L1.5292 25.1598C2.10336 28.4752 2.61066 31.9892 3.33938 35.3985L7.25102 34.5625ZM5.47038 24.4763C4.5595 19.2311 3.67409 13.9612 2.74371 8.69769L-1.19523 9.39393C-0.265012 14.6566 0.612259 19.8797 1.52936 25.1607L5.47038 24.4763ZM2.74393 8.69896C2.73723 8.66093 2.79348 8.92695 2.64503 9.27821C2.50598 9.60722 2.29567 9.74437 2.37238 9.6851L-0.0731418 6.51976C-0.339169 6.72529 -0.777981 7.10242 -1.03943 7.72106C-1.31029 8.36196 -1.27037 8.96727 -1.19546 9.39266L2.74393 8.69896ZM2.34828 9.70344C3.73704 8.66368 5.32262 8.14203 7.14793 8.02984L6.90255 4.03738C4.41908 4.19001 2.05494 4.9262 -0.0490375 6.50142L2.34828 9.70344ZM7.15374 8.02948C8.15159 7.96523 9.09167 7.95638 10.1964 7.91424C11.2528 7.87393 12.3827 7.80389 13.5195 7.60708L12.8371 3.66572C11.9664 3.81647 11.048 3.87884 10.0439 3.91714C9.08806 3.95361 7.95536 3.96959 6.89674 4.03774L7.15374 8.02948ZM13.5208 7.60685C16.701 7.05401 19.6363 5.74936 22.2525 3.89045L19.9357 0.629734C17.7535 2.18024 15.368 3.22575 12.8358 3.66595L13.5208 7.60685ZM22.2597 3.8853C22.7895 3.50532 23.2033 3.05406 23.5029 2.7128C23.8496 2.31794 24.0275 2.09407 24.2615 1.86324L21.4521 -0.984165C21.0822 -0.61917 20.7134 -0.172749 20.497 0.0737196C20.2335 0.373794 20.0679 0.534898 19.9285 0.634878L22.2597 3.8853ZM24.2235 1.89975C24.2111 1.91134 24.2025 1.91901 24.1737 1.93425C24.1561 1.94357 24.1112 1.96594 24.0392 1.98809C23.9706 2.00918 23.8379 2.04232 23.6565 2.04232V-1.95768C23.0655 -1.95768 22.5835 -1.74979 22.303 -1.60135C21.9926 -1.43715 21.7147 -1.23087 21.4901 -1.02067L24.2235 1.89975ZM23.661 2.04231C30.9536 2.02577 38.2298 2.02577 45.5224 2.04231L45.5314 -1.95767C38.2328 -1.97423 30.9506 -1.97423 23.652 -1.95767L23.661 2.04231ZM45.5269 2.04232C45.3894 2.04232 45.2898 2.02184 45.2353 2.00773C45.1768 1.99258 45.1305 1.97446 45.0927 1.95638C45.0551 1.93842 45.0072 1.91157 44.9515 1.86956C44.8989 1.82989 44.8102 1.75475 44.7168 1.63165L47.9038 -0.785682C47.5718 -1.22335 47.1476 -1.49483 46.8179 -1.65245C46.4856 -1.81133 46.0333 -1.95768 45.5269 -1.95768V2.04232ZM44.677 1.57727C46.4359 4.06612 49.0331 5.2328 51.057 6.16279L52.7272 2.52813C50.5729 1.53826 48.9919 0.751977 47.9436 -0.731299L44.677 1.57727ZM51.0626 6.16533C54.6887 7.81813 58.4475 8.1362 62.0844 8.0328L61.9708 4.03442C58.6223 4.12962 55.5587 3.81877 52.7216 2.52559L51.0626 6.16533ZM62.085 8.03279C63.3482 7.99653 64.6278 8.39152 65.9744 9.11789L67.8734 5.59741C66.1518 4.66874 64.167 3.97139 61.9702 4.03443L62.085 8.03279ZM65.9932 9.12788C65.9158 9.08723 65.6363 8.90653 65.4796 8.50947C65.3475 8.17461 65.4092 7.93901 65.3949 8.02041L69.3343 8.71407C69.4016 8.33205 69.4633 7.70751 69.2006 7.04164C68.9134 6.31356 68.3726 5.85978 67.8546 5.58742L65.9932 9.12788ZM65.3855 8.07901C64.2426 15.9263 63.1162 23.7733 61.9901 31.6179L65.9495 32.1863C67.0758 24.3409 68.2016 16.4981 69.3437 8.65547L65.3855 8.07901ZM61.9907 31.6136C61.4304 35.4575 60.9314 39.2326 60.3297 43.0251L64.2803 43.6519C64.8864 39.8312 65.3994 35.9599 65.9489 32.1906L61.9907 31.6136ZM60.3315 43.0142C60.2487 43.5181 60.1015 44.032 59.912 44.6718C59.7341 45.2725 59.511 46.0087 59.3735 46.7756L63.3107 47.4816C63.4017 46.9741 63.554 46.4607 63.7474 45.8077C63.9292 45.1937 64.1492 44.4498 64.2785 43.6628L60.3315 43.0142ZM59.3736 46.775C58.5765 51.2124 57.7526 55.6898 57.1098 60.2028L61.0698 60.7668C61.7 56.3426 62.5083 51.9488 63.3106 47.4822L59.3736 46.775ZM57.1099 60.2017C56.6272 63.5778 56.3116 66.9997 56.1455 70.4003L60.1407 70.5955C60.3012 67.3097 60.6058 64.012 61.0697 60.7679L57.1099 60.2017ZM56.1454 70.4013C56.0031 73.343 56.4051 76.4102 57.9952 79.2661L61.49 77.3203C60.3709 75.3104 60.0221 73.0482 60.1408 70.5945L56.1454 70.4013ZM58.0715 79.3921C58.0485 79.357 58.0484 79.348 58.0692 79.3966C58.0789 79.4194 58.0909 79.4492 58.1075 79.4923C58.1274 79.5442 58.1391 79.5761 58.1663 79.6478L61.9065 78.2296C61.8571 78.0995 61.6937 77.6202 61.4137 77.1943L58.0715 79.3921Z" fill="#7A76E4" mask="url(#path-1-inside-1_3025_26)"/>
</svg>
