<svg width="35" height="201" viewBox="0 0 35 201" fill="none" xmlns="http://www.w3.org/2000/svg">
<mask id="path-1-inside-1_3025_8" fill="white">
<path d="M20.1768 198.205C19.834 199.463 19.2954 199.761 18.0387 199.397C17.9408 199.612 17.8755 199.893 17.7123 200.026C17.3532 200.291 16.9615 200.605 16.5372 200.638C16.325 200.655 15.9496 200.191 15.8353 199.877C15.6068 199.182 15.4763 198.454 15.3457 197.725C15.2478 197.163 15.2641 197.163 14.6602 197.179C14.8234 197.974 15.003 198.751 15.1335 199.546C15.2315 200.191 14.8561 200.539 14.2685 200.721C12.4895 201.267 10.4004 199.827 10.1229 197.874C9.91072 196.418 9.58429 194.978 9.48637 193.505C9.37212 192.032 9.27419 190.509 9.53533 189.086C10.074 186.09 9.74751 183.128 9.73118 180.149C9.71486 177.865 8.94777 175.763 8.47445 173.578C8.31124 172.817 8.57238 171.973 8.63766 171.178C8.78455 169.639 8.91512 168.083 9.1273 166.544C9.37212 164.707 9.82912 162.886 9.95968 161.033C10.1229 158.65 10.0903 156.25 10.0413 153.866C10.0087 152.162 9.79647 150.474 9.63326 148.785C9.38844 146.237 9.15994 143.704 8.88248 141.156C8.67031 139.252 8.40917 137.349 8.16436 135.446C7.93586 133.708 7.67472 131.987 7.47886 130.249C7.25037 128.213 6.90763 126.161 6.89131 124.109C6.87499 120.947 6.98923 117.77 7.21773 114.609C7.39726 111.96 7.87058 109.329 8.11539 106.681C8.47446 102.907 9.02938 99.1173 8.62135 95.3272C8.45813 93.788 7.91954 92.2984 7.64208 90.7758C7.41358 89.5676 7.23404 88.3429 7.2014 87.1181C7.10348 82.9805 7.02187 78.8429 7.03819 74.7218C7.03819 69.0946 7.26669 63.4674 7.1198 57.8568C7.00555 53.9178 6.53224 49.9787 6.0426 46.0563C5.504 41.7531 4.73691 37.4666 4.11671 33.1634C3.92085 31.8063 3.95349 30.416 3.74131 29.0589C3.65971 28.5127 3.23536 27.9997 2.89262 27.5362C2.25609 26.6922 1.55428 25.8977 0.819824 25.004C11.5592 16.7122 22.2006 8.48659 32.9563 0.178223C33.1847 2.34634 33.4132 4.41515 33.6254 6.48397C33.8539 8.65209 34.0661 10.8202 34.2619 12.9883C34.3599 14.0807 34.4088 15.173 34.4252 16.2653C34.4904 20.3202 34.6373 24.3585 34.5557 28.4134C34.5068 30.7967 34.0824 33.18 33.7886 35.5467C33.4785 38.0458 33.1195 40.5284 32.7604 43.011C32.3524 45.9073 31.8954 48.8037 31.52 51.7166C31.1936 54.1329 30.9324 56.5659 30.655 58.9988C30.3285 61.7793 30.0184 64.5598 29.7247 67.3403C29.4635 69.889 29.235 72.4378 29.0065 74.9866C28.7617 77.8002 28.5169 80.6303 28.3047 83.4605C28.1252 85.7941 27.962 88.1277 27.8641 90.4613C27.7498 93.1591 27.6192 95.8568 27.6519 98.5545C27.6845 101.798 27.9293 105.042 27.9783 108.286C28.0109 110.603 27.962 112.92 27.7824 115.221C27.5866 117.737 27.2275 120.236 26.8521 122.735C26.4931 125.151 26.0524 127.551 25.6281 129.951C24.861 134.171 24.0939 138.408 23.2778 142.612C22.6413 145.922 21.9068 149.232 21.254 152.542C20.6991 155.389 19.8177 158.17 19.8504 161.116C19.8667 162.009 20.0952 162.903 20.1278 163.813C20.1768 165.452 20.3237 167.123 20.0952 168.729C19.834 170.599 19.932 172.42 20.2584 174.207C20.7643 176.987 21.4988 179.735 22.0211 182.515C22.6576 185.958 23.1962 189.4 23.7511 192.859C23.849 193.472 23.8164 194.134 23.7348 194.763C23.6369 195.574 23.441 196.401 22.4454 196.633C22.2822 196.666 22.1516 196.947 22.07 197.146C21.6946 198.222 21.2377 198.503 20.1768 198.205Z"/>
</mask>
<path d="M20.1768 198.205L20.7176 196.28L18.7771 195.734L18.2471 197.679L20.1768 198.205ZM18.0387 199.397L18.5951 197.476L16.9348 196.995L16.2185 198.568L18.0387 199.397ZM17.7123 200.026L18.8998 201.635L18.9385 201.607L18.9757 201.576L17.7123 200.026ZM16.5372 200.638L16.3821 198.644L16.3774 198.644L16.5372 200.638ZM15.8353 199.877L13.9353 200.502L13.9451 200.532L13.9559 200.561L15.8353 199.877ZM15.3457 197.725L13.3753 198.068L13.377 198.078L15.3457 197.725ZM14.6602 197.179L14.6072 195.18L12.221 195.243L12.701 197.581L14.6602 197.179ZM15.1335 199.546L17.1108 199.246L17.109 199.234L17.107 199.222L15.1335 199.546ZM14.2685 200.721L14.8553 202.633L14.8602 202.631L14.2685 200.721ZM10.1229 197.874L12.103 197.593L12.102 197.586L10.1229 197.874ZM9.48637 193.505L11.482 193.372L11.4812 193.361L11.4804 193.35L9.48637 193.505ZM9.53533 189.086L11.5025 189.447L11.5038 189.44L9.53533 189.086ZM9.73118 180.149L11.7311 180.138L11.7311 180.135L9.73118 180.149ZM8.47445 173.578L6.51891 173.997L6.51978 174.001L8.47445 173.578ZM8.63766 171.178L6.6467 170.988L6.64545 171.001L6.64437 171.014L8.63766 171.178ZM9.1273 166.544L11.1086 166.817L11.1098 166.808L9.1273 166.544ZM9.95968 161.033L11.9547 161.174L11.955 161.17L9.95968 161.033ZM10.0413 153.866L8.04162 153.904L8.04168 153.907L10.0413 153.866ZM9.63326 148.785L7.64242 148.976L7.64253 148.977L9.63326 148.785ZM8.88248 141.156L10.8707 140.939L10.8702 140.935L8.88248 141.156ZM8.16436 135.446L10.148 135.191L10.1473 135.185L8.16436 135.446ZM7.47886 130.249L5.49133 130.472L5.49144 130.473L7.47886 130.249ZM6.89131 124.109L4.89133 124.119L4.89137 124.125L6.89131 124.109ZM7.21773 114.609L9.21254 114.753L9.21315 114.744L7.21773 114.609ZM8.11539 106.681L6.12437 106.492L6.12388 106.497L8.11539 106.681ZM8.62135 95.3272L6.63249 95.5381L6.63284 95.5413L8.62135 95.3272ZM7.64208 90.7758L9.60972 90.4172L9.60724 90.4041L7.64208 90.7758ZM7.2014 87.1181L5.20195 87.1654L5.20211 87.1714L7.2014 87.1181ZM7.03819 74.7218L9.03819 74.7297V74.7218H7.03819ZM7.1198 57.8568L9.11912 57.8045L9.11896 57.7988L7.1198 57.8568ZM6.0426 46.0563L8.02719 45.8086L8.02711 45.8079L6.0426 46.0563ZM4.11671 33.1634L6.09625 32.8781L6.0962 32.8777L4.11671 33.1634ZM3.74131 29.0589L1.76321 29.3544L1.76531 29.3678L3.74131 29.0589ZM2.89262 27.5362L4.50071 26.3471L4.4951 26.3395L4.4894 26.3319L2.89262 27.5362ZM0.819824 25.004L-0.402445 23.4209L-2.03438 24.681L-0.725339 26.2738L0.819824 25.004ZM32.9563 0.178223L34.9453 -0.0313077L34.5698 -3.59538L31.7336 -1.40455L32.9563 0.178223ZM33.6254 6.48397L31.6358 6.68804L31.6364 6.69359L33.6254 6.48397ZM34.2619 12.9883L36.2539 12.8096L36.2537 12.8084L34.2619 12.9883ZM34.4252 16.2653L32.4254 16.2953L32.4254 16.2975L34.4252 16.2653ZM34.5557 28.4134L36.5552 28.4544L36.5553 28.4536L34.5557 28.4134ZM33.7886 35.5467L31.8038 35.3003L31.8038 35.3004L33.7886 35.5467ZM32.7604 43.011L30.7809 42.7247L30.7799 42.732L32.7604 43.011ZM31.52 51.7166L33.502 51.9843L33.5036 51.9722L31.52 51.7166ZM30.655 58.9988L32.6413 59.232L32.6421 59.2254L30.655 58.9988ZM29.7247 67.3403L27.7357 67.1302L27.7351 67.1364L29.7247 67.3403ZM29.0065 74.9866L27.0144 74.808L27.014 74.8132L29.0065 74.9866ZM28.3047 83.4605L30.2988 83.6139L30.2991 83.61L28.3047 83.4605ZM27.8641 90.4613L29.8623 90.546L29.8623 90.5451L27.8641 90.4613ZM27.6519 98.5545L29.6518 98.5344L29.6517 98.5303L27.6519 98.5545ZM27.9783 108.286L29.9781 108.258L29.978 108.256L27.9783 108.286ZM27.7824 115.221L25.7884 115.065L25.7884 115.066L27.7824 115.221ZM26.8521 122.735L24.8742 122.438L24.8738 122.441L26.8521 122.735ZM25.6281 129.951L27.5958 130.309L27.5975 130.299L25.6281 129.951ZM23.2778 142.612L21.3144 142.231L21.3137 142.234L23.2778 142.612ZM21.254 152.542L19.2917 152.155L19.2909 152.159L21.254 152.542ZM19.8504 161.116L17.8505 161.138L17.8506 161.145L17.8507 161.152L19.8504 161.116ZM20.1278 163.813L22.1269 163.753L22.1265 163.741L20.1278 163.813ZM20.0952 168.729L18.1151 168.447L18.1144 168.452L20.0952 168.729ZM20.2584 174.207L22.226 173.849L22.2258 173.848L20.2584 174.207ZM22.0211 182.515L23.9877 182.151L23.9867 182.146L22.0211 182.515ZM23.7511 192.859L25.726 192.544L25.7258 192.542L23.7511 192.859ZM23.7348 194.763L21.7514 194.506L21.7502 194.514L21.7492 194.523L23.7348 194.763ZM22.4454 196.633L22.8417 198.593L22.8706 198.587L22.8992 198.581L22.4454 196.633ZM22.07 197.146L20.2195 196.387L20.1992 196.437L20.1816 196.487L22.07 197.146ZM18.2471 197.679C18.2186 197.784 18.194 197.856 18.1754 197.904C18.1566 197.952 18.1482 197.964 18.1554 197.952C18.1747 197.919 18.2706 197.777 18.4777 197.662C18.684 197.547 18.8528 197.541 18.8856 197.541C18.8977 197.542 18.8814 197.542 18.8289 197.533C18.7768 197.524 18.7006 197.507 18.5951 197.476L17.4822 201.318C18.2127 201.53 19.3489 201.755 20.4232 201.157C21.5023 200.556 21.9057 199.468 22.1064 198.731L18.2471 197.679ZM16.2185 198.568C16.1901 198.631 16.1663 198.688 16.1477 198.734C16.1294 198.779 16.113 198.822 16.1013 198.853C16.0879 198.888 16.0808 198.906 16.0731 198.926C16.0698 198.935 16.0673 198.941 16.0656 198.945C16.0647 198.947 16.064 198.949 16.0636 198.95C16.0631 198.951 16.0629 198.952 16.0629 198.952C16.0629 198.951 16.0632 198.951 16.0637 198.95C16.0642 198.949 16.065 198.947 16.0661 198.944C16.0682 198.94 16.0717 198.933 16.0765 198.923C16.0858 198.905 16.1026 198.873 16.1278 198.833C16.1754 198.758 16.2756 198.617 16.4488 198.476L18.9757 201.576C19.4534 201.187 19.666 200.698 19.737 200.533C19.7815 200.43 19.8208 200.325 19.8373 200.282C19.8611 200.22 19.8634 200.216 19.8588 200.226L16.2185 198.568ZM16.5247 198.417C16.4798 198.45 16.4215 198.493 16.3854 198.52C16.3428 198.552 16.3063 198.578 16.2722 198.603C16.2026 198.653 16.1593 198.681 16.1316 198.697C16.1039 198.714 16.1113 198.706 16.1475 198.693C16.1857 198.679 16.2668 198.653 16.3821 198.644L16.6922 202.632C17.3366 202.582 17.8465 202.33 18.1667 202.141C18.4752 201.958 18.773 201.729 18.8998 201.635L16.5247 198.417ZM16.3774 198.644C16.7295 198.616 17.0044 198.694 17.1597 198.753C17.3194 198.813 17.4303 198.883 17.4884 198.923C17.5506 198.966 17.5916 199.002 17.6121 199.021C17.6339 199.041 17.6466 199.055 17.6513 199.061C17.6589 199.069 17.6591 199.07 17.6596 199.071C17.6608 199.073 17.6659 199.081 17.6739 199.097C17.6813 199.112 17.6968 199.144 17.7146 199.193L13.9559 200.561C14.1183 201.007 14.3925 201.412 14.6476 201.702C14.782 201.855 14.9738 202.048 15.2197 202.218C15.3975 202.34 15.9419 202.692 16.6969 202.632L16.3774 198.644ZM17.7352 199.252C17.558 198.714 17.4493 198.126 17.3143 197.372L13.377 198.078C13.5032 198.782 13.6555 199.65 13.9353 200.502L17.7352 199.252ZM17.316 197.382C17.3022 197.302 17.2649 197.067 17.2105 196.87C17.1537 196.663 16.9862 196.117 16.457 195.686C15.9346 195.259 15.3727 195.201 15.1616 195.184C14.9486 195.168 14.7122 195.177 14.6072 195.18L14.7131 199.178C14.91 199.173 14.8981 199.176 14.8549 199.173C14.8137 199.169 14.367 199.143 13.9283 198.785C13.4828 198.421 13.3673 197.98 13.3538 197.931C13.3428 197.891 13.3402 197.867 13.3753 198.068L17.316 197.382ZM12.701 197.581C12.8774 198.44 13.0379 199.127 13.1599 199.87L17.107 199.222C16.968 198.375 16.7693 197.508 16.6193 196.777L12.701 197.581ZM13.1561 199.846C13.148 199.793 13.1386 199.67 13.1786 199.505C13.2202 199.333 13.3016 199.174 13.4073 199.044C13.6001 198.807 13.7785 198.779 13.6767 198.811L14.8602 202.631C15.346 202.481 16.0059 202.188 16.5088 201.57C17.071 200.88 17.2317 200.041 17.1108 199.246L13.1561 199.846ZM13.6816 198.809C13.4901 198.868 13.1497 198.851 12.7658 198.587C12.3858 198.325 12.1531 197.945 12.103 197.593L8.14274 198.155C8.37016 199.756 9.32072 201.072 10.4994 201.883C11.6742 202.69 13.2678 203.12 14.8553 202.633L13.6816 198.809ZM12.102 197.586C11.8578 195.91 11.5738 194.754 11.482 193.372L7.49077 193.638C7.59475 195.202 7.96361 196.926 8.14375 198.162L12.102 197.586ZM11.4804 193.35C11.3641 191.851 11.295 190.578 11.5025 189.447L7.56818 188.725C7.25337 190.44 7.38017 192.213 7.49236 193.66L11.4804 193.35ZM11.5038 189.44C12.0857 186.203 11.746 182.842 11.7311 180.138L7.73121 180.16C7.74904 183.414 8.06221 185.977 7.56688 188.732L11.5038 189.44ZM11.7311 180.135C11.7214 178.778 11.4889 177.516 11.2219 176.372C10.9183 175.071 10.6788 174.307 10.4291 173.155L6.51978 174.001C6.74343 175.034 7.12407 176.413 7.32651 177.281C7.56538 178.305 7.7246 179.236 7.73123 180.163L11.7311 180.135ZM10.43 173.159C10.4218 173.121 10.4084 172.995 10.4535 172.65C10.4794 172.452 10.5953 171.776 10.6309 171.342L6.64437 171.014C6.61476 171.375 6.56747 171.518 6.48726 172.131C6.42629 172.597 6.36386 173.274 6.51891 173.997L10.43 173.159ZM10.6286 171.368C10.7786 169.797 10.9038 168.302 11.1086 166.817L7.14604 166.271C6.92643 167.864 6.79054 169.481 6.6467 170.988L10.6286 171.368ZM11.1098 166.808C11.2249 165.944 11.3877 165.099 11.5561 164.141C11.7194 163.213 11.8818 162.209 11.9547 161.174L7.96462 160.892C7.90702 161.71 7.77566 162.543 7.61656 163.448C7.46266 164.323 7.2745 165.307 7.14482 166.28L11.1098 166.808ZM11.955 161.17C12.1249 158.688 12.0898 156.207 12.0408 153.825L8.04168 153.907C8.09071 156.293 8.12078 158.612 7.96435 160.896L11.955 161.17ZM12.0409 153.828C12.0063 152.022 11.7798 150.205 11.624 148.593L7.64253 148.977C7.81318 150.743 8.01098 152.302 8.04162 153.904L12.0409 153.828ZM11.6241 148.594C11.3807 146.061 11.15 143.504 10.8707 140.939L6.89423 141.373C7.16986 143.904 7.39613 146.413 7.64242 148.976L11.6241 148.594ZM10.8702 140.935C10.6555 139.008 10.3899 137.071 10.148 135.191L6.1807 135.701C6.42839 137.627 6.68511 139.496 6.89478 141.378L10.8702 140.935ZM10.1473 135.185C9.91139 133.391 9.65982 131.742 9.46628 130.025L5.49144 130.473C5.68961 132.232 5.96032 134.025 6.18142 135.707L10.1473 135.185ZM9.46638 130.026C9.22165 127.845 8.90646 126.007 8.89124 124.093L4.89137 124.125C4.90879 126.315 5.27908 128.581 5.49133 130.472L9.46638 130.026ZM8.89128 124.099C8.87524 120.992 8.98749 117.866 9.21252 114.753L5.22293 114.465C4.99096 117.674 4.87473 120.902 4.89133 124.119L8.89128 124.099ZM9.21315 114.744C9.29836 113.487 9.45424 112.221 9.62543 110.902C9.79435 109.601 9.98021 108.235 10.1069 106.865L6.12388 106.497C6.00575 107.775 5.83255 109.048 5.65872 110.387C5.48717 111.708 5.31662 113.082 5.2223 114.474L9.21315 114.744ZM10.1064 106.87C10.4517 103.241 11.0459 99.1639 10.6099 95.1131L6.63284 95.5413C7.01281 99.0707 6.49724 102.573 6.12438 106.492L10.1064 106.87ZM10.6102 95.1163C10.5127 94.1971 10.3067 93.3239 10.1143 92.5579C9.9119 91.7525 9.73301 91.0941 9.60967 90.4173L5.67448 91.1344C5.8286 91.9801 6.05774 92.8278 6.23484 93.5326C6.42185 94.2769 6.56675 94.9181 6.6325 95.5381L10.6102 95.1163ZM9.60724 90.4041C9.38769 89.2433 9.22925 88.1368 9.20069 87.0648L5.20211 87.1714C5.23882 88.549 5.43946 89.8919 5.67691 91.1475L9.60724 90.4041ZM9.20084 87.0708C9.10298 82.936 9.02197 78.8216 9.03817 74.7297L5.0382 74.7139C5.02177 78.8642 5.10397 83.025 5.20196 87.1654L9.20084 87.0708ZM9.03819 74.7218C9.03819 69.2224 9.26641 63.4306 9.11911 57.8045L5.12048 57.9091C5.26696 63.5042 5.03819 68.9668 5.03819 74.7218H9.03819ZM9.11896 57.7988C9.00157 53.7518 8.51593 49.7238 8.02719 45.8086L4.058 46.304C4.54854 50.2336 5.00952 54.0838 5.12064 57.9148L9.11896 57.7988ZM8.02711 45.8079C7.48814 41.5017 6.7004 37.0699 6.09625 32.8781L2.13716 33.4487C2.77342 37.8633 3.51985 42.0045 4.05808 46.3047L8.02711 45.8079ZM6.0962 32.8777C6.01206 32.2947 5.97532 31.6933 5.93125 30.9866C5.88901 30.3096 5.83982 29.5336 5.7173 28.75L1.76531 29.3678C1.85497 29.9413 1.89555 30.539 1.93901 31.2357C1.98062 31.9027 2.02549 32.675 2.13722 33.4491L6.0962 32.8777ZM5.71935 28.7634C5.61991 28.0978 5.33241 27.5608 5.11061 27.2061C4.89675 26.8641 4.62373 26.5134 4.50071 26.3471L1.28452 28.7253C1.33227 28.7899 1.3815 28.8554 1.42381 28.9119C1.46807 28.9709 1.50742 29.0236 1.54509 29.075C1.62119 29.1788 1.6767 29.2591 1.71916 29.327C1.81563 29.4812 1.7811 29.4738 1.76326 29.3544L5.71935 28.7634ZM4.4894 26.3319C3.8214 25.4462 3.0374 24.5524 2.36499 23.7342L-0.725339 26.2738C0.0711483 27.243 0.690776 27.9382 1.29583 28.7405L4.4894 26.3319ZM2.04209 26.5871C12.7816 18.2951 23.424 10.0688 34.1789 1.761L31.7336 -1.40455C20.9771 6.90442 10.3367 15.1293 -0.402445 23.4209L2.04209 26.5871ZM30.9673 0.387753C31.1974 2.57233 31.4236 4.61967 31.6358 6.68804L35.6149 6.2799C35.4027 4.21063 35.1719 2.12035 34.9453 -0.0313077L30.9673 0.387753ZM31.6364 6.69359C31.8638 8.85185 32.0751 11.0101 32.27 13.1682L36.2537 12.8084C36.057 10.6303 35.8439 8.45233 35.6143 6.27435L31.6364 6.69359ZM32.2699 13.167C32.3626 14.2006 32.4096 15.2423 32.4254 16.2953L36.4249 16.2353C36.4079 15.1037 36.3571 13.9608 36.2539 12.8096L32.2699 13.167ZM32.4254 16.2975C32.4915 20.4063 32.6367 24.3664 32.5561 28.3732L36.5553 28.4536C36.6378 24.3506 36.4892 20.2341 36.4249 16.2331L32.4254 16.2975ZM32.5561 28.3724C32.51 30.6183 32.1152 32.7916 31.8038 35.3003L35.7733 35.7931C36.0495 33.5684 36.5035 30.9751 36.5552 28.4544L32.5561 28.3724ZM31.8038 35.3004C31.4966 37.7762 31.1405 40.2389 30.781 42.7247L34.7398 43.2973C35.0984 40.8179 35.4603 38.3154 35.7733 35.793L31.8038 35.3004ZM30.7799 42.732C30.379 45.5783 29.9129 48.5388 29.5364 51.461L33.5036 51.9722C33.8778 49.0685 34.3258 46.2363 34.7408 43.29L30.7799 42.732ZM29.538 51.4489C29.2079 53.8921 28.9432 56.3573 28.6678 58.7722L32.6421 59.2254C32.9215 56.7745 33.1792 54.3737 33.502 51.9843L29.538 51.4489ZM28.6686 58.7656C28.3412 61.5538 28.0302 64.342 27.7357 67.1302L31.7136 67.5504C32.0065 64.7776 32.3157 62.0048 32.6413 59.232L28.6686 58.7656ZM27.7351 67.1364C27.4724 69.6999 27.2428 72.2613 27.0144 74.808L30.9985 75.1652C31.2272 72.6143 31.4545 70.0781 31.7142 67.5442L27.7351 67.1364ZM27.014 74.8132C26.7693 77.6259 26.5235 80.4672 26.3103 83.311L30.2991 83.61C30.5102 80.7934 30.754 77.9745 30.9989 75.16L27.014 74.8132ZM26.3105 83.3071C26.1305 85.6478 25.9652 88.0088 25.8658 90.3775L29.8623 90.5451C29.9587 88.2466 30.1198 85.9404 30.2988 83.6139L26.3105 83.3071ZM25.8658 90.3766C25.7525 93.0528 25.6185 95.8139 25.652 98.5787L29.6517 98.5303C29.6198 95.8997 29.747 93.2654 29.8623 90.546L25.8658 90.3766ZM25.652 98.5746C25.6686 100.235 25.7396 101.889 25.8108 103.508C25.8826 105.137 25.9545 106.729 25.9785 108.316L29.978 108.256C29.953 106.599 29.878 104.947 29.807 103.332C29.7354 101.707 29.6677 100.117 29.6518 98.5344L25.652 98.5746ZM25.9785 108.314C26.0104 110.585 25.9622 112.839 25.7884 115.065L29.7763 115.377C29.9617 113.001 30.0113 110.621 29.9781 108.258L25.9785 108.314ZM25.7884 115.066C25.5987 117.503 25.2496 119.939 24.8742 122.438L28.8299 123.032C29.2053 120.533 29.5744 117.971 29.7763 115.376L25.7884 115.066ZM24.8738 122.441C24.52 124.822 24.0862 127.184 23.6586 129.603L27.5975 130.299C28.0185 127.918 28.4661 125.48 28.8303 123.029L24.8738 122.441ZM23.6603 129.593C22.8926 133.817 22.1278 138.041 21.3144 142.231L25.2411 142.993C26.0599 138.775 26.8293 134.525 27.5958 130.309L23.6603 129.593ZM21.3137 142.234C20.6663 145.601 19.9692 148.72 19.2918 152.155L23.2162 152.929C23.8443 149.744 24.6162 146.243 25.2418 142.99L21.3137 142.234ZM19.2909 152.159C18.7944 154.707 17.8148 157.92 17.8505 161.138L21.8502 161.094C21.8205 158.42 22.6037 156.071 23.217 152.925L19.2909 152.159ZM17.8507 161.152C17.8614 161.739 17.9412 162.302 18.0025 162.737C18.0692 163.211 18.1172 163.554 18.129 163.885L22.1265 163.741C22.1057 163.162 22.0231 162.603 21.9634 162.179C21.8982 161.716 21.8556 161.386 21.85 161.079L17.8507 161.152ZM18.1286 163.873C18.1826 165.676 18.3117 167.065 18.1151 168.447L22.0752 169.011C22.3356 167.181 22.1709 165.228 22.1269 163.753L18.1286 163.873ZM18.1144 168.452C17.8184 170.572 17.9337 172.611 18.2909 174.566L22.2258 173.848C21.9302 172.229 21.8495 170.626 22.0759 169.006L18.1144 168.452ZM18.2907 174.565C18.5523 176.003 18.8715 177.424 19.1827 178.802C19.4968 180.192 19.8023 181.537 20.0554 182.884L23.9867 182.146C23.7175 180.713 23.3946 179.294 23.0844 177.92C22.7713 176.534 22.4704 175.191 22.226 173.849L18.2907 174.565ZM20.0544 182.879C20.6855 186.292 21.2195 189.705 21.7763 193.176L25.7258 192.542C25.1728 189.095 24.6297 185.624 23.9877 182.151L20.0544 182.879ZM21.7761 193.174C21.8311 193.519 21.8213 193.966 21.7514 194.506L25.7181 195.02C25.8114 194.302 25.8669 193.425 25.726 192.544L21.7761 193.174ZM21.7492 194.523C21.7285 194.694 21.7092 194.808 21.6891 194.89C21.6693 194.971 21.6584 194.98 21.6748 194.95C21.6961 194.912 21.7467 194.839 21.8347 194.771C21.9235 194.703 21.9918 194.685 21.9915 194.685L22.8992 198.581C23.9689 198.332 24.729 197.696 25.1786 196.88C25.5648 196.179 25.6685 195.432 25.7203 195.003L21.7492 194.523ZM22.049 194.673C21.5206 194.78 21.1599 195.054 20.9635 195.238C20.7612 195.427 20.6239 195.621 20.5404 195.752C20.3759 196.011 20.2677 196.27 20.2195 196.387L23.9204 197.905C23.9538 197.823 23.9517 197.842 23.9137 197.902C23.8934 197.934 23.8245 198.039 23.6952 198.16C23.5717 198.275 23.2885 198.503 22.8417 198.593L22.049 194.673ZM20.1816 196.487C20.1155 196.677 20.0788 196.732 20.087 196.719C20.1033 196.694 20.1946 196.565 20.3898 196.453C20.5924 196.338 20.7739 196.317 20.8547 196.317C20.9119 196.316 20.8827 196.326 20.7176 196.28L19.6359 200.13C20.3151 200.321 21.3625 200.503 22.3711 199.928C23.3311 199.381 23.7403 198.43 23.9583 197.805L20.1816 196.487Z" fill="#7A76E4" mask="url(#path-1-inside-1_3025_8)"/>
</svg>
