<svg width="35" height="200" viewBox="0 0 35 200" fill="none" xmlns="http://www.w3.org/2000/svg">
<mask id="path-1-inside-1_3025_20" fill="white">
<path d="M2.38984 0.568481C13.0639 8.28103 23.7053 15.977 34.461 23.7558C33.8897 24.5171 33.4001 25.295 32.7799 25.957C31.8332 26.9666 31.4252 28.0754 31.3273 29.4822C31.1314 32.18 30.7071 34.8612 30.3317 37.5424C29.891 40.7201 29.2708 43.8646 28.9444 47.0423C28.5364 50.9979 28.1773 54.9866 28.1283 58.9587C28.0467 65.9265 28.2752 72.9108 28.2263 79.8786C28.2099 83.2052 28.2915 86.5484 27.6061 89.8254C27.3612 91.0005 26.9532 92.1425 26.8226 93.3176C26.6268 95.0885 26.4962 96.876 26.5615 98.6469C26.6431 100.997 26.8879 103.364 27.1327 105.714C27.3449 107.816 27.6877 109.901 27.9325 111.987C28.0957 113.41 28.2426 114.833 28.2589 116.257C28.3079 119.335 28.4221 122.43 28.2263 125.508C28.0304 128.537 27.4428 131.533 27.0675 134.545C26.741 137.177 26.4309 139.825 26.1535 142.473C25.876 145.121 25.5986 147.769 25.3701 150.417C25.011 154.687 24.7499 158.957 25.7618 163.21C26.1535 164.899 26.1372 166.686 26.333 168.424C26.4146 169.152 26.4799 169.913 26.7247 170.592C27.1001 171.684 26.9042 172.694 26.5452 173.687C25.7618 175.839 25.5169 178.04 25.5006 180.307C25.5006 181.515 25.3048 182.74 25.3701 183.932C25.468 186.017 25.7944 188.086 25.8597 190.155C25.8923 191.429 25.6475 192.704 25.5006 193.978C25.3701 195.054 25.2721 196.163 25.0273 197.222C24.7662 198.347 23.9175 199.059 23.0361 199.704C22.5138 200.069 20.8981 199.87 20.49 199.44C19.9025 198.811 20.1146 198.066 20.3268 197.354C20.4411 196.974 20.5553 196.576 20.6859 196.146C20.1962 195.997 20.0004 196.129 19.9351 196.643C19.8698 197.271 19.8045 197.917 19.5924 198.496C19.4291 198.943 18.9722 199.655 18.7273 199.622C18.254 199.555 17.8297 199.059 17.389 198.728C17.2911 198.662 17.2747 198.496 17.2095 198.38C15.9691 198.794 15.6753 198.645 15.0224 197.222C13.8799 197.42 13.4882 197.172 13.1455 196.047C13.0802 195.865 12.868 195.732 12.7211 195.583C12.3621 195.219 11.7582 194.888 11.7092 194.474C11.5297 193.266 11.3828 192.008 11.5623 190.817C12.1173 187.225 12.6395 183.601 13.5372 180.092C14.2717 177.229 14.8755 174.349 15.202 171.42C15.3325 170.211 15.1367 168.954 15.1204 167.729C15.104 166.14 14.8919 164.535 15.1367 162.979C15.5284 160.513 15.3652 158.129 14.8755 155.713C13.5209 149.076 12.1662 142.423 10.8769 135.77C9.99551 131.218 9.17945 126.667 8.445 122.099C7.62894 116.985 7.07401 111.854 7.26987 106.657C7.43308 102.255 7.57997 97.8525 7.54733 93.45C7.51469 89.9413 7.18826 86.4161 6.95977 82.9073C6.81288 80.5572 6.66599 78.1904 6.45381 75.8403C6.17635 72.7288 5.83361 69.6173 5.52351 66.4892C5.29501 64.2549 5.08283 62.004 4.83801 59.7697C4.54423 57.2375 4.23413 54.7052 3.90771 52.173C3.53232 49.227 3.12429 46.2976 2.71626 43.3681C2.38984 41.0676 2.09605 38.7505 1.70435 36.45C0.904609 31.7662 0.62715 27.0493 0.741398 22.3159C0.823004 19.1713 0.871969 16.0267 1.10047 12.8986C1.39425 8.87685 1.86756 4.85506 2.27559 0.833286C2.25927 0.783634 2.29191 0.733987 2.38984 0.568481Z"/>
</mask>
<path d="M2.38984 0.568481L3.56117 -1.05262L1.78468 -2.33623L0.668584 -0.449987L2.38984 0.568481ZM34.461 23.7558L36.0607 24.9562L37.2825 23.3281L35.633 22.1352L34.461 23.7558ZM32.7799 25.957L34.2388 27.325L34.2394 27.3244L32.7799 25.957ZM31.3273 29.4822L33.3221 29.627L33.3225 29.621L31.3273 29.4822ZM30.3317 37.5424L28.351 37.2651L28.3507 37.2677L30.3317 37.5424ZM28.9444 47.0423L30.9338 47.2475L30.9339 47.2467L28.9444 47.0423ZM28.1283 58.9587L26.1285 58.934L26.1284 58.9353L28.1283 58.9587ZM28.2263 79.8786L26.2263 79.8646L26.2263 79.8687L28.2263 79.8786ZM27.6061 89.8254L25.6485 89.416L25.6482 89.4174L27.6061 89.8254ZM26.8226 93.3176L24.8348 93.0967L24.8347 93.0978L26.8226 93.3176ZM26.5615 98.6469L28.5603 98.5775L28.5601 98.5732L26.5615 98.6469ZM27.1327 105.714L29.1226 105.513L29.1219 105.507L27.1327 105.714ZM27.9325 111.987L29.9195 111.759L29.9189 111.754L27.9325 111.987ZM28.2589 116.257L26.259 116.28L26.2592 116.289L28.2589 116.257ZM28.2263 125.508L30.2221 125.637L30.2223 125.635L28.2263 125.508ZM27.0675 134.545L25.0828 134.298L25.0827 134.299L27.0675 134.545ZM26.1535 142.473L28.1426 142.681L28.1426 142.681L26.1535 142.473ZM25.3701 150.417L23.3775 150.245L23.3771 150.249L25.3701 150.417ZM25.7618 163.21L27.7101 162.758L27.7075 162.747L25.7618 163.21ZM26.333 168.424L28.3206 168.201L28.3204 168.2L26.333 168.424ZM26.7247 170.592L28.6161 169.942L28.6112 169.928L28.6062 169.914L26.7247 170.592ZM26.5452 173.687L28.4246 174.371L28.4261 174.367L26.5452 173.687ZM25.5006 180.307L23.5007 180.293L23.5006 180.3V180.307H25.5006ZM25.3701 183.932L27.3679 183.838L27.3675 183.83L27.3671 183.823L25.3701 183.932ZM25.8597 190.155L27.8591 190.104L27.8587 190.092L25.8597 190.155ZM25.5006 193.978L27.4861 194.219L27.4874 194.207L25.5006 193.978ZM25.0273 197.222L26.9755 197.674L26.9759 197.672L25.0273 197.222ZM23.0361 199.704L24.1817 201.343L24.1996 201.331L24.2172 201.318L23.0361 199.704ZM20.49 199.44L19.0284 200.805L19.0338 200.811L19.0393 200.817L20.49 199.44ZM20.3268 197.354L18.4116 196.778L18.4101 196.783L20.3268 197.354ZM20.6859 196.146L22.5996 196.727L23.1805 194.814L21.2681 194.233L20.6859 196.146ZM19.9351 196.643L17.951 196.391L17.9482 196.414L17.9458 196.436L19.9351 196.643ZM19.5924 198.496L17.7144 197.808L17.7138 197.81L19.5924 198.496ZM18.7273 199.622L18.447 201.602L18.4602 201.604L18.7273 199.622ZM17.389 198.728L18.5901 197.129L18.5493 197.098L18.507 197.07L17.389 198.728ZM17.2095 198.38L18.953 197.4L18.1435 195.96L16.5763 196.483L17.2095 198.38ZM15.0224 197.222L16.8402 196.388L16.1981 194.988L14.6809 195.251L15.0224 197.222ZM13.1455 196.047L15.0587 195.464L15.0445 195.418L15.028 195.372L13.1455 196.047ZM12.7211 195.583L14.1453 194.179L14.1451 194.179L12.7211 195.583ZM11.7092 194.474L13.6953 194.239L13.6918 194.209L13.6875 194.18L11.7092 194.474ZM11.5623 190.817L9.58574 190.512L9.58463 190.519L11.5623 190.817ZM13.5372 180.092L11.5999 179.595L11.5996 179.596L13.5372 180.092ZM15.202 171.42L17.1897 171.642L17.1904 171.635L15.202 171.42ZM15.1204 167.729L13.1205 167.75L13.1206 167.756L15.1204 167.729ZM15.1367 162.979L13.1615 162.665L13.161 162.668L15.1367 162.979ZM14.8755 155.713L16.8356 155.316L16.8351 155.313L14.8755 155.713ZM10.8769 135.77L8.91337 136.15L8.91343 136.151L10.8769 135.77ZM8.445 122.099L6.46999 122.414L6.47036 122.416L8.445 122.099ZM7.26987 106.657L9.26845 106.732L9.2685 106.731L7.26987 106.657ZM7.54733 93.45L9.54728 93.4352L9.54724 93.4314L7.54733 93.45ZM6.95977 82.9073L4.96366 83.0321L4.964 83.0373L6.95977 82.9073ZM6.45381 75.8403L4.46171 76.0179L4.46191 76.0201L6.45381 75.8403ZM5.52351 66.4892L7.51376 66.2919L7.51313 66.2857L5.52351 66.4892ZM4.83801 59.7697L6.82615 59.5519L6.82468 59.5392L4.83801 59.7697ZM3.90771 52.173L1.92375 52.4258L1.92412 52.4287L3.90771 52.173ZM2.71626 43.3681L4.69714 43.0922L4.69643 43.0871L2.71626 43.3681ZM1.70435 36.45L3.67597 36.1143L3.67582 36.1134L1.70435 36.45ZM0.741398 22.3159L-1.25793 22.264L-1.25802 22.2676L0.741398 22.3159ZM1.10047 12.8986L3.09516 13.0443L3.09516 13.0443L1.10047 12.8986ZM2.27559 0.833286L4.26538 1.03516L4.30826 0.612433L4.17559 0.208781L2.27559 0.833286ZM1.21851 2.18959C11.8922 9.90184 22.5332 17.5976 33.2889 25.3764L35.633 22.1352C24.8774 14.3564 14.2356 6.66022 3.56117 -1.05262L1.21851 2.18959ZM32.8613 22.5554C32.1547 23.497 31.8444 24.0303 31.3204 24.5896L34.2394 27.3244C34.9558 26.5597 35.6247 25.5372 36.0607 24.9562L32.8613 22.5554ZM31.321 24.589C30.0045 25.9929 29.4559 27.5642 29.3321 29.3434L33.3225 29.621C33.3945 28.5866 33.6619 27.9403 34.2388 27.325L31.321 24.589ZM29.3326 29.3374C29.1429 31.9489 28.7334 34.5341 28.351 37.2651L32.3124 37.8197C32.6808 35.1883 33.1199 32.4111 33.322 29.627L29.3326 29.3374ZM28.3507 37.2677C27.9348 40.266 27.2831 43.6421 26.9549 46.8379L30.9339 47.2467C31.2585 44.0871 31.8472 41.1742 32.3127 37.8171L28.3507 37.2677ZM26.955 46.8371C26.546 50.802 26.1786 54.8661 26.1285 58.934L30.1281 58.9834C30.176 55.1071 30.5268 51.1938 30.9338 47.2475L26.955 46.8371ZM26.1284 58.9353C26.0873 62.4457 26.1244 65.9556 26.1652 69.442C26.2061 72.9356 26.2506 76.4032 26.2263 79.8646L30.2263 79.8926C30.2509 76.3862 30.2056 72.8777 30.1649 69.3952C30.1241 65.9056 30.0877 62.4395 30.1282 58.9821L26.1284 58.9353ZM26.2263 79.8687C26.2094 83.2914 26.2822 86.386 25.6485 89.416L29.5637 90.2349C30.3008 86.7108 30.2103 83.119 30.2263 79.8885L26.2263 79.8687ZM25.6482 89.4174C25.5383 89.9446 25.3987 90.4346 25.2345 91.0735C25.0807 91.6717 24.9164 92.363 24.8348 93.0967L28.8104 93.5385C28.8594 93.0971 28.9644 92.6299 29.1085 92.0695C29.2421 91.5498 29.429 90.8813 29.564 90.2334L25.6482 89.4174ZM24.8347 93.0978C24.6342 94.9113 24.4924 96.8088 24.5629 98.7206L28.5601 98.5732C28.5 96.9432 28.6194 95.2657 28.8105 93.5374L24.8347 93.0978ZM24.5627 98.7163C24.6471 101.147 24.8998 103.582 25.1435 105.921L29.1219 105.507C28.876 103.146 28.6391 100.847 28.5603 98.5775L24.5627 98.7163ZM25.1428 105.915C25.3512 107.979 25.7226 110.316 25.9461 112.22L29.9189 111.754C29.6528 109.486 29.3386 107.653 29.1226 105.513L25.1428 105.915ZM25.9455 112.215C26.1082 113.634 26.244 114.968 26.259 116.28L30.2588 116.234C30.2412 114.698 30.0832 113.186 29.9195 111.759L25.9455 112.215ZM26.2592 116.289C26.3091 119.426 26.4196 122.406 26.2303 125.381L30.2223 125.635C30.4246 122.454 30.3067 119.244 30.2586 116.225L26.2592 116.289ZM26.2305 125.379C26.0385 128.347 25.4835 131.082 25.0828 134.298L29.0522 134.792C29.4021 131.984 30.0223 128.727 30.2221 125.637L26.2305 125.379ZM25.0827 134.299C24.7551 136.94 24.4435 139.601 24.1644 142.265L28.1426 142.681C28.4183 140.049 28.7269 137.414 29.0523 134.791L25.0827 134.299ZM24.1644 142.265C23.8872 144.91 23.6078 147.576 23.3775 150.245L27.3627 150.589C27.5894 147.962 27.8648 145.332 28.1426 142.681L24.1644 142.265ZM23.3771 150.249C23.0186 154.512 22.722 159.074 23.8161 163.673L27.7075 162.747C26.7778 158.84 27.0034 154.862 27.3631 150.585L23.3771 150.249ZM23.8135 163.662C23.9751 164.359 24.0599 165.109 24.1271 165.957C24.1903 166.753 24.2431 167.738 24.3456 168.648L28.3204 168.2C28.2272 167.372 28.1902 166.594 28.1146 165.641C28.0431 164.738 27.9402 163.75 27.7101 162.758L23.8135 163.662ZM24.3454 168.647C24.4154 169.271 24.4992 170.316 24.8432 171.27L28.6062 169.914C28.4606 169.51 28.4138 169.033 28.3206 168.201L24.3454 168.647ZM24.8333 171.242C24.9929 171.706 24.9576 172.196 24.6643 173.007L28.4261 174.367C28.8508 173.192 29.2073 171.662 28.6161 169.942L24.8333 171.242ZM24.6659 173.003C23.7767 175.445 23.5179 177.895 23.5007 180.293L27.5005 180.321C27.5159 178.185 27.7469 176.233 28.4245 174.371L24.6659 173.003ZM23.5006 180.307C23.5006 180.825 23.4588 181.345 23.4154 181.991C23.3743 182.601 23.3332 183.312 23.3731 184.041L27.3671 183.823C27.3417 183.36 27.3658 182.862 27.4064 182.26C27.4445 181.693 27.5006 180.997 27.5006 180.307H23.5006ZM23.3723 184.026C23.4242 185.13 23.5363 186.225 23.6367 187.245C23.7391 188.286 23.8304 189.259 23.8607 190.218L27.8587 190.092C27.8237 188.982 27.7191 187.886 27.6175 186.854C27.5139 185.801 27.4139 184.819 27.3679 183.838L23.3723 184.026ZM23.8604 190.206C23.8882 191.293 23.6841 192.272 23.5138 193.749L27.4874 194.207C27.6109 193.136 27.8964 191.565 27.859 190.104L23.8604 190.206ZM23.5151 193.737C23.3735 194.905 23.292 195.849 23.0787 196.772L26.9759 197.672C27.2522 196.477 27.3667 195.203 27.4861 194.219L23.5151 193.737ZM23.0791 196.77C23.0003 197.109 22.7408 197.442 21.855 198.09L24.2172 201.318C25.0942 200.676 26.5321 199.585 26.9755 197.674L23.0791 196.77ZM21.8905 198.065C21.9731 198.007 22.0455 197.969 22.0975 197.946C22.1499 197.922 22.1909 197.908 22.2158 197.9C22.2411 197.893 22.2569 197.889 22.2612 197.889C22.2658 197.888 22.263 197.888 22.2523 197.89C22.2418 197.891 22.2259 197.892 22.2046 197.893C22.1835 197.894 22.1587 197.895 22.1305 197.894C22.0734 197.894 22.009 197.89 21.9414 197.882C21.8737 197.875 21.8093 197.864 21.752 197.852C21.7237 197.846 21.6986 197.84 21.6771 197.834C21.6555 197.828 21.639 197.823 21.6275 197.819C21.6158 197.816 21.6117 197.814 21.6143 197.815C21.6166 197.816 21.6298 197.821 21.6516 197.833C21.6729 197.845 21.7095 197.866 21.756 197.9C21.7797 197.917 21.8075 197.939 21.8381 197.965C21.8687 197.992 21.9036 198.024 21.9407 198.063L19.0393 200.817C19.479 201.28 20.0291 201.501 20.3456 201.609C20.7221 201.736 21.1229 201.816 21.4991 201.858C21.8747 201.9 22.2905 201.91 22.6983 201.865C23.0514 201.825 23.645 201.718 24.1817 201.343L21.8905 198.065ZM21.9516 198.075C21.9871 198.113 22.0387 198.186 22.0741 198.287C22.1075 198.382 22.1084 198.45 22.1082 198.463C22.1081 198.468 22.1085 198.432 22.1312 198.332C22.1547 198.227 22.1888 198.109 22.2435 197.925L18.4101 196.783C18.2576 197.295 17.5531 199.226 19.0284 200.805L21.9516 198.075ZM22.242 197.93C22.3749 197.488 22.461 197.183 22.5996 196.727L18.7722 195.565C18.6496 195.969 18.5073 196.46 18.4116 196.778L22.242 197.93ZM21.2681 194.233C20.9466 194.135 19.972 193.864 19.0444 194.48C18.1351 195.084 17.9919 196.069 17.951 196.391L21.9192 196.895C21.9235 196.86 21.9164 196.959 21.8501 197.114C21.7762 197.287 21.6057 197.581 21.2583 197.812C20.9075 198.045 20.5627 198.09 20.3588 198.088C20.1783 198.087 20.0762 198.051 20.1037 198.059L21.2681 194.233ZM17.9458 196.436C17.8746 197.121 17.8251 197.506 17.7144 197.808L21.4704 199.184C21.7839 198.328 21.865 197.421 21.9244 196.85L17.9458 196.436ZM17.7138 197.81C17.7149 197.807 17.7114 197.816 17.7014 197.838C17.6917 197.859 17.6786 197.886 17.6625 197.916C17.6285 197.979 17.5933 198.034 17.5668 198.071C17.5301 198.122 17.5489 198.084 17.6339 198.011C17.6767 197.974 17.7903 197.88 17.9714 197.794C18.1452 197.712 18.5125 197.575 18.9944 197.64L18.4602 201.604C19.0034 201.677 19.4385 201.525 19.6848 201.409C19.9384 201.288 20.1291 201.141 20.2517 201.035C20.4964 200.823 20.6856 200.585 20.8141 200.407C21.0734 200.046 21.3198 199.596 21.471 199.182L17.7138 197.81ZM19.0076 197.642C19.1865 197.667 19.2994 197.724 19.3302 197.74C19.3586 197.756 19.3486 197.754 19.2844 197.704C19.2169 197.65 19.1474 197.59 19.0234 197.483C18.9161 197.391 18.7605 197.257 18.5901 197.129L16.1879 200.327C16.2378 200.365 16.3005 200.417 16.4116 200.513C16.5058 200.594 16.6546 200.724 16.8075 200.844C17.0761 201.056 17.6544 201.49 18.447 201.602L19.0076 197.642ZM18.507 197.07C18.7875 197.259 18.9503 197.48 19.0344 197.618C19.114 197.748 19.1524 197.851 19.1558 197.86C19.1591 197.869 19.1603 197.873 19.1542 197.856C19.1506 197.845 19.1387 197.811 19.1259 197.777C19.1016 197.712 19.0457 197.565 18.953 197.4L15.466 199.36C15.4337 199.303 15.4118 199.255 15.3988 199.225C15.3858 199.196 15.3781 199.175 15.3767 199.171C15.3762 199.17 15.376 199.169 15.384 199.192C15.3897 199.208 15.4027 199.244 15.4181 199.285C15.4461 199.358 15.511 199.523 15.6232 199.707C15.74 199.897 15.9416 200.164 16.271 200.386L18.507 197.07ZM16.5763 196.483C16.4462 196.526 16.3551 196.553 16.2902 196.57C16.2245 196.587 16.2096 196.587 16.2299 196.585C16.2525 196.582 16.3306 196.576 16.4443 196.593C16.5651 196.612 16.6981 196.652 16.8278 196.72C17.0816 196.854 17.1701 197.013 17.128 196.95C17.1104 196.924 17.0768 196.869 17.0252 196.77C16.974 196.673 16.9138 196.548 16.8402 196.388L13.2046 198.056C13.3757 198.429 13.5706 198.826 13.8023 199.173C14.0377 199.525 14.3996 199.962 14.9634 200.259C16.1251 200.871 17.32 200.452 17.8427 200.277L16.5763 196.483ZM14.6809 195.251C14.5801 195.269 14.5099 195.277 14.4632 195.281C14.4161 195.285 14.406 195.283 14.4232 195.284C14.4675 195.287 14.6427 195.308 14.8468 195.436C15.0488 195.563 15.1398 195.707 15.1556 195.735C15.1616 195.745 15.1533 195.732 15.134 195.684C15.1148 195.636 15.0896 195.566 15.0587 195.464L11.2323 196.63C11.4173 197.237 11.7708 198.229 12.7213 198.825C13.6837 199.429 14.7346 199.302 15.3639 199.193L14.6809 195.251ZM15.028 195.372C14.827 194.811 14.4579 194.462 14.332 194.344C14.2583 194.275 14.1771 194.205 14.155 194.186C14.1153 194.151 14.1245 194.158 14.1453 194.179L11.2969 196.987C11.3912 197.083 11.482 197.162 11.5254 197.2C11.5557 197.226 11.5644 197.234 11.5813 197.249C11.594 197.26 11.5973 197.263 11.5958 197.261C11.5941 197.26 11.583 197.249 11.5664 197.232C11.5497 197.214 11.5236 197.185 11.4928 197.145C11.4331 197.069 11.3364 196.927 11.263 196.722L15.028 195.372ZM14.1451 194.179C13.9759 194.007 13.8002 193.861 13.6886 193.769C13.6588 193.745 13.6286 193.72 13.6029 193.699C13.576 193.677 13.5526 193.658 13.5302 193.64C13.485 193.602 13.4535 193.575 13.4295 193.554C13.4056 193.533 13.3979 193.525 13.4003 193.527C13.4022 193.529 13.4239 193.552 13.4544 193.594C13.5098 193.67 13.6543 193.892 13.6953 194.239L9.72306 194.709C9.78864 195.263 10.0269 195.682 10.2206 195.948C10.412 196.211 10.6243 196.412 10.7683 196.54C10.9085 196.665 11.0712 196.796 11.1482 196.859C11.1964 196.899 11.2306 196.928 11.2579 196.952C11.2709 196.963 11.2804 196.972 11.2873 196.978C11.2906 196.981 11.2931 196.983 11.2948 196.985C11.2964 196.987 11.2972 196.987 11.2971 196.987L14.1451 194.179ZM13.6875 194.18C13.5082 192.974 13.4095 191.981 13.54 191.115L9.58463 190.519C9.35612 192.035 9.5512 193.558 9.73092 194.768L13.6875 194.18ZM13.5388 191.122C14.0997 187.493 14.6068 183.981 15.4748 180.588L11.5996 179.596C10.6722 183.221 10.1349 186.957 9.58575 190.512L13.5388 191.122ZM15.4745 180.589C16.2229 177.672 16.8494 174.694 17.1897 171.642L13.2143 171.198C12.9016 174.004 12.3205 176.786 11.5999 179.595L15.4745 180.589ZM17.1904 171.635C17.2738 170.862 17.2493 170.113 17.2131 169.469C17.174 168.77 17.1276 168.259 17.1202 167.702L13.1206 167.756C13.1295 168.424 13.1892 169.154 13.2194 169.692C13.2526 170.285 13.2607 170.769 13.2135 171.205L17.1904 171.635ZM17.1203 167.708C17.1121 166.917 17.0498 165.935 17.0297 165.28C17.0065 164.53 17.0188 163.885 17.1124 163.29L13.161 162.668C13.0098 163.629 13.0057 164.565 13.0315 165.403C13.0603 166.337 13.1123 166.952 13.1205 167.75L17.1203 167.708ZM17.1119 163.293C17.5502 160.534 17.3598 157.902 16.8356 155.316L12.9154 156.11C13.3706 158.356 13.5066 160.492 13.1615 162.665L17.1119 163.293ZM16.8351 155.313C15.4803 148.675 14.1275 142.031 12.8404 135.389L8.91343 136.151C10.2049 142.815 11.5615 149.477 12.9159 156.113L16.8351 155.313ZM12.8404 135.39C11.9625 130.856 11.1503 126.326 10.4196 121.782L6.47036 122.416C7.20861 127.008 8.02849 131.58 8.91337 136.15L12.8404 135.39ZM10.42 121.784C9.61338 116.729 9.07961 111.743 9.26845 106.732L5.27129 106.582C5.06841 111.965 5.6445 117.241 6.46999 122.414L10.42 121.784ZM9.2685 106.731C9.4317 102.329 9.58028 97.8869 9.54727 93.4352L5.54738 93.4648C5.57966 97.8181 5.43446 102.181 5.27124 106.583L9.2685 106.731ZM9.54724 93.4314C9.51391 89.8484 9.17926 86.2128 8.95554 82.7773L4.964 83.0373C5.19727 86.6194 5.51547 90.0342 5.54742 93.4686L9.54724 93.4314ZM8.95587 82.7825C8.80933 80.438 8.66081 78.043 8.44571 75.6605L4.46191 76.0201C4.67117 78.3378 4.81643 80.6764 4.96367 83.0321L8.95587 82.7825ZM8.44591 75.6627C8.16749 72.5404 7.82075 69.3887 7.51375 66.2919L3.53327 66.6865C3.84647 69.8459 4.18521 72.9172 4.46171 76.0179L8.44591 75.6627ZM7.51313 66.2857C7.28697 64.0743 7.07179 61.794 6.82611 59.5519L2.84991 59.9875C3.09387 62.214 3.30305 64.4355 3.53389 66.6927L7.51313 66.2857ZM6.82468 59.5392C6.52993 56.9986 6.2188 54.4579 5.8913 51.9173L1.92412 52.4287C2.24946 54.9525 2.55853 57.4764 2.85134 60.0002L6.82468 59.5392ZM5.89167 51.9202C5.51456 48.9607 5.1049 46.0198 4.69714 43.0922L0.735382 43.644C1.14368 46.5754 1.55008 49.4933 1.92375 52.4258L5.89167 51.9202ZM4.69643 43.0871C4.37557 40.8259 4.07387 38.4512 3.67597 36.1143L-0.267275 36.7857C0.11823 39.0498 0.404108 41.3093 0.736094 43.6491L4.69643 43.0871ZM3.67582 36.1134C2.90073 31.574 2.62922 26.9875 2.74082 22.3642L-1.25802 22.2676C-1.37492 27.1111 -1.09151 31.9584 -0.267118 36.7866L3.67582 36.1134ZM2.74072 22.3678C2.82312 19.1929 2.87104 16.1123 3.09516 13.0443L-0.894216 12.7529C-1.1271 15.9411 -1.17711 19.1497 -1.25793 22.264L2.74072 22.3678ZM3.09516 13.0443C3.3862 9.05995 3.853 5.09975 4.26538 1.03516L0.285804 0.631412C-0.117882 4.61037 -0.597704 8.69375 -0.894216 12.7529L3.09516 13.0443ZM4.17559 0.208781C4.2753 0.512137 4.29388 0.823848 4.24724 1.11286C4.2076 1.35854 4.12899 1.53283 4.10192 1.59079C4.07272 1.65329 4.04942 1.69176 4.06033 1.67287C4.06984 1.6564 4.07942 1.64048 4.1111 1.58695L0.668584 -0.449987C0.658513 -0.432968 0.549826 -0.256264 0.477826 -0.102131C0.432392 -0.00486832 0.342565 0.201488 0.298328 0.475616C0.247099 0.793073 0.267722 1.12961 0.375592 1.45779L4.17559 0.208781Z" fill="#7A76E4" mask="url(#path-1-inside-1_3025_20)"/>
</svg>
