<svg width="46" height="134" viewBox="0 0 46 134" fill="none" xmlns="http://www.w3.org/2000/svg">
<mask id="path-1-inside-1_3026_32" fill="white">
<path d="M38.7905 112.057C39.0026 113.414 39.0516 114.838 39.4596 116.129C40.0635 118.048 40.9285 119.886 41.6793 121.756C42.3974 123.576 43.1319 125.397 43.8337 127.234C43.9479 127.532 43.9643 127.896 43.9153 128.21C43.7847 129.005 43.1808 129.204 42.5933 128.69C41.2713 127.515 40.6021 125.91 39.7697 124.42C38.9537 122.964 38.1376 121.524 37.3052 120.068C37.2889 120.051 37.2889 120.018 37.2563 120.001C36.9788 119.819 36.7013 119.637 36.4402 119.455C36.4076 119.786 36.2933 120.117 36.3586 120.432C36.5055 121.127 36.7503 121.789 36.9298 122.467C37.7133 125.447 38.513 128.426 39.2801 131.405C39.4596 132.133 39.5902 133.043 38.8068 133.358C38.4803 133.49 37.6969 132.845 37.3379 132.381C36.8809 131.802 36.6034 131.057 36.3423 130.345C35.3793 127.664 34.4653 124.95 33.5187 122.252C33.3881 121.872 33.2249 121.474 32.9801 121.16C32.8006 120.928 32.4741 120.812 32.213 120.647C32.1477 120.697 32.0824 120.763 32.0172 120.812C32.1151 121.789 32.213 122.749 32.3436 123.725C32.6047 125.761 32.8822 127.797 33.1433 129.832C33.2739 130.908 33.4045 132.001 33.4534 133.076C33.4697 133.341 33.2086 133.838 33.0128 133.871C32.6863 133.92 32.1151 133.805 31.9845 133.573C31.5112 132.729 31.0379 131.835 30.8094 130.908C30.1892 128.21 29.6995 125.463 29.112 122.749C28.9488 122.004 28.9325 121.16 28.0511 120.465C27.8389 121.888 27.6104 123.129 27.4472 124.404C27.2677 125.877 27.1535 127.35 26.9576 128.823C26.876 129.468 26.7617 130.345 25.9946 130.329C25.1459 130.312 25.0807 129.386 25.0807 128.724C25.0643 126.489 25.2112 124.238 25.1623 122.004C25.1296 120.68 24.8685 119.372 24.6563 118.065C24.3625 116.228 24.0035 114.391 23.7423 112.537C23.5628 111.329 23.4649 110.088 23.4159 108.863C23.3833 107.969 23.5628 107.059 23.5628 106.165C23.5791 104.014 22.7141 102.061 22.0449 100.075C20.3802 95.1591 18.6338 90.2767 16.9037 85.3942C15.0758 80.2636 13.3621 75.0833 10.9628 70.1843C9.28181 66.7749 8.75952 63.0345 7.8945 59.3934C7.09476 56.0005 6.03389 52.6739 4.94037 49.3472C3.78157 45.8054 2.50851 42.2967 1.20282 38.8045C0.827433 37.828 0.941684 36.9343 1.07225 35.9909C2.08416 29.0232 3.09608 22.0388 4.10799 15.0711C4.77716 10.4369 5.43 5.80276 6.13181 0.903809C7.0458 1.74789 7.95979 2.39336 8.61263 3.25399C11.3219 6.71305 12.9377 10.6852 13.3457 15.0545C13.6069 17.8019 13.3947 20.5989 13.3784 23.3794C13.3621 27.1364 13.9496 30.8272 14.733 34.4683C15.7449 39.2017 16.8548 43.9352 18.2094 48.5859C18.9276 51.085 20.217 53.4352 21.2941 55.8185C23.318 60.254 24.9501 64.8054 25.7661 69.6216C26.4516 73.6434 26.9413 77.6983 27.4472 81.7531C28.1327 87.43 29.3894 92.9578 31.397 98.3037C32.0008 99.9091 32.5558 101.531 33.2249 103.103C33.4208 103.534 33.9104 103.947 34.3674 104.146C36.8319 105.222 39.1005 106.579 40.9775 108.548C41.3529 108.946 41.6303 109.459 41.9568 109.922C43.034 111.494 44.1111 113.067 45.1883 114.639C45.4332 115.003 45.7596 115.318 45.9228 115.715C46.037 115.98 46.0207 116.41 45.8738 116.625C45.7433 116.824 45.3352 116.906 45.0578 116.89C43.1319 116.791 41.9568 115.533 40.9122 114.076C40.3736 113.332 39.7697 112.653 39.1985 111.941C39.0516 111.958 38.921 112.008 38.7905 112.057Z"/>
</mask>
<path d="M38.7905 112.057L38.0875 110.185L36.5631 110.757L36.8145 112.366L38.7905 112.057ZM39.4596 116.129L41.3674 115.529L41.3667 115.526L39.4596 116.129ZM41.6793 121.756L43.5398 121.022L43.5353 121.011L41.6793 121.756ZM43.8337 127.234L41.9654 127.948L41.9662 127.95L43.8337 127.234ZM43.9153 128.21L45.8889 128.534L45.8902 128.526L45.8914 128.518L43.9153 128.21ZM42.5933 128.69L41.2647 130.185L41.2705 130.19L41.2764 130.195L42.5933 128.69ZM39.7697 124.42L41.5158 123.445L41.5144 123.442L39.7697 124.42ZM37.3052 120.068L39.0415 119.075L38.9193 118.862L38.7489 118.684L37.3052 120.068ZM37.2563 120.001L36.1595 121.673L36.243 121.728L36.3316 121.774L37.2563 120.001ZM36.4402 119.455L37.5839 117.814L34.7844 115.863L34.4499 119.259L36.4402 119.455ZM36.3586 120.432L34.4003 120.838L34.4019 120.846L36.3586 120.432ZM36.9298 122.467L38.8641 121.958L38.8632 121.955L36.9298 122.467ZM39.2801 131.405L41.222 130.926L41.2195 130.916L41.217 130.906L39.2801 131.405ZM38.8068 133.358L38.0607 131.502L38.0572 131.504L38.8068 133.358ZM37.3379 132.381L38.9198 131.157L38.9138 131.149L38.9078 131.142L37.3379 132.381ZM36.3423 130.345L34.46 131.021L34.4646 131.034L36.3423 130.345ZM33.5187 122.252L31.6273 122.902L31.6315 122.914L33.5187 122.252ZM32.9801 121.16L31.3983 122.384L31.4028 122.39L32.9801 121.16ZM32.213 120.647L33.2815 118.956L32.1035 118.212L30.9972 119.059L32.213 120.647ZM32.0172 120.812L30.8157 119.213L29.9149 119.89L30.0272 121.011L32.0172 120.812ZM32.3436 123.725L34.3274 123.471L34.326 123.46L32.3436 123.725ZM33.1433 129.832L35.1288 129.591L35.1271 129.577L33.1433 129.832ZM33.4534 133.076L31.4555 133.167L31.4562 133.183L31.4572 133.199L33.4534 133.076ZM33.0128 133.871L33.3097 135.849L33.3275 135.846L33.3452 135.843L33.0128 133.871ZM31.9845 133.573L30.2401 134.551L30.2417 134.554L31.9845 133.573ZM30.8094 130.908L28.8603 131.356L28.8638 131.371L28.8676 131.387L30.8094 130.908ZM29.112 122.749L31.0668 122.326L31.0657 122.321L29.112 122.749ZM28.0511 120.465L29.2895 118.895L26.5816 116.759L26.073 120.17L28.0511 120.465ZM27.4472 124.404L25.4634 124.15L25.4619 124.162L27.4472 124.404ZM26.9576 128.823L24.9751 128.559L24.9735 128.572L26.9576 128.823ZM25.9946 130.329L26.0364 128.329L26.0347 128.329L25.9946 130.329ZM25.0807 128.724H27.0807V128.717L27.0807 128.709L25.0807 128.724ZM25.1623 122.004L27.1619 121.96L27.1617 121.955L25.1623 122.004ZM24.6563 118.065L22.6814 118.381L22.6822 118.386L24.6563 118.065ZM23.7423 112.537L25.7228 112.258L25.7217 112.251L25.7206 112.243L23.7423 112.537ZM23.4159 108.863L21.4173 108.936L21.4175 108.943L23.4159 108.863ZM23.5628 106.165L21.5629 106.15L21.5628 106.157V106.165H23.5628ZM22.0449 100.075L23.9402 99.4364L23.9393 99.4335L22.0449 100.075ZM16.9037 85.3942L18.7889 84.7262L18.7877 84.723L16.9037 85.3942ZM10.9628 70.1843L12.759 69.3046L12.7567 69.2999L10.9628 70.1843ZM7.8945 59.3934L5.94785 59.8522L5.94866 59.8557L7.8945 59.3934ZM4.94037 49.3472L3.03952 49.9691L3.04039 49.9717L4.94037 49.3472ZM1.20282 38.8045L3.07617 38.1041L3.07294 38.0955L3.06963 38.0869L1.20282 38.8045ZM1.07225 35.9909L-0.907027 35.7034L-0.908862 35.7167L1.07225 35.9909ZM4.10799 15.0711L6.08723 15.3585L6.08746 15.3569L4.10799 15.0711ZM6.13181 0.903809L7.48872 -0.565479L4.6919 -3.14838L4.15203 0.62019L6.13181 0.903809ZM8.61263 3.25399L7.0192 4.4627L7.02856 4.47504L7.03811 4.48723L8.61263 3.25399ZM13.3457 15.0545L11.3544 15.2404L11.3547 15.2438L13.3457 15.0545ZM13.3784 23.3794L11.3785 23.3677L11.3785 23.3707L13.3784 23.3794ZM14.733 34.4683L16.6889 34.0502L16.6883 34.0476L14.733 34.4683ZM18.2094 48.5859L20.1317 48.0335L20.1296 48.0266L18.2094 48.5859ZM21.2941 55.8185L19.4716 56.6422L19.4746 56.6487L21.2941 55.8185ZM25.7661 69.6216L23.7942 69.9557L23.7946 69.9576L25.7661 69.6216ZM27.4472 81.7531L29.4328 81.5133L29.4319 81.5055L27.4472 81.7531ZM31.397 98.3037L29.5247 99.0068L29.5251 99.0078L31.397 98.3037ZM33.2249 103.103L31.3847 103.886L31.3942 103.909L31.4042 103.931L33.2249 103.103ZM34.3674 104.146L35.1677 102.313L35.1659 102.312L34.3674 104.146ZM40.9775 108.548L42.4325 107.176L42.4252 107.168L40.9775 108.548ZM41.9568 109.922L43.6067 108.791L43.5991 108.78L43.5913 108.769L41.9568 109.922ZM45.1883 114.639L46.8477 113.523L46.843 113.515L46.8382 113.508L45.1883 114.639ZM45.9228 115.715L44.073 116.475L44.0795 116.491L44.0861 116.507L45.9228 115.715ZM45.8738 116.625L44.2225 115.497L44.2118 115.512L44.2014 115.528L45.8738 116.625ZM45.0578 116.89L45.173 114.893L45.1605 114.893L45.0578 116.89ZM40.9122 114.076L42.5377 112.911L42.5323 112.903L40.9122 114.076ZM39.1985 111.941L40.7586 110.689L40.0668 109.827L38.9686 109.954L39.1985 111.941ZM36.8145 112.366C36.9178 113.026 36.9641 113.578 37.0685 114.377C37.163 115.1 37.2952 115.917 37.5526 116.732L41.3667 115.526C41.2161 115.05 41.1198 114.509 41.0348 113.859C40.9597 113.284 40.8754 112.445 40.7666 111.748L36.8145 112.366ZM37.5519 116.729C38.1855 118.743 39.1321 120.779 39.8234 122.501L43.5353 121.011C42.725 118.993 41.9416 117.353 41.3674 115.529L37.5519 116.729ZM39.8189 122.49C40.5445 124.329 41.2687 126.124 41.9654 127.948L45.702 126.52C44.9952 124.67 44.2504 122.823 43.5398 121.022L39.8189 122.49ZM41.9662 127.95C41.9521 127.913 41.946 127.887 41.9435 127.875C41.9409 127.863 41.9408 127.858 41.9411 127.862C41.9413 127.865 41.9416 127.872 41.9412 127.881C41.9408 127.89 41.9399 127.897 41.9393 127.902L45.8914 128.518C45.9796 127.954 45.9706 127.221 45.7013 126.518L41.9662 127.95ZM41.9418 127.886C41.9433 127.876 42.0577 127.303 42.7607 127.055C43.452 126.811 43.896 127.172 43.9103 127.185L41.2764 130.195C41.8782 130.722 42.9179 131.241 44.0907 130.827C45.2752 130.409 45.7567 129.339 45.8889 128.534L41.9418 127.886ZM43.922 127.195C42.9324 126.316 42.5006 125.207 41.5158 123.445L38.0237 125.395C38.7037 126.613 39.6103 128.714 41.2647 130.185L43.922 127.195ZM41.5144 123.442C40.6953 121.981 39.8764 120.536 39.0415 119.075L35.569 121.061C36.3989 122.512 37.2122 123.947 38.0251 125.398L41.5144 123.442ZM38.7489 118.684C38.9594 118.903 39.0645 119.118 39.0933 119.177C39.1091 119.209 39.1219 119.239 39.1171 119.228C39.117 119.227 39.1024 119.194 39.0836 119.156C39.0442 119.075 38.9573 118.909 38.8057 118.728C38.6446 118.537 38.4367 118.361 38.1811 118.228L36.3316 121.774C36.0923 121.65 35.8966 121.484 35.7452 121.304C35.6032 121.135 35.5235 120.981 35.4902 120.913C35.4745 120.881 35.4627 120.854 35.4653 120.86C35.4653 120.86 35.4665 120.863 35.4676 120.865C35.4689 120.868 35.471 120.873 35.4735 120.878C35.4784 120.889 35.4867 120.907 35.4974 120.929C35.5317 120.999 35.643 121.224 35.8616 121.452L38.7489 118.684ZM38.3532 118.329C38.071 118.144 37.8177 117.977 37.5839 117.814L35.2966 121.096C35.585 121.297 35.8867 121.494 36.1595 121.673L38.3532 118.329ZM34.4499 119.259C34.4492 119.266 34.4462 119.29 34.4339 119.362C34.4254 119.411 34.4015 119.542 34.3848 119.653C34.3499 119.886 34.2948 120.329 34.4003 120.838L38.317 120.026C38.3384 120.129 38.3395 120.207 38.3386 120.244C38.3378 120.277 38.3348 120.285 38.3407 120.246C38.3434 120.227 38.3473 120.204 38.3533 120.169C38.3564 120.152 38.3595 120.134 38.3633 120.112C38.3669 120.092 38.371 120.068 38.3753 120.044C38.3914 119.951 38.415 119.809 38.4306 119.651L34.4499 119.259ZM34.4019 120.846C34.4939 121.281 34.6127 121.688 34.7177 122.035C34.8298 122.405 34.9185 122.685 34.9965 122.979L38.8632 121.955C38.7616 121.571 38.6382 121.181 38.5463 120.877C38.4473 120.549 38.3703 120.278 38.3154 120.018L34.4019 120.846ZM34.9956 122.976C35.7828 125.97 36.5777 128.93 37.3433 131.904L41.217 130.906C40.4484 127.922 39.6439 124.924 38.8641 121.958L34.9956 122.976ZM37.3383 131.884C37.3749 132.032 37.3975 132.145 37.409 132.233C37.4212 132.326 37.4139 132.34 37.4188 132.299C37.4242 132.254 37.4508 132.093 37.5786 131.904C37.7199 131.694 37.9079 131.564 38.0607 131.502L39.553 135.214C40.7868 134.718 41.2841 133.662 41.3904 132.774C41.4799 132.026 41.3163 131.309 41.222 130.926L37.3383 131.884ZM38.0572 131.504C38.4082 131.362 38.7134 131.366 38.8849 131.385C39.0575 131.404 39.1755 131.447 39.2222 131.465C39.3101 131.5 39.3212 131.519 39.2534 131.47C39.1983 131.43 39.1279 131.372 39.0568 131.304C38.9841 131.234 38.9375 131.18 38.9198 131.157L35.7561 133.605C36.06 133.998 36.4871 134.407 36.9158 134.716C37.1295 134.87 37.4201 135.055 37.758 135.187C38.0087 135.286 38.7387 135.543 39.5565 135.212L38.0572 131.504ZM38.9078 131.142C38.6826 130.856 38.502 130.425 38.2201 129.656L34.4646 131.034C34.7049 131.689 35.0793 132.748 35.768 133.62L38.9078 131.142ZM38.2246 129.669C37.2625 126.99 36.3661 124.326 35.406 121.59L31.6315 122.914C32.5646 125.574 33.4962 128.338 34.4601 131.021L38.2246 129.669ZM35.4102 121.602C35.2656 121.181 35.0162 120.519 34.5574 119.93L31.4028 122.39C31.4337 122.429 31.5107 122.563 31.6273 122.902L35.4102 121.602ZM34.562 119.936C34.2259 119.502 33.8195 119.257 33.6243 119.145C33.5232 119.087 33.4109 119.027 33.3648 119.003C33.3345 118.986 33.3147 118.975 33.2996 118.967C33.2848 118.958 33.2799 118.955 33.2815 118.956L31.1446 122.338C31.2733 122.419 31.3953 122.485 31.4708 122.526C31.4905 122.536 31.5106 122.547 31.5269 122.556C31.5442 122.565 31.5587 122.573 31.5724 122.58C31.6 122.595 31.6176 122.605 31.63 122.612C31.6578 122.628 31.6399 122.62 31.6022 122.591C31.5626 122.56 31.4831 122.493 31.3983 122.384L34.562 119.936ZM30.9972 119.059C30.9416 119.102 30.8951 119.14 30.8629 119.168C30.832 119.195 30.8026 119.221 30.7899 119.232C30.7724 119.247 30.7702 119.249 30.7712 119.248C30.773 119.247 30.7894 119.233 30.8157 119.213L33.2188 122.411C33.2777 122.367 33.3267 122.326 33.3612 122.297C33.3948 122.268 33.4252 122.241 33.4403 122.228C33.4497 122.22 33.4547 122.215 33.4596 122.211C33.464 122.207 33.4655 122.206 33.4652 122.206C33.4649 122.206 33.4615 122.209 33.4558 122.214C33.4502 122.218 33.441 122.226 33.4289 122.235L30.9972 119.059ZM30.0272 121.011C30.1249 121.987 30.2258 122.977 30.3613 123.99L34.326 123.46C34.2003 122.521 34.1054 121.591 34.0073 120.613L30.0272 121.011ZM30.3599 123.979C30.491 125.002 30.6262 126.024 30.7608 127.041C30.8955 128.06 31.0296 129.074 31.1596 130.087L35.1271 129.577C34.996 128.555 34.8608 127.534 34.7262 126.517C34.5915 125.498 34.4574 124.484 34.3274 123.471L30.3599 123.979ZM31.1579 130.073C31.2897 131.159 31.4106 132.179 31.4555 133.167L35.4514 132.985C35.3985 131.823 35.2582 130.657 35.1288 129.591L31.1579 130.073ZM31.4572 133.199C31.4413 132.941 31.4924 132.769 31.5029 132.734C31.5204 132.676 31.5387 132.636 31.5552 132.606C31.568 132.582 31.6112 132.505 31.7055 132.404C31.7538 132.353 31.8432 132.265 31.9777 132.175C32.1062 132.089 32.3447 131.955 32.6805 131.899L33.3452 135.843C34.0548 135.724 34.4865 135.287 34.6277 135.136C34.8255 134.924 34.9696 134.7 35.0702 134.515C35.2286 134.223 35.4917 133.636 35.4497 132.953L31.4572 133.199ZM32.716 131.893C32.8171 131.878 32.8746 131.883 32.8805 131.883C32.8931 131.884 32.9051 131.886 32.9253 131.891C32.9378 131.894 33.0126 131.913 33.1231 131.975C33.206 132.02 33.504 132.195 33.7274 132.592L30.2417 134.554C30.5304 135.067 30.9488 135.343 31.1857 135.474C31.4503 135.621 31.7127 135.709 31.9252 135.764C32.3241 135.867 32.8246 135.922 33.3097 135.849L32.716 131.893ZM33.729 132.595C33.2522 131.745 32.9077 131.064 32.7513 130.429L28.8676 131.387C29.1682 132.606 29.7703 133.713 30.2401 134.551L33.729 132.595ZM32.7586 130.46C32.1313 127.731 31.6854 125.184 31.0668 122.326L27.1573 123.172C27.7137 125.742 28.2472 128.689 28.8603 131.356L32.7586 130.46ZM31.0657 122.321C30.984 121.948 30.8761 120.146 29.2895 118.895L26.8128 122.035C26.8764 122.086 26.9012 122.119 26.9113 122.134C26.9226 122.151 26.9392 122.179 26.9599 122.239C26.9832 122.307 27.0074 122.401 27.0389 122.561C27.0554 122.645 27.0691 122.722 27.0894 122.831C27.108 122.931 27.1308 123.051 27.1584 123.177L31.0657 122.321ZM26.073 120.17C25.8762 121.49 25.6281 122.864 25.4634 124.15L29.4311 124.658C29.5928 123.394 29.8017 122.286 30.0293 120.76L26.073 120.17ZM25.4619 124.162C25.2575 125.839 25.1808 127.012 24.9751 128.559L28.9402 129.087C29.1263 127.688 29.278 125.915 29.4326 124.646L25.4619 124.162ZM24.9735 128.572C24.952 128.741 24.9373 128.85 24.9187 128.944C24.8995 129.041 24.8901 129.046 24.9108 129C24.9317 128.954 25.0237 128.767 25.256 128.592C25.5204 128.393 25.8149 128.325 26.0364 128.329L25.9529 132.329C26.558 132.341 27.1544 132.169 27.6585 131.79C28.1305 131.436 28.4 130.992 28.5556 130.648C28.8376 130.024 28.9101 129.325 28.9418 129.074L24.9735 128.572ZM26.0347 128.329C26.2097 128.333 26.4821 128.395 26.7369 128.597C26.9679 128.781 27.0586 128.979 27.0847 129.047C27.1091 129.11 27.1015 129.119 27.0927 129.038C27.0846 128.963 27.0807 128.863 27.0807 128.724H23.0807C23.0807 129.048 23.0827 129.788 23.3541 130.49C23.5026 130.874 23.7688 131.348 24.2507 131.731C24.7565 132.132 25.3552 132.317 25.9546 132.329L26.0347 128.329ZM27.0807 128.709C27.0728 127.632 27.1042 126.549 27.1331 125.415C27.1616 124.294 27.1875 123.13 27.1619 121.96L23.1628 122.048C23.1861 123.112 23.163 124.19 23.1344 125.313C23.1062 126.421 23.0723 127.581 23.0808 128.739L27.0807 128.709ZM27.1617 121.955C27.1247 120.454 26.8262 118.95 26.6305 117.744L22.6822 118.386C22.9108 119.794 23.1346 120.906 23.163 122.053L27.1617 121.955ZM26.6312 117.749C26.3194 115.799 25.9837 114.11 25.7228 112.258L21.7619 112.816C22.0234 114.672 22.4057 116.657 22.6814 118.381L26.6312 117.749ZM25.7206 112.243C25.5544 111.125 25.4614 109.958 25.4143 108.783L21.4175 108.943C21.4685 110.218 21.5712 111.533 21.7641 112.831L25.7206 112.243ZM25.4146 108.79C25.4035 108.485 25.4278 108.15 25.469 107.694C25.5067 107.278 25.5628 106.723 25.5628 106.165H21.5628C21.5628 106.501 21.5292 106.848 21.4853 107.334C21.4449 107.78 21.3958 108.347 21.4173 108.936L25.4146 108.79ZM25.5628 106.18C25.5824 103.593 24.5261 101.175 23.9402 99.4364L20.1496 100.714C20.9022 102.947 21.5759 104.435 21.5629 106.15L25.5628 106.18ZM23.9393 99.4335C22.2688 94.5006 20.5161 89.6005 18.7889 84.7262L15.0186 86.0622C16.7516 90.9529 18.4917 95.8176 20.1506 100.716L23.9393 99.4335ZM18.7877 84.723C16.9826 79.6562 15.2218 74.3332 12.759 69.3046L9.16669 71.064C11.5025 75.8334 13.1691 80.871 15.0197 86.0654L18.7877 84.723ZM12.7567 69.2999C11.2083 66.1596 10.7641 62.8194 9.84035 58.9311L5.94866 59.8557C6.75497 63.2496 7.3553 67.3902 9.16903 71.0688L12.7567 69.2999ZM9.84116 58.9346C9.01984 55.4501 7.93468 52.0518 6.84036 48.7227L3.04039 49.9717C4.13311 53.296 5.16969 56.5509 5.94785 59.8522L9.84116 58.9346ZM6.84122 48.7253C5.66982 45.145 4.38571 41.6066 3.07617 38.1041L-0.670519 39.5049C0.63132 42.9868 1.89333 46.4658 3.03953 49.9691L6.84122 48.7253ZM3.06963 38.0869C2.90108 37.6484 2.91868 37.2383 3.05337 36.2651L-0.908862 35.7167C-1.03531 36.6303 -1.24621 38.0076 -0.663987 39.5221L3.06963 38.0869ZM3.05149 36.2783C3.55747 32.7943 4.06346 29.3061 4.56941 25.8181C5.07537 22.3301 5.5813 18.8422 6.08723 15.3585L2.12876 14.7837C1.62277 18.2677 1.11679 21.7559 0.610838 25.2439C0.104877 28.7319 -0.401056 32.2198 -0.906983 35.7035L3.05149 36.2783ZM6.08746 15.3569C6.75659 10.7231 7.41092 6.07848 8.1116 1.18743L4.15203 0.62019C3.44908 5.52704 2.79774 10.1507 2.12852 14.7853L6.08746 15.3569ZM4.77491 2.3731C5.23803 2.80079 5.81596 3.28033 6.14685 3.57232C6.53948 3.91878 6.81353 4.19157 7.0192 4.4627L10.2061 2.04528C9.75889 1.45578 9.24954 0.975522 8.79346 0.573068C8.27564 0.11614 7.93959 -0.149097 7.48872 -0.565479L4.77491 2.3731ZM7.03811 4.48723C9.51769 7.65298 10.9831 11.2637 11.3544 15.2404L15.3371 14.8686C14.8924 10.1067 13.1262 5.77312 10.1872 2.02075L7.03811 4.48723ZM11.3547 15.2438C11.6035 17.8603 11.3959 20.3953 11.3785 23.3677L15.3784 23.3911C15.3936 20.8025 15.6104 17.7435 15.3368 14.8652L11.3547 15.2438ZM11.3785 23.3707C11.3613 27.3352 11.9811 31.1859 12.7778 34.889L16.6883 34.0476C15.9182 30.4685 15.363 26.9376 15.3784 23.3881L11.3785 23.3707ZM12.7772 34.8864C13.7941 39.643 14.9155 44.4289 16.2892 49.1452L20.1296 48.0266C18.7942 43.4415 17.6958 38.7604 16.6889 34.0502L12.7772 34.8864ZM16.2872 49.1383C17.0587 51.8228 18.4824 54.4533 19.4716 56.6422L23.1167 54.9948C21.9517 52.4171 20.7966 50.3472 20.1316 48.0335L16.2872 49.1383ZM19.4746 56.6487C21.4545 60.9877 23.0167 65.3666 23.7942 69.9557L27.738 69.2875C26.8836 64.2442 25.1816 59.5203 23.1137 54.9883L19.4746 56.6487ZM23.7946 69.9576C24.4709 73.9257 24.9548 77.9304 25.4626 82.0007L29.4319 81.5055C28.9279 77.4662 28.4324 73.3611 27.7377 69.2856L23.7946 69.9576ZM25.4617 81.9929C26.1636 87.8058 27.4536 93.4918 29.5247 99.0068L33.2694 97.6006C31.3253 92.4238 30.1019 87.0542 29.4328 81.5133L25.4617 81.9929ZM29.5251 99.0078C30.1002 100.537 30.6938 102.263 31.3847 103.886L35.0652 102.32C34.4179 100.799 33.9015 99.2814 33.269 97.5996L29.5251 99.0078ZM31.4042 103.931C31.8589 104.931 32.795 105.643 33.569 105.98L35.1659 102.312C35.1615 102.31 35.1418 102.301 35.112 102.282C35.0828 102.263 35.0541 102.241 35.0297 102.219C35.0047 102.197 34.9936 102.183 34.9937 102.183C34.9943 102.184 34.9997 102.191 35.0083 102.205C35.0168 102.218 35.0304 102.242 35.0457 102.275L31.4042 103.931ZM33.5672 105.979C35.883 106.99 37.8965 108.215 39.5299 109.928L42.4252 107.168C40.3046 104.943 37.7809 103.454 35.1677 102.313L33.5672 105.979ZM39.5226 109.92C39.5928 109.995 39.6819 110.11 39.8209 110.319C39.9224 110.472 40.1446 110.823 40.3224 111.075L43.5913 108.769C43.4426 108.558 43.3629 108.421 43.1502 108.102C42.975 107.839 42.7376 107.499 42.4325 107.176L39.5226 109.92ZM40.307 111.053C40.8455 111.838 41.384 112.624 41.9226 113.411C42.4611 114.197 42.9998 114.983 43.5385 115.77L46.8382 113.508C46.2997 112.723 45.7612 111.937 45.2226 111.15C44.684 110.364 44.1454 109.578 43.6067 108.791L40.307 111.053ZM43.529 115.755C43.6283 115.903 43.7273 116.033 43.8046 116.133C43.901 116.256 43.9328 116.295 43.996 116.378C44.1011 116.515 44.0936 116.525 44.073 116.475L47.7726 114.955C47.5889 114.508 47.3366 114.162 47.1765 113.952C46.9633 113.672 46.9282 113.642 46.8477 113.523L43.529 115.755ZM44.0861 116.507C44.0335 116.384 44.0143 116.289 44.0065 116.238C43.9981 116.182 43.9965 116.134 43.9986 116.091C44.0007 116.05 44.0074 115.986 44.0302 115.902C44.0509 115.827 44.1012 115.674 44.2225 115.497L47.5252 117.753C47.8876 117.223 47.9763 116.648 47.9939 116.286C48.0128 115.898 47.9669 115.405 47.7596 114.923L44.0861 116.507ZM44.2014 115.528C44.391 115.239 44.6135 115.088 44.7253 115.023C44.8447 114.954 44.9368 114.925 44.9755 114.914C45.0421 114.895 45.0943 114.889 45.173 114.893L44.9427 118.887C45.2988 118.907 45.6937 118.868 46.0664 118.762C46.3486 118.682 47.0746 118.441 47.5463 117.722L44.2014 115.528ZM45.1605 114.893C44.2214 114.844 43.5327 114.299 42.5377 112.911L39.2868 115.241C40.381 116.767 42.0425 118.738 44.9552 118.887L45.1605 114.893ZM42.5323 112.903C41.9602 112.113 41.24 111.29 40.7586 110.689L37.6385 113.193C38.2995 114.016 38.7871 114.551 39.2922 115.249L42.5323 112.903ZM38.9686 109.954C38.5367 110.004 38.1761 110.151 38.0875 110.185L39.4936 113.929C39.512 113.922 39.5245 113.918 39.5377 113.913C39.55 113.908 39.5591 113.905 39.5663 113.902C39.581 113.897 39.583 113.897 39.5774 113.898C39.5654 113.902 39.5106 113.918 39.4285 113.928L38.9686 109.954Z" fill="#7A76E4" mask="url(#path-1-inside-1_3026_32)"/>
</svg>
