<svg width="35" height="200" viewBox="0 0 35 200" fill="none" xmlns="http://www.w3.org/2000/svg">
<path d="M2.38984 0.568481C13.0639 8.28103 23.7053 15.977 34.461 23.7558C33.8897 24.5171 33.4001 25.295 32.7799 25.957C31.8332 26.9666 31.4252 28.0754 31.3273 29.4822C31.1314 32.18 30.7071 34.8612 30.3317 37.5424C29.891 40.7201 29.2708 43.8646 28.9444 47.0423C28.5364 50.9979 28.1773 54.9866 28.1283 58.9587C28.0467 65.9265 28.2752 72.9108 28.2263 79.8786C28.2099 83.2052 28.2915 86.5484 27.6061 89.8254C27.3612 91.0005 26.9532 92.1425 26.8226 93.3176C26.6268 95.0885 26.4962 96.876 26.5615 98.6469C26.6431 100.997 26.8879 103.364 27.1327 105.714C27.3449 107.816 27.6877 109.901 27.9325 111.987C28.0957 113.41 28.2426 114.833 28.2589 116.257C28.3079 119.335 28.4221 122.43 28.2263 125.508C28.0304 128.537 27.4428 131.533 27.0675 134.545C26.741 137.177 26.4309 139.825 26.1535 142.473C25.876 145.121 25.5986 147.769 25.3701 150.417C25.011 154.687 24.7499 158.957 25.7618 163.21C26.1535 164.899 26.1372 166.686 26.333 168.424C26.4146 169.152 26.4799 169.913 26.7247 170.592C27.1001 171.684 26.9042 172.694 26.5452 173.687C25.7618 175.839 25.5169 178.04 25.5006 180.307C25.5006 181.515 25.3048 182.74 25.3701 183.932C25.468 186.017 25.7944 188.086 25.8597 190.155C25.8923 191.429 25.6475 192.704 25.5006 193.978C25.3701 195.054 25.2721 196.163 25.0273 197.222C24.7662 198.347 23.9175 199.059 23.0361 199.704C22.5138 200.069 20.8981 199.87 20.49 199.44C19.9025 198.811 20.1146 198.066 20.3268 197.354C20.4411 196.974 20.5553 196.576 20.6859 196.146C20.1962 195.997 20.0004 196.129 19.9351 196.643C19.8698 197.271 19.8045 197.917 19.5924 198.496C19.4291 198.943 18.9722 199.655 18.7273 199.622C18.254 199.555 17.8297 199.059 17.389 198.728C17.2911 198.662 17.2747 198.496 17.2095 198.38C15.9691 198.794 15.6753 198.645 15.0224 197.222C13.8799 197.42 13.4882 197.172 13.1455 196.047C13.0802 195.865 12.868 195.732 12.7211 195.583C12.3621 195.219 11.7582 194.888 11.7092 194.474C11.5297 193.266 11.3828 192.008 11.5623 190.817C12.1173 187.225 12.6395 183.601 13.5372 180.092C14.2717 177.229 14.8755 174.349 15.202 171.42C15.3325 170.211 15.1367 168.954 15.1204 167.729C15.104 166.14 14.8919 164.535 15.1367 162.979C15.5284 160.513 15.3652 158.129 14.8755 155.713C13.5209 149.076 12.1662 142.423 10.8769 135.77C9.99551 131.218 9.17945 126.667 8.445 122.099C7.62894 116.985 7.07401 111.854 7.26987 106.657C7.43308 102.255 7.57997 97.8525 7.54733 93.45C7.51469 89.9413 7.18826 86.4161 6.95977 82.9073C6.81288 80.5572 6.66599 78.1904 6.45381 75.8403C6.17635 72.7288 5.83361 69.6173 5.52351 66.4892C5.29501 64.2549 5.08283 62.004 4.83801 59.7697C4.54423 57.2375 4.23413 54.7052 3.90771 52.173C3.53232 49.227 3.12429 46.2976 2.71626 43.3681C2.38984 41.0676 2.09605 38.7505 1.70435 36.45C0.904609 31.7662 0.62715 27.0493 0.741398 22.3159C0.823004 19.1713 0.871969 16.0267 1.10047 12.8986C1.39425 8.87685 1.86756 4.85506 2.27559 0.833286C2.25927 0.783634 2.29191 0.733987 2.38984 0.568481Z" fill="#EAC0AC"/>
</svg>
