<svg width="44" height="58" viewBox="0 0 44 58" fill="none" xmlns="http://www.w3.org/2000/svg">
<path d="M10.925 57.1542C12.9815 53.8772 12.6387 50.3851 12.0675 46.926C11.839 45.4695 11.1535 44.0793 10.7781 42.6394C10.4354 41.3154 10.2395 39.9582 9.97837 38.6342C8.85221 38.9321 8.06879 38.5018 7.49755 36.9129C6.89367 35.2413 6.42035 33.5201 6.04497 31.7988C5.89808 31.1533 6.1429 30.392 6.32243 29.7134C6.38771 29.4486 6.79574 29.1342 7.0732 29.1176C7.33434 29.1011 7.66076 29.399 7.88926 29.6307C8.10143 29.8459 8.19936 30.1769 8.34625 30.4417C8.41154 30.4417 8.49314 30.4251 8.55843 30.4251C8.57475 30.1603 8.60739 29.8955 8.60739 29.6307C8.60739 27.0985 8.54211 24.5662 9.09703 22.0671C9.58666 19.8328 10.1089 17.5819 11.6595 15.8441C13.4385 13.858 15.5929 12.534 18.2532 11.9878C21.5174 11.3093 24.749 11.3424 27.8664 12.4513C31.457 13.7256 33.9542 16.1917 34.9661 20.0479C35.6842 22.7953 36.027 25.5758 35.8801 28.4225C35.8474 29.1011 35.9454 29.7797 36.1412 30.5575C36.2555 30.3589 36.3534 30.1272 36.5166 29.9617C36.843 29.6472 37.1858 29.1673 37.5612 29.1342C38.1977 29.0514 38.3935 29.7465 38.4099 30.2265C38.4425 31.2692 38.4262 32.3119 38.2466 33.338C37.9529 35.0593 37.3979 36.7143 36.3208 38.1377C35.7658 38.8659 35.4231 38.9817 34.656 38.5845C34.2806 40.2396 33.9379 41.9112 33.4972 43.5497C33.2197 44.6089 32.6485 45.5854 32.4853 46.6446C32.0609 49.3589 31.7182 52.1063 32.5506 54.804C32.7954 55.5985 33.1871 56.3598 33.5298 57.1542C26.0711 57.1542 18.5633 57.1542 10.925 57.1542Z" fill="#EAC0AC"/>
<path d="M8.25 32.6857C12.8063 32.6857 16.5 28.6946 16.5 23.7714C16.5 18.8482 12.8063 14.8571 8.25 14.8571C3.69365 14.8571 0 18.8482 0 23.7714C0 28.6946 3.69365 32.6857 8.25 32.6857Z" fill="#9B6D3F"/>
<path d="M15.125 25.2572C20.4407 25.2572 24.75 20.6009 24.75 14.8572C24.75 9.11339 20.4407 4.45715 15.125 4.45715C9.80926 4.45715 5.5 9.11339 5.5 14.8572C5.5 20.6009 9.80926 25.2572 15.125 25.2572Z" fill="#9B6D3F"/>
<path d="M22 23.7714C28.0751 23.7714 33 18.45 33 11.8857C33 5.32142 28.0751 0 22 0C15.9249 0 11 5.32142 11 11.8857C11 18.45 15.9249 23.7714 22 23.7714Z" fill="#9B6D3F"/>
<path d="M28.875 25.2572C34.1907 25.2572 38.5 20.6009 38.5 14.8572C38.5 9.11339 34.1907 4.45715 28.875 4.45715C23.5593 4.45715 19.25 9.11339 19.25 14.8572C19.25 20.6009 23.5593 25.2572 28.875 25.2572Z" fill="#9B6D3F"/>
<path d="M35.75 32.6857C40.3063 32.6857 44 28.6946 44 23.7714C44 18.8482 40.3063 14.8571 35.75 14.8571C31.1937 14.8571 27.5 18.8482 27.5 23.7714C27.5 28.6946 31.1937 32.6857 35.75 32.6857Z" fill="#9B6D3F"/>
<path d="M11 40.1143C14.797 40.1143 17.875 36.7884 17.875 32.6857C17.875 28.583 14.797 25.2571 11 25.2571C7.20304 25.2571 4.125 28.583 4.125 32.6857C4.125 36.7884 7.20304 40.1143 11 40.1143Z" fill="#9B6D3F"/>
<path d="M20.625 35.6571C24.422 35.6571 27.5 32.3312 27.5 28.2286C27.5 24.1259 24.422 20.8 20.625 20.8C16.828 20.8 13.75 24.1259 13.75 28.2286C13.75 32.3312 16.828 35.6571 20.625 35.6571Z" fill="#9B6D3F"/>
<path d="M26.125 38.6286C29.922 38.6286 33 35.3027 33 31.2C33 27.0973 29.922 23.7714 26.125 23.7714C22.328 23.7714 19.25 27.0973 19.25 31.2C19.25 35.3027 22.328 38.6286 26.125 38.6286Z" fill="#9B6D3F"/>
<path d="M17.875 43.0857C21.672 43.0857 24.75 39.7598 24.75 35.6571C24.75 31.5545 21.672 28.2286 17.875 28.2286C14.078 28.2286 11 31.5545 11 35.6571C11 39.7598 14.078 43.0857 17.875 43.0857Z" fill="#9B6D3F"/>
<path d="M28.875 47.5429C32.672 47.5429 35.75 44.217 35.75 40.1143C35.75 36.0116 32.672 32.6857 28.875 32.6857C25.078 32.6857 22 36.0116 22 40.1143C22 44.217 25.078 47.5429 28.875 47.5429Z" fill="#9B6D3F"/>
<path d="M15.125 47.5429C18.922 47.5429 22 44.217 22 40.1143C22 36.0116 18.922 32.6857 15.125 32.6857C11.328 32.6857 8.25 36.0116 8.25 40.1143C8.25 44.217 11.328 47.5429 15.125 47.5429Z" fill="#9B6D3F"/>
<path d="M24.75 52C28.547 52 31.625 48.6741 31.625 44.5715C31.625 40.4688 28.547 37.1429 24.75 37.1429C20.953 37.1429 17.875 40.4688 17.875 44.5715C17.875 48.6741 20.953 52 24.75 52Z" fill="#9B6D3F"/>
<path d="M16.5 50.5143C20.297 50.5143 23.375 47.1884 23.375 43.0857C23.375 38.9831 20.297 35.6572 16.5 35.6572C12.703 35.6572 9.625 38.9831 9.625 43.0857C9.625 47.1884 12.703 50.5143 16.5 50.5143Z" fill="#9B6D3F"/>
<path d="M30.25 49.0286C34.047 49.0286 37.125 45.7027 37.125 41.6C37.125 37.4973 34.047 34.1714 30.25 34.1714C26.453 34.1714 23.375 37.4973 23.375 41.6C23.375 45.7027 26.453 49.0286 30.25 49.0286Z" fill="#9B6D3F"/>
<path d="M33 40.1143C36.797 40.1143 39.875 36.7884 39.875 32.6857C39.875 28.583 36.797 25.2571 33 25.2571C29.203 25.2571 26.125 28.583 26.125 32.6857C26.125 36.7884 29.203 40.1143 33 40.1143Z" fill="#9B6D3F"/>
</svg>
