<svg width="65" height="50" viewBox="0 0 65 50" fill="none" xmlns="http://www.w3.org/2000/svg">
<mask id="path-1-inside-1_3027_49" fill="white">
<path d="M32.8041 49.3255C30.5354 47.687 28.2341 46.0485 25.9492 44.3769C17.5927 38.3359 9.23632 32.2784 0.847239 26.254C0.373925 25.923 0.29232 25.5755 0.373926 25.0789C1.1247 20.9413 1.79386 16.7706 2.65889 12.6495C3.52391 8.56151 5.07442 4.70524 7.04928 1.04757C7.17985 0.799316 7.63684 0.617254 7.94695 0.617254C15.7484 0.600704 23.5663 0.617254 31.3678 0.617254C37.3577 0.617254 43.3312 0.600708 49.3211 0.600708C52.063 0.600708 54.8213 0.617263 57.5633 0.666914C57.8244 0.666914 58.1998 0.915172 58.3304 1.16343C60.9091 5.94653 62.5086 11.0606 63.4879 16.4065C63.9449 18.9387 64.3529 21.4709 64.8425 23.9866C64.9405 24.4997 64.7446 24.6817 64.4345 24.9134C60.6317 27.8429 56.8288 30.7889 53.026 33.7349C46.4159 38.849 39.7895 43.9466 33.1794 49.0607C33.0815 49.1269 32.9836 49.1931 32.8041 49.3255Z"/>
</mask>
<path d="M32.8041 49.3255L31.6332 50.9469L32.8166 51.8015L33.9913 50.935L32.8041 49.3255ZM25.9492 44.3769L27.1302 42.7627L27.121 42.7561L25.9492 44.3769ZM0.847239 26.254L2.01384 24.6295L2.00368 24.6222L1.99342 24.615L0.847239 26.254ZM0.373926 25.0789L-1.59394 24.7218L-1.59691 24.7382L-1.59961 24.7546L0.373926 25.0789ZM2.65889 12.6495L0.702216 12.2355L0.701548 12.2386L2.65889 12.6495ZM7.04928 1.04757L8.80915 1.99776L8.81432 1.98819L8.81938 1.97856L7.04928 1.04757ZM7.94695 0.617254L7.94695 2.61726L7.9512 2.61725L7.94695 0.617254ZM57.5633 0.666914L57.5271 2.66659L57.5452 2.66691H57.5633V0.666914ZM58.3304 1.16343L56.5604 2.09458L56.5652 2.10358L56.57 2.11254L58.3304 1.16343ZM63.4879 16.4065L65.4562 16.0513L65.4552 16.0461L63.4879 16.4065ZM64.8425 23.9866L66.807 23.6114L66.8057 23.6045L64.8425 23.9866ZM64.4345 24.9134L63.2374 23.3112L63.2257 23.32L63.214 23.329L64.4345 24.9134ZM53.026 33.7349L54.2499 35.3167L54.2509 35.316L53.026 33.7349ZM33.1794 49.0607L34.2998 50.7175L34.3527 50.6817L34.4033 50.6425L33.1794 49.0607ZM33.9751 47.7041C31.6906 46.0542 29.4096 44.4304 27.1301 42.7627L24.7684 45.9911C27.0586 47.6666 29.3803 49.3198 31.6332 50.9469L33.9751 47.7041ZM27.121 42.7561C18.7673 36.7171 10.4063 30.6563 2.01384 24.6295L-0.319362 27.8785C8.06632 33.9005 16.4182 39.9547 24.7775 45.9977L27.121 42.7561ZM1.99342 24.615C1.98713 24.6106 2.17174 24.7423 2.28158 25.0437C2.38004 25.3139 2.3324 25.4949 2.34746 25.4032L-1.59961 24.7546C-1.66615 25.1595 -1.71379 25.7626 -1.47661 26.4134C-1.22804 27.0954 -0.765971 27.5664 -0.298943 27.893L1.99342 24.615ZM2.34179 25.436C3.10251 21.2436 3.75849 17.1468 4.61624 13.0604L0.701548 12.2386C-0.170758 16.3944 -0.853107 20.639 -1.59394 24.7218L2.34179 25.436ZM4.61557 13.0635C5.43298 9.20052 6.90484 5.52477 8.80915 1.99776L5.28942 0.0973772C3.24401 3.88571 1.61484 7.9225 0.702219 12.2355L4.61557 13.0635ZM8.81938 1.97856C8.68202 2.23973 8.51505 2.38655 8.43788 2.44728C8.35213 2.51476 8.28548 2.54781 8.25463 2.56176C8.22059 2.57715 8.18911 2.5877 8.15492 2.5958C8.12494 2.60289 8.05472 2.61725 7.94695 2.61725V-1.38275C7.45538 -1.38275 6.98273 -1.253 6.60695 -1.08312C6.28917 -0.939469 5.65321 -0.594557 5.27918 0.11658L8.81938 1.97856ZM7.9512 2.61725C15.7502 2.6007 23.5603 2.61725 31.3678 2.61725V-1.38275C23.5724 -1.38275 15.7467 -1.3993 7.94271 -1.38274L7.9512 2.61725ZM31.3678 2.61725C34.3644 2.61725 37.3566 2.61312 40.3473 2.60898C43.3383 2.60484 46.3278 2.60071 49.3211 2.60071V-1.39929C46.3246 -1.39929 43.3323 -1.39515 40.3417 -1.39102C37.3506 -1.38688 34.3612 -1.38275 31.3678 -1.38275V2.61725ZM49.3211 2.60071C52.0554 2.60071 54.8009 2.61722 57.5271 2.66659L57.5996 -1.33276C54.8417 -1.3827 52.0707 -1.39929 49.3211 -1.39929V2.60071ZM57.5633 2.66691C57.3279 2.66691 57.1613 2.6148 57.0856 2.58703C57.0005 2.55576 56.9417 2.52232 56.9036 2.49752C56.8647 2.47214 56.8203 2.43804 56.7713 2.38864C56.7271 2.344 56.6418 2.24929 56.5604 2.09458L60.1005 0.232284C59.8269 -0.287779 59.4118 -0.642291 59.088 -0.853372C58.7827 -1.05239 58.2384 -1.33309 57.5633 -1.33309V2.66691ZM56.57 2.11254C59.0284 6.67249 60.5702 11.5783 61.5207 16.7669L65.4552 16.0461C64.4471 10.5429 62.7899 5.22057 60.0909 0.214322L56.57 2.11254ZM61.5197 16.7617C61.9666 19.2377 62.3876 21.842 62.8794 24.3687L66.8057 23.6045C66.3183 21.0999 65.9233 18.6397 65.4561 16.0513L61.5197 16.7617ZM62.8781 24.3618C62.8764 24.3529 62.8591 24.2602 62.874 24.1132C62.8904 23.9518 62.9409 23.772 63.0352 23.5989C63.1239 23.436 63.2208 23.3355 63.2624 23.2959C63.2949 23.2649 63.307 23.2593 63.2374 23.3112L65.6317 26.5156C65.7649 26.416 66.2378 26.0816 66.548 25.5121C66.9122 24.8434 66.9122 24.1618 66.807 23.6114L62.8781 24.3618ZM63.214 23.329C59.4087 26.2604 55.6037 29.2081 51.8012 32.1538L54.2509 35.316C58.054 32.3697 61.8548 29.4254 65.6551 26.4978L63.214 23.329ZM51.8022 32.1531C48.4984 34.7091 45.1904 37.2612 41.8811 39.8143C38.5721 42.3671 35.2619 44.9208 31.9556 47.4789L34.4033 50.6425C37.7071 48.0865 41.0151 45.5344 44.3244 42.9813C47.6333 40.4285 50.9436 37.8748 54.2499 35.3167L51.8022 32.1531ZM32.0591 47.4039C31.9501 47.4777 31.8273 47.5608 31.617 47.716L33.9913 50.935C34.14 50.8254 34.213 50.7761 34.2998 50.7175L32.0591 47.4039Z" fill="#7A76E4" mask="url(#path-1-inside-1_3027_49)"/>
</svg>
