<svg width="46" height="133" viewBox="0 0 46 133" fill="none" xmlns="http://www.w3.org/2000/svg">
<path d="M7.14805 110.759C6.51153 111.537 5.92397 112.149 5.46697 112.828C4.42242 114.367 3.27993 115.708 1.27243 115.824C0.946006 115.84 0.407408 115.758 0.325803 115.575C0.195233 115.261 0.244196 114.748 0.44005 114.467C1.14186 113.44 1.95792 112.481 2.69237 111.454C3.1004 110.892 3.54107 110.296 3.81853 109.65C4.86309 107.201 6.9522 105.877 9.04131 104.553C9.98794 103.957 11.1304 103.659 12.0607 103.047C12.6156 102.683 13.1216 102.004 13.3664 101.359C15.1618 96.4099 17.0387 91.4779 17.9037 86.2645C18.4097 83.153 18.8177 80.0249 19.1604 76.8969C19.8949 70.2436 21.119 63.7227 23.763 57.5493C24.9545 54.7688 26.456 52.1207 27.419 49.274C28.692 45.5005 29.6386 41.6277 30.5689 37.7549C31.2871 34.7427 31.8583 31.6974 32.3316 28.6521C32.8213 25.5075 33.0008 22.3298 32.756 19.119C32.299 13.0946 33.7516 7.55018 37.3259 2.63467C37.7829 2.00575 38.3868 1.47614 39.0396 0.764465C39.3334 2.38642 39.5945 3.80976 39.8394 5.23311C41.1451 12.7139 42.4344 20.1948 43.7238 27.6756C44.2134 30.5554 44.7357 33.4187 45.209 36.2984C45.2743 36.7122 45.2254 37.1756 45.0785 37.5728C43.1852 43.0842 41.1614 48.5624 39.3661 54.1234C38.5663 56.6059 38.142 59.2209 37.6687 61.8028C37.1464 64.5998 36.1997 67.2479 34.992 69.7802C32.707 74.5633 31.0749 79.5781 29.2469 84.5432C27.6964 88.7305 26.2275 92.9674 24.7586 97.1878C24.0241 99.3228 23.306 101.458 22.7674 103.659C22.5063 104.685 22.6205 105.827 22.6858 106.92C22.849 109.799 22.5226 112.663 21.8208 115.41C21.0537 118.455 21.0047 121.467 21.2006 124.546C21.2822 125.82 21.1516 127.128 21.0211 128.402C20.9884 128.75 20.5641 129.064 20.3029 129.395C20.0255 129.097 19.5521 128.832 19.4869 128.501C19.2094 126.962 19.0299 125.406 18.8177 123.867C18.6218 122.477 18.4423 121.07 18.2465 119.68C18.1485 119.647 18.0669 119.63 17.969 119.597C17.8384 119.779 17.6426 119.928 17.5936 120.127C17.2019 121.815 16.8592 123.536 16.4511 125.224C15.9452 127.343 15.3902 129.461 14.819 131.563C14.7048 131.977 14.4763 132.391 14.1825 132.689C13.9866 132.887 13.546 132.987 13.2685 132.904C13.0563 132.838 12.7789 132.44 12.7952 132.209C12.9258 130.471 13.1216 128.733 13.3175 126.995C13.5623 124.811 13.8397 122.643 14.0846 120.458C14.1009 120.243 14.0029 120.011 13.954 119.796C13.7255 119.895 13.3664 119.928 13.2848 120.11C12.9421 120.772 12.632 121.484 12.3708 122.196C11.4242 124.844 10.5592 127.508 9.57991 130.123C9.30245 130.835 8.78017 131.481 8.29053 132.093C8.12732 132.308 7.62137 132.54 7.4908 132.457C7.21334 132.275 6.91956 131.861 6.93588 131.547C6.93588 130.769 7.01748 129.958 7.21334 129.213C8.07836 125.936 8.99234 122.692 9.87369 119.432C9.90633 119.299 9.98794 119.15 9.97162 119.035C9.93897 118.836 9.82473 118.654 9.75944 118.455C9.59623 118.538 9.38405 118.571 9.30245 118.703C8.69856 119.581 8.09468 120.441 7.55608 121.368C6.52785 123.139 5.5649 124.927 4.53666 126.697C4.32449 127.062 3.99807 127.376 3.65532 127.657C3.42683 127.839 2.95351 128.055 2.87191 127.972C2.61077 127.724 2.31699 127.293 2.36595 126.979C2.4802 126.102 2.67605 125.208 3.00248 124.38C4.06335 121.815 5.3364 119.316 6.28303 116.717C6.87059 115.129 7.01748 113.358 7.32759 111.67C7.37655 111.438 7.24598 111.223 7.14805 110.759Z" fill="#EAC0AC"/>
</svg>
